<?xml version="1.0" encoding="utf-8"?>
<!-- Generator: Adobe Illustrator 23.0.0, SVG Export Plug-In . SVG Version: 6.00 Build 0)  -->
<svg version="1.1" xmlns="http://www.w3.org/2000/svg" xmlns:xlink="http://www.w3.org/1999/xlink" x="0px" y="0px"
	 viewBox="0 0 750 500" style="enable-background:new 0 0 750 500;" xml:space="preserve">
<style type="text/css">
	.st0{fill:#7E89FD;}
	.st1{fill:none;stroke:#DEE3FC;stroke-width:0.7896;stroke-miterlimit:10;}
	.st2{fill:#DEE3FC;}
	.st3{fill:#A4AFFF;}
	.st4{fill:#FFFFFF;}
	.st5{fill:#3945BA;}
	.st6{fill:none;stroke:#698BD1;stroke-linecap:round;stroke-linejoin:round;stroke-miterlimit:10;stroke-dasharray:2.837;}
	.st7{fill:#4B5A9B;}
	.st8{fill:#7F95F4;}
	.st9{fill:#B2C1F9;}
	.st10{fill:#3052CE;}
	.st11{fill:none;stroke:#495AD6;stroke-width:0.8956;stroke-miterlimit:10;}
	.st12{fill:none;stroke:#495AD6;stroke-width:1.6716;stroke-linecap:round;stroke-linejoin:round;stroke-miterlimit:10;}
	.st13{fill:#F0F4FF;}
	.st14{fill:#3B47BC;}
	.st15{fill:#495AD6;}
	.st16{fill:#281616;}
	.st17{fill:#002C54;}
	.st18{fill:#052635;}
	.st19{fill:#E5918F;}
	.st20{fill:#C7E5F2;}
	.st21{fill:#CC6362;}
	.st22{fill:none;stroke:#FFFFFF;stroke-width:0.501;stroke-miterlimit:10;}
	.st23{opacity:0.5;}
	.st24{fill:#375F84;}
	.st25{fill:#467CDB;}
	.st26{fill:#E49191;}
	.st27{fill:#5996EF;}
	.st28{fill:none;stroke:#FFFFFF;stroke-width:0.8956;stroke-miterlimit:10;}
	.st29{fill:#FFFFFF;stroke:#495AD6;stroke-width:0.8956;stroke-miterlimit:10;}
	.st30{fill:none;stroke:#495AD6;stroke-width:1.6716;stroke-miterlimit:10;}
	.st31{fill:none;stroke:#495AD6;stroke-width:1.6716;stroke-linecap:round;stroke-miterlimit:10;}
	.st32{fill:#193091;}
	.st33{fill:none;stroke:#FFFFFF;stroke-width:0.8956;stroke-linecap:round;stroke-miterlimit:10;}
	.st34{fill:#6589D1;}
	.st35{fill:#3B5FB7;}
	.st36{fill:none;stroke:#FFFFFF;stroke-width:2;stroke-linecap:round;stroke-miterlimit:10;}
	.st37{fill:none;stroke:#DEE3FC;stroke-linecap:round;stroke-miterlimit:10;}
	.st38{fill:#7E89FD;stroke:#DEE3FC;stroke-miterlimit:10;}
	.st39{fill:#B4C1EF;}
	.st40{fill:none;stroke:#FFFFFF;stroke-width:1.1144;stroke-linecap:round;stroke-miterlimit:10;}
</style>
<g id="BACKGROUND">
	<g>
		<g>
			<rect class="st0" width="750" height="500"/>
		</g>
	</g>
</g>
<g id="OBJECTS">
	<g>
		<g>
			<g>
				<path class="st1" d="M269.9,164v-10.2c0-1-0.8-1.8-1.8-1.8h-2.6c-0.8,0-1.5-0.5-1.6-1.3c-0.9-4-2.5-7.7-4.6-11.1
					c-0.4-0.7-0.3-1.5,0.2-2.1l1.9-1.9c0.7-0.7,0.7-1.9,0-2.6l-7.2-7.2c-0.7-0.7-1.9-0.7-2.6,0l-1.9,1.9c-0.6,0.6-1.4,0.6-2.1,0.2
					c-3.4-2.1-7.1-3.7-11.1-4.6c-0.8-0.2-1.3-0.9-1.3-1.6V119c0-1-0.8-1.8-1.8-1.8h-10.2c-1,0-1.8,0.8-1.8,1.8v2.6
					c0,0.8-0.5,1.5-1.3,1.6c-4,0.9-7.7,2.5-11.1,4.6c-0.7,0.4-1.5,0.3-2.1-0.2l-1.9-1.9c-0.7-0.7-1.9-0.7-2.6,0l-7.2,7.2
					c-0.7,0.7-0.7,1.9,0,2.6l1.9,1.9c0.6,0.6,0.6,1.4,0.2,2.1c-2.1,3.4-3.7,7.1-4.6,11.1c-0.2,0.8-0.9,1.3-1.6,1.3h-2.6
					c-1,0-1.8,0.8-1.8,1.8V164c0,1,0.8,1.8,1.8,1.8h2.6c0.8,0,1.5,0.5,1.6,1.3c0.9,4,2.5,7.7,4.6,11.1c0.4,0.7,0.3,1.5-0.2,2.1
					l-1.9,1.9c-0.7,0.7-0.7,1.9,0,2.6l7.2,7.2c0.7,0.7,1.9,0.7,2.6,0l1.9-1.9c0.6-0.6,1.4-0.6,2.1-0.2c3.4,2.1,7.1,3.6,11.1,4.6
					c0.8,0.2,1.3,0.9,1.3,1.6v2.6c0,1,0.8,1.8,1.8,1.8h10.2c1,0,1.8-0.8,1.8-1.8V196c0-0.8,0.5-1.5,1.3-1.6c4-0.9,7.7-2.5,11.1-4.6
					c0.7-0.4,1.5-0.3,2.1,0.2l1.9,1.9c0.7,0.7,1.9,0.7,2.6,0l7.2-7.2c0.7-0.7,0.7-1.9,0-2.6l-1.9-1.9c-0.6-0.6-0.6-1.4-0.2-2.1
					c2.1-3.4,3.7-7.1,4.6-11.1c0.2-0.8,0.9-1.3,1.6-1.3h2.6C269.1,165.8,269.9,165,269.9,164z M228.2,187.7
					c-16,0-28.9-12.9-28.9-28.9c0-15.9,12.9-28.9,28.9-28.9c16,0,28.9,12.9,28.9,28.9C257.1,174.8,244.2,187.7,228.2,187.7z"/>
				<path class="st2" d="M317,198.7v-7c0-0.7-0.6-1.2-1.2-1.2H314c-0.5,0-1-0.4-1.1-0.9c-0.6-2.7-1.7-5.3-3.1-7.6
					c-0.3-0.5-0.2-1,0.2-1.4l1.3-1.3c0.5-0.5,0.5-1.3,0-1.7l-4.9-4.9c-0.5-0.5-1.3-0.5-1.7,0l-1.3,1.3c-0.4,0.4-1,0.4-1.4,0.1
					c-2.3-1.4-4.8-2.5-7.6-3.1c-0.5-0.1-0.9-0.6-0.9-1.1V168c0-0.7-0.6-1.2-1.2-1.2h-7c-0.7,0-1.2,0.6-1.2,1.2v1.8
					c0,0.5-0.4,1-0.9,1.1c-2.7,0.6-5.3,1.7-7.6,3.1c-0.5,0.3-1,0.2-1.4-0.2l-1.3-1.3c-0.5-0.5-1.3-0.5-1.7,0l-4.9,4.9
					c-0.5,0.5-0.5,1.3,0,1.7l1.3,1.3c0.4,0.4,0.4,1,0.2,1.4c-1.4,2.3-2.5,4.8-3.1,7.6c-0.1,0.5-0.6,0.9-1.1,0.9h-1.8
					c-0.7,0-1.2,0.6-1.2,1.2v7c0,0.7,0.6,1.2,1.2,1.2h1.8c0.5,0,1,0.4,1.1,0.9c0.6,2.7,1.7,5.3,3.1,7.6c0.3,0.5,0.2,1-0.2,1.4
					l-1.3,1.3c-0.5,0.5-0.5,1.3,0,1.7l4.9,4.9c0.5,0.5,1.3,0.5,1.7,0l1.3-1.3c0.4-0.4,1-0.4,1.4-0.2c2.3,1.4,4.8,2.5,7.6,3.1
					c0.5,0.1,0.9,0.6,0.9,1.1v1.8c0,0.7,0.6,1.2,1.2,1.2h7c0.7,0,1.2-0.6,1.2-1.2v-1.8c0-0.5,0.4-1,0.9-1.1c2.7-0.6,5.3-1.7,7.5-3.1
					c0.5-0.3,1-0.2,1.4,0.2l1.3,1.3c0.5,0.5,1.3,0.5,1.7,0l4.9-4.9c0.5-0.5,0.5-1.3,0-1.7l-1.3-1.3c-0.4-0.4-0.4-1-0.2-1.4
					c1.4-2.3,2.5-4.8,3.1-7.6c0.1-0.5,0.6-0.9,1.1-0.9h1.8C316.5,199.9,317,199.4,317,198.7z M288.6,213.8
					c-10.3,0-18.6-8.3-18.6-18.6c0-10.2,8.3-18.6,18.6-18.6c10.3,0,18.6,8.3,18.6,18.6C307.2,205.4,298.9,213.8,288.6,213.8z"/>
			</g>
			<g>
				<circle class="st3" cx="185.5" cy="380.2" r="3.4"/>
				<circle class="st3" cx="639.1" cy="287.7" r="3.4"/>
				<circle class="st3" cx="632.3" cy="166.8" r="3.4"/>
				<circle class="st3" cx="510.6" cy="125.7" r="2.1"/>
				<path class="st3" d="M198.7,97.4c0,1.2-1,2.1-2.1,2.1c-1.2,0-2.1-1-2.1-2.1c0-1.2,1-2.1,2.1-2.1
					C197.8,95.3,198.7,96.2,198.7,97.4z"/>
				<path class="st3" d="M245.8,228.2c0,1.2-1,2.1-2.1,2.1c-1.2,0-2.1-1-2.1-2.1c0-1.2,1-2.1,2.1-2.1
					C244.8,226.1,245.8,227,245.8,228.2z"/>
				<path class="st3" d="M167.8,383.6c0,1.2-1,2.1-2.1,2.1c-1.2,0-2.1-1-2.1-2.1c0-1.2,1-2.1,2.1-2.1
					C166.9,381.5,167.8,382.4,167.8,383.6z"/>
				<circle class="st3" cx="589.5" cy="382.2" r="3.4"/>
				<circle class="st3" cx="661.5" cy="382.2" r="3.4"/>
				<circle class="st3" cx="257.1" cy="88.2" r="3.4"/>
				<path class="st3" d="M490.8,242.2c0,2.5-2,4.5-4.5,4.5s-4.5-2-4.5-4.5s2-4.5,4.5-4.5S490.8,239.7,490.8,242.2z"/>
				<path class="st3" d="M156.6,186.2c0,2.5-2,4.5-4.5,4.5c-2.5,0-4.5-2-4.5-4.5s2-4.5,4.5-4.5C154.6,181.7,156.6,183.7,156.6,186.2
					z"/>
			</g>
			<g>
				<path class="st4" d="M143.8,118.6h-5.7c-0.4,0-0.7-0.3-0.7-0.7v-5.7c0-0.4,0.3-0.7,0.7-0.7h5.7c0.4,0,0.7,0.3,0.7,0.7v5.7
					C144.5,118.3,144.2,118.6,143.8,118.6z"/>
				<path class="st4" d="M153.2,118.6h-5.7c-0.4,0-0.7-0.3-0.7-0.7v-5.7c0-0.4,0.3-0.7,0.7-0.7h5.7c0.4,0,0.7,0.3,0.7,0.7v5.7
					C153.9,118.3,153.6,118.6,153.2,118.6z"/>
				<path class="st4" d="M162.6,118.6h-5.7c-0.4,0-0.7-0.3-0.7-0.7v-5.7c0-0.4,0.3-0.7,0.7-0.7h5.7c0.4,0,0.7,0.3,0.7,0.7v5.7
					C163.3,118.3,163,118.6,162.6,118.6z"/>
			</g>
			<g>
				<g>
					<path class="st2" d="M622.4,365.3h-5.7c-0.4,0-0.7-0.3-0.7-0.7V359c0-0.4,0.3-0.7,0.7-0.7h5.7c0.4,0,0.7,0.3,0.7,0.7v5.7
						C623.1,365,622.8,365.3,622.4,365.3z"/>
					<path class="st2" d="M631.8,365.3h-5.7c-0.4,0-0.7-0.3-0.7-0.7V359c0-0.4,0.3-0.7,0.7-0.7h5.7c0.4,0,0.7,0.3,0.7,0.7v5.7
						C632.5,365,632.2,365.3,631.8,365.3z"/>
					<path class="st2" d="M641.2,365.3h-5.7c-0.4,0-0.7-0.3-0.7-0.7V359c0-0.4,0.3-0.7,0.7-0.7h5.7c0.4,0,0.7,0.3,0.7,0.7v5.7
						C641.9,365,641.6,365.3,641.2,365.3z"/>
				</g>
			</g>
			<g>
				<g>
					<path class="st2" d="M187.9,361.5h-5.7c-0.4,0-0.7-0.3-0.7-0.7v-5.7c0-0.4,0.3-0.7,0.7-0.7h5.7c0.4,0,0.7,0.3,0.7,0.7v5.7
						C188.6,361.2,188.3,361.5,187.9,361.5z"/>
					<path class="st2" d="M197.3,361.5h-5.7c-0.4,0-0.7-0.3-0.7-0.7v-5.7c0-0.4,0.3-0.7,0.7-0.7h5.7c0.4,0,0.7,0.3,0.7,0.7v5.7
						C198,361.2,197.7,361.5,197.3,361.5z"/>
					<path class="st2" d="M206.7,361.5H201c-0.4,0-0.7-0.3-0.7-0.7v-5.7c0-0.4,0.3-0.7,0.7-0.7h5.7c0.4,0,0.7,0.3,0.7,0.7v5.7
						C207.4,361.2,207.1,361.5,206.7,361.5z"/>
				</g>
			</g>
		</g>
		<g>
			<g>
				<path class="st5" d="M442.7,421.8H307.3c-11.8,0-21.3-9.6-21.3-21.3V99.3c0-11.8,9.6-21.3,21.3-21.3h135.3
					c11.8,0,21.3,9.6,21.3,21.3v301.2C464,412.3,454.4,421.8,442.7,421.8z"/>
				<path class="st4" d="M442,417H308c-10.3,0-18.7-8.4-18.7-18.7V99.7c0-10.3,8.4-18.7,18.7-18.7H442c10.3,0,18.7,8.4,18.7,18.7
					v298.6C460.7,408.6,452.3,417,442,417z"/>
				<path class="st2" d="M453.2,99.1v298.2c0,7-5.7,12.7-12.7,12.7h-131c-7,0-12.7-5.7-12.7-12.7V99.1c0-7,5.7-12.7,12.7-12.7h21.8
					c1.2,0,2.3,0.7,2.9,1.8l2.3,4.6c1.1,2.1,3.2,3.5,5.6,3.5h65.7c2.4,0,4.6-1.3,5.6-3.5l2.3-4.6c0.5-1.1,1.7-1.8,2.9-1.8h21.8
					C447.5,86.4,453.2,92.1,453.2,99.1z"/>
				<path class="st2" d="M402.6,90.9h-52.9c-1.2,0-2.2-1-2.2-2.2l0,0c0-1.2,1-2.2,2.2-2.2h52.9c1.2,0,2.2,1,2.2,2.2l0,0
					C404.8,89.9,403.8,90.9,402.6,90.9z"/>
			</g>
			<path class="st6" d="M432.4,399.6H314.6c-4.6,0-8.4-3.8-8.4-8.4v-41.6c0-4.6,3.8-8.4,8.4-8.4h117.8c4.6,0,8.4,3.8,8.4,8.4v41.6
				C440.8,395.9,437,399.6,432.4,399.6z"/>
			<path class="st6" d="M426.4,256.5H368c-3.3,0-6-2.7-6-6v-28.9c0-3.3,2.7-6,6-6h58.4c3.3,0,6,2.7,6,6v28.9
				C432.4,253.8,429.7,256.5,426.4,256.5z"/>
			<g>
				<path class="st7" d="M439,331.6H318.3c-4,0-7.2-3.2-7.2-7.2v-50.9c0-4,3.2-7.2,7.2-7.2H439c4,0,7.2,3.2,7.2,7.2v50.9
					C446.2,328.4,443,331.6,439,331.6z"/>
				<path class="st8" d="M440.8,268.2v50.9c0,4-3.2,7.2-7.2,7.2H313.4c-4,0-7.2-3.2-7.2-7.2v-50.9c0-4,3.2-7.2,7.2-7.2h120.2
					C437.5,261,440.8,264.2,440.8,268.2z"/>
				<path class="st4" d="M352.7,321h-35.4c-2.7,0-4.9-2.2-4.9-4.9v-35.4c0-2.7,2.2-4.9,4.9-4.9h35.4c2.7,0,4.9,2.2,4.9,4.9v35.4
					C357.5,318.8,355.4,321,352.7,321z"/>
				<g>
					<path class="st9" d="M394.6,281.6h-31.2c-0.8,0-1.5-0.7-1.5-1.5l0,0c0-0.8,0.7-1.5,1.5-1.5h31.2c0.8,0,1.5,0.7,1.5,1.5l0,0
						C396.2,280.9,395.5,281.6,394.6,281.6z"/>
					<path class="st9" d="M380.4,287.7h-17c-0.8,0-1.5-0.7-1.5-1.5l0,0c0-0.8,0.7-1.5,1.5-1.5h17c0.8,0,1.5,0.7,1.5,1.5l0,0
						C382,287,381.3,287.7,380.4,287.7z"/>
					<path class="st9" d="M432.6,287.7h-45.9c-0.8,0-1.5-0.7-1.5-1.5l0,0c0-0.8,0.7-1.5,1.5-1.5h45.9c0.8,0,1.5,0.7,1.5,1.5l0,0
						C434.1,287,433.4,287.7,432.6,287.7z"/>
					<path class="st9" d="M389.7,293.8h-26.3c-0.8,0-1.5-0.7-1.5-1.5l0,0c0-0.8,0.7-1.5,1.5-1.5h26.3c0.8,0,1.5,0.7,1.5,1.5l0,0
						C391.3,293.1,390.6,293.8,389.7,293.8z"/>
					<path class="st9" d="M412,293.8h-16.5c-0.8,0-1.5-0.7-1.5-1.5l0,0c0-0.8,0.7-1.5,1.5-1.5H412c0.8,0,1.5,0.7,1.5,1.5l0,0
						C413.5,293.1,412.9,293.8,412,293.8z"/>
					<path class="st9" d="M432.6,293.8h-15.2c-0.8,0-1.5-0.7-1.5-1.5l0,0c0-0.8,0.7-1.5,1.5-1.5h15.2c0.8,0,1.5,0.7,1.5,1.5l0,0
						C434.1,293.1,433.4,293.8,432.6,293.8z"/>
					<path class="st9" d="M432.6,300h-69.1c-0.8,0-1.5-0.7-1.5-1.5l0,0c0-0.8,0.7-1.5,1.5-1.5h69.1c0.8,0,1.5,0.7,1.5,1.5l0,0
						C434.1,299.3,433.4,300,432.6,300z"/>
					<path class="st9" d="M401.5,306.1h-38.1c-0.8,0-1.5-0.7-1.5-1.5l0,0c0-0.8,0.7-1.5,1.5-1.5h38.1c0.8,0,1.5,0.7,1.5,1.5l0,0
						C403,305.4,402.4,306.1,401.5,306.1z"/>
					<path class="st9" d="M432.6,306.1h-25c-0.8,0-1.5-0.7-1.5-1.5l0,0c0-0.8,0.7-1.5,1.5-1.5h25c0.8,0,1.5,0.7,1.5,1.5l0,0
						C434.1,305.4,433.4,306.1,432.6,306.1z"/>
					<path class="st9" d="M385.8,312.2h-22.4c-0.8,0-1.5-0.7-1.5-1.5l0,0c0-0.8,0.7-1.5,1.5-1.5h22.4c0.8,0,1.5,0.7,1.5,1.5l0,0
						C387.4,311.5,386.7,312.2,385.8,312.2z"/>
					<path class="st9" d="M414.2,312.2h-22.4c-0.8,0-1.5-0.7-1.5-1.5l0,0c0-0.8,0.7-1.5,1.5-1.5h22.4c0.8,0,1.5,0.7,1.5,1.5l0,0
						C415.8,311.5,415.1,312.2,414.2,312.2z"/>
					<path class="st9" d="M432.6,312.2h-13c-0.8,0-1.5-0.7-1.5-1.5l0,0c0-0.8,0.7-1.5,1.5-1.5h13c0.8,0,1.5,0.7,1.5,1.5l0,0
						C434.1,311.5,433.4,312.2,432.6,312.2z"/>
					<path class="st9" d="M394.6,318.4h-31.2c-0.8,0-1.5-0.7-1.5-1.5l0,0c0-0.8,0.7-1.5,1.5-1.5h31.2c0.8,0,1.5,0.7,1.5,1.5l0,0
						C396.2,317.7,395.5,318.4,394.6,318.4z"/>
					<path class="st9" d="M432.6,281.6h-31.2c-0.8,0-1.5-0.7-1.5-1.5l0,0c0-0.8,0.7-1.5,1.5-1.5h31.2c0.8,0,1.5,0.7,1.5,1.5l0,0
						C434.1,280.9,433.4,281.6,432.6,281.6z"/>
				</g>
				<g>
					<path class="st10" d="M440.8,268.2v2.1H306.2v-2.1c0-4,3.2-7.2,7.2-7.2h120.2C437.5,261,440.8,264.2,440.8,268.2z"/>
					<g>
						<path class="st2" d="M415.4,265.8c0,0.9-0.7,1.7-1.7,1.7s-1.7-0.7-1.7-1.7c0-0.9,0.7-1.7,1.7-1.7S415.4,264.9,415.4,265.8z"/>
						<path class="st2" d="M423.9,265.8c0,0.9-0.7,1.7-1.7,1.7s-1.7-0.7-1.7-1.7c0-0.9,0.7-1.7,1.7-1.7S423.9,264.9,423.9,265.8z"/>
						<path class="st2" d="M432.4,265.8c0,0.9-0.7,1.7-1.7,1.7c-0.9,0-1.7-0.7-1.7-1.7c0-0.9,0.7-1.7,1.7-1.7
							C431.7,264.2,432.4,264.9,432.4,265.8z"/>
					</g>
				</g>
			</g>
			<g>
				<path class="st11" d="M347.9,256.5h-26.6c-3.9,0-7.2-3.2-7.2-7.2v-26.6c0-3.9,3.2-7.2,7.2-7.2h26.6c3.9,0,7.2,3.2,7.2,7.2v26.6
					C355,253.3,351.8,256.5,347.9,256.5z"/>
				<g>
					<polyline class="st12" points="328.2,230.1 322.3,236 328.2,241.9 					"/>
					<polyline class="st12" points="340.9,230.1 346.8,236 340.9,241.9 					"/>
					<line class="st12" x1="337.3" y1="230.1" x2="331.8" y2="241.9"/>
				</g>
			</g>
			<g>
				<path class="st9" d="M440.8,115.6v83.3c0,4.5-3.7,8.2-8.2,8.2H314.4c-4.5,0-8.2-3.7-8.2-8.2v-83.3c0-4.5,3.7-8.2,8.2-8.2h118.2
					C437.1,107.4,440.8,111.1,440.8,115.6z"/>
				<circle class="st13" cx="413.5" cy="133.8" r="19.5"/>
				<path class="st4" d="M385.3,207.1h-70.9c-4.5,0-8.2-3.7-8.2-8.2v-13.1l31-53.8c1.6-2.8,5.7-2.8,7.3,0l23.4,40.6l17.4,30.1
					C386.2,204.2,386.1,205.8,385.3,207.1z"/>
				<path class="st13" d="M415.9,207.1h-67.8l19.9-34.5l10.7-18.6c1.5-2.5,5.1-2.5,6.6,0L415.9,207.1z"/>
			</g>
		</g>
		<g>
			<g>
				<rect x="498.1" y="361.8" class="st14" width="52.3" height="78.6"/>
				
					<rect x="550.4" y="361.8" transform="matrix(-1 -1.224647e-16 1.224647e-16 -1 1120.7537 802.1635)" class="st15" width="20" height="78.6"/>
				<g>
					<rect x="553.2" y="364.8" class="st9" width="14.7" height="2.5"/>
					<rect x="553.2" y="370.2" class="st9" width="14.7" height="2.5"/>
					<rect x="553.2" y="375.6" class="st9" width="14.7" height="2.5"/>
					<rect x="553.2" y="381" class="st9" width="14.7" height="2.5"/>
					<rect x="553.2" y="386.4" class="st9" width="14.7" height="2.5"/>
					<rect x="553.2" y="391.7" class="st9" width="14.7" height="2.5"/>
					<rect x="553.2" y="397.1" class="st9" width="14.7" height="2.5"/>
					<rect x="553.2" y="402.5" class="st9" width="14.7" height="2.5"/>
					<rect x="553.2" y="407.9" class="st9" width="14.7" height="2.5"/>
					<rect x="553.2" y="413.3" class="st9" width="14.7" height="2.5"/>
					<rect x="553.2" y="418.7" class="st9" width="14.7" height="2.5"/>
					<rect x="553.2" y="424.1" class="st9" width="14.7" height="2.5"/>
					<rect x="553.2" y="429.5" class="st9" width="14.7" height="2.5"/>
					<rect x="553.2" y="434.8" class="st9" width="14.7" height="2.5"/>
				</g>
			</g>
			<g>
				<path class="st16" d="M489.6,440.4h26.6c0,0,1.5-4.7-1.7-10.6c0,0-2.1,1.7-8.5,0.6c0,0-2.7,2.3-4.5,3.2
					C499.5,434.4,488.9,436.5,489.6,440.4z"/>
				<path class="st17" d="M491.5,365.4c1.7,10.2,9.6,44.9,13,65.3c6.2,0.5,9.2-0.2,10.8-0.5c-0.3-7.1-0.9-24.2-0.9-31.7
					c0.1-12.7,0.7-29.3-4.9-38.5l-18.7,1.5c0.1,1,0.2,1.8,0.3,2.4C491.2,364.5,491.4,365,491.5,365.4z"/>
				<path class="st16" d="M441.5,440.4h26.6c0,0,1.5-4.7-1.7-10.6c0,0-2.1,1.7-8.5,0.6c0,0-2.7,2.3-4.5,3.2
					C451.5,434.4,440.8,436.5,441.5,440.4z"/>
				<path class="st18" d="M457.1,430.2c5.1,1.3,8.8,1.1,10.5,0.9c1.4-8.2,3.6-26.3,5.7-34.8c3.1-13.2,6.2-31.3,4-37.8l-18.4-4.6
					C458.8,354.5,457.3,410,457.1,430.2z"/>
				<path class="st18" d="M530.4,335L530.4,335c-0.4-3.6-0.8-6.3-0.8-6.3l-20.6,5l-17.5,4c-6.5,1.4-14.3,3.2-21.2,4.7
					c-7.7,1.8-12.9,7.6-11.2,15.4l1.9,9.4c10.8-0.1,61.8-5,66.1-7.2C532.1,357.6,533.6,348.8,530.4,335z"/>
				<path class="st17" d="M561.1,335L561.1,335c-0.4-3.6-2.1-7.5-2.1-7.5l-19.2,6.3l-17.5,4c-6.5,1.4-14.3,3.2-21.2,4.7
					c-7.7,1.8-12.9,7.6-11.2,15.4l1.9,9.4c10.8-0.1,56.1-1.7,66.1-7.2C562.7,357.4,564.3,348.8,561.1,335z"/>
				<g>
					<path class="st19" d="M503.5,305.5c0,0,9.1-4.1,11.7,0c1.4,2.3,0.4,6.5-2.7,8.2c-3.1,1.8-20.7,9.2-37.4,13.4
						c0,0-0.7-2.3-1.9-4.7c0,0,7.5-3.1,14.9-8.3C495.5,308.9,503.5,305.5,503.5,305.5L503.5,305.5z"/>
				</g>
				<path class="st19" d="M505.8,277l-7.8,31.3c0,0,0.8,7.9,8.8,4c8-3.9,13.3-28.8,13.3-28.8L505.8,277z"/>
				<path class="st4" d="M519,294.5c-1-0.2-1.9-0.5-2.8-0.8c-0.9-0.3-1.8-0.5-2.6-0.8c-7.4-2.6-11.5-5.6-11.5-5.6
					c2.3-10.2,5.2-17,7.7-21.5c0.1-0.1,0.1-0.2,0.2-0.3c0.1-0.1,0.1-0.2,0.2-0.3c1.3-2.2,3.3-4.1,5.4-5.7c0.2-0.2,0.4-0.3,0.7-0.5
					l0.9,16.3l0.2,1.7L519,294.5z"/>
				<path class="st20" d="M519,294.5c-1-0.2-1.9-0.5-2.8-0.8c-0.9-0.3-1.8-0.5-2.6-0.8c1.6-11,3-17.9,3-17.9l0.8,2L519,294.5z"/>
				<path class="st4" d="M565.3,266.2c-0.2,4.8-1,12.6-1.8,20.4c-0.2,2.5-0.5,5-0.6,7.4c-0.1,1.5-2.4,9.5-2.5,10.9
					c-0.4,6.8-3.7,11.9-0.6,22.3c0.8,2.5,0.9,3.8,0.9,4.8c0,0.7-0.9,1.5-1.3,1.7c-1.3,0.8-3.9,1.3-7.1,1.7h0
					c-6.2,0.8-14.6,0.9-19.7,0.9c-6.8,0-17-1.1-18.3-2.8c-1.2-1.6-0.1-3.9,0.5-7c2.5-14.2,1.6-21.7,1.5-31.9c0-0.3,0-0.5,0-0.8
					c-0.3-15.8-1.3-29.4-0.6-34.3c0.2-0.2,0.4-0.3,0.7-0.5c1.1-0.7,2.1-1.4,3.2-2c0.1,0,0.2-0.1,0.3-0.2c0.3-0.2,0.6-0.3,0.9-0.5
					c0.1-0.1,0.2-0.1,0.4-0.2c2.3-1.1,5.7-2.3,7.6-3c0.2-0.1,0.5-0.2,0.7-0.2c1.8-0.1,3.8-0.1,5.9-0.1c1.8,0.1,4.7,0.3,7.8,0.7
					c0,0,0,0,0,0c3.5,0.4,7.3,1.1,10.3,1.9c0,0,0,0,0.1,0c0.6,0.2,4.3,1.6,8.1,5.7C562.8,262.5,564.1,264.2,565.3,266.2z"/>
				<path class="st20" d="M559.8,327.2c0.8,2.5,0.9,3.8,0.9,4.8c0,0.7-0.9,1.5-1.3,1.7c-1.3,0.8-3.9,1.3-7.1,1.7
					c1.3-0.2,3.6-2.2,3.6-4.1c0-1.3-1.7-10.1-1.2-15.8c0.5-5.7,1.4-14.7-0.4-22c-1.8-7.2-3.4-16.8-3.4-16.8l9.9,6c0,0,1.3,1.8,2.7,4
					c-0.2,2.5-0.5,5-0.6,7.4C562.7,295.5,556.6,316.8,559.8,327.2z"/>
				<g>
					<path class="st17" d="M516.1,224.4c0,0,0.9,10.4,4.3,11.1c3.4,0.7,2.6-3.7,2.6-3.7l-0.5-4.9L516.1,224.4z"/>
					<path class="st19" d="M532,262c-6.7-0.8-4.2-7.4-3.3-8.9c0.2-0.1,1.4-0.4,1.5-0.5c0,0,0,0,0,0c0.2-0.2,0.4-0.4,0.5-0.8
						c0.7-1.7,0.4-5.2,0.3-5.4c0,0,0,0,0,0v-0.6c0.1-0.4,0.2-0.8,0.3-1.2l3.5-2.8l7.5-5.9c0,0-2,9.9-0.4,16.1c0.1,0.5,0.4,1.1,1,1.5
						c0,0,0,0,0,0c0.2,0.1,0.4,0.2,0.7,0.3C545.6,254.7,543.1,263.3,532,262z"/>
					<path class="st21" d="M538,242.2c0,0-0.1,6.6-7.2,9.6c0.7-1.7,0.4-5.2,0.3-5.4l3-2.3L538,242.2z"/>
					<path class="st19" d="M517.8,225.8c0,0,1.6,21.5,7.4,23.4c0,0,7.4,0.7,12.7-6.5c1.5-2.1,3.5-2.5,4.1-5c1-4,2.5-11.5,0.6-16
						C540,215.3,518,210.2,517.8,225.8z"/>
					<path class="st17" d="M542.7,218.2c-0.1-3.9-4.1-5.4-4.1-5.4c-3.9-1.8-12.1-1-20.6,0.8c-2,0.4-4.5-0.8-5.9,0.2
						c-1.7,1.2,0,6.5,0,6.5c3.3,9.9,15.3,6.7,18.9,5.4c0.9,2.5,0.7,6.1,2.9,7.9c1.2,1,3.3,1.1,5.5,0.7c0.3,0.5,1.3,0.9,1.5,1.6
						c0.7,2.3,0.6,5.9,0.6,8.7l1-0.5C542.6,243.4,553.1,218.5,542.7,218.2z"/>
					<g>
						<path class="st22" d="M523.7,233.1c0.3,1.8-0.6,3.4-2,3.7c-1.4,0.2-2.8-1-3.1-2.8c-0.3-1.8,0.6-3.4,2-3.7
							C522.1,230,523.4,231.3,523.7,233.1z"/>
						<path class="st22" d="M530.8,231.8c0.3,1.8-0.6,3.4-2,3.7c-1.4,0.2-2.8-1-3.1-2.8c-0.3-1.8,0.6-3.4,2-3.7
							C529.1,228.7,530.5,230,530.8,231.8z"/>
						<path class="st22" d="M523.7,233.1c0,0,0.3-0.5,1.9-0.4"/>
						<line class="st22" x1="530.8" y1="232.2" x2="536.8" y2="231.2"/>
					</g>
					<g>
						<path class="st19" d="M537.3,238.9c4.1,1.6,5.4-8.6,1.5-9.1c-3-0.3-3.1,3.8-3.1,3.8S534.9,238,537.3,238.9z"/>
					</g>
					<g class="st23">
						<g>
							<path class="st21" d="M538.7,231.4c0,0-0.3,0.3-0.5,0.7c-0.2,0.5-0.5,1.1-0.5,1.7c0,0.3,0,0.7,0,1c0,0.3,0,0.6,0.1,0.9
								c0,0.3,0.1,0.5,0.1,0.7c0,0.2,0,0.3,0,0.3s-0.1-0.1-0.1-0.2c-0.1-0.1-0.2-0.3-0.3-0.6c-0.1-0.3-0.2-0.6-0.3-0.9
								c-0.1-0.4-0.1-0.7-0.1-1.1c0-0.4,0.1-0.8,0.3-1.1c0.2-0.3,0.4-0.6,0.6-0.8C538.3,231.4,538.7,231.4,538.7,231.4z"/>
						</g>
						<g>
							<path class="st21" d="M539.3,233.3c0,0-0.2,0-0.4,0.1c-0.2,0.1-0.5,0.2-0.7,0.5c-0.2,0.2-0.4,0.5-0.4,0.7
								c-0.1,0.2-0.1,0.4-0.1,0.4l-0.7-0.2c0,0,0.1-0.2,0.2-0.4c0.2-0.2,0.4-0.5,0.8-0.7c0.3-0.2,0.7-0.3,0.9-0.3
								C539.1,233.3,539.3,233.3,539.3,233.3z"/>
						</g>
					</g>
				</g>
				<path class="st19" d="M577.1,309.7C577.1,309.7,577.1,309.7,577.1,309.7c-1.8,2.1-8.7,3.7-12,0.7c-1-0.9-2.2-3.4-3.4-6.4
					c-2.9-7.8-5.7-19.4-5.7-19.4l15.4-7.9c0,0,2,8.9,3.7,17.4c0,0,0,0.1,0,0.2c0.6,2.7,1.1,5.4,1.5,7.7c0,0.1,0,0.1,0,0.2
					C577,304.9,577.3,307.7,577.1,309.7z"/>
				<path class="st4" d="M550.1,273.8c1.5,6.2,6.2,18,6.2,18c3.3,0.5,7.7-0.1,11.3-1.4c4.2-1.5,7.2-4.7,7.2-4.7s-3.1-8.7-5.9-15
					c-2.5-5.6-4-7.7-5.1-8.9c-1.6-1.7-4.3-3.7-6.1-4.6L550.1,273.8z"/>
				<path class="st4" d="M569.6,277.8l-9.1-3.9l-7.1-18.4c0,0,1.3,0.4,3,1.1c0,0,0,0,0,0c0,0,0.1,0,0.2,0.1c0,0,0.1,0,0.1,0.1
					c1.5,0.7,7.5,4.2,11.6,17c0,0.1,0.1,0.2,0.1,0.3c0.4,1.5,0.8,2.7,0.9,3.3c0,0.1,0,0.1,0,0.2
					C569.6,277.6,569.6,277.7,569.6,277.8z"/>
				<g>
					<path class="st19" d="M577.1,309.7C577.1,309.7,577.1,309.7,577.1,309.7c-0.1,1.1-0.4,2-1,2.2c-0.1,0.1-1.4,0.8-1.4,0.9
						c-1.9,1.2-5.3,3.1-9.6,5c-10.3,4.5-25.3,9.6-33.4,12c0,0-0.8-2.3-2-4.7c0,0,7.3-3.4,14.5-8.9c7.2-5.5,17.6-12.2,17.6-12.2
						l2.6-3.1c0,0,9.3-8.6,10.8-6.8c0,0,0,0.1,0,0.2c0.2,0.9,1,4.2,1.5,7.7c0,0.1,0,0.1,0,0.2C577,304.9,577.3,307.7,577.1,309.7z"
						/>
					<path class="st19" d="M530.6,324.5c0,0-1.8,1.1-3.7,0.7c-1-0.2-1.4-0.6-2.2-0.8c-0.8-0.1-2.8-0.4-3.8-0.9
						c-1-0.5-1.4-0.5-1.4,0.5c0,1,2,1.9,2.5,2.1c0.5,0.3,1.2,1.2,1.3,1.3c0.1,0.1-3.3,1.9-4.2,1.5c0,0-0.3,0.8-0.1,1.3
						c0.2,0.5,0.8,0.6,0.9,0.8c0.1,0.2-0.2,0.7,0,1.1c0.1,0.4,0.8,0.4,1,0.9c0.2,0.6,0,0.6,0.2,1.2c0.2,0.6,1,0.7,1.1,1
						c0.1,0.3,0.1,0.7,0.4,0.9c0.3,0.2,3.3-0.8,4.5-1.2c1.1-0.5,4-4.7,7.3-6.2L530.6,324.5z"/>
				</g>
				<path class="st24" d="M546.1,343.5h-23.5v-2.3h23.5c0.6,0,1.1,0.5,1.1,1.1l0,0C547.2,343,546.7,343.5,546.1,343.5z"/>
				<path class="st24" d="M533.4,343.5h-58.8c-0.7,0-1.3-0.5-1.5-1.1L461,299c-0.3-1,0.5-1.9,1.5-1.9h56.9c1.3,0,2.5,0.9,2.8,2.2
					l12,43.2C534.3,343,533.9,343.5,533.4,343.5z"/>
				<path class="st25" d="M531.2,343.5h-58.8c-0.7,0-1.3-0.5-1.5-1.1l-12-43.3c-0.3-1,0.5-1.9,1.5-1.9h56.9c1.3,0,2.5,0.9,2.8,2.2
					l12,43.2C532.2,343,531.8,343.5,531.2,343.5z"/>
			</g>
		</g>
		<g>
			<path class="st26" d="M298.1,315.5l6.8-7c0,0,0.2-3.1,0.6-3.8c0.4-0.7,1.3-3.1,1.8-3.4c0.5-0.3,1.4,0,1.4,0s0.9-0.3,1.4-0.3
				c0.4,0,1.2,0.4,1.2,0.4s1-0.1,1.4-0.1c0.4,0,0.6,0.1,0.6,0.1s1.6-1.9,2.4-2.5c0.8-0.6,2-1.8,2.4-1.8c0.3,0,0.5,0.6,0.2,1.2
				c-0.2,0.6-1.3,1.7-1.3,1.7l-3.1,4.7c0,0,0.5-0.2,0.8-0.4c0.3-0.2,2.2-1.9,2.3-2c0.1-0.1,1-0.6,1.5-0.1s-3.3,5.1-3.9,5.7
				c-0.6,0.6-4,2.3-4,2.3s-3.6,6.5-4,7C306.3,317.7,298.1,315.5,298.1,315.5z"/>
			<path class="st26" d="M304.5,283.2c0,0-3.8,22.1-7.4,22.6c0,0-14.3,0.6-17.5-16.8c-2.8-15,8.3-18.3,13.5-17.1
				C298.3,273,305.6,273.8,304.5,283.2z"/>
			<path class="st26" d="M291.8,302.3c0,0-2,2.7-2.7,9.2c0,0-6,0.9-11.5-2c0,0,3-9.2,3.3-19.2"/>
			<path class="st17" d="M287.8,268.2c-7.8,1.7-7.2,6.6-7.2,6.6c-3.7,0.9-4.4,2.4-4.4,9.2c0,6.8,2.5,14.9,3.8,15.5
				c1.3,0.7,9,0.7,9.6,0.5c0.6-0.2,3.3-6.4,2.7-7.5c-0.6-1.1,0-5.4,1.8-5.5c1.8-0.2,1.4,2.6,1.4,2.6l1.5-0.3l1.1-2.8
				c10.3,0.6,13-11.2,13-11.2C308.7,273.6,295.6,266.5,287.8,268.2z"/>
			<path class="st19" d="M201,417.5l7.9,1.1l-2.6,9.2l-8.6-2.2c0,0-3.5-4.7,1.8-8.2C199.8,417.3,200.6,417.4,201,417.5z"/>
			<path d="M260,393.8l-11.7-35.3c0,0-3.5-1.3-5.3,0c0,0-12.1,6.5-10.8,25.1c1,14,3.9,29.2,5.1,35.3l-31.1-1.1c0,0-3.8,4.6-1.4,10.5
				c0,0,39.1,10.5,44.6,11.5c4.5,0.8,9.4,1.4,11.7-0.6C265.3,435.6,260,393.8,260,393.8z"/>
			<path class="st19" d="M237.8,417.5l7.9,1.1l-2.6,9.2l-8.6-2.2c0,0-3.5-4.7,1.8-8.2C236.6,417.3,237.4,417.4,237.8,417.5z"/>
			<path class="st25" d="M235,422.3c-0.2,1.8,1.4,3.5,1.1,3.9c-0.3,0.5-5.6,9.4-5.6,9.4s4,1.7,3.4,4.3h-10.2c0,0-2.7-2.4-2.6-5.8
				c0,0,0.7-3.9,2.5-7.4c1.8-3.5,5.9-11.4,5.9-11.4s1.2-0.5,3.4,0.1c2.5,0.7,4.9,2.2,4.9,2.2S235.4,417.8,235,422.3z"/>
			<path class="st17" d="M316.3,431.8c-2.5-9.4-26.1-49.3-34.1-60.1c-16.4-7.1-33.9-13.2-33.9-13.2c-7.2,1.7-10.8,16.3-6.7,26
				c2.8,6.7,20.7,23.4,31.6,33.3l-30.3,0c0,0-3.6,5.3-0.3,10.4c0,0,50.4,11.5,54.8,12.1c4.4,0.6,14.3,0,14.3,0
				S318.4,439.6,316.3,431.8z"/>
			<path class="st25" d="M198.2,422.3c-0.2,1.8,1.4,3.5,1.1,3.9c-0.3,0.5-5.6,9.4-5.6,9.4s4,1.7,3.4,4.3h-10.2c0,0-2.7-2.4-2.6-5.8
				c0,0,0.7-3.9,2.5-7.4c1.8-3.5,5.9-11.4,5.9-11.4s1.2-0.5,3.4,0.1c2.5,0.7,4.9,2.2,4.9,2.2S198.6,417.8,198.2,422.3z"/>
			<path class="st26" d="M354.3,308.7L338,337.3l-11.6-11.6l-9.6,14.3l2.8,1.3l-1,0.8c0,0,22.5,10.9,25.2,8.5
				c2.7-2.4,15.2-38.8,15.2-38.8L354.3,308.7z"/>
			<path class="st25" d="M328.5,327.5c0,0-3.1,13-9.2,19.1l-15.7-6c0,0-7.3,12.3-14.4,21.7c-2.7,3.6-3.6,8.7-6.9,9.4
				c-0.2-0.1-0.4-0.1-0.6-0.2c-8.7-2.6-21.6,0.2-32.2-3.8c-11.7-4.4-9.5-6.8-9.5-6.8s7.1-12.8,11.2-26.4c1.8-6,3.1-11.6,3.9-15.9
				c1.5-7.7,7.7-13.7,15.4-14.8c0.1,0,0.2,0,0.3,0c8.9-1.1,32.2,1.6,36.7,3.6S328.5,327.5,328.5,327.5z"/>
			<path class="st27" d="M303.5,340.6c0,0-7.3,12.3-14.4,21.7c-2.7,3.6-3.6,8.7-6.9,9.4c1.4-0.5,3.8-7.9,4.6-9.6
				c0.8-1.7,2.2-3.3,5.1-9.2c2.9-5.8,6.8-14.4,6.8-14.4L303.5,340.6z"/>
			<g>
				<path d="M273.3,417.8c0,0,0.2-0.1,0.7-0.1c0.4,0,1.1-0.1,1.8-0.2c1.5-0.1,3.5,0,5.5,0.3c1,0.1,2,0.3,2.9,0.5
					c0.9,0.2,1.8,0.5,2.5,0.7c0.7,0.2,1.3,0.5,1.7,0.7c0.4,0.2,0.6,0.3,0.6,0.3s-0.3,0-0.7-0.1c-0.4-0.1-1-0.2-1.8-0.3
					c-1.5-0.2-3.4-0.6-5.4-0.8c-1-0.2-2-0.3-2.9-0.4c-0.9-0.1-1.8-0.2-2.5-0.3C274.2,417.9,273.3,417.8,273.3,417.8z"/>
			</g>
			<path class="st26" d="M366.4,298.2c-0.3,0-1.9,1.3-2.7,2l0.9-1.8c0,0,1.2-1.2,1.7-1.8c0.4-0.7,0.2-1.3-0.1-1.3
				c-0.2,0-1.7,1.1-2.6,1.8l0.2-0.4c0,0,1.2-1.2,1.7-1.8c0.4-0.7,0.2-1.3-0.1-1.3c-0.3,0-3.2,2.3-3.2,2.3l-1.4,1.8l1-2
				c0,0,0.5-0.7,0.9-1.4c0.4-0.7,0.1-0.9-0.1-1.2s-2.1,1.2-2.6,1.7c-0.5,0.6-2,2.9-2.1,3.2l-1.6,3.3c-0.1-1-0.3-2.6-0.4-3.6
				c-0.2-1.5-1.5-1.8-1.6-1.1c0,0.7-0.8,4.3-0.6,6.2c0.2,1.9,0.5,3.2,0.6,4.3c0.1,1.1-1,3.3-1,3.3s4.5,2.8,5.3,2
				c0.7-0.8,2.3-2.7,3.1-4c1.1-1.7,1.8-4,1.8-4l1.4-3c0,0,1.2-1.2,1.7-1.8C367,298.8,366.8,298.2,366.4,298.2z"/>
		</g>
		<g>
			<path class="st28" d="M626.2,207.1h-53.1c-3.4,0-6.2,2.8-6.2,6.2v12.5c0,3.1,2.3,5.7,5.4,6.1c0.4,0.1,0.8,0.4,0.8,0.9v6.9
				c0,0.4,0.5,0.6,0.7,0.2l5.4-7.6c0.2-0.2,0.4-0.4,0.7-0.4h46.2c3.4,0,6.2-2.8,6.2-6.2v-12.5C632.3,209.8,629.6,207.1,626.2,207.1z
				"/>
			<g>
				<path class="st28" d="M581.3,219.5c0,1.1-0.9,2-2,2c-1.1,0-2-0.9-2-2c0-1.1,0.9-2,2-2C580.4,217.5,581.3,218.4,581.3,219.5z"/>
				<path class="st28" d="M591.5,219.5c0,1.1-0.9,2-2,2c-1.1,0-2-0.9-2-2c0-1.1,0.9-2,2-2C590.6,217.5,591.5,218.4,591.5,219.5z"/>
				<path class="st28" d="M601.7,219.5c0,1.1-0.9,2-2,2c-1.1,0-2-0.9-2-2c0-1.1,0.9-2,2-2C600.8,217.5,601.7,218.4,601.7,219.5z"/>
				<path class="st28" d="M611.9,219.5c0,1.1-0.9,2-2,2c-1.1,0-2-0.9-2-2c0-1.1,0.9-2,2-2C611,217.5,611.9,218.4,611.9,219.5z"/>
				<path class="st28" d="M622.1,219.5c0,1.1-0.9,2-2,2s-2-0.9-2-2c0-1.1,0.9-2,2-2S622.1,218.4,622.1,219.5z"/>
			</g>
		</g>
		<g>
			<path class="st28" d="M206.9,262H260c3.4,0,6.2,2.8,6.2,6.2v12.5c0,3.1-2.3,5.7-5.4,6.1c-0.4,0.1-0.8,0.4-0.8,0.9v6.9
				c0,0.4-0.5,0.6-0.7,0.2l-5.4-7.6c-0.2-0.2-0.4-0.4-0.7-0.4h-46.2c-3.4,0-6.2-2.8-6.2-6.2v-12.5C200.7,264.8,203.5,262,206.9,262z
				"/>
			<g>
				<path class="st28" d="M251.8,274.4c0,1.1,0.9,2,2,2c1.1,0,2-0.9,2-2c0-1.1-0.9-2-2-2C252.7,272.4,251.8,273.3,251.8,274.4z"/>
				<path class="st28" d="M241.6,274.4c0,1.1,0.9,2,2,2c1.1,0,2-0.9,2-2c0-1.1-0.9-2-2-2C242.5,272.4,241.6,273.3,241.6,274.4z"/>
				<path class="st28" d="M231.4,274.4c0,1.1,0.9,2,2,2c1.1,0,2-0.9,2-2c0-1.1-0.9-2-2-2C232.3,272.4,231.4,273.3,231.4,274.4z"/>
				<path class="st28" d="M221.2,274.4c0,1.1,0.9,2,2,2c1.1,0,2-0.9,2-2c0-1.1-0.9-2-2-2C222.1,272.4,221.2,273.3,221.2,274.4z"/>
				<path class="st28" d="M211,274.4c0,1.1,0.9,2,2,2c1.1,0,2-0.9,2-2c0-1.1-0.9-2-2-2C211.9,272.4,211,273.3,211,274.4z"/>
			</g>
		</g>
		<g>
			<path class="st29" d="M527.4,178.2h-96.7c-5.3,0-9.7-4.3-9.7-9.7l0,0c0-5.3,4.3-9.7,9.7-9.7h96.7c5.3,0,9.7,4.3,9.7,9.7l0,0
				C537,173.8,532.7,178.2,527.4,178.2z"/>
			<g>
				<path class="st30" d="M525.9,167.8c0,2.8-2.3,5.1-5.1,5.1s-5.1-2.3-5.1-5.1s2.3-5.1,5.1-5.1S525.9,165,525.9,167.8z"/>
				<line class="st31" x1="524.4" y1="171.5" x2="527.3" y2="174.3"/>
			</g>
		</g>
		<g>
			<g>
				<path class="st32" d="M380.9,440.8h-24.3c-4.3,0-7.7-3.5-7.7-7.7v-24.3c0-4.3,3.5-7.7,7.7-7.7h24.3c4.3,0,7.7,3.5,7.7,7.7v24.3
					C388.6,437.4,385.1,440.8,380.9,440.8z"/>
				<path class="st15" d="M373.6,440.8h-24.3c-4.3,0-7.7-3.5-7.7-7.7v-24.3c0-4.3,3.5-7.7,7.7-7.7h24.3c4.3,0,7.7,3.5,7.7,7.7v24.3
					C381.3,437.4,377.9,440.8,373.6,440.8z"/>
				<path class="st4" d="M356.7,413.5l11.4,6.6c0.7,0.4,0.7,1.4,0,1.8l-11.4,6.6c-0.7,0.4-1.6-0.1-1.6-0.9v-13.2
					C355.2,413.6,356,413,356.7,413.5z"/>
			</g>
			<g>
				<path class="st32" d="M632.5,440.8h-31.8c-5.6,0-10.1-4.5-10.1-10.1v-31.8c0-5.6,4.5-10.1,10.1-10.1h31.8
					c5.6,0,10.1,4.5,10.1,10.1v31.8C642.6,436.3,638.1,440.8,632.5,440.8z"/>
				<path class="st15" d="M623.1,440.8h-31.8c-5.6,0-10.1-4.5-10.1-10.1v-31.8c0-5.6,4.5-10.1,10.1-10.1h31.8
					c5.6,0,10.1,4.5,10.1,10.1v31.8C633.1,436.3,628.6,440.8,623.1,440.8z"/>
				<path class="st4" d="M613.4,401.6c0,3.4-2.8,6.2-6.2,6.2c-3.4,0-6.2-2.8-6.2-6.2c0-3.4,2.8-6.2,6.2-6.2
					C610.6,395.4,613.4,398.2,613.4,401.6z"/>
				<path class="st4" d="M620.2,422.8v9.2c0,0.8-0.7,1.5-1.5,1.5h-23c-0.8,0-1.5-0.7-1.5-1.5v-9.2c0-7.2,5.8-13,13-13l0,0
					C614.3,409.7,620.2,415.6,620.2,422.8z"/>
			</g>
			<g>
				<path class="st13" d="M491,189.3h-20.4c-0.8,0-1.5-0.7-1.5-1.5l0,0c0-0.8,0.7-1.5,1.5-1.5H491c0.8,0,1.5,0.7,1.5,1.5l0,0
					C492.5,188.6,491.8,189.3,491,189.3z"/>
				<path class="st13" d="M511.4,189.3h-14.8c-0.8,0-1.5-0.7-1.5-1.5l0,0c0-0.8,0.7-1.5,1.5-1.5h14.8c0.8,0,1.5,0.7,1.5,1.5l0,0
					C512.9,188.6,512.3,189.3,511.4,189.3z"/>
				<path class="st13" d="M479.2,196h-8.7c-0.8,0-1.5-0.7-1.5-1.5l0,0c0-0.8,0.7-1.5,1.5-1.5h8.7c0.8,0,1.5,0.7,1.5,1.5l0,0
					C480.8,195.3,480.1,196,479.2,196z"/>
				<path class="st13" d="M511.4,196h-27c-0.8,0-1.5-0.7-1.5-1.5l0,0c0-0.8,0.7-1.5,1.5-1.5h27c0.8,0,1.5,0.7,1.5,1.5l0,0
					C512.9,195.3,512.3,196,511.4,196z"/>
				<path class="st13" d="M497.5,202.8h-26.9c-0.8,0-1.5-0.7-1.5-1.5l0,0c0-0.8,0.7-1.5,1.5-1.5h26.9c0.8,0,1.5,0.7,1.5,1.5l0,0
					C499,202.1,498.3,202.8,497.5,202.8z"/>
				<path class="st13" d="M511.4,202.8h-8.7c-0.8,0-1.5-0.7-1.5-1.5l0,0c0-0.8,0.7-1.5,1.5-1.5h8.7c0.8,0,1.5,0.7,1.5,1.5l0,0
					C512.9,202.1,512.3,202.8,511.4,202.8z"/>
			</g>
			<g>
				<path class="st32" d="M232.3,346.1H161c-2.1,0-3.8-1.7-3.8-3.8v-36c0-2.1,1.7-3.8,3.8-3.8h71.3c2.1,0,3.8,1.7,3.8,3.8v36
					C236.1,344.4,234.4,346.1,232.3,346.1z"/>
				<line class="st33" x1="160.5" y1="308.3" x2="232.7" y2="308.3"/>
				<circle class="st4" cx="230.8" cy="305.3" r="0.9"/>
				<circle class="st4" cx="226.3" cy="305.3" r="0.9"/>
				<circle class="st4" cx="221.7" cy="305.3" r="0.9"/>
				<g>
					<g>
						<path class="st34" d="M174,314.2h-12.3c-0.7,0-1.2-0.5-1.2-1.2l0,0c0-0.7,0.5-1.2,1.2-1.2H174c0.7,0,1.2,0.5,1.2,1.2l0,0
							C175.2,313.7,174.6,314.2,174,314.2z"/>
						<path class="st34" d="M174,319.8h-12.3c-0.7,0-1.2-0.5-1.2-1.2l0,0c0-0.7,0.5-1.2,1.2-1.2H174c0.7,0,1.2,0.5,1.2,1.2l0,0
							C175.2,319.2,174.6,319.8,174,319.8z"/>
						<path class="st34" d="M174,325.4h-12.3c-0.7,0-1.2-0.5-1.2-1.2l0,0c0-0.7,0.5-1.2,1.2-1.2H174c0.7,0,1.2,0.5,1.2,1.2l0,0
							C175.2,324.8,174.6,325.4,174,325.4z"/>
						<path class="st34" d="M174,330.9h-12.3c-0.7,0-1.2-0.5-1.2-1.2l0,0c0-0.7,0.5-1.2,1.2-1.2H174c0.7,0,1.2,0.5,1.2,1.2l0,0
							C175.2,330.4,174.6,330.9,174,330.9z"/>
						<path class="st34" d="M174,336.5h-12.3c-0.7,0-1.2-0.5-1.2-1.2l0,0c0-0.7,0.5-1.2,1.2-1.2H174c0.7,0,1.2,0.5,1.2,1.2l0,0
							C175.2,336,174.6,336.5,174,336.5z"/>
						<path class="st34" d="M174,342.1h-12.3c-0.7,0-1.2-0.5-1.2-1.2l0,0c0-0.7,0.5-1.2,1.2-1.2H174c0.7,0,1.2,0.5,1.2,1.2l0,0
							C175.2,341.6,174.6,342.1,174,342.1z"/>
					</g>
					<g>
						<path class="st35" d="M231.5,314.2h-52.8c-0.7,0-1.2-0.5-1.2-1.2l0,0c0-0.7,0.5-1.2,1.2-1.2h52.8c0.7,0,1.2,0.5,1.2,1.2l0,0
							C232.7,313.7,232.2,314.2,231.5,314.2z"/>
						<path class="st35" d="M231.5,319.8h-52.8c-0.7,0-1.2-0.5-1.2-1.2l0,0c0-0.7,0.5-1.2,1.2-1.2h52.8c0.7,0,1.2,0.5,1.2,1.2l0,0
							C232.7,319.2,232.2,319.8,231.5,319.8z"/>
						<path class="st35" d="M231.5,325.4h-52.8c-0.7,0-1.2-0.5-1.2-1.2l0,0c0-0.7,0.5-1.2,1.2-1.2h52.8c0.7,0,1.2,0.5,1.2,1.2l0,0
							C232.7,324.8,232.2,325.4,231.5,325.4z"/>
						<path class="st35" d="M231.5,330.9h-52.8c-0.7,0-1.2-0.5-1.2-1.2l0,0c0-0.7,0.5-1.2,1.2-1.2h52.8c0.7,0,1.2,0.5,1.2,1.2l0,0
							C232.7,330.4,232.2,330.9,231.5,330.9z"/>
						<path class="st35" d="M231.5,336.5h-52.8c-0.7,0-1.2-0.5-1.2-1.2l0,0c0-0.7,0.5-1.2,1.2-1.2h52.8c0.7,0,1.2,0.5,1.2,1.2l0,0
							C232.7,336,232.2,336.5,231.5,336.5z"/>
						<path class="st35" d="M231.5,342.1h-52.8c-0.7,0-1.2-0.5-1.2-1.2l0,0c0-0.7,0.5-1.2,1.2-1.2h52.8c0.7,0,1.2,0.5,1.2,1.2l0,0
							C232.7,341.6,232.2,342.1,231.5,342.1z"/>
					</g>
				</g>
			</g>
			<g>
				
					<ellipse transform="matrix(0.233 -0.9725 0.9725 0.233 330.4049 639.9047)" class="st1" cx="570.9" cy="110.5" rx="32.5" ry="32.5"/>
				
					<ellipse transform="matrix(0.9145 -0.4046 0.4046 0.9145 4.1108 240.4393)" class="st5" cx="570.9" cy="110.5" rx="28.3" ry="28.3"/>
				<path class="st4" d="M573.4,110.5c0,1.4-1.2,2.6-2.6,2.6c-1.4,0-2.6-1.2-2.6-2.6c0-1.4,1.2-2.6,2.6-2.6
					C572.3,107.9,573.4,109.1,573.4,110.5z"/>
				<path class="st4" d="M570.6,110L570.6,110c-0.4,0.2-0.9,0.1-1.1-0.3l-8.3-15c-0.2-0.4-0.1-0.9,0.3-1.1l0,0
					c0.4-0.2,0.9-0.1,1.1,0.3l8.3,15C571.1,109.3,571,109.8,570.6,110z"/>
				<path class="st4" d="M571.3,110.9L571.3,110.9c0.3-0.3,0.8-0.3,1.1,0l7.2,7.2c0.3,0.3,0.3,0.8,0,1.1l0,0c-0.3,0.3-0.8,0.3-1.1,0
					l-7.2-7.2C571,111.7,571,111.2,571.3,110.9z"/>
				<g>
					<line class="st36" x1="571" y1="87.9" x2="571" y2="84.6"/>
					<line class="st36" x1="593.5" y1="110.7" x2="596.7" y2="110.7"/>
					<line class="st36" x1="570.7" y1="133.1" x2="570.7" y2="136.4"/>
					<line class="st36" x1="548.2" y1="110.3" x2="545" y2="110.3"/>
				</g>
				<g class="st23">
					<line class="st37" x1="559.7" y1="90.8" x2="558.1" y2="88"/>
					<line class="st37" x1="590.5" y1="99.3" x2="593.4" y2="97.7"/>
					<line class="st37" x1="582" y1="130.2" x2="583.7" y2="133"/>
					<line class="st37" x1="551.2" y1="121.7" x2="548.4" y2="123.3"/>
				</g>
				<g class="st23">
					<line class="st37" x1="551.4" y1="99" x2="548.5" y2="97.4"/>
					<line class="st37" x1="582.3" y1="91" x2="583.9" y2="88.2"/>
					<line class="st37" x1="590.4" y1="122" x2="593.2" y2="123.6"/>
					<line class="st37" x1="559.4" y1="130" x2="557.8" y2="132.8"/>
				</g>
			</g>
			<g>
				<path class="st32" d="M184.7,274.1H149c-5.3,0-9.6-4.3-9.6-9.6v-35.7c0-5.3,4.3-9.6,9.6-9.6h35.7c5.3,0,9.6,4.3,9.6,9.6v35.7
					C194.2,269.8,189.9,274.1,184.7,274.1z"/>
				<path class="st38" d="M182.3,269.3h-39.5c-4.2,0-7.7-3.4-7.7-7.7v-39.5c0-4.2,3.4-7.7,7.7-7.7h39.5c4.2,0,7.7,3.4,7.7,7.7v39.5
					C190,265.9,186.5,269.3,182.3,269.3z"/>
				<g>
					<g>
						<path class="st2" d="M172.1,235.6h-0.3v-3.1c0-5.2-4.2-9.4-9.3-9.4c-5.2,0-9.3,4.2-9.3,9.4v3.1H153c-1.4,0-2.6,1.2-2.6,2.6
							v11.8c0,1.4,1.2,2.6,2.6,2.6h19c1.4,0,2.6-1.2,2.6-2.6v-11.8C174.7,236.8,173.5,235.6,172.1,235.6z M155.4,232.5
							c0-3.8,3.1-7,7-7c3.8,0,7,3.1,7,7v3.1h-14V232.5z"/>
						<path class="st0" d="M165.6,241.7c0-1.9-1.7-3.4-3.7-3c-1.2,0.2-2.1,1.2-2.4,2.3c-0.3,1.4,0.4,2.7,1.4,3.3
							c0.2,0.1,0.3,0.4,0.3,0.6l-0.5,2c-0.3,1.2,0.6,2.3,1.8,2.3c1.2,0,2.1-1.1,1.8-2.3l-0.5-1.9c-0.1-0.2,0.1-0.5,0.3-0.6
							C165,243.8,165.6,242.9,165.6,241.7z"/>
					</g>
					<path class="st2" d="M173.6,256.9h-22c-0.6,0-1.1-0.5-1.1-1.1l0,0c0-0.6,0.5-1.1,1.1-1.1h22c0.6,0,1.1,0.5,1.1,1.1l0,0
						C174.7,256.4,174.2,256.9,173.6,256.9z"/>
					<path class="st2" d="M173.6,260.7h-22c-0.6,0-1.1-0.5-1.1-1.1l0,0c0-0.6,0.5-1.1,1.1-1.1h22c0.6,0,1.1,0.5,1.1,1.1l0,0
						C174.7,260.2,174.2,260.7,173.6,260.7z"/>
				</g>
			</g>
			<g>
				<g>
					<path class="st32" d="M616.6,338.5h-21c-3.1,0-5.6-2.5-5.6-5.6v-21c0-3.1,2.5-5.6,5.6-5.6h21c3.1,0,5.6,2.5,5.6,5.6v21
						C622.2,336,619.7,338.5,616.6,338.5z"/>
					<path class="st38" d="M615.2,335.7h-23.3c-2.5,0-4.5-2-4.5-4.5V308c0-2.5,2-4.5,4.5-4.5h23.3c2.5,0,4.5,2,4.5,4.5v23.3
						C619.7,333.7,617.7,335.7,615.2,335.7z"/>
				</g>
				<g>
					<g>
						<path class="st4" d="M597,329.2c-0.1,0-0.2,0-0.3,0c-0.5-0.1-0.8-0.7-0.7-1.2l4.9-17.3c0.1-0.5,0.7-0.8,1.2-0.7
							c0.5,0.1,0.8,0.7,0.7,1.2l-4.9,17.3C597.9,328.9,597.5,329.2,597,329.2z"/>
					</g>
					<g>
						<path class="st4" d="M605.2,329.2c-0.1,0-0.2,0-0.3,0c-0.5-0.1-0.8-0.7-0.7-1.2l4.9-17.3c0.1-0.5,0.7-0.8,1.2-0.7
							c0.5,0.1,0.8,0.7,0.7,1.2l-4.9,17.3C606,328.9,605.6,329.2,605.2,329.2z"/>
					</g>
					<g>
						<path class="st4" d="M612.2,316.7h-17.3c-0.6,0-1-0.4-1-1s0.4-1,1-1h17.3c0.6,0,1,0.4,1,1S612.8,316.7,612.2,316.7z"/>
					</g>
					<g>
						<path class="st4" d="M612.2,324.6h-17.3c-0.6,0-1-0.4-1-1c0-0.6,0.4-1,1-1h17.3c0.6,0,1,0.4,1,1
							C613.2,324.1,612.8,324.6,612.2,324.6z"/>
					</g>
				</g>
			</g>
			<g>
				<path class="st13" d="M226.9,236h-12.5c-0.8,0-1.4-0.6-1.4-1.4l0,0c0-0.8,0.6-1.4,1.4-1.4h12.5c0.8,0,1.4,0.6,1.4,1.4l0,0
					C228.2,235.4,227.6,236,226.9,236z"/>
				<path class="st13" d="M239.5,242.1h-25.1c-0.8,0-1.4-0.6-1.4-1.4l0,0c0-0.8,0.6-1.4,1.4-1.4h25.1c0.8,0,1.4,0.6,1.4,1.4l0,0
					C240.8,241.5,240.2,242.1,239.5,242.1z"/>
				<path class="st13" d="M217.3,248.2h-3c-0.8,0-1.4-0.6-1.4-1.4l0,0c0-0.8,0.6-1.4,1.4-1.4h3c0.8,0,1.4,0.6,1.4,1.4l0,0
					C218.7,247.5,218.1,248.2,217.3,248.2z"/>
				<path class="st13" d="M239.5,248.2H222c-0.8,0-1.4-0.6-1.4-1.4l0,0c0-0.8,0.6-1.4,1.4-1.4h17.5c0.8,0,1.4,0.6,1.4,1.4l0,0
					C240.8,247.5,240.2,248.2,239.5,248.2z"/>
				<path class="st13" d="M239.5,236h-7.6c-0.8,0-1.4-0.6-1.4-1.4l0,0c0-0.8,0.6-1.4,1.4-1.4h7.6c0.8,0,1.4,0.6,1.4,1.4l0,0
					C240.8,235.4,240.2,236,239.5,236z"/>
			</g>
			<path class="st4" d="M169,422.9c-1.6,0-3.2,0.4-4.5,1.2c-0.5-4.7-4.5-8.3-9.3-8.3c-5.2,0-9.3,4.2-9.3,9.3c0,0.3,0,0.7,0.1,1
				c-0.4-0.1-0.9-0.1-1.3-0.1c-3.9,0-7.1,3.2-7.1,7.1c0,3.9,3.2,7.1,7.1,7.1H169c4.8,0,8.7-3.9,8.7-8.7
				C177.7,426.8,173.8,422.9,169,422.9z"/>
		</g>
		<g>
			<path class="st2" d="M107,385.4c-0.2-1.3-0.2-2.6,0.1-3.9c1.1-4.3,2.4-12.4-0.4-21.1c-4.7-14.6-23.6-27.5-23.6-27.5
				s5.1,21.5,9.4,30.7c3.1,6.7,8.5,14.3,11.5,18.4c0.8,1.1,1.4,2.4,1.7,3.8c3.1,16.9,2.6,30,2.6,30.3l1.4,0.1
				C109.7,415.8,110.1,402.6,107,385.4z"/>
			<path class="st39" d="M122.1,371.7c3.8-11.9,5.5-25.9,5.5-25.9s-17,14-18.4,24.8c-0.9,6.6,0.2,12,1.2,15.1
				c0.4,1.3,0.5,2.7,0.4,4.1c-1.7,15.9-0.4,28.2-0.4,28.4l1.3-0.1c0-0.2-1.3-11.6,0.2-26.6c0.2-2.1,1-4,2.3-5.6
				C116.7,382.8,120.2,377.8,122.1,371.7z"/>
			<path class="st2" d="M139.4,345.3c0,0-18.3,6.8-23.1,21.7c-2.9,9.1-1.5,17.5-0.4,21.8c0.3,1.2,0.3,2.5,0,3.7
				c-4.3,17.2-4.4,35-4.4,35.2h1.5c0-0.2,0.1-17.6,4.2-34.5c0.4-1.7,1.1-3.2,2.2-4.6c3.1-4.2,8.4-11.8,11.5-18.4
				C135.2,360.9,139.4,345.3,139.4,345.3z"/>
			<path class="st39" d="M107.1,408.3c-0.5-6.3-2.2-11.9-4.2-16.6c-0.4-0.9-0.6-2-0.4-3c0.3-2,0.4-5-0.4-8.9
				c-1.5-7.3-11.2-23.2-25.3-24.1c0,0,4.9,7.8,7.4,14.3c3.2,8.3,7.7,16.9,15.2,20.2c1.3,0.6,2.3,1.7,2.9,3c1.8,4.4,3.3,9.5,3.7,15.1
				L107.1,408.3z"/>
			<g>
				<g>
					<path class="st2" d="M97.6,440.4h23.2l6-36.8c0.3-1.6-1-3.1-2.6-3.1h-30c-1.7,0-2.9,1.5-2.6,3.1L97.6,440.4z"/>
				</g>
			</g>
		</g>
		<line class="st40" x1="49.9" y1="440.4" x2="700.1" y2="440.4"/>
	</g>
</g>
</svg>
