<?xml version="1.0" encoding="utf-8"?>
<!-- Generator: Adobe Illustrator 23.0.0, SVG Export Plug-In . SVG Version: 6.00 Build 0)  -->
<svg version="1.1" id="Слой_1" xmlns="http://www.w3.org/2000/svg" xmlns:xlink="http://www.w3.org/1999/xlink" x="0px" y="0px"
	 viewBox="0 0 3001.7 3001.7" style="enable-background:new 0 0 3001.7 3001.7;" xml:space="preserve">
<style type="text/css">
	.st0{fill:#EBF3FA;}
	.st1{fill:#D2E3FC;}
	.st2{fill:#DFEBFD;}
	.st3{fill:#95C38B;}
	.st4{fill:#D86713;}
	.st5{fill:#F99746;}
	.st6{fill:#F1A34F;}
	.st7{opacity:0.4;fill:#D86713;}
	.st8{fill:#ED7D2B;}
	.st9{fill:#699DEE;}
	.st10{fill:#E4EDF9;}
	.st11{fill:#AFCDFB;}
	.st12{fill:#E9F3FE;}
	.st13{fill:#CAE0FF;}
	.st14{fill:#1C468A;}
	.st15{fill:#78ACEA;}
	.st16{fill:#FFFFFF;}
	.st17{fill:#A8D29F;}
	.st18{fill:#E49963;}
	.st19{fill:#4A75CB;}
	.st20{fill:#2B478B;}
	.st21{fill:#163560;}
	.st22{fill:#EE9849;}
	.st23{fill:#739AF0;}
	.st24{fill:#D68D5D;}
	.st25{fill:#233862;}
	.st26{fill:#213F7A;}
	.st27{fill:#FFB27D;}
	.st28{fill:#E2915A;}
	.st29{fill:#2E3552;}
	.st30{fill:#F4A269;}
	.st31{fill:#C65447;}
	.st32{fill:#B5453C;}
	.st33{fill:#9E332E;}
	.st34{fill:#FAFDFF;}
	.st35{fill:#B7D5F9;}
	.st36{fill:#FCA56B;}
	.st37{opacity:0.5;}
</style>
<rect x="-0.4" y="0" class="st0" width="3000" height="3000"/>
<g>
	<path class="st1" d="M896.9,1785.3c0,0,95.4,20,90.6,37.5c-4.8,17.5-104.7-30-104.7-30s-73.7,65.9-83.9,99.5
		c0,0,107.6-15.2,98.6,0.6c-9,15.8-120.2,36.8-120.2,36.8s-50.6,77.9-6.2,112.1c44.4,34.3,78.4,22.7,86.7,11.5
		c8.3-11.2,40.5-91.8,50-85.4c9.6,6.4,3.8,67.5-18.1,93.8c0,0,96.1,0.8,110-44.7c14-45.5-7.5-70.2,1.6-98.2
		c9.1-27.9,24.6-44.7,26.3-28.2c1.7,16.6-22.2,60.4-12.7,89.9c9.5,29.6,13.7,52,38.8,14.9c25.2-37.2,50.2-112.2,25-139.8
		c-1.1-1.2-2.1-2.3-3.2-3.4c2.2,1.9,3.2,3.4,3.2,3.4c7.5-5.7,33-8.3,52.2-9.5c3.2,0,7.7-0.2,13.9-0.7h0c2.8-0.1,5-0.2,6.6-0.2
		c41.8,0.5,100.5,33.7,100.5,33.7l5.9-7.7c-54.4-45.1-119.6-32.6-119.6-32.6c-49.7,5-84.7-10.7-84.7-10.7s-11.4-96.2-85.8-84.4
		C967.8,1743.9,919.2,1757.9,896.9,1785.3z"/>
	<path class="st2" d="M2155.1,974.4c-25.4-93.9-183.8-64.5-183.8-64.5s-107.6,164.3-138.8,168.2c-31.3,3.9,64.5-158.4,64.5-158.4
		c-60.6-5.9-215.1,68.4-215.1,68.4s9.8,191.6-21.5,187.7c-31.3-3.9,0-170.1,0-170.1c-58.7,17.6-113.4,86-113.4,86
		c-68.4,111.5,78.2,193.6,78.2,193.6s2,66.5-39.1,142.8c0,0,0,0,0,0s-9.3,14.1-18.7,38h16c1.3-4.3,2.7-8.4,4.3-12.4c0,0,0-0.1,0-0.1
		c0-0.1,0-0.1,0.1-0.2c1.1-2.5,2.7-6,4.6-10.3c0,0,0,0,0,0c0,0,0,0,0,0c4.9-9.6,8.2-16.6,10.3-21.7c0,0,0,0,0,0
		c14.6-30,35.7-69.2,49.8-77.4c0,0-1.8-2.5-3.4-7.3c1.1,2.3,2.2,4.8,3.4,7.3c27.4,58.7,164.3,68.4,240.5,52.8
		c76.3-15.6,43-37.2,2-72.1c-41.1-34.9-127.1-25.7-152.5-39.4c-25.4-13.7,11.7-27.4,62.6-23.5c50.8,3.9,76.3,54.8,158.4,62.6
		c82.1,7.8,144.7-146.7,144.7-146.7c-56.7,17.6-158.4-13.7-162.3-33.2c-3.9-19.6,146.7-17.6,170.1-23.5S2180.6,1068.3,2155.1,974.4z
		"/>
	<path class="st1" d="M636.5,981.3c35-56,132.3-5.8,132.3-5.8s37.6,128,57.2,136.7c19.6,8.7-10.8-115.7-10.8-115.7
		c40.6,8.1,126.4,86.9,126.4,86.9s-44.1,122.7-23,126.3s33.5-110.7,33.5-110.7c34.7,23,56.8,78.3,56.8,78.3
		c22.6,86-89,110.5-89,110.5s-14.4,42.9-2.7,100.5l0,0c0,0,3.3,11,4.7,28.4l-10.4-3.1c0-3-0.1-6-0.4-8.9c0,0,0,0,0-0.1
		c0,0,0-0.1,0-0.1c-0.2-1.8-0.6-4.4-1-7.6c0,0,0,0,0,0c0,0,0,0,0,0c-1.3-7.2-2.1-12.4-2.4-16.2c0,0,0,0,0,0
		c-3.6-22.4-9.6-52-17.2-60.1c0,0,1.6-1.3,3.7-4.1c-1.2,1.3-2.4,2.7-3.7,4.1c-29.4,32.8-120.3,12.2-166.8-13
		c-46.5-25.2-20.7-32.6,12.9-47.3s87.7,8.3,107,4.4c19.2-3.9-2.2-20.1-36.1-27.6c-33.8-7.5-60.4,20.6-115.3,9.5
		c-55-11.1-65.2-123.9-65.2-123.9c33.4,22.6,105.7,22.3,112.1,10.3c6.4-11.9-91.9-40.3-106-48.8
		C618.9,1076,601.5,1037.4,636.5,981.3z"/>
	<path class="st2" d="M1458.9,974.6c-24.5-40.8-95.2-5.9-95.2-5.9s-28.7,91.7-42.9,97.8c-14.2,6,9.2-83.2,9.2-83.2
		c-29.3,5.3-92.2,61-92.2,61s30.2,89,14.9,91.3c-15.3,2.3-22.7-80.1-22.7-80.1c-25.3,16.1-41.9,55.7-41.9,55.7
		c-17.4,61.6,62.7,80.7,62.7,80.7s9.8,31.1,0.6,72.5l0,0c0,0-2.5,7.9-3.7,20.4l7.5-2.1c0-2.2,0.2-4.3,0.4-6.4c0,0,0,0,0,0
		c0,0,0-0.1,0-0.1c0.2-1.3,0.5-3.2,0.8-5.5c0,0,0,0,0,0c0,0,0,0,0,0c1-5.2,1.6-8.9,1.9-11.6c0,0,0,0,0,0
		c2.9-16.1,7.6-37.3,13.1-43.1c0,0-1.2-0.9-2.6-3c0.8,1,1.7,2,2.6,3c20.7,24,86.5,10.3,120.3-7.2c33.8-17.6,15.3-23.2-8.7-34.2
		c-24-11-63.3,4.9-77.1,1.8c-13.8-3.1,1.9-14.5,26.3-19.4c24.5-4.9,43.2,15.6,83,8.3c39.7-7.3,48.6-88.4,48.6-88.4
		c-24.4,15.9-76.4,14.7-80.9,6c-4.5-8.7,66.7-27.9,77-33.8C1470.3,1043,1483.4,1015.4,1458.9,974.6z"/>
	<path class="st3" d="M265.4,2053.6c-0.8,0.2-1.8,0.4-3,0.7C263.4,2054,264.4,2053.8,265.4,2053.6z"/>
	<g>
		<g>
			<path class="st4" d="M1264.6,1487.6l-48.1,571.9c0,0-5,34.7,20.7,34.7c42.4,0.1,211,0,211,0s-31.9-7.2-31.5-23.5
				c0.5-19.1,56.2-588.6,56.2-588.6L1264.6,1487.6z"/>
			<path class="st5" d="M1462,2083.9c-8.3,0-169.4,0.5-210.7,0c-18-0.2-21.1-16-21.3-26.2c-0.1-4.9,0.5-8.5,0.5-8.5l1.3-14.9
				l3.2-37.9l2.8-33.5l3.6-43l3-36.3l34.2-406.4l208.4-5.4c0,0-23.5,238.3-40.1,411.8c-1.9,19.3-3.6,37.9-5.3,55.2
				c-0.5,5.5-1,10.9-1.5,16.2c-1.5,16.4-2.9,31.5-4.2,44.8c-0.6,7-1.2,13.5-1.8,19.5c-2.1,23.4-3.4,38.3-3.4,41.2
				c0,1.7,0.1,3.2,0.4,4.6C1434.6,2083.3,1458.8,2083.9,1462,2083.9z"/>
			<polygon class="st5" points="758.6,1176.4 875.7,1647 891.8,1711.5 946.3,1930.7 1960.1,1930.7 1759,1176.4 			"/>
			<polygon class="st5" points="758.6,1176.4 742.3,1181.8 924.7,1947 946.3,1930.7 			"/>
			<polygon class="st4" points="924.7,1947 1932.3,1947 1960.1,1930.7 946.3,1930.7 			"/>
			
				<rect x="1278.6" y="2084.1" transform="matrix(-1 -1.224647e-16 1.224647e-16 -1 2775.2568 4178.5522)" class="st6" width="218.1" height="10.4"/>
			<polygon class="st6" points="1911,1791.7 1746.5,1186.4 761.1,1186.4 758.6,1176.4 1759,1176.4 1922.9,1790.3 			"/>
			<polygon class="st4" points="1441.2,1947 1440.1,1954.9 1235,1996.4 1237.8,1962.9 1239.1,1947 			"/>
			<path class="st7" d="M1462,2083.9c-8.3,0-169.4,0.5-210.7,0c-18-0.2-21.1-16-21.3-26.2l204.2-38.4c-2.1,23.4-3.4,38.3-3.4,41.2
				c0,1.7,0.1,3.2,0.4,4.6C1434.6,2083.3,1458.8,2083.9,1462,2083.9z"/>
			<polygon class="st8" points="1391.7,1778 946.3,1930.7 891.8,1711.5 			"/>
			<polygon class="st9" points="758.6,1176.4 1759,1176.4 1921.3,1782.6 909.5,1782.6 			"/>
		</g>
		
			<ellipse transform="matrix(0.672 -0.7405 0.7405 0.672 -900.1982 1685.8953)" class="st4" cx="1453.2" cy="1859.2" rx="24.4" ry="29.7"/>
		<polygon class="st10" points="1874.1,1756.3 937.4,1756.3 831.3,1333.7 823.2,1301.3 816.3,1273.7 800,1208.9 1723.2,1208.9 
			1741,1273.7 1748.7,1301.3 1757.6,1333.7 		"/>
		<polygon class="st11" points="1741,1273.7 816.3,1273.7 800,1208.9 1723.2,1208.9 		"/>
		<g>
			<path class="st12" d="M838.2,1238.2c-1.1-4.5,1.6-8.1,6.1-8.1c4.5,0,9,3.6,10.1,8.1s-1.6,8.1-6.1,8.1
				C843.8,1246.3,839.3,1242.7,838.2,1238.2z"/>
			<path class="st12" d="M865.1,1238.2c-1.1-4.5,1.6-8.1,6.1-8.1c4.5,0,9,3.6,10.1,8.1c1.1,4.5-1.6,8.1-6.1,8.1
				C870.8,1246.3,866.2,1242.7,865.1,1238.2z"/>
			<path class="st12" d="M894.1,1238.2c-1.1-4.5,1.6-8.1,6.1-8.1c4.5,0,9,3.6,10.1,8.1c1.1,4.5-1.6,8.1-6.1,8.1
				C899.8,1246.3,895.2,1242.7,894.1,1238.2z"/>
		</g>
		<polygon class="st13" points="1667.8,1718.8 973.9,1718.8 868.4,1304.5 1552.4,1304.5 		"/>
		<polygon class="st1" points="1757.5,1400.9 1600.2,1400.9 1571.5,1304.5 1730.6,1304.5 		"/>
		<polygon class="st14" points="1333.2,1344.8 1243.3,1344.8 1239.6,1331 1329.5,1331 		"/>
		<polygon class="st15" points="1492.8,1344.8 1345.6,1344.8 1341.9,1331 1489.1,1331 		"/>
		<polygon class="st15" points="1348.4,1382.2 1188.8,1382.2 1185.1,1368.3 1344.7,1368.3 		"/>
		<polygon class="st6" points="1445.4,1382.2 1362.7,1382.2 1359,1368.3 1441.7,1368.3 		"/>
		<polygon class="st9" points="1360.4,1446.6 1270.4,1446.6 1266.7,1432.7 1356.7,1432.7 		"/>
		<polygon class="st15" points="1519.9,1446.6 1372.7,1446.6 1369,1432.7 1516.2,1432.7 		"/>
		<polygon class="st16" points="1375.5,1483.9 1216,1483.9 1212.2,1470.1 1371.8,1470.1 		"/>
		<polygon class="st16" points="1472.6,1483.9 1389.9,1483.9 1386.2,1470.1 1468.9,1470.1 		"/>
		<polygon class="st14" points="1278.9,1541.8 974.5,1541.8 970.8,1527.9 1275.2,1527.9 		"/>
		<polygon class="st9" points="1388.3,1541.8 1298.4,1541.8 1294.7,1527.9 1384.6,1527.9 		"/>
		<polygon class="st15" points="1547.9,1541.8 1400.7,1541.8 1397,1527.9 1544.2,1527.9 		"/>
		<polygon class="st16" points="1074.4,1579.2 984.5,1579.2 980.8,1565.3 1070.7,1565.3 		"/>
		<polygon class="st6" points="1403.5,1579.2 1243.9,1579.2 1240.2,1565.3 1399.8,1565.3 		"/>
		<polygon class="st15" points="1234,1579.2 1086.8,1579.2 1083.1,1565.3 1230.3,1565.3 		"/>
		<polygon class="st15" points="1500.5,1579.2 1417.8,1579.2 1414.1,1565.3 1496.8,1565.3 		"/>
		<polygon class="st14" points="1313.5,1645 1009.1,1645 1005.3,1631.1 1309.8,1631.1 		"/>
		<polygon class="st9" points="1422.9,1645 1332.9,1645 1329.2,1631.1 1419.2,1631.1 		"/>
		<polygon class="st16" points="1109,1682.3 1019,1682.3 1015.3,1668.5 1105.3,1668.5 		"/>
		<polygon class="st6" points="1438,1682.3 1278.4,1682.3 1274.7,1668.5 1434.3,1668.5 		"/>
		<polygon class="st15" points="1268.5,1682.3 1121.3,1682.3 1117.6,1668.5 1264.8,1668.5 		"/>
		<polygon class="st15" points="1535.1,1682.3 1452.4,1682.3 1448.7,1668.5 1531.4,1668.5 		"/>
		<g>
			<polygon class="st15" points="1679.2,1430.7 1610,1430.9 1608.5,1424.6 1677.7,1424.4 			"/>
			<polygon class="st15" points="1715.7,1430.6 1689.7,1430.7 1688.1,1424.4 1714.2,1424.3 			"/>
			<polygon class="st15" points="1768.4,1430.4 1722.5,1430.6 1720.9,1424.3 1766.9,1424.2 			"/>
			<polygon class="st15" points="1651.8,1446.7 1613.9,1446.8 1612.3,1440.5 1650.3,1440.4 			"/>
			<polygon class="st15" points="1707.1,1446.5 1658.1,1446.7 1656.6,1440.4 1705.6,1440.2 			"/>
			<polygon class="st15" points="1772.3,1446.3 1716.2,1446.5 1714.6,1440.2 1770.8,1440 			"/>
		</g>
		<g>
			<polygon class="st15" points="1687.5,1464.7 1618.3,1464.9 1616.7,1458.6 1685.9,1458.4 			"/>
			<polygon class="st15" points="1724,1464.6 1698,1464.6 1696.4,1458.4 1722.4,1458.3 			"/>
			<polygon class="st15" points="1776.7,1464.4 1730.7,1464.5 1729.2,1458.3 1775.2,1458.1 			"/>
			<polygon class="st15" points="1660.1,1480.7 1622.1,1480.8 1620.6,1474.5 1658.6,1474.4 			"/>
			<polygon class="st15" points="1715.4,1480.5 1666.4,1480.6 1664.9,1474.4 1713.9,1474.2 			"/>
			<polygon class="st15" points="1780.6,1480.3 1724.4,1480.5 1722.9,1474.2 1779.1,1474 			"/>
		</g>
		<g>
			<polygon class="st16" points="1633.2,1317.9 1591.5,1318 1590.6,1314.2 1632.3,1314.1 			"/>
			<polygon class="st16" points="1655.2,1317.8 1639.5,1317.8 1638.6,1314.1 1654.3,1314 			"/>
			<polygon class="st16" points="1686.9,1317.7 1659.3,1317.8 1658.3,1314 1686,1313.9 			"/>
			<polygon class="st16" points="1616.7,1327.5 1593.9,1327.6 1592.9,1323.8 1615.8,1323.7 			"/>
			<polygon class="st16" points="1650,1327.4 1620.5,1327.5 1619.6,1323.7 1649.1,1323.6 			"/>
			<polygon class="st16" points="1689.3,1327.3 1655.5,1327.4 1654.5,1323.6 1688.4,1323.5 			"/>
		</g>
		<g>
			<polygon class="st16" points="1638.2,1338.3 1596.5,1338.4 1595.6,1334.6 1637.3,1334.5 			"/>
			<polygon class="st16" points="1660.2,1338.2 1644.5,1338.3 1643.6,1334.5 1659.2,1334.5 			"/>
			<polygon class="st16" points="1691.9,1338.1 1664.2,1338.2 1663.3,1334.4 1691,1334.4 			"/>
			<polygon class="st16" points="1621.7,1347.9 1598.8,1348 1597.9,1344.2 1620.8,1344.1 			"/>
			<polygon class="st16" points="1655,1347.8 1625.5,1347.9 1624.6,1344.1 1654.1,1344 			"/>
			<polygon class="st16" points="1694.3,1347.7 1660.4,1347.8 1659.5,1344 1693.3,1343.9 			"/>
		</g>
		<g>
			<polygon class="st15" points="1701.6,1522.7 1632.4,1522.9 1630.9,1516.6 1700.1,1516.4 			"/>
			<polygon class="st15" points="1738.1,1522.6 1712.1,1522.7 1710.6,1516.4 1736.6,1516.3 			"/>
			<polygon class="st15" points="1790.9,1522.4 1744.9,1522.5 1743.3,1516.3 1789.3,1516.1 			"/>
			<polygon class="st15" points="1674.2,1538.7 1636.3,1538.8 1634.8,1532.5 1672.7,1532.4 			"/>
			<polygon class="st15" points="1729.5,1538.5 1680.6,1538.7 1679,1532.4 1728,1532.2 			"/>
			<polygon class="st15" points="1794.7,1538.3 1738.6,1538.5 1737,1532.2 1793.2,1532 			"/>
		</g>
		<g>
			<polygon class="st15" points="1715.5,1579.5 1646.3,1579.8 1644.7,1573.5 1713.9,1573.3 			"/>
			<polygon class="st15" points="1752,1579.4 1726,1579.5 1724.4,1573.2 1750.4,1573.1 			"/>
			<polygon class="st15" points="1804.7,1579.3 1758.7,1579.4 1757.2,1573.1 1803.2,1573 			"/>
			<polygon class="st15" points="1688.1,1595.5 1650.1,1595.6 1648.6,1589.4 1686.6,1589.2 			"/>
			<polygon class="st15" points="1743.4,1595.4 1694.4,1595.5 1692.9,1589.2 1741.9,1589.1 			"/>
			<polygon class="st15" points="1808.6,1595.2 1752.4,1595.3 1750.9,1589 1807.1,1588.9 			"/>
		</g>
		<g>
			<polygon class="st15" points="1728,1630.8 1658.8,1631 1657.2,1624.7 1726.4,1624.5 			"/>
			<polygon class="st15" points="1764.5,1630.7 1738.4,1630.7 1736.9,1624.5 1762.9,1624.4 			"/>
			<polygon class="st15" points="1817.2,1630.5 1771.2,1630.6 1769.7,1624.4 1815.7,1624.2 			"/>
			<polygon class="st15" points="1700.6,1646.8 1662.6,1646.9 1661.1,1640.6 1699,1640.5 			"/>
			<polygon class="st15" points="1755.9,1646.6 1706.9,1646.7 1705.4,1640.5 1754.4,1640.3 			"/>
			<polygon class="st15" points="1821.1,1646.4 1764.9,1646.6 1763.4,1640.3 1819.5,1640.1 			"/>
		</g>
		<g>
			<g>
				<g>
					<path class="st17" d="M1760.6,1707c-11.1,0-22.8-9-26.1-20.2c-3.2-11.1,3.2-20.2,14.3-20.2c11.1,0,22.8,9,26.1,20.2
						C1778.1,1697.9,1771.7,1707,1760.6,1707z M1749.9,1670.3c-9.1,0-14.3,7.4-11.7,16.5c2.7,9.1,12.2,16.5,21.3,16.5
						c9.1,0,14.3-7.4,11.7-16.5C1768.5,1677.7,1759,1670.3,1749.9,1670.3z"/>
				</g>
				<g>
					<path class="st17" d="M1757.3,1697.1c-0.8-0.1-1.6-0.4-2.3-0.9l-11.3-9.1c-1.5-1.2-2.1-3.2-1.2-4.3c0.9-1.2,2.8-1.1,4.4,0.1
						l8,6.4l4.1-9.5c0.6-1.4,2.4-1.7,4.1-0.7c1.7,1,2.5,2.9,1.9,4.3l-5.4,12.5c-0.3,0.7-1,1.2-1.9,1.3
						C1757.6,1697.1,1757.4,1697.1,1757.3,1697.1z"/>
				</g>
			</g>
			<g>
				<g>
					<path class="st6" d="M1816.2,1707c-11.1,0-22.8-9-26.1-20.2c-3.2-11.1,3.2-20.2,14.3-20.2c11.1,0,22.8,9,26.1,20.2
						C1833.8,1697.9,1827.4,1707,1816.2,1707z M1805.5,1670.3c-9.1,0-14.3,7.4-11.7,16.5s12.2,16.5,21.3,16.5
						c9.1,0,14.3-7.4,11.7-16.5C1824.2,1677.7,1814.6,1670.3,1805.5,1670.3z"/>
				</g>
				<g>
					<path class="st6" d="M1811.3,1690.1L1811.3,1690.1c-1.6,0-3.2-1.3-3.7-2.9l-2.5-8.6c-0.5-1.6,0.5-2.9,2-2.9l0,0
						c1.6,0,3.2,1.3,3.7,2.9l2.5,8.6C1813.8,1688.8,1812.9,1690.1,1811.3,1690.1z"/>
					<path class="st6" d="M1813.6,1696.8h-0.6c-1.4,0-2.9-1.1-3.3-2.5l0,0c-0.4-1.4,0.4-2.5,1.8-2.5h0.6c1.4,0,2.9,1.1,3.3,2.5l0,0
						C1815.8,1695.7,1815,1696.8,1813.6,1696.8z"/>
				</g>
			</g>
		</g>
		<g>
			<g>
				<g>
					<path class="st17" d="M1698.5,1391.6c-6.1,0-12.5-5-14.3-11.1c-1.8-6.1,1.7-11.1,7.8-11.1c6.1,0,12.5,5,14.3,11.1
						C1708.1,1386.6,1704.6,1391.6,1698.5,1391.6z M1692.7,1371.5c-5,0-7.9,4.1-6.4,9c1.5,5,6.7,9,11.7,9c5,0,7.9-4.1,6.4-9
						C1702.9,1375.6,1697.6,1371.5,1692.7,1371.5z"/>
				</g>
				<g>
					<path class="st17" d="M1696.7,1386.2c-0.4,0-0.9-0.2-1.2-0.5l-6.2-5c-0.8-0.7-1.1-1.7-0.6-2.4c0.5-0.6,1.6-0.6,2.4,0.1l4.4,3.5
						l2.2-5.2c0.3-0.8,1.3-0.9,2.2-0.4c0.9,0.5,1.4,1.6,1.1,2.4l-3,6.8c-0.2,0.4-0.6,0.7-1,0.7
						C1696.9,1386.2,1696.8,1386.2,1696.7,1386.2z"/>
				</g>
			</g>
			<g>
				<g>
					<path class="st17" d="M1666.9,1391.6c-6.1,0-12.5-5-14.3-11.1c-1.8-6.1,1.7-11.1,7.8-11.1c6.1,0,12.5,5,14.3,11.1
						C1676.5,1386.6,1673,1391.6,1666.9,1391.6z M1661,1371.5c-5,0-7.9,4.1-6.4,9c1.5,5,6.7,9,11.7,9c5,0,7.9-4.1,6.4-9
						C1671.2,1375.6,1666,1371.5,1661,1371.5z"/>
				</g>
				<g>
					<path class="st17" d="M1665.1,1386.2c-0.4,0-0.9-0.2-1.2-0.5l-6.2-5c-0.8-0.7-1.1-1.7-0.6-2.4c0.5-0.6,1.6-0.6,2.4,0.1l4.4,3.5
						l2.2-5.2c0.3-0.8,1.3-0.9,2.2-0.4c0.9,0.5,1.4,1.6,1.1,2.4l-3,6.8c-0.2,0.4-0.6,0.7-1,0.7
						C1665.2,1386.2,1665.2,1386.2,1665.1,1386.2z"/>
				</g>
			</g>
			<g>
				<g>
					<path class="st17" d="M1634.1,1391.6c-6.1,0-12.5-5-14.3-11.1c-1.8-6.1,1.7-11.1,7.8-11.1c6.1,0,12.5,5,14.3,11.1
						C1643.7,1386.6,1640.2,1391.6,1634.1,1391.6z M1628.2,1371.5c-5,0-7.9,4.1-6.4,9c1.5,5,6.7,9,11.7,9c5,0,7.9-4.1,6.4-9
						C1638.5,1375.6,1633.2,1371.5,1628.2,1371.5z"/>
				</g>
				<g>
					<path class="st17" d="M1632.3,1386.2c-0.4,0-0.9-0.2-1.2-0.5l-6.2-5c-0.8-0.7-1.1-1.7-0.6-2.4c0.5-0.6,1.6-0.6,2.4,0.1l4.4,3.5
						l2.2-5.2c0.3-0.8,1.3-0.9,2.2-0.4c0.9,0.5,1.4,1.6,1.1,2.4l-3,6.8c-0.2,0.4-0.6,0.7-1,0.7
						C1632.5,1386.2,1632.4,1386.2,1632.3,1386.2z"/>
				</g>
			</g>
			<g>
				<g>
					<path class="st6" d="M1729.1,1391.6c-6.1,0-12.5-5-14.3-11.1c-1.8-6.1,1.7-11.1,7.8-11.1c6.1,0,12.5,5,14.3,11.1
						C1738.7,1386.6,1735.1,1391.6,1729.1,1391.6z M1723.2,1371.5c-5,0-7.9,4.1-6.4,9c1.5,5,6.7,9,11.7,9c5,0,7.9-4.1,6.4-9
						C1733.4,1375.6,1728.2,1371.5,1723.2,1371.5z"/>
				</g>
				<g>
					<path class="st6" d="M1726.4,1382.4L1726.4,1382.4c-0.9,0-1.8-0.7-2-1.6l-1.4-4.7c-0.3-0.9,0.2-1.6,1.1-1.6l0,0
						c0.9,0,1.8,0.7,2,1.6l1.4,4.7C1727.7,1381.6,1727.2,1382.4,1726.4,1382.4z"/>
					<path class="st6" d="M1727.6,1386h-0.3c-0.8,0-1.6-0.6-1.8-1.4l0,0c-0.2-0.8,0.2-1.4,1-1.4h0.3c0.8,0,1.6,0.6,1.8,1.4l0,0
						C1728.8,1385.4,1728.4,1386,1727.6,1386z"/>
				</g>
			</g>
		</g>
	</g>
	<g>
		<g>
			<path class="st18" d="M664,1697.9c0,0,16.7,4.3,27.3,1.1c10.6-3.2,28.8,2.1,31.8,5.9c2.9,3.9,1.9,5.4-3.4,6.7
				c-5.2,1.3-23.8,9.3-36,4.7c-12.2-4.6-28.1-4.8-28.1-4.8L664,1697.9z"/>
			<path class="st19" d="M520,1553.1c0,0,18.7,133.1,49.7,145c15.3,5.9,82.9,19.2,102.9,20.6c0,0,4.9-4,3.7-20.2
				c0,0-70.8-26-80.9-40.2c-15-21.1,9.3-86-9.5-105.8C567.1,1532.8,535.5,1524.3,520,1553.1z"/>
		</g>
		<path class="st20" d="M530.8,2080.8h9c4.6,0,8.4-3.8,8.4-8.4v-209.8c0-4.6-3.8-8.4-8.4-8.4h-9c-4.6,0-8.4,3.8-8.4,8.4v209.8
			C522.3,2077,526.1,2080.8,530.8,2080.8z"/>
		<path class="st20" d="M455.4,2095.7c8.4-17.3,41-30.3,79.9-30.3c38.9,0,71.5,12.9,79.9,30.3H455.4z"/>
		<path class="st20" d="M476.7,2036.9h117.3c1.2,0,2.2-1,2.2-2.2v-4.6c0-1.2-1-2.2-2.2-2.2H476.7c-1.2,0-2.2,1-2.2,2.2v4.6
			C474.4,2035.9,475.4,2036.9,476.7,2036.9z"/>
		<path class="st21" d="M526.3,1833.5c5.5,9.3,11.8,17.9,18.3,26.2c20.1,25.4,42,46.4,45.9,66.2c0.8,3.9,2,8.2,3.5,12.7
			c1.6,4.5,3.6,9.3,5.8,14.2c8.5,18.6,21.3,39.3,34.1,58.2c22,32.7,42.8,59.9,42.8,59.9l38-1.6c-1.5-3.8-18.1-48.9-40.3-104
			c-9-22.4-18.6-46.2-27.8-69.1c-1.2-3.1-2.5-6.1-3.7-9.1c-2.8-7-5.6-13.9-8.3-20.7c-20.8-51.8-37.4-93-37.4-93
			s-83.2-31.5-91.9-11.1C498.1,1779.1,503.9,1795.6,526.3,1833.5z"/>
		<path class="st21" d="M677.8,2064c0,0,1.9,31.4,8,31.8c0.8,0.1,30.8,0.1,30.8,0.1l38.3-0.2c0,0-0.3-9.2-11.4-11.2
			c-11.2-1.9-29.9-9.8-36.7-24.6C699.6,2044.4,677.8,2064,677.8,2064z"/>
		<path class="st21" d="M589.8,1974.4c0,0-26.4,17-23.9,22.5c0.3,0.7,15,26.9,15,26.9l18.8,33.3c0,0,7.9-4.7,4.2-15.4
			c-3.8-10.7-6-30.9,3.6-44C617.6,1983.9,589.8,1974.4,589.8,1974.4z"/>
		<path class="st14" d="M627,1759.3c0,0,103,64.1,114.7,107.9c11.7,43.7-139,137-139,137s-16.5-14.6-19.4-25.3
			c0,0,68.1-81.6,82.9-99.9c9.1-11.2-134.1-38.9-151.6-66.1c-17.5-27.2-11.2-50.1-11.2-50.1L627,1759.3z"/>
		<path class="st22" d="M428.4,1900.3h213.8c4.3,0,7.8-3.5,7.8-7.8v-42.8c0-4.3-3.5-7.8-7.8-7.8H428.4c-4.3,0-7.8,3.5-7.8,7.8v42.8
			C420.6,1896.8,424.1,1900.3,428.4,1900.3z"/>
		<path class="st18" d="M577.2,1530.3c10.3,6.4,15.9,14.4,15.9,14.4c-25,6.5-66.5-16.7-66.5-16.7s16.1-10.8,22.1-34.6
			c0.3-1.2,0.6-2.4,0.8-3.7c0.8-4,1.3-8.3,1.4-13l11.5,10.3l19.1,17.1c0,0-0.4,7.1-2.8,19.3C578.3,1525.6,577.8,1527.9,577.2,1530.3
			z"/>
		<path class="st23" d="M500.1,1648.5c3.6,48.2-1.1,121.6,2.9,134.3c3.5,11,43.5,4.4,59.5,0.8c5.9-1.4,13.1-3.3,20.5-5.6
			c20.6-6.4,43.1-15.5,45.5-22.3c0.1-0.3,0.2-0.5,0.2-0.8c0.2-1,0.2-1.9,0-2.8c-0.8-3.4-3.9-7.2-4.3-15.7
			c-0.4-9.5-0.3-20.8-0.7-32.8c0-1.4,0-2.8-0.2-4.2l0-0.5c0-0.3,0-0.5,0-0.8c-0.3-13.5-1.1-27.6-1.9-41.7
			c-0.5-8.8-1.1-17.6-1.8-25.9c-1.8-21.6-4.2-40.8-7.4-53c-5.2-19.8-16.8-32.7-27.3-42.2l-7.6-6.5c-8.5,1.9-18.5,0.6-27.6-3.7
			c-9.8-4.7-13.2-8-14.9-6.7C512.2,1535.9,495.9,1589.5,500.1,1648.5z"/>
		<path class="st19" d="M583,1778c20.6-6.4,43.1-15.5,45.5-22.3c0.1-0.3,0.2-0.5,0.2-0.8c0-0.9,0-1.9,0-2.8
			c-0.8-3.4-3.9-7.2-4.3-15.7c-0.4-9.5-0.3-20.8-0.7-32.8c0-1.4,0-2.8-0.2-4.2l0-0.5c0-0.3,0-0.5,0-0.8l-77.9-35.3
			C545.6,1662.7,541.1,1725.5,583,1778z"/>
		<path class="st24" d="M581.5,1504.1c0,0-0.4,7.1-2.8,19.3c-18.7-6-27.1-22.9-30-30c-0.8-2-1.2-3.3-1.2-3.3s0.7-0.2,2-0.4
			c2.6-0.6,7.6-1.6,12.9-2.7L581.5,1504.1z"/>
		<path class="st18" d="M589.1,1503.9c0,0-41,4.6-43.5-21c-2.5-25.6-9.5-42.2,16.6-46.3c26.1-4,32.1,5.2,35,13.6
			C600.1,1458.6,599.7,1502.1,589.1,1503.9z"/>
		<path class="st20" d="M545.7,1484.7c0,0,2.6-34,39.9-37.5c25.6-2.4,11.3-24.4,8.6-27.9c0,0-19.6,2.7-39.7,6
			C512.4,1432.3,541.6,1479.4,545.7,1484.7z"/>
		<g>
			
				<rect x="759.5" y="1635.4" transform="matrix(-0.9511 -0.3089 0.3089 -0.9511 965.0717 3522.4885)" class="st19" width="3.8" height="98.9"/>
			
				<rect x="644.2" y="1725.1" transform="matrix(-0.9998 -2.135024e-02 2.135024e-02 -0.9998 1355.1289 3470.9377)" class="st19" width="103.7" height="6.2"/>
		</g>
		<g>
			<path class="st18" d="M655.4,1718.4c0,0,16.1,6.1,27,4.1c10.9-2,28.4,5.2,30.9,9.4c2.5,4.2,1.3,5.6-4.1,6.3
				c-5.4,0.7-24.7,6.6-36.3,0.7c-11.6-5.9-27.4-7.8-27.4-7.8L655.4,1718.4z"/>
			<path class="st23" d="M528.2,1558.6c0,0,3.9,134.3,33.4,149.6c14.6,7.5,80.3,28.2,100,31.8c0,0,5.3-3.4,5.9-19.6
				c0,0-67.5-33.7-76-48.8c-12.6-22.6,18.7-84.4,2.2-106.2C577.3,1543.6,546.8,1531.7,528.2,1558.6z"/>
		</g>
	</g>
	<g>
		<path class="st25" d="M1649.1,2091.6c0,0,1.5-11.7,5-18.7c3.5-7,25.7-2.5,25.7-2.5s4.4,3.8,5.4,21.6L1649.1,2091.6z"/>
		<path class="st25" d="M1573.5,2091.4c5.2-3.2,2.2-26.9,2.2-26.9s-24.3-19.4-27.6-4.6c-3.3,14.9-23.1,21.6-34.3,23.4
			c-7.8,1.3-10.2,5.6-10.9,8.1H1573.5z"/>
		<path class="st26" d="M1623.9,1918.7c-1,5.5-1.6,9.9-1.8,13.1c-2.3,44.1-37.1,144.8-43.3,147.2c-9.6,3.6-24.8-4.1-32.8-6.6
			c-3.3-1.1-5.5-4.4-4.8-7.7c17.3-79.3,23.6-193.5,25.9-261.1c1.2-34.1,7-57.6,7-57.6s85-22.7,85.5,6
			C1660,1777.3,1631.4,1876.8,1623.9,1918.7z"/>
		<path class="st25" d="M1623.9,1918.7l-56.8-115.2c1.2-34.1,7-57.6,7-57.6s85-22.7,85.5,6C1660,1777.3,1631.4,1876.8,1623.9,1918.7
			z"/>
		<path class="st26" d="M1604.9,1752l44.9,325.6c0,0,19.7,4.8,35.1,1c0,0,13.2-173.2,12.1-215c-1.1-41.9,9.4-112-2.4-119.7
			C1682.7,1736,1604.9,1752,1604.9,1752z"/>
		<path class="st20" d="M1697.7,1668.4l5.6,78.2c0.2,2.9-1.7,5.6-4.5,6.4c-6.3,1.8-13.5,3.1-27.4,6c-13.1,2.7-30.7,5.1-52.3,5.3
			c-34.4,0.2-47.4-11.6-47.4-11.6c-1.5,0,0.8-7.2,2.8-41.4c0.7-11.6,1.4-26.3,1.8-44.9c0.4-16.7,0.7-36.6,0.8-60.1
			c0-28.3,43.9-58.8,44.7-58.8l0,0c0,4.1,6.4,11.6,16.3,12.3c11.8,0.8,26.2-5.1,26.2-11.9c0-0.1,21.3,34,28.8,70.3
			c1,4.6,1.7,9.5,2.3,14.6c0,0.1,0,0.2,0,0.2c0.1,0.9,0.2,1.9,0.3,2.8c0,0.2,0,0.3,0,0.5c0.1,0.9,0.2,1.7,0.3,2.6
			c0,0.2,0,0.5,0.1,0.8c0.1,0.8,0.1,1.6,0.2,2.4c0,0.1,0,0.1,0,0.2c0.1,0.6,0.1,1.2,0.1,1.8c0,0.4,0.1,0.9,0.1,1.3
			c0.1,0.7,0.1,1.4,0.1,2.1c0,0.4,0,0.7,0.1,1.1c0,0.7,0.1,1.4,0.1,2c0,0.3,0,0.6,0.1,0.9c0.1,1,0.1,2,0.2,3c0,0.1,0,0.2,0,0.2
			c0.1,1,0.1,1.9,0.1,2.9c0,0.2,0,0.5,0,0.7c0,0.9,0.1,1.8,0.1,2.8c0,0.1,0,0.3,0,0.4C1697.6,1663.7,1697.7,1666.1,1697.7,1668.4
			c0,0.1,0,0.1,0,0.2L1697.7,1668.4z"/>
		<path class="st20" d="M1621.8,1547.3c0,0-40.8-0.3-50.6,13.4c-9.8,13.8-31.3,87.9-20.1,112.5c11.2,24.7,32.3-10.2,43.9-25.3
			C1606.7,1632.8,1621.8,1547.3,1621.8,1547.3z"/>
		<path class="st27" d="M1621.4,1541.1l0,4.2c0,0-1.1,13.2,15.1,15.1c16.2,1.9,28.5-5.1,28.1-15.3c-1.5-7.9-3.1-13.3-3.2-19.8
			c0-2.4,0.1-5,0.6-7.9l-31.5-0.6l-9.3,1.5L1621.4,1541.1z"/>
		<path class="st28" d="M1621.3,1518.3l0.1,22.8c3.3,1.6,7.1,2.5,11.3,2.5c14.5,0,23.8-10.6,28.7-18.3c0-2.4,0.1-5,0.6-7.9
			l-31.5-0.6L1621.3,1518.3z"/>
		<path class="st27" d="M1664.4,1512.3c-3.7,19.7-29,19-40,17.8c-3.1-0.3-5-0.7-5-0.7c-3.5-0.9-5.4-6.4-6.3-13.6
			c-1.8-14.2,0.5-35,2.9-40.4c3.6-8,10.4-16.7,35.9-10.4C1677.5,1471.2,1669.1,1487.1,1664.4,1512.3z"/>
		<path class="st25" d="M1580.1,1602.5c0,0-15.8,34.8-15.3,45.3c0,0,7.8-0.3,15.3,2C1592.4,1653.5,1580.1,1602.5,1580.1,1602.5z"/>
		<path class="st25" d="M1608.1,1456.7c0,0,11.2-0.9,24.5-6.6c10.8-4.7,24.3,0.5,28.7,2.8c-0.1-0.7-0.4-1.7-1.1-2.7
			c0,0,2,1.4,2.3,3.4c0.2,0.2,0.3,0.3,0.2,0.3c0,0,2.2-0.4,3.7,0.2c0,0-1-0.1-1.4,0.5c0,0.1-0.1,0.1-0.2,0.2
			c16.8,8.1,18.3,34.6,12.9,40.8c-6.5,7.4-14.3,24-14.3,24s-2.8-3.9-1.7-10.4c1.2-6.5-4.4-6.5-11.5-9.5c-7.1-3-1.2-11.2-7.4-16.2
			c-6.2-5-28.9-2.1-28.7-5.9C1605.9,1474.5,1608.1,1457.6,1608.1,1456.7z"/>
		<path class="st25" d="M1669.6,1667.8c-6.7,26.7-78.7,40.6-95.1,43.4c0.7-11.6,1.4-26.3,1.8-44.9L1669.6,1667.8z"/>
		<path class="st27" d="M1653.7,1676.5c0.7,0,16-2.3,18.8-3.7c2.7-1.4,15.3-19.2,7.1-23.8c-8.2-4.6-30.3,13.7-30.3,13.7
			L1653.7,1676.5z"/>
		<path class="st20" d="M1560.5,1681.8c0,0,59.3,3.2,99.1-5.3c0,0,1-11.5-11.5-16.6c0,0-62-13.1-76.9-9.5
			C1556.3,1654.1,1560.5,1681.8,1560.5,1681.8z"/>
		<path class="st20" d="M1696.7,1635.3c-12.3,14.8-28.4,26.9-46.1,29.8l0,0c-0.1-0.2-5.4-8.1-4.4-19.8c0.5-5.4,2.2-11.6,6.5-18.2
			c1.3-2,2.5-4.4,3.5-7c9.7-24.7,8.2-72.3,8.2-72.3s41.1,4.3,53.9,22.6C1726.1,1581.5,1716.1,1611.8,1696.7,1635.3z"/>
		<path class="st28" d="M1624.4,1530.1c-3.1-0.3-5-0.7-5-0.7c-3.5-0.9-5.4-6.4-6.3-13.6c6.5,1.6,9.5,6.6,10.8,8.8
			C1624.4,1525.5,1624.5,1527.7,1624.4,1530.1z"/>
		<path class="st27" d="M1607.9,1541.2c0,0-14.2-23.4-3.2-24.5c11-1,15.5,6.5,17.1,9.2c1.6,2.7-0.4,15.1-0.4,15.1L1607.9,1541.2z"/>
		<path class="st20" d="M1662,1644.5c-0.4,3-1.3,5.7-2.4,8.1c-3.5,7.7-9,12.5-9,12.5l0,0c-36.9-16.6-44.3-73.8-45.6-105.2
			c-0.5-12.6,0-21.1,0-21.1c16.6-5.5,21.3,4.1,21.3,4.1s19.6,46.7,29.8,77.2C1660,1631.7,1662.5,1641,1662,1644.5z"/>
		<path class="st25" d="M1696.7,1635.3c-12.3,14.8-28.4,26.9-46.1,29.8l0,0c-36.9-16.6-44.3-73.8-45.6-105.2
			c0,0,17.5,63.3,41.2,85.4c4.3,4,8.8,6.7,13.4,7.3c0,0,30-8.5,36.2-16.4C1696.3,1635.6,1696.5,1635.3,1696.7,1635.3z"/>
	</g>
	<path class="st29" d="M2778.4,2097.6H237.4c-1.6,0-2.9-1.3-2.9-2.9v-1c0-1.6,1.3-2.9,2.9-2.9h2541.1c1.6,0,2.9,1.3,2.9,2.9v1
		C2781.3,2096.3,2780,2097.6,2778.4,2097.6z"/>
	<g>
		<path class="st5" d="M2304.8,2038c7.2,26.9,60.3,42.7,118.5,52h216.9c52.3-25.6,52.2-56.1,56.4-140.4
			c8.7-174.1-82.9-258.2-123.8-244.3c-1.7,0.6-3.4,1.2-5.2,1.9c-11.9,4.8-25.2,13.2-38.1,33.3c0,0-40.6,67.7-74,108
			c-10.8,13-20.8,23.2-28.4,27.3c-0.1,0.1-0.2,0.1-0.3,0.1c-0.4,0.2-0.8,0.4-1.2,0.6c-17.7,8.1-42.7,25.1-65.4,46.5c0,0,0,0,0,0
			C2324.8,1956.2,2294.7,2000.1,2304.8,2038z"/>
		<path class="st8" d="M2360.2,1923c30.4,9.3,186.9,54.5,223.8,6.6c26.7-34.7,10.1-123.6-4.7-181.1c-6-23.6-36.2-28.9-49.4-8.7
			c-0.1,0.2-0.3,0.4-0.4,0.6c0,0-40.6,67.7-74,108c-9.7,12.7-19.2,22.6-28.4,27.3c-0.1,0.1-0.2,0.1-0.3,0.1
			c-0.4,0.2-0.8,0.4-1.2,0.6C2407.9,1884.6,2382.9,1901.6,2360.2,1923z"/>
		<g>
			<path class="st30" d="M2476.6,1703.4c0,0-10.8,16.1-17,49.8c-5.4,29.6-10.2,40.5-18,46.5c-7.8,6.1-51.4,24-51.4,24l3.3,7.6
				c0,0,63.9-8.7,71.1-19.4c7.2-10.7,34.5-73.8,32.4-88.3C2494.8,1709,2476.6,1703.4,2476.6,1703.4z"/>
			<g>
				<path class="st27" d="M2320.1,2055.9c0.6,6.2-8.1,7.7-18.1,8.2c-10,0.5-7,2.6-20.8,5.1c-13.8,2.5-19.3-1.3-20.3-3.1
					c-0.9-1.7,5.5-4.2,12.3-7.2c0.9-0.4,1.7-0.7,2.6-1.1c7.7-3.4,12-10.3,18-16.6c5.7-6,11.1-25.4,11.1-25.4l18.7-4
					c0,0-5.3,17.4-7.1,24.9c-1.1,4.4,0.5,9.3,1.9,13C2319.2,2051.6,2319.9,2053.7,2320.1,2055.9z"/>
				<path class="st31" d="M2302,2064.1c-10,0.5-7,2.6-20.8,5.1c-13.8,2.5-19.3-1.3-20.3-3.1c-0.9-1.7,5.5-4.2,12.3-7.2l0.1,0.1
					c0,0,9.7,3.3,20.9,0.2c9.1-2.5,17.9-7.9,24.2-9.7c0.8,2,1.5,4.1,1.7,6.3C2320.7,2062.1,2312,2063.6,2302,2064.1z"/>
			</g>
			<path class="st21" d="M2506.5,1833.9c0,0-124.3-9.4-147.8,5.4c-23.4,14.8-61,186.9-61,186.9s2.3,1.9,7.5,2.4
				c4.8,0.5,15.4-2.3,15.4-2.3s54-77,57.8-96.4c3.8-19.4,2.9-36.7,11.5-37.2c8.7-0.5,116.5,13.1,132.9-15.6
				c16.3-28.7,2.8-57.2,2.8-57.2L2506.5,1833.9z"/>
			<g>
				<path class="st27" d="M2367.7,2075.8c0.6,6.2-8.1,7.7-18.1,8.2c-10,0.5-7,2.6-20.8,5.1c-13.8,2.5-19.3-1.3-20.3-3.1
					c-0.9-1.7,5.5-4.2,12.3-7.2c0.9-0.4,1.7-0.7,2.6-1.1c7.7-3.4,12-10.3,18-16.6c5.7-6,11.1-25.4,11.1-25.4l18.7-4
					c0,0-5.3,17.4-7.1,24.9c-1.1,4.4,0.5,9.3,1.9,13C2366.7,2071.6,2367.5,2073.6,2367.7,2075.8z"/>
				<path class="st31" d="M2349.6,2084.1c-10,0.5-7,2.6-20.8,5.1c-13.8,2.5-19.3-1.3-20.3-3.1c-0.9-1.7,5.5-4.2,12.3-7.2l0.1,0.1
					c0,0,9.7,3.3,20.9,0.2c9.1-2.5,17.9-7.9,24.2-9.7c0.8,2,1.5,4.1,1.7,6.3C2368.3,2082.1,2359.6,2083.6,2349.6,2084.1z"/>
			</g>
			<path class="st14" d="M2530.8,1841.7c0,0-110.5,5.2-133.3,20.9c-22.8,15.7-53.6,189.1-53.6,189.1s2.4,1.8,7.6,2.1
				c4.8,0.3,15.3-2.9,15.3-2.9s50.9-79,54-98.6c3-19.5,1.4-36.8,10.1-37.6s117,8.6,132.1-20.8
				C2578.2,1864.6,2530.8,1841.7,2530.8,1841.7z"/>
			<path class="st32" d="M2493,1694.5c-2.1-3.8-4.7-10.5-6.6-22.8c0.2,1.2,3.4,16.6,9.9,25c25.6,14.5,76.2,65.1,75.9,75.3
				c0,0,14.7-29.2,15-29.4c0,0,27.9-40.9-9.7-60.7c-19.1-10.1-20-24.6-20.1-37.2c-0.1-12.7-9.5-66.5-45.4-49.9c0,0-6.1-2.2-8.7-1.7
				c0,0,2.2,0.3,3.4,1.3c-4.3,0-10.4,0.8-15.3,4C2478.5,1607.1,2471,1676.8,2493,1694.5z"/>
			<path class="st27" d="M2535.5,1684.9c0,0-10.3-1-20.6,0c-7,0.7-13.9,2.8-17.9,4.5c-9.7,4.1-8.7,21.3,11.7,18.1
				C2529.2,1704.3,2536.9,1690,2535.5,1684.9z"/>
			<path class="st27" d="M2497.9,1697.4c-0.1,0.1-2.9,14.8,10.5,14.2c8.8-0.4,27.7-11,26-18.5c-0.8-3.6-7.4-12.8-8.8-34l-1.6,0.4
				l-26.9,7.2c0,0,1.2,8.5,1.7,16.6C2499.4,1690.2,2499.4,1696.6,2497.9,1697.4z"/>
			<path class="st30" d="M2497.2,1666.8c0,0,1.2,8.5,1.7,16.6c15.2-1.4,22.3-15.9,25.1-23.8L2497.2,1666.8z"/>
			<path class="st32" d="M2526.7,1656.4c0,0,7.1-13.2,8.3-24.1c0.9-7.8-5-36.1-33.4-30.1c0,0-8.3,1.4-15.8,7.2
				c-6,4.6-14.3,14.3-2.6,38.6l3.2,8.2L2526.7,1656.4z"/>
			<path class="st27" d="M2492.6,1674.8c0,0,36.1-1.8,34.6-24.3c-1.5-22.5,2.2-37.8-20.9-37.6s-27,9.1-28.4,16.7
				C2476.6,1637.2,2483.2,1674.7,2492.6,1674.8z"/>
			<path class="st32" d="M2489.8,1613.4c0,0,11.6,25.7,27,28.6c15.4,2.9,21.7-1.6,21.7-1.6s-12.2-8.5-15.7-24.4
				C2522.9,1616,2496.4,1600.4,2489.8,1613.4z"/>
			<path class="st32" d="M2492.4,1615.4c0,0-7,6.4-8.4,12.2c-1.4,5.8-1.4,17.7-4.9,17.5c0,0-8.6-17.4-0.9-28.1
				C2486.3,1605.7,2492.4,1615.4,2492.4,1615.4z"/>
			<path class="st14" d="M2456.5,1835.8c2.9,3.5,12,4.6,21.8,6.2c7.7,1.3,15.7,2.9,21.5,6.2c13,7.6,55.5,33.5,68,32.3
				c4.8-0.5,3.9-9.7,1-21.9c-4.6-19.3-14.2-46.2-14.2-57.8c0-6.4-2.1-21.4-4.9-38.7c-0.2-1.4-0.5-2.8-0.7-4.2
				c-5.6-33.5-13.4-73-13.4-73s-8.6,18.9-25.5,18.9c-16.8,0-12.9-14.4-12.9-14.4s-15.4,1.8-19,5.7c-3.6,3.9-12.8,20.8-14.7,25.4
				c0,0-0.4,5.9,14.2,8.7c0,0-3.5,15.9-4,26.5c-0.3,7.8,5.4,32.4,7,47.7c0.6,5.4,0.7,9.7-0.2,11.6c-1.1,2.5-4.8,4.9-8.9,7.3
				C2463.2,1827.1,2453,1831.7,2456.5,1835.8z"/>
			<path class="st21" d="M2471.4,1822.3c-9.3,15.9,25.3,20.7,31,24c13,7.6,52.8,35.3,65.3,34.2c4.8-0.5,3.9-9.7,1-21.9
				c-4.6-19.3-14.2-46.2-14.2-57.8c0-6.4-2.1-21.4-4.9-38.7l-15-14.4c0,0-16.1,41.5-31.4,48.3c-8,3.6-16.4,5.9-22.6,7.3
				c0.6,5.4,0.7,9.7-0.2,11.6C2479.2,1817.4,2475.6,1819.9,2471.4,1822.3z"/>
			<path class="st27" d="M2540.1,1697.3c0,0,12.8-7.8,25.2,7c12.4,14.8-8.8,120.4-27.2,125.8c-20.4,6-79.4-1-79.4-1l1.1-9.2
				c0,0,62.8-12,65.4-15.4S2533.6,1699,2540.1,1697.3z"/>
			<path class="st14" d="M2535.5,1684.9c0,0,26.3,2.4,34,11s9.9,32.1,9.9,32.1s-23.2,18.7-51.1,11.5L2535.5,1684.9z"/>
			<g>
				
					<rect x="2417.8" y="1834.1" transform="matrix(-1 -1.224647e-16 1.224647e-16 -1 4870.3867 3672.2708)" class="st33" width="34.8" height="4.1"/>
				<path class="st33" d="M2425.2,1837.6c-0.3-1.4-32-51-32-51h-70.4l35.3,49.7L2425.2,1837.6z"/>
				<path class="st32" d="M2422.2,1838.2c-0.3-1.4-32.1-51.6-32.1-51.6h-67.3l33.6,51.6H2422.2z"/>
				<path class="st33" d="M2362.9,1812.6c0.7,2,2.9,3.6,4.9,3.6c2,0,3.1-1.6,2.4-3.6c-0.7-2-2.9-3.6-4.9-3.6
					C2363.2,1808.9,2362.2,1810.5,2362.9,1812.6z"/>
			</g>
			<path class="st27" d="M2465,1819.4c0,0-20.4-4-22.7-3c-2.3,1-15.2,12.5-13.8,14.8c1.3,2.3,6.6,4,12.5,2s18.8-3,21.1-5.9
				C2464.3,1824.3,2465,1819.4,2465,1819.4z"/>
		</g>
	</g>
	<g>
		<polygon class="st34" points="2029.3,1246.6 1386.3,1246.6 1337,1085.2 1980,1085.2 		"/>
		<g>
			<path class="st35" d="M1955.5,1139.8l5.9,19.3c2.6,8.5-2.2,15.4-10.7,15.4H1418c-8.5,0-17.6-6.9-20.2-15.4l-5.9-19.3
				c-2.6-8.5,2.2-15.4,10.7-15.4h532.7C1943.9,1124.4,1952.9,1131.3,1955.5,1139.8z"/>
			<g>
				<path class="st9" d="M1848.9,1143.8h-8.2l-0.8-2.5h11.4l0.7,2.2l-3,14.1h-3.2L1848.9,1143.8z"/>
				<path class="st9" d="M1855.8,1149.5c-1.4-4.6,0.3-8.4,4.5-8.4c4.3,0,8.2,3.7,9.6,8.4c1.4,4.6-0.3,8.4-4.5,8.4
					C1861.2,1157.9,1857.3,1154.2,1855.8,1149.5z M1867,1149.5c-1-3.2-3.4-5.8-5.9-5.8c-2.5,0-3.3,2.6-2.3,5.8
					c1,3.2,3.4,5.8,5.9,5.8C1867.2,1155.3,1868,1152.7,1867,1149.5z"/>
				<path class="st9" d="M1871.2,1145.3c-0.7-2.3,0.3-4.2,2.6-4.2c2.3,0,4.4,1.9,5.1,4.2c0.7,2.3-0.3,4.2-2.6,4.2
					C1874,1149.5,1871.9,1147.6,1871.2,1145.3z M1883.5,1141.3h2.3l-6.9,16.3h-2.3L1883.5,1141.3z M1876.8,1145.3
					c-0.4-1.3-1.5-2.4-2.5-2.4c-1.1,0-1.4,1.1-1,2.4c0.4,1.3,1.5,2.4,2.5,2.4C1876.8,1147.7,1877.2,1146.6,1876.8,1145.3z
					 M1883.5,1153.6c-0.7-2.3,0.3-4.2,2.6-4.2c2.3,0,4.4,1.9,5.1,4.2c0.7,2.3-0.3,4.2-2.6,4.2
					C1886.3,1157.8,1884.2,1155.9,1883.5,1153.6z M1889.1,1153.6c-0.4-1.3-1.5-2.4-2.5-2.4c-1.1,0-1.4,1.1-1,2.4
					c0.4,1.3,1.5,2.4,2.5,2.4C1889.2,1156,1889.5,1154.9,1889.1,1153.6z"/>
			</g>
			<g>
				<path class="st5" d="M1762.9,1124.4l15.3,50.2H1418c-7.1,0-14.5-4.8-18.3-11.3c-0.8-1.3-1.4-2.7-1.8-4.1l-5.9-19.3
					c-2.6-8.5,2.2-15.4,10.7-15.4H1762.9z"/>
				<path class="st8" d="M1466.4,1124.4l-15.2,50.2H1418c-7.1,0-14.5-4.8-18.3-11.3l11.8-38.8H1466.4z"/>
				<polygon class="st8" points="1560.7,1124.4 1545.5,1174.6 1490.5,1174.6 1505.7,1124.4 				"/>
				<polygon class="st8" points="1655,1124.4 1639.8,1174.6 1584.7,1174.6 1599.9,1124.4 				"/>
				<polygon class="st8" points="1749.2,1124.4 1734.1,1174.6 1679,1174.6 1694.2,1124.4 				"/>
			</g>
		</g>
		<g>
			<polygon class="st11" points="1515.7,1204.3 1419.5,1204.3 1417.4,1197.7 1513.6,1197.7 			"/>
			<polygon class="st11" points="1495,1222.8 1425.1,1222.8 1423.1,1216.2 1493,1216.2 			"/>
			<polygon class="st11" points="1541.1,1222.8 1499.3,1222.8 1497.3,1216.2 1539.1,1216.2 			"/>
			<polygon class="st11" points="1612.2,1222.8 1548.4,1222.8 1546.3,1216.2 1610.2,1216.2 			"/>
			<polygon class="st11" points="1552,1204.3 1522.9,1204.3 1520.9,1197.7 1550,1197.7 			"/>
			<polygon class="st11" points="1667.9,1204.3 1562,1204.3 1560,1197.7 1665.9,1197.7 			"/>
		</g>
	</g>
	<g>
		<polygon class="st34" points="1161.3,1490.2 709,1490.2 638.7,1259.9 1091,1259.9 		"/>
		<polygon class="st19" points="1097.5,1375.1 702.5,1375.1 672.6,1277.2 1067.6,1277.2 		"/>
		<g>
			<polygon class="st13" points="767.5,1297.1 700.5,1297.1 699,1291.9 765.9,1291.9 			"/>
			<polygon class="st13" points="839,1297.1 783.4,1297.1 781.8,1291.9 837.4,1291.9 			"/>
			<polygon class="st13" points="968.5,1297.1 853.5,1297.1 851.9,1291.9 966.9,1291.9 			"/>
			<polygon class="st13" points="773.2,1315.8 706.3,1315.8 704.7,1310.6 771.6,1310.6 			"/>
			<polygon class="st13" points="844.7,1315.8 789.1,1315.8 787.5,1310.6 843.1,1310.6 			"/>
			<polygon class="st13" points="910.5,1315.8 854.8,1315.8 853.2,1310.6 908.9,1310.6 			"/>
			<polygon class="st13" points="1042.3,1318 927.3,1318 925.7,1312.8 1040.7,1312.8 			"/>
		</g>
		<g>
			<polygon class="st13" points="780.4,1339.5 713.5,1339.5 711.9,1334.3 778.8,1334.3 			"/>
			<polygon class="st13" points="852,1339.5 796.3,1339.5 794.7,1334.3 850.4,1334.3 			"/>
			<polygon class="st13" points="981.5,1339.5 866.5,1339.5 864.9,1334.3 979.9,1334.3 			"/>
			<polygon class="st13" points="786.1,1358.2 719.2,1358.2 717.6,1353 784.5,1353 			"/>
			<polygon class="st13" points="857.7,1358.2 802,1358.2 800.4,1353 856.1,1353 			"/>
			<polygon class="st13" points="923.4,1358.2 867.8,1358.2 866.2,1353 921.8,1353 			"/>
			<polygon class="st13" points="1055.3,1360.4 940.3,1360.4 938.7,1355.2 1053.7,1355.2 			"/>
		</g>
		<g>
			<g>
				<g>
					<path class="st17" d="M967.4,1456.1c-15.3,0-31.6-12.5-36.3-27.8c-4.7-15.3,4-27.8,19.3-27.8c15.3,0,31.6,12.5,36.3,27.8
						C991.4,1443.7,982.7,1456.1,967.4,1456.1z M951.9,1405.6c-12.5,0-19.6,10.2-15.8,22.7c3.8,12.5,17.1,22.7,29.7,22.7
						c12.5,0,19.6-10.2,15.8-22.7C977.8,1415.8,964.5,1405.6,951.9,1405.6z"/>
				</g>
				<g>
					<path class="st17" d="M962.6,1442.5c-1.1-0.1-2.2-0.5-3.1-1.3l-15.8-12.5c-2.1-1.7-2.9-4.4-1.7-6c1.2-1.6,3.9-1.6,6,0.1
						l11.1,8.8l5.5-13.1c0.8-1.9,3.3-2.3,5.6-0.9c2.3,1.4,3.5,4,2.7,5.9l-7.2,17.2c-0.4,1-1.4,1.7-2.6,1.7
						C963,1442.5,962.8,1442.5,962.6,1442.5z"/>
				</g>
			</g>
			<g>
				<g>
					<path class="st17" d="M887.8,1456.1c-15.3,0-31.6-12.5-36.3-27.8c-4.7-15.3,4-27.8,19.3-27.8c15.3,0,31.6,12.5,36.3,27.8
						C911.8,1443.7,903.1,1456.1,887.8,1456.1z M872.4,1405.6c-12.5,0-19.6,10.2-15.8,22.7c3.8,12.5,17.1,22.7,29.7,22.7
						c12.5,0,19.6-10.2,15.8-22.7C898.2,1415.8,884.9,1405.6,872.4,1405.6z"/>
				</g>
				<g>
					<path class="st17" d="M883.1,1442.5c-1.1-0.1-2.2-0.5-3.1-1.3l-15.8-12.5c-2.1-1.7-2.9-4.4-1.7-6c1.2-1.6,3.9-1.6,6,0.1
						l11.1,8.8l5.5-13.1c0.8-1.9,3.3-2.3,5.6-0.9c2.3,1.4,3.5,4,2.7,5.9l-7.2,17.2c-0.4,1-1.4,1.7-2.6,1.7
						C883.5,1442.5,883.3,1442.5,883.1,1442.5z"/>
				</g>
			</g>
			<g>
				<g>
					<path class="st17" d="M805.4,1456.1c-15.3,0-31.6-12.5-36.3-27.8c-4.7-15.3,4-27.8,19.3-27.8c15.3,0,31.6,12.5,36.3,27.8
						C829.4,1443.7,820.7,1456.1,805.4,1456.1z M790,1405.6c-12.5,0-19.6,10.2-15.8,22.7c3.8,12.5,17.1,22.7,29.7,22.7
						c12.5,0,19.6-10.2,15.8-22.7C815.8,1415.8,802.5,1405.6,790,1405.6z"/>
				</g>
				<g>
					<path class="st17" d="M800.7,1442.5c-1.1-0.1-2.2-0.5-3.1-1.3l-15.8-12.5c-2.1-1.7-2.9-4.4-1.7-6c1.2-1.6,3.9-1.6,6,0.1
						l11.1,8.8l5.5-13.1c0.8-1.9,3.3-2.3,5.6-0.9c2.3,1.4,3.5,4,2.7,5.9l-7.2,17.2c-0.4,1-1.4,1.7-2.6,1.7
						C801.1,1442.5,800.9,1442.5,800.7,1442.5z"/>
				</g>
			</g>
			<g>
				<g>
					<path class="st6" d="M1044.1,1456.1c-15.3,0-31.6-12.5-36.3-27.8c-4.7-15.3,4-27.8,19.3-27.8c15.3,0,31.6,12.5,36.3,27.8
						C1068.1,1443.7,1059.4,1456.1,1044.1,1456.1z M1028.7,1405.6c-12.5,0-19.6,10.2-15.8,22.7c3.8,12.5,17.1,22.7,29.7,22.7
						c12.5,0,19.6-10.2,15.8-22.7C1054.5,1415.8,1041.2,1405.6,1028.7,1405.6z"/>
				</g>
				<g>
					<path class="st6" d="M1037,1432.9L1037,1432.9c-2.2,0-4.5-1.8-5.1-3.9l-3.6-11.8c-0.7-2.2,0.6-3.9,2.7-3.9l0,0
						c2.2,0,4.5,1.8,5.1,3.9l3.6,11.8C1040.4,1431.1,1039.2,1432.9,1037,1432.9z"/>
					<path class="st6" d="M1040.3,1442.2h-0.8c-1.9,0-4-1.6-4.6-3.5l0,0c-0.6-1.9,0.5-3.5,2.4-3.5h0.8c1.9,0,4,1.6,4.6,3.5l0,0
						C1043.3,1440.6,1042.2,1442.2,1040.3,1442.2z"/>
				</g>
			</g>
		</g>
	</g>
	<g>
		<path class="st8" d="M2125.1,1444.4c0,0,57.2,59.3,59.9,81.6s-27.4,57.2-27.4,57.2L2125.1,1444.4z"/>
		<path class="st21" d="M2099.3,2059.1c0,0-2,31.5-8.1,31.9c-0.8,0.1-30.9,0-30.9,0l-38.4-0.3c0,0,0.3-9.2,11.5-11.2
			c11.2-1.9,30-9.8,36.9-24.6C2077.4,2039.4,2099.3,2059.1,2099.3,2059.1z"/>
		<path class="st21" d="M2184.8,2059.3c0,0-2,31.5-8.1,31.9c-0.8,0.1-30.9,0-30.9,0l-38.4-0.3c0,0,0.3-9.2,11.5-11.2
			c11.2-1.9,30-9.8,36.9-24.6C2162.9,2039.6,2184.8,2059.3,2184.8,2059.3z"/>
		<path class="st21" d="M2057.5,1720.8c0,0,9.9,64.2,47.1,178.3c37.2,114.1,42.2,163.4,42.2,163.4l40.2-1c0,0,0.6-124.6-16.5-181.9
			c-17.1-57.4-3.3-206.6-3.3-206.6L2057.5,1720.8z"/>
		<path class="st14" d="M2038,1676.2c0,0-1.6,96.8,14.9,215.6c16.5,118.8,10.7,169.3,10.7,169.3l40.1,1.4c0,0,24.2-118.8,17.5-178.3
			c-6.7-59.5,33.3-204,33.3-204L2038,1676.2z"/>
		<path class="st27" d="M2116.2,1449.9l-21.4,14l-30.9-5.8c0.4-2.5,2.5-12.8,4.4-22.2c0.1-0.6,0.2-1.1,0.3-1.6c1.6-8,3-14.8,3-14.8
			l28.9-12.7l10.8-4.7c0,0.2-0.9,8.8-1,10.1C2108.2,1434.6,2116.2,1449.9,2116.2,1449.9z"/>
		<path class="st8" d="M2071.8,1442.8c0.6-0.3,37.2-11,41.2-9.6c4,1.3,6.3,9,6.3,9l-59.9,13.4
			C2059.5,1455.5,2064.2,1446,2071.8,1442.8z"/>
		<path class="st5" d="M2169.8,1688.4c-6.3,28.3-109.5,31.4-136,5.7c-3-2.9-3.1-16.5-2-34.9c2.3-35.9,9.6-89.8,9.9-117.4
			c0.2-13.3,2-26.9,4.5-39.3c5.2-26.3,13.2-47,13.2-47s50.4-16.2,59.9-13.4C2164.7,1455.6,2176.1,1660.1,2169.8,1688.4z"/>
		<path class="st8" d="M2031.8,1659.2c2.3-35.9,9.6-89.8,9.9-117.4c0.2-13.3,2-26.9,4.5-39.3l30.3-5.3
			C2076.6,1497.2,2106,1618.4,2031.8,1659.2z"/>
		<path class="st27" d="M2048.4,1609.2c0,0,2.1,4.9-2.3,8.3c-4.3,3.3-7.2,8.7-6.2,12.6c1,3.9,10.5,10.4,13.8,9.3
			c3.3-1,10-6.2,9.3-8.3c-0.7-2.1,4.6-18.2-3.5-24.4C2051.5,1600.5,2048.4,1609.2,2048.4,1609.2z"/>
		<path class="st5" d="M2082.6,1448.3c0,0-29.6,5.5-53.2,40.1c-23.6,34.7-39.2,60.5-34.9,73c4.3,12.5,43.8,56,50.6,56
			c6.8,0,17.8-4.9,18.5-16.1c0,0-27.8-41.8-22.3-48c2.4-2.7,36.2-30,41-17.6C2090.3,1556.2,2082.6,1448.3,2082.6,1448.3z"/>
		<path class="st36" d="M2108.1,1412.6c-6.4,10.7-30,19.9-39.8,23.3c0.1-0.6,0.2-1.1,0.3-1.6c1.6-8,3-14.8,3-14.8l28.9-12.7
			C2106.8,1406.7,2110.7,1408.2,2108.1,1412.6z"/>
		<path class="st27" d="M2060.7,1417.7c0,0,46.4,14.6,55.1-14.5c8.6-29,20.5-46.7-8.8-57.3c-29.3-10.5-38.4-1.2-43.6,7.8
			C2058.1,1362.8,2048.9,1413.1,2060.7,1417.7z"/>
		<path class="st21" d="M2065.2,1351c0,0,2.9,33.8,9.9,32.4c7-1.5,13.3-2.5,12.3,7.7c-1,10.2-10.8,21.9,10.8,23.8
			c21.6,1.9,52.7-53.7,46.8-64.2C2127.9,1320.2,2040.6,1313.9,2065.2,1351z"/>
	</g>
	<g>
		<g class="st37">
			<path class="st11" d="M1100.4,1100.6v-8.2h8.5v8.2H1100.4z"/>
			<path class="st11" d="M1100.4,1084v-8.2h8.5v8.2H1100.4z"/>
			<path class="st11" d="M1100.4,1067.3v-8.2h8.5v8.2H1100.4z"/>
			<path class="st11" d="M1100.4,1050.6v-8.2h8.5v8.2H1100.4z"/>
			<path class="st11" d="M1100.4,1034v-8.2h8.5v8.2H1100.4z"/>
			<path class="st11" d="M1100.4,1017.3v-8.2h8.5v8.2H1100.4z"/>
			<path class="st11" d="M1100.4,1000.6v-8.2h8.5v8.2H1100.4z"/>
			<path class="st11" d="M1100.4,984v-8.2h8.5v8.2H1100.4z"/>
			<path class="st11" d="M1100.4,967.3V959h8.5v8.2H1100.4z"/>
			<path class="st11" d="M1100.4,950.6v-8.2h8.5v8.2H1100.4z"/>
			<path class="st11" d="M1100.4,934v-8.2h8.5v8.2H1100.4z"/>
			<path class="st11" d="M1100.4,917.3V909h8.5v8.2H1100.4z"/>
			<path class="st11" d="M1100.4,900.6v-8.2h8.5v8.2H1100.4z"/>
			<path class="st11" d="M1100.4,883.9v-8.2h8.5v8.2H1100.4z"/>
			<path class="st11" d="M1100.4,867.3V859h8.5v8.2H1100.4z"/>
			<path class="st11" d="M1100.4,850.6v-8.2h8.5v8.2H1100.4z"/>
			<path class="st11" d="M1100.4,833.9v-8.2h8.5v8.2H1100.4z"/>
			<path class="st11" d="M1100.4,817.3V809h8.5v8.2H1100.4z"/>
		</g>
		<g class="st37">
			<path class="st11" d="M1074.4,1000.6v-8.2h8.5v8.2H1074.4z"/>
			<path class="st11" d="M1074.4,984v-8.2h8.5v8.2H1074.4z"/>
			<path class="st11" d="M1074.4,967.3V959h8.5v8.2H1074.4z"/>
			<path class="st11" d="M1074.4,950.6v-8.2h8.5v8.2H1074.4z"/>
			<path class="st11" d="M1074.4,934v-8.2h8.5v8.2H1074.4z"/>
			<path class="st11" d="M1074.4,917.3V909h8.5v8.2H1074.4z"/>
			<path class="st11" d="M1074.4,900.6v-8.2h8.5v8.2H1074.4z"/>
			<path class="st11" d="M1074.4,883.9v-8.2h8.5v8.2H1074.4z"/>
			<path class="st11" d="M1074.4,867.3V859h8.5v8.2H1074.4z"/>
			<path class="st11" d="M1074.4,850.6v-8.2h8.5v8.2H1074.4z"/>
			<path class="st11" d="M1074.4,833.9v-8.2h8.5v8.2H1074.4z"/>
			<path class="st11" d="M1074.4,817.3V809h8.5v8.2H1074.4z"/>
		</g>
		<g class="st37">
			<path class="st11" d="M1048,1100.6v-8.2h8.5v8.2H1048z"/>
			<path class="st11" d="M1048,1084v-8.2h8.5v8.2H1048z"/>
			<path class="st11" d="M1048,1067.3v-8.2h8.5v8.2H1048z"/>
			<path class="st11" d="M1048,1050.6v-8.2h8.5v8.2H1048z"/>
			<path class="st11" d="M1048,1034v-8.2h8.5v8.2H1048z"/>
			<path class="st11" d="M1048,1017.3v-8.2h8.5v8.2H1048z"/>
			<path class="st11" d="M1048,1000.6v-8.2h8.5v8.2H1048z"/>
			<path class="st11" d="M1048,984v-8.2h8.5v8.2H1048z"/>
			<path class="st11" d="M1048,967.3V959h8.5v8.2H1048z"/>
			<path class="st11" d="M1048,950.6v-8.2h8.5v8.2H1048z"/>
			<path class="st11" d="M1048,934v-8.2h8.5v8.2H1048z"/>
			<path class="st11" d="M1048,917.3V909h8.5v8.2H1048z"/>
			<path class="st11" d="M1048,900.6v-8.2h8.5v8.2H1048z"/>
			<path class="st11" d="M1048,883.9v-8.2h8.5v8.2H1048z"/>
			<path class="st11" d="M1048,867.3V859h8.5v8.2H1048z"/>
			<path class="st11" d="M1048,850.6v-8.2h8.5v8.2H1048z"/>
			<path class="st11" d="M1048,833.9v-8.2h8.5v8.2H1048z"/>
			<path class="st11" d="M1048,817.3V809h8.5v8.2H1048z"/>
		</g>
		<g class="st37">
			<path class="st11" d="M1025.7,1134v-8.2h8.5v8.2H1025.7z"/>
			<path class="st11" d="M1025.7,1117.3v-8.2h8.5v8.2H1025.7z"/>
			<path class="st11" d="M1025.7,1100.6v-8.2h8.5v8.2H1025.7z"/>
			<path class="st11" d="M1025.7,1084v-8.2h8.5v8.2H1025.7z"/>
			<path class="st11" d="M1025.7,1067.3v-8.2h8.5v8.2H1025.7z"/>
			<path class="st11" d="M1025.7,1050.6v-8.2h8.5v8.2H1025.7z"/>
			<path class="st11" d="M1025.7,1034v-8.2h8.5v8.2H1025.7z"/>
			<path class="st11" d="M1025.7,1017.3v-8.2h8.5v8.2H1025.7z"/>
			<path class="st11" d="M1025.7,1000.6v-8.2h8.5v8.2H1025.7z"/>
			<path class="st11" d="M1025.7,984v-8.2h8.5v8.2H1025.7z"/>
			<path class="st11" d="M1025.7,967.3V959h8.5v8.2H1025.7z"/>
			<path class="st11" d="M1025.7,950.6v-8.2h8.5v8.2H1025.7z"/>
			<path class="st11" d="M1025.7,934v-8.2h8.5v8.2H1025.7z"/>
			<path class="st11" d="M1025.7,917.3V909h8.5v8.2H1025.7z"/>
			<path class="st11" d="M1025.7,900.6v-8.2h8.5v8.2H1025.7z"/>
			<path class="st11" d="M1025.7,883.9v-8.2h8.5v8.2H1025.7z"/>
			<path class="st11" d="M1025.7,867.3V859h8.5v8.2H1025.7z"/>
			<path class="st11" d="M1025.7,850.6v-8.2h8.5v8.2H1025.7z"/>
			<path class="st11" d="M1025.7,833.9v-8.2h8.5v8.2H1025.7z"/>
			<path class="st11" d="M1025.7,817.3V809h8.5v8.2H1025.7z"/>
		</g>
		<g class="st37">
			<path class="st11" d="M996.3,984v-8.2h8.5v8.2H996.3z"/>
			<path class="st11" d="M996.3,967.3V959h8.5v8.2H996.3z"/>
			<path class="st11" d="M996.3,950.6v-8.2h8.5v8.2H996.3z"/>
			<path class="st11" d="M996.3,934v-8.2h8.5v8.2H996.3z"/>
			<path class="st11" d="M996.3,917.3V909h8.5v8.2H996.3z"/>
			<path class="st11" d="M996.3,900.6v-8.2h8.5v8.2H996.3z"/>
			<path class="st11" d="M996.3,883.9v-8.2h8.5v8.2H996.3z"/>
			<path class="st11" d="M996.3,867.3V859h8.5v8.2H996.3z"/>
			<path class="st11" d="M996.3,850.6v-8.2h8.5v8.2H996.3z"/>
			<path class="st11" d="M996.3,833.9v-8.2h8.5v8.2H996.3z"/>
			<path class="st11" d="M996.3,817.3V809h8.5v8.2H996.3z"/>
		</g>
	</g>
	<g>
		<g class="st37">
			<path class="st11" d="M2277.6,1409.3v8.2h-8.5v-8.2H2277.6z"/>
			<path class="st11" d="M2277.6,1426v8.2h-8.5v-8.2H2277.6z"/>
			<path class="st11" d="M2277.6,1442.7v8.2h-8.5v-8.2H2277.6z"/>
			<path class="st11" d="M2277.6,1459.3v8.2h-8.5v-8.2H2277.6z"/>
			<path class="st11" d="M2277.6,1476v8.2h-8.5v-8.2H2277.6z"/>
			<path class="st11" d="M2277.6,1492.7v8.2h-8.5v-8.2H2277.6z"/>
			<path class="st11" d="M2277.6,1509.3v8.2h-8.5v-8.2H2277.6z"/>
			<path class="st11" d="M2277.6,1526v8.2h-8.5v-8.2H2277.6z"/>
			<path class="st11" d="M2277.6,1542.7v8.2h-8.5v-8.2H2277.6z"/>
			<path class="st11" d="M2277.6,1559.4v8.2h-8.5v-8.2H2277.6z"/>
			<path class="st11" d="M2277.6,1576v8.2h-8.5v-8.2H2277.6z"/>
			<path class="st11" d="M2277.6,1592.7v8.2h-8.5v-8.2H2277.6z"/>
			<path class="st11" d="M2277.6,1609.4v8.2h-8.5v-8.2H2277.6z"/>
			<path class="st11" d="M2277.6,1626v8.2h-8.5v-8.2H2277.6z"/>
			<path class="st11" d="M2277.6,1642.7v8.2h-8.5v-8.2H2277.6z"/>
			<path class="st11" d="M2277.6,1659.4v8.2h-8.5v-8.2H2277.6z"/>
			<path class="st11" d="M2277.6,1676v8.2h-8.5v-8.2H2277.6z"/>
			<path class="st11" d="M2277.6,1692.7v8.2h-8.5v-8.2H2277.6z"/>
		</g>
		<g class="st37">
			<path class="st11" d="M2303.5,1509.3v8.2h-8.5v-8.2H2303.5z"/>
			<path class="st11" d="M2303.5,1526v8.2h-8.5v-8.2H2303.5z"/>
			<path class="st11" d="M2303.5,1542.7v8.2h-8.5v-8.2H2303.5z"/>
			<path class="st11" d="M2303.5,1559.4v8.2h-8.5v-8.2H2303.5z"/>
			<path class="st11" d="M2303.5,1576v8.2h-8.5v-8.2H2303.5z"/>
			<path class="st11" d="M2303.5,1592.7v8.2h-8.5v-8.2H2303.5z"/>
			<path class="st11" d="M2303.5,1609.4v8.2h-8.5v-8.2H2303.5z"/>
			<path class="st11" d="M2303.5,1626v8.2h-8.5v-8.2H2303.5z"/>
			<path class="st11" d="M2303.5,1642.7v8.2h-8.5v-8.2H2303.5z"/>
			<path class="st11" d="M2303.5,1659.4v8.2h-8.5v-8.2H2303.5z"/>
			<path class="st11" d="M2303.5,1676v8.2h-8.5v-8.2H2303.5z"/>
			<path class="st11" d="M2303.5,1692.7v8.2h-8.5v-8.2H2303.5z"/>
		</g>
		<g class="st37">
			<path class="st11" d="M2330,1409.3v8.2h-8.5v-8.2H2330z"/>
			<path class="st11" d="M2330,1426v8.2h-8.5v-8.2H2330z"/>
			<path class="st11" d="M2330,1442.7v8.2h-8.5v-8.2H2330z"/>
			<path class="st11" d="M2330,1459.3v8.2h-8.5v-8.2H2330z"/>
			<path class="st11" d="M2330,1476v8.2h-8.5v-8.2H2330z"/>
			<path class="st11" d="M2330,1492.7v8.2h-8.5v-8.2H2330z"/>
			<path class="st11" d="M2330,1509.3v8.2h-8.5v-8.2H2330z"/>
			<path class="st11" d="M2330,1526v8.2h-8.5v-8.2H2330z"/>
			<path class="st11" d="M2330,1542.7v8.2h-8.5v-8.2H2330z"/>
			<path class="st11" d="M2330,1559.4v8.2h-8.5v-8.2H2330z"/>
			<path class="st11" d="M2330,1576v8.2h-8.5v-8.2H2330z"/>
			<path class="st11" d="M2330,1592.7v8.2h-8.5v-8.2H2330z"/>
			<path class="st11" d="M2330,1609.4v8.2h-8.5v-8.2H2330z"/>
			<path class="st11" d="M2330,1626v8.2h-8.5v-8.2H2330z"/>
			<path class="st11" d="M2330,1642.7v8.2h-8.5v-8.2H2330z"/>
			<path class="st11" d="M2330,1659.4v8.2h-8.5v-8.2H2330z"/>
			<path class="st11" d="M2330,1676v8.2h-8.5v-8.2H2330z"/>
			<path class="st11" d="M2330,1692.7v8.2h-8.5v-8.2H2330z"/>
		</g>
		<g class="st37">
			<path class="st11" d="M2352.2,1376v8.2h-8.5v-8.2H2352.2z"/>
			<path class="st11" d="M2352.2,1392.7v8.2h-8.5v-8.2H2352.2z"/>
			<path class="st11" d="M2352.2,1409.3v8.2h-8.5v-8.2H2352.2z"/>
			<path class="st11" d="M2352.2,1426v8.2h-8.5v-8.2H2352.2z"/>
			<path class="st11" d="M2352.2,1442.7v8.2h-8.5v-8.2H2352.2z"/>
			<path class="st11" d="M2352.2,1459.3v8.2h-8.5v-8.2H2352.2z"/>
			<path class="st11" d="M2352.2,1476v8.2h-8.5v-8.2H2352.2z"/>
			<path class="st11" d="M2352.2,1492.7v8.2h-8.5v-8.2H2352.2z"/>
			<path class="st11" d="M2352.2,1509.3v8.2h-8.5v-8.2H2352.2z"/>
			<path class="st11" d="M2352.2,1526v8.2h-8.5v-8.2H2352.2z"/>
			<path class="st11" d="M2352.2,1542.7v8.2h-8.5v-8.2H2352.2z"/>
			<path class="st11" d="M2352.2,1559.4v8.2h-8.5v-8.2H2352.2z"/>
			<path class="st11" d="M2352.2,1576v8.2h-8.5v-8.2H2352.2z"/>
			<path class="st11" d="M2352.2,1592.7v8.2h-8.5v-8.2H2352.2z"/>
			<path class="st11" d="M2352.2,1609.4v8.2h-8.5v-8.2H2352.2z"/>
			<path class="st11" d="M2352.2,1626v8.2h-8.5v-8.2H2352.2z"/>
			<path class="st11" d="M2352.2,1642.7v8.2h-8.5v-8.2H2352.2z"/>
			<path class="st11" d="M2352.2,1659.4v8.2h-8.5v-8.2H2352.2z"/>
			<path class="st11" d="M2352.2,1676v8.2h-8.5v-8.2H2352.2z"/>
			<path class="st11" d="M2352.2,1692.7v8.2h-8.5v-8.2H2352.2z"/>
		</g>
		<g class="st37">
			<path class="st11" d="M2381.6,1526v8.2h-8.5v-8.2H2381.6z"/>
			<path class="st11" d="M2381.6,1542.7v8.2h-8.5v-8.2H2381.6z"/>
			<path class="st11" d="M2381.6,1559.4v8.2h-8.5v-8.2H2381.6z"/>
			<path class="st11" d="M2381.6,1576v8.2h-8.5v-8.2H2381.6z"/>
			<path class="st11" d="M2381.6,1592.7v8.2h-8.5v-8.2H2381.6z"/>
			<path class="st11" d="M2381.6,1609.4v8.2h-8.5v-8.2H2381.6z"/>
			<path class="st11" d="M2381.6,1626v8.2h-8.5v-8.2H2381.6z"/>
			<path class="st11" d="M2381.6,1642.7v8.2h-8.5v-8.2H2381.6z"/>
			<path class="st11" d="M2381.6,1659.4v8.2h-8.5v-8.2H2381.6z"/>
			<path class="st11" d="M2381.6,1676v8.2h-8.5v-8.2H2381.6z"/>
			<path class="st11" d="M2381.6,1692.7v8.2h-8.5v-8.2H2381.6z"/>
		</g>
	</g>
</g>
</svg>
