<?xml version="1.0" encoding="utf-8"?>
<!-- Generator: Adobe Illustrator 23.0.0, SVG Export Plug-In . SVG Version: 6.00 Build 0)  -->
<svg version="1.1" id="_x2018_лой_x5F_1" xmlns="http://www.w3.org/2000/svg" xmlns:xlink="http://www.w3.org/1999/xlink"
	 x="0px" y="0px" viewBox="0 0 3000 3000" style="enable-background:new 0 0 3000 3000;" xml:space="preserve">
<style type="text/css">
	.st0{fill:#FFFFFF;}
	.st1{fill:#EBF3FA;}
	.st2{fill:#CADAFC;}
	.st3{fill:#EEF4FF;}
	.st4{fill:#163560;}
	.st5{fill:#D86036;}
	.st6{fill:#F77D48;}
	.st7{fill:#F8FBFF;}
	.st8{fill:#233862;}
	.st9{fill:#F99746;}
	.st10{fill:#ED7D2B;}
	.st11{fill:#FFB27D;}
	.st12{fill:#739AF0;}
	.st13{fill:#6385DB;}
	.st14{fill:#E8945B;}
	.st15{fill:#2A4E96;}
	.st16{fill:#2C3A64;}
</style>
<rect y="500" class="st0" width="3000" height="2000"/>
<g>
	<path class="st1" d="M2647.1,1533.3c-26.6,78.9-84.2,162.1-183.2,242.1c-35.9,29-65.9,60-91.9,92.2c-38.4,47.4-68,97.1-94.6,145.7
		c-122.9,224.2-182.7,424.2-755.7,265.9c-227.7-62.9-275.6,19.9-522.4,61.9c-7.2,1.2-14.7,2.4-22.3,3.6
		c-68.5,10.4-129.4,8.9-183.4-2.1c-68.4-14-125.8-43.3-173.6-83.3c-94.9-79.3-152.1-200.5-182.8-327c-11.3-46.4-19-93.5-23.6-139.6
		c-2.7-26.2-4.2-50.8-4.8-74.1c-2-82,8.2-147,25.4-200.7l0,0c2.1-6.6,4.4-13.1,6.7-19.4c2.5-6.9,5.2-13.5,7.9-20v-0.1
		c66.3-156.9,191.3-210.8,193.5-360.9C648.2,719.9,948,650.9,1186,697.6c504.1,98.8,488.8-103.7,850.8-48.5
		c662.7,101.1,205.2,363.9,482.6,524.1C2630.1,1237.1,2699.8,1376.8,2647.1,1533.3z"/>
	<path class="st2" d="M2647.1,1533.3c-26.6,78.9-84.2,162.1-183.2,242.1c-333.7,269.5-161.1,719.5-942.2,503.8
		c-234.4-64.7-278.3,24.9-544.7,65.4c-390,59.3-534.5-267.2-563.4-552c-13.1-129.7,0.9-222.4,27.4-294.2l7.9-20v-0.1
		c0,0,87-8.8,118.6,65.6c0,0,28.4-45.9,82.1-29.9c53.7,16,42.1,60.1,42.1,60.1s83.4-58.1,157.8,17.9s29.5,184.1,29.5,184.1
		s69.4-4.8,90.5,48.1c0,0,99.7-43.3,162.4,14.2s128.6,111,128.6,111s71,18.1,65.7,106.5c0,0,52.5-40,125.6-18.9
		c0,0,12.6-91,137.5-110.7c125-19.7,181.1,14,181.1,14s1.9-83.2,98.1-92.1c0,0-2.7-128.8,140.3-142.5c143.1-13.7,173,61.4,173,61.4
		s18.5-59.8,115.2-55.8c0,0,18.9-110.5,145.2-104.8c0,0,29.5-55.3,92.6-36.4C2534.6,1570,2579.2,1495,2647.1,1533.3z"/>
	<path class="st3" d="M2371.9,1867.6c-215.7,266.5-153.2,604.2-850.3,411.6c-234.4-64.7-278.3,24.9-544.7,65.4
		c-390,59.3-534.5-267.2-563.4-552c-12-118.3-1.4-205.8,20.7-274.8l0,0c0,0,72.3,37.4,69.1,97.4c0,0,69.4-22.6,124.6,25.8
		c0,0,80.5-59.4,187.8,0s42.6,183.2,42.6,183.2s60,2.5,74.2,62.4c0,0,76.8-46.4,127.6,17.8c50,63.3,4.7,163.7-79.6,187.8
		c18.3-4.6,97.4-19.6,140.1,48.4c0,0,70.6-72.6,144,0c0,0,81-26.1,114.5,45.7c0,0,48.6-86.3,148.6-54.7s103.3,103.1,103.3,103.1
		s26.2-52.6,92.4-37.9c0,0-24.8-124.1,105.9-155.7c0,0,12.9-101,125.4-92.6c0,0,43.1-46.6,93.6-33.8
		C2048.6,1914.9,2198.6,1759.4,2371.9,1867.6z"/>
	<g>
		<path class="st4" d="M1932.7,966.7c0,0-26.6-27.1-76-6.8c-49.4,20.3-35,75-73.7,62.2s-76.3-11.4-79.7,21.9
			c-5,49.4-28.4,30.7-43.7,75.1c-13.8,40,2,57.8,31.2,45.6c41.5-17.3,9.7,26.6,68.5,34.7s129.9-42.3,140.7-76.9
			c10.7-34.6,27.4-53.4,40.1-67.7C1952.7,1040.7,1969.1,994.6,1932.7,966.7z"/>
		<path class="st4" d="M1632.4,1331.9l-1.3,11.3c-0.3,3.2,1.2,6.2,3.9,7.8l17.4,10.2c3.3,2,7.3,2.6,11.1,1.8l16.6-3.6L1632.4,1331.9
			z"/>
		<g>
			<path class="st5" d="M1790.5,1388.7l-54.1-31.2c-5-2.9-6.7-9.3-3.8-14.2l106.4-184.7c10.6-18.4,44.9-43.2,63.2-32.6l5.3,3.1
				c18.4,10.6,14.1,52.8,3.5,71.2l-106.4,184.6C1801.8,1389.8,1795.5,1391.5,1790.5,1388.7z"/>
			<polygon class="st5" points="1791.9,1096.7 1920.2,1098.3 1753.5,1362.2 1683.8,1342.3 			"/>
			<path class="st6" d="M1680.2,1359.4l-54.1-31.2c-5-2.9-6.7-9.3-3.8-14.2l106.4-184.7c10.6-18.4,44.9-43.2,63.2-32.6l5.3,3.1
				c18.4,10.6,14.1,52.8,3.5,71.2l-106.4,184.6C1691.5,1360.6,1685.1,1362.3,1680.2,1359.4z"/>
		</g>
		<path class="st7" d="M1652.5,1361.3l-0.7,1.1l-7.1,10.7l-645.5,968c-7.2,1.2-14.7,2.4-22.3,3.6c-68.5,10.4-129.4,8.9-183.4-2.1
			c-68.4-14-125.8-43.3-173.6-83.3l244.4-218.7l417.6-373.6l80.8-72.3l272.4-243.7l9.5,5.6l0,0l0.3,0.2L1652.5,1361.3z"/>
		<path class="st8" d="M1812.2,1639.3c0,0-29.2,4.2-58.6,28.4c-15.8,13-36.2,26.3-41.2,20.3c-2.4-2.9-4.1-21.8,16.8-35.7
			c20.1-13.3,15.4-41.5,35-44.9c13.4-2.3,13,11.2,45-1.1L1812.2,1639.3z"/>
		<path class="st9" d="M2018.2,1559.7c-5.6,50-225.8,91.2-225.8,91.2s-6.3-29.6,11.4-44.2c0,0,50.4-37,73.7-51.2
			c27.8-16.9,48-19.8,48-19.8c-0.3-2-8.3-4.9-20.3-8.7l0,0c-37.2-11.8-112.7-32.1-117.7-59.1c-0.5-2.5-0.6-5.1-0.5-7.9
			c1.4-37.3,50.6-99,50.6-99l47.9-16.6c0,0,7.1,52.9,23.4,65.6C1925.2,1422.8,2023.9,1509.7,2018.2,1559.7z"/>
		<path class="st10" d="M1905.2,1527L1905.2,1527c-37.2-11.8-112.7-32.1-117.7-59.1c-0.5-2.5-0.6-5.1-0.5-7.9
			c4.6-10.5,13.3-20.4,24.4-23.8c22.3-6.8,19,43,43.7,58C1879.9,1509.2,1905.2,1527,1905.2,1527z"/>
		<path class="st11" d="M1938,1109.9c0,0,129.1-36.4,147.9-44.7c18.8-8.3,79.9-88.2,79.9-88.2l17.8,10.4c0,0-19.1,74.6-74.4,113.1
			c-21.6,15-142.9,62.6-142.9,62.6L1938,1109.9z"/>
		<path class="st8" d="M1508,1747.3c0,0-18.9,20-26.6,39s-18.9,40.5-26.3,37.7c-3.5-1.4-14.2-17.1-2.6-39.4
			c11.1-21.4-6.6-43.8,8.9-56.3c10.6-8.5,16.8,3.5,38.9-22.7L1508,1747.3z"/>
		<path class="st9" d="M1892.8,1363.1c0,0-138.3,175.5-198.8,229.8c-32.2,28.8-184.7,156.3-184.7,156.3s-10.5-10.4-13.7-19.4
			c-6.3-17.7-1-28.5-1-28.5s65.1-127,126.8-163.5c42.8-25.3,68.8-183.1,160.6-237.1C1873.8,1246.9,1892.8,1363.1,1892.8,1363.1z"/>
		<path class="st12" d="M1966.2,1252.2c-43.2,88.4-54.5,130.2-69.7,139.3s-162.1-12.5-174.4-34.6c-3.3-5.9-2.2-12.5,1.5-19.8l0,0
			c10.3-20.2,41.1-45.1,57.1-70.8c10.4-16.7,18-31.2,23.5-43.9c27.1-62,5-79.3,18.2-87.5c23.1-14.3,130.6-45.7,164.6-34.1
			c16.6,5.7-4.6,39.9-3.1,68.1C1985.7,1204.2,1979.7,1224.4,1966.2,1252.2z"/>
		<path class="st11" d="M1815.9,1139.4c0,0-98.1,67.3-119.5,102.5s-52.7,117.3-52.7,117.3s1.1,5.3,19.7,2.2c0,0,61.4-92.1,71-101.4
			c9.7-9.3,95.1-56.2,95.1-56.2L1815.9,1139.4z"/>
		<path class="st12" d="M2015.6,1133.3c-4.5,12.8-14,27.8-31.5,43.2l-46.8-74.8c0,0,49-8,76.2-13.6
			C2013.5,1088.1,2025,1106.7,2015.6,1133.3z"/>
		<path class="st12" d="M1891.3,1110.4c0,0-46.7,6.7-82.3,26.9c-14.8,8.4-52.8,41.8-52.8,41.8s10.6,34.7,54.3,45.2
			c43.7,10.4,34.3-73.3,34.3-73.3L1891.3,1110.4z"/>
		<path class="st11" d="M2165.3,977.8c0,0,7-41.7,15.9-41.2s15.5,14.4,16.7,22.3s-14.8,29.2-14.8,29.2L2165.3,977.8z"/>
		<path class="st11" d="M1665.6,1365c0,0,3.4,19.1,0.4,26.8c-3,7.7-11.7,13.8-17.7,13.3s4.1-14.5,0.3-22.4
			c-3.9-7.9-10.6-24.8,0.6-28.8C1660.4,1349.8,1665.6,1365,1665.6,1365z"/>
		<path class="st11" d="M1663.4,1358.6c0,0,4.4,12.3,6.9,16.4c2.5,4.2-7.2-2-9.6-6C1658.3,1365.1,1663.4,1358.6,1663.4,1358.6z"/>
		<path class="st13" d="M1816.7,1238.8c-1,20.7-22.3,60.7-46.5,68.4c-23.8,7.6-45.9,29.2-46.6,29.9c10.3-20.2,41.1-45.1,57.1-70.8
			c10.4-16.7,18-31.2,23.5-43.9C1809.9,1221.8,1817.4,1224.5,1816.7,1238.8z"/>
		<g>
			<path class="st5" d="M1856.3,1188c-12.8,38.6-48.2,53.9-62.9,58.8c-3,1-5.2,1.5-6.1,1.8l-0.4,0.1l-3.9-17.7c0.1,0,5-1.2,11.8-4.1
				l0,0c13.8-5.9,35.9-18.9,44.4-44.6c11.7-35.4-18.3-60.3-22.1-63.2c7.3-2,14.6-3.6,21.4-4.7
				C1852.6,1130.1,1866.7,1156.8,1856.3,1188z"/>
		</g>
		<path class="st5" d="M1923.4,1109.8c0,0,49.6,6.4,60.7,66.7c0,0,10.9-3.9,13.2-13.2c0,0-13.6-53.5-65.7-63
			c-3-0.5-15.4-3.8-15.4-3.8l-0.5,2.8c0,0,0.2,7.1,0.6,8C1916.7,1108.2,1923.4,1109.8,1923.4,1109.8z"/>
		<g>
			<path class="st11" d="M1868.4,1114.5c4-10.2,7.4-25.4,7.9-44.5l2.8,0.6l46.4,10.6c0,0-1.5,14.6-1.9,28.5c0,0.1,0,0.2,0,0.3
				C1921.9,1152.6,1865.1,1123,1868.4,1114.5z"/>
			<path class="st14" d="M1925.4,1081.3c0,0,0,0-1.2,14.6c-26.1-1.5-39.9-11.9-45.1-25.2L1925.4,1081.3z"/>
		</g>
		<path class="st11" d="M1936.4,1081c0,0-59.9,15.1-68.7-22.3c-8.9-37.4-22.5-60.7,15.3-72s48.7,1.3,54.7,13.1
			C1943.7,1011.5,1951.8,1076.1,1936.4,1081z"/>
		<path class="st4" d="M1910.2,979.4c0,0-6.1,47.8-29.9,60.2c-23.7,12.4-36.3,8.2-36.3,8.2s15.8-20,13.5-47.8
			C1857.5,1000.1,1892.8,961.4,1910.2,979.4z"/>
		<path class="st4" d="M1906.9,983.9c0,0,13.3,1.7,20.4,9.4c7,7.6,13.9,18.1,16.2,32.5c0,0,5.4-32.8-12.5-46.4
			C1912,964.9,1906.9,983.9,1906.9,983.9z"/>
		<path class="st0" d="M1919.5,1061.5c0,0,2.1,4.2,12.9,0.9c0,0,9.1-2.7,7.7-7.5C1940,1054.9,1930.3,1053.5,1919.5,1061.5z"/>
	</g>
	<g>
		<path class="st7" d="M999.4,1464.8l-2,8.5l-8.9,38l0,0l-26.2,111.8L914,1828.7l-49.7,211.9l-70.8,302
			c-68.4-14-125.8-43.3-173.6-83.3c-94.9-79.3-152.1-200.5-182.8-327l525.4-487l0.1,0.1l16.5,8.7l2,1.1l15.4,8.1l0.3,0.1
			L999.4,1464.8z"/>
		<path class="st8" d="M1214.6,1847.5c0,0-35.8,10.1-68.5,45.2c-17.6,18.9-40.8,38.9-48.1,32.2c-3.5-3.2-8.8-26.6,15.1-47.4
			c22.9-20,12.3-54.4,36.3-62c16.4-5.1,18.1,11.8,56.1-8.8L1214.6,1847.5z"/>
		<path class="st15" d="M1403.1,1688.6c-2.1,57.4-201.1,181.1-201.1,181.1s-21.5-12.2-20.8-58.8c0,0,64.7-91.4,104.6-122.6
			c6.4-5,6.4-14.6-10.6-26.9l0,0c-4.9-3.5-11.2-7.3-19.1-11.2c0,0-75.7-36.8-122.2-67.6c-8.8-5.8-16.6-11.5-22.6-16.6
			c-2.2-1.8,86.1-103.6,86.1-103.6l54.6-18.9c0,0,20.4,34.4,36.1,57.2C1301.5,1520.2,1405.3,1627.3,1403.1,1688.6z"/>
		<path class="st8" d="M1275.2,1661.5c-4.9-3.5-11.2-7.3-19.1-11.2c0,0-75.7-36.8-122.2-67.6c6.3-14.2,17.9-33.4,35.6-38
			c29-7.6,27.5,43.6,43.4,63.2C1228.7,1627.4,1274.5,1660.9,1275.2,1661.5z"/>
		<path class="st4" d="M963.9,1429.4l-1.4,12.9c-0.4,3.6,1.4,7.1,4.5,8.9l19.8,11.6c3.8,2.2,8.3,3,12.6,2l18.9-4.1L963.9,1429.4z"/>
		<g>
			<path class="st5" d="M1143.8,1494l-61.6-35.5c-5.6-3.3-7.6-10.5-4.4-16.2L1199,1232c12-20.9,51.1-49.2,72-37.2l6.1,3.5
				c20.9,12.1,16.1,60.1,4,81.1L1160,1489.6C1156.8,1495.2,1149.5,1497.2,1143.8,1494z"/>
			<polygon class="st5" points="1145.4,1161.5 1280.9,1165.4 1101.7,1463.9 1022.3,1441.1 			"/>
			<path class="st6" d="M1018.2,1460.7l-61.6-35.5c-5.6-3.3-7.6-10.5-4.4-16.2l121.1-210.3c12-20.9,51.1-49.2,72-37.2l6.1,3.5
				c20.9,12.1,16.1,60.1,4,81.1l-121.1,210.2C1031.2,1462,1023.9,1463.9,1018.2,1460.7z"/>
		</g>
		<path class="st11" d="M1311.7,1176.6c0,0,146.9-41.5,168.4-50.9s91-100.4,91-100.4l20.2,11.8c0,0-21.8,85-84.7,128.7
			c-24.5,17.1-162.6,71.3-162.6,71.3L1311.7,1176.6z"/>
		<path class="st8" d="M825.8,1900.7c0,0-23.9,25.2-33.6,49.1c-9.7,23.9-23.9,51.1-33.1,47.5c-4.5-1.7-17.8-21.6-3.2-49.7
			c14-27-8.3-55.2,11.2-70.9c13.4-10.7,21.2,4.4,49-28.6L825.8,1900.7z"/>
		<path class="st15" d="M1260.3,1464.9c0,0-157.4,199.8-226.4,261.6c-36.6,32.8-210.3,178-210.3,178s-11.9-11.8-15.6-22
			c-7.2-20.1-1.1-32.5-1.1-32.5s86.1-155.2,143.7-213.1c47.1-47.4,79-181.5,183.5-242.9C1238.7,1332.5,1260.3,1464.9,1260.3,1464.9z
			"/>
		<path class="st9" d="M1340.1,1365.7c-38.2,105.3-50.9,137.2-70.9,140.2c-156.7,23.3-203.9-8.1-217.9-33.3
			c-3.7-6.7,5.4-24.4,16.2-37.4l0,0c11.7-23,46.8-51.3,65-80.6c11.8-19,20.4-35.5,26.7-50c30.8-70.6,5.7-90.3,20.7-99.6
			c26.3-16.3,148.7-52,187.3-38.9c18.9,6.5-5.3,45.4-3.5,77.5C1366.1,1284,1354.2,1327,1340.1,1365.7z"/>
		<path class="st11" d="M1172.7,1210.2c0,0-111.7,76.6-136,116.7c-24.4,40.1-60,133.6-60,133.6s1.3,6,22.4,2.4
			c0,0,69.8-104.9,80.8-115.4s108.3-64,108.3-64L1172.7,1210.2z"/>
		<path class="st9" d="M1400.1,1203.2c-5.1,14.5-15.9,31.7-35.9,49.2l-53.2-85.2c0,0,55.8-9.1,86.7-15.4
			C1397.7,1151.8,1410.8,1172.9,1400.1,1203.2z"/>
		<path class="st9" d="M1258.6,1177.2c0,0-53.1,7.6-93.7,30.6c-16.8,9.5-60.1,47.5-60.1,47.5s12.1,39.5,61.8,51.4
			c49.7,11.9,39.1-83.5,39.1-83.5L1258.6,1177.2z"/>
		<path class="st11" d="M1570.5,1026.2c0,0,8-47.4,18.1-46.9c10.1,0.6,17.7,16.5,19.1,25.4c1.4,9-16.9,33.3-16.9,33.3L1570.5,1026.2
			z"/>
		<path class="st11" d="M1001.6,1467c0,0,3.9,21.8,0.4,30.5c-3.4,8.8-13.3,15.7-20.1,15.2s4.7-16.5,0.3-25.6
			c-4.4-9-12.1-28.2,0.7-32.8C995.7,1449.8,1001.6,1467,1001.6,1467z"/>
		<path class="st11" d="M999.1,1459.7c0,0,5,14,7.9,18.7s-8.2-2.3-10.9-6.8C993.3,1467.2,999.1,1459.7,999.1,1459.7z"/>
		<path class="st10" d="M1173.7,1323.3c-1.1,23.6-25.4,69.1-53,77.9c-27.1,8.7-52.3,33.2-53.1,34c11.7-23,46.8-51.3,65-80.6
			c11.8-19,20.4-35.5,26.7-50C1165.9,1303.9,1174.4,1307,1173.7,1323.3z"/>
		<g>
			<path class="st5" d="M1218.8,1265.5c-14.6,44-54.8,61.4-71.6,66.9c-3.4,1.1-5.9,1.7-6.9,2l-0.5,0.1l-4.5-20.1
				c0.1,0,5.7-1.3,13.5-4.6l0,0c15.7-6.7,40.8-21.6,50.5-50.8c13.4-40.4-20.8-68.6-25.2-72c8.3-2.3,16.7-4.1,24.4-5.3
				C1214.5,1199.6,1230.5,1230,1218.8,1265.5z"/>
		</g>
		<path class="st5" d="M1295.2,1176.4c0,0,56.5,7.3,69.1,76c0,0,12.4-4.5,15-15c0,0-15.5-61-74.8-71.7c-3.4-0.6-17.5-4.3-17.5-4.3
			l-0.5,3.2c0,0,0.3,8.1,0.7,9.1C1287.5,1174.6,1295.2,1176.4,1295.2,1176.4z"/>
		<g>
			<path class="st11" d="M1232.5,1181.9c4.5-11.6,8.4-28.9,9-50.6l3.1,0.7l52.8,12.1c0,0-1.7,16.7-2.2,32.4c0,0.1,0,0.3,0,0.4
				C1293.5,1225.3,1228.7,1191.5,1232.5,1181.9z"/>
			<path class="st14" d="M1297.4,1144c0,0,0,0-1.4,16.6c-29.7-1.7-45.4-13.5-51.4-28.7L1297.4,1144z"/>
		</g>
		<g>
			<path class="st11" d="M1319.9,1139.6c0,0-64.1,27.9-80.8-11.6c-16.7-39.5-36.3-62.6,4-82.1c40.2-19.5,54.6-7.8,63.5,4.1
				C1315.4,1061.8,1336.2,1131.3,1319.9,1139.6z"/>
			<path class="st16" d="M1194.2,1053c-0.8-0.5-2.3-0.7-5.5-0.1c0,0,2.1-2.2,5.4-3.1c-0.4-4.5-0.1-12.8,6.9-16.5
				c0,0-3.5,3.2-2.8,7.9c6.4-11.1,23.3-22.2,75.6-31.2c68.9-11.8,57.6,37.1,50.2,44.5c-7.4,7.4-33-1.2-49,4.3
				c-16,5.4-13.1,29.8-17.8,34.4c-4.7,4.6-4-1.6-12.3-3.1s-5.9,11.1-1.7,18.6s-3.4,20.8-3.4,20.8s0,0-13.2-8.6
				c-13.2-8.6-35-53.5-32.9-64.8C1193.8,1055.1,1194,1054.1,1194.2,1053z"/>
		</g>
	</g>
	<path class="st7" d="M2277.3,2013.3c-122.9,224.2-182.7,424.2-755.7,265.9c-227.7-62.9-275.6,19.9-522.4,61.9
		c-7.2,1.2-14.7,2.4-22.3,3.6c-68.5,10.4-129.4,8.9-183.4-2.1c-68.4-14-125.8-43.3-173.6-83.3c-94.9-79.3-152.1-200.5-182.8-327
		c-11.3-46.4-19-93.5-23.6-139.6c-2.7-26.2-4.2-50.8-4.8-74.1c0,0,114.5,23.5,132.3,117.3c0,0,26.3-10.4,51.5,12.3
		c25.2,22.6,4.2,67.9-31.6,74.8c0,0,92.6,11,79.9,112c0,0,53.5-20,77.2,32.6c0,0,78.4-75.7,185.7-27.4
		c107.3,48.4,102,135.7,102,135.7s50.6-40,105.3-6.3s55.7,67.3,55.7,67.3s26.3-29.5,63.1-12.6c0,0,58.9-107.3,203-62.1
		c0,0,34.9-27.8,74.8-2.6c39.9,25.2,39.9,55.2,39.9,55.2s91.5-55.2,173.6,28.4c0,0,53.7-25.2,97.8,0c0,0,1.1-83.6,83.4-107.3
		c0,0-9.2-83.6,94.9-94.7c104.1-11,138.8,52.1,138.8,52.1S2183.7,2013.6,2277.3,2013.3z"/>
</g>
</svg>
