<?xml version="1.0" encoding="utf-8"?>
<!-- Generator: Adobe Illustrator 23.0.0, SVG Export Plug-In . SVG Version: 6.00 Build 0)  -->
<svg version="1.1" xmlns="http://www.w3.org/2000/svg" xmlns:xlink="http://www.w3.org/1999/xlink" x="0px" y="0px"
	 viewBox="0 0 750 500" style="enable-background:new 0 0 750 500;" xml:space="preserve">
<style type="text/css">
	.st0{fill:#FFFFFF;}
	.st1{fill:#D2E3FF;}
	.st2{fill:#B3C8F2;}
	.st3{fill:#353C44;}
	.st4{fill:#F9B995;}
	.st5{fill:#E57C67;}
	.st6{fill:#846C61;}
	.st7{fill:#CC7462;}
	.st8{fill:#778FA0;}
	.st9{fill:#0076AA;}
	.st10{fill:#5B83F4;}
	.st11{fill:#53D390;}
	.st12{fill:#3668D8;}
	.st13{fill:#E4F0F4;}
	.st14{fill:#FF7461;}
	.st15{fill:#76D6B4;}
	.st16{fill:#43AF85;}
	.st17{fill:#D3D3D3;}
	.st18{fill:#5757B5;}
	.st19{fill:#D38272;}
	.st20{fill:#070707;}
	.st21{fill:#18629E;}
	.st22{fill:#BC6051;}
	.st23{fill:#F4A490;}
	.st24{fill:#77EDB4;}
	.st25{fill:none;stroke:#18629E;stroke-width:1.1443;stroke-linecap:round;stroke-linejoin:round;stroke-miterlimit:10;}
	.st26{fill:#3D3D9B;}
	.st27{fill:#E54E3E;}
	.st28{fill:none;stroke:#EF8C70;stroke-width:1.1166;stroke-linecap:round;stroke-linejoin:round;stroke-miterlimit:10;}
	.st29{fill:none;stroke:#18629E;stroke-width:1.1166;stroke-linecap:round;stroke-linejoin:round;stroke-miterlimit:10;}
	.st30{fill:#424C56;}
</style>
<g id="BACKGROUND">
	<rect class="st0" width="750" height="500"/>
	<rect class="st1" width="750" height="500"/>
</g>
<g id="OBJECTS">
	<ellipse class="st2" cx="375" cy="432.1" rx="274" ry="8.6"/>
	<g>
		<path class="st3" d="M322.6,98.5c0,0,14.1-24.5,0-26.8c0,0-7.8-13.5-35-10.9c0,0-5.3,6.5-5,23.1L322.6,98.5z"/>
		<g>
			<path class="st4" d="M258.3,162.3c0,0-11.4,25.4-12.5,37.9c-0.9,9.8,0,13.7,10.4,28.1c3.7,5.2,10.9,11.9,10.9,11.9l9.1-2.5
				c0,0-15.6-26.5-14.9-33.5c0.7-6.9,16.7-43.3,16.7-43.3L258.3,162.3z"/>
			<g>
				<path class="st5" d="M268.2,221.3c0.3,0.1,0.6,0,0.7-0.2c0.1-0.3,0-0.6-0.2-0.7l-2.2-1.1c0.2,0.5,0.5,1,0.7,1.5L268.2,221.3z"/>
				<path class="st4" d="M257.8,215.7c2.9-0.6,5.2-0.6,6.7-0.5c-0.4-1-0.8-1.9-1.2-2.8c-1.3-0.1-3.6,0-6.8,0.5
					c-3.7,0.7-6.4,2.7-7.7,4c0.5,1,1.1,2,1.8,3.1C251.9,218.5,254.4,216.4,257.8,215.7z"/>
				<path class="st4" d="M254.6,221.6l2.6,1.1l1.2-2.4c0.1-0.3,0.3-0.4,0.6-0.5c0.3-0.1,0.5-0.1,0.8,0.1l2.5,1.2l1-2
					c0.2-0.5,0.9-0.7,1.4-0.5l1.7,0.8c-0.5-1-1-2.1-1.4-3.1c-1.4-0.1-3.9-0.2-7,0.5c-3.2,0.7-5.6,2.8-6.9,4.2c0.5,0.8,1,1.5,1.6,2.4
					l0.7-1.2C253.6,221.6,254.1,221.4,254.6,221.6z"/>
				<path class="st6" d="M263.3,212.3c-0.1-0.4-0.3-0.7-0.4-1c-1.9-0.1-4.6,0.2-6.6,0.6c-3.8,0.7-6.5,2.7-8,4.1
					c0.2,0.3,0.3,0.6,0.5,0.9c1.3-1.3,4-3.4,7.7-4C259.7,212.3,262,212.3,263.3,212.3z"/>
				<path class="st6" d="M258,216.7c3.1-0.6,5.5-0.6,7-0.5c-0.2-0.4-0.3-0.7-0.5-1.1c-1.5-0.1-3.8-0.1-6.7,0.5
					c-3.3,0.7-5.9,2.8-7.3,4.3c0.2,0.3,0.4,0.6,0.6,0.9C252.3,219.5,254.8,217.4,258,216.7z"/>
				<path class="st6" d="M256.8,223.6c0.5,0.2,1.1,0,1.3-0.5l1.2-2.4l2.5,1.2c0.3,0.1,0.5,0.1,0.8,0c0.3-0.1,0.5-0.3,0.6-0.5l1-2
					l2.9,1.3c-0.2-0.5-0.5-1-0.7-1.5l-1.7-0.8c-0.5-0.2-1.1,0-1.4,0.5l-1,2l-2.5-1.2c-0.3-0.1-0.5-0.1-0.8-0.1
					c-0.3,0.1-0.5,0.3-0.6,0.5l-1.2,2.4l-2.6-1.1c-0.5-0.2-1,0-1.3,0.4l-0.7,1.2c0.2,0.3,0.4,0.6,0.6,0.9l1-1.6L256.8,223.6z"/>
			</g>
			<g>
				<path class="st5" d="M259.5,204.1c-0.8,0-1.6,0.1-2.5,0.2c-0.8,0.1-1.6,0.4-2.4,0.3c-0.3,0-0.5-0.4-0.2-0.6
					c1.3-0.9,3.6-1,5.1-0.8C260,203.2,260,204.1,259.5,204.1L259.5,204.1z"/>
			</g>
			<g>
				<path class="st4" d="M265.1,238.1c-0.1-0.1-0.5,16,1.1,17.2c1.6,1.2,2.3-6.7,2.3-6.7s1.5,12.5,3.1,12.1
					c1.6-0.4,1.8-10.6,1.8-10.6s4.5,12.3,6.9,12.2c2.4-0.1-3-14-3-14s7.5,9.5,9,8.2c1.5-1.2-7.6-12.7-7.6-12.7s7.6,3.2,8.4,1.7
					c0.9-1.5-12.1-9.4-12.1-9.4L265.1,238.1z"/>
			</g>
		</g>
		<g>
			<path class="st4" d="M344.4,162.3c0,0,11.4,25.4,12.5,37.9c0.9,9.8,0,13.7-10.4,28.1c-3.7,5.2-10.9,11.9-10.9,11.9l-9.1-2.5
				c0,0,15.6-26.5,14.9-33.5c-0.7-6.9-16.7-43.3-16.7-43.3L344.4,162.3z"/>
			<g>
				<path class="st5" d="M343.3,204.1c0.8,0,1.6,0.1,2.5,0.2c0.8,0.1,1.6,0.4,2.4,0.3c0.3,0,0.5-0.4,0.2-0.6c-1.3-0.9-3.6-1-5.1-0.8
					C342.7,203.2,342.8,204.1,343.3,204.1L343.3,204.1z"/>
			</g>
			<g>
				<path class="st7" d="M337.6,238.1c0.1-0.1,0.5,16-1.1,17.2c-1.6,1.2-2.3-6.7-2.3-6.7s-1.5,12.5-3.1,12.1
					c-1.6-0.4-1.8-10.6-1.8-10.6s-4.5,12.3-6.9,12.2c-2.4-0.1,3-14,3-14s-7.5,9.5-9,8.2c-1.5-1.2,7.6-12.7,7.6-12.7
					s-7.6,3.2-8.4,1.7c-0.9-1.5,12.1-9.4,12.1-9.4L337.6,238.1z"/>
			</g>
		</g>
		<path class="st0" d="M321.3,263.2c-0.9-1.3-0.1-5.3,1.1-9.1c-2,2.1-4.1,4.1-5.4,4.3c-0.6,0.1-1-0.1-1.3-0.3c-1.2-1-0.3-3,0.2-3.9
			c1.1-2.2,3.1-5.1,4.7-7.3c-3.4,1.1-5.5,1.1-6.2-0.1c-0.2-0.3-0.4-0.8,0-1.6c0.7-1.5,4.4-4.2,7.5-6.4l0,0c2.3-1.5,4.6-5.7,5.4-7.2
			c0.2-0.3,0.5-0.5,0.9-0.5c1.8,0,7.2,0.3,13.3,4.3c0.4,0.3,0.6,0.8,0.3,1.3c-1,1.7-3.1,6-3.2,9.3c0,8-0.7,9.4-0.9,9.9
			c-0.1,0.3-0.3,0.5-0.5,0.7c-0.5,0.4-1.1,0.5-1.6,0.2c-0.4-0.2-0.8-0.6-1.2-1.4c-0.4,2.2-0.9,4.4-1.4,5.6c-0.7,1.3-1.5,1.3-2,1.2
			c-0.5-0.1-1.8-0.4-2.4-6.5c-0.5,1.1-1,2.3-1.5,3.4c-1.7,3.5-3,4.9-4.4,4.9C322.1,263.9,321.6,263.7,321.3,263.2z"/>
		<path class="st3" d="M303.2,270.3c0,0-0.9,29.1-5.8,64.6c0,0,6,35.6,2.8,80.6l-10.7-18.4L287,259.5l22.7,2.8L303.2,270.3z"/>
		<path class="st0" d="M259.7,432.1h36.1c1.8,0,3.2-1.4,3.2-3.2v-1h-42.4v1C256.6,430.7,258,432.1,259.7,432.1z"/>
		<path class="st3" d="M317.8,108.9c0,0-3.2,6.6-8.8,7.1l4.4-6.5L317.8,108.9z"/>
		<g>
			<path class="st4" d="M281.6,391.7c0.1,0.3,2,29.7,2,29.7l13.7-0.5l-1.6-34.5L281.6,391.7z"/>
			<path class="st4" d="M328.5,392.8c0.1,0.3,5.6,28.5,5.6,28.5l13.7-0.5l-5.1-33.4L328.5,392.8z"/>
			<path id="XMLID_36_" class="st3" d="M300.2,415.5H281c-4.1-34-13.4-136.9-12.5-173.9l28.3,2.3
				C296.8,282.7,298.4,385.1,300.2,415.5z"/>
			<path class="st3" d="M338.1,329.7c-1.9-14.4-3.7-28.6-5.1-40.7c-1.1-9.5-1.7-19.1-2-28.7c-0.7-19-5.9-26.9-5.9-26.9l-11.6-3.6
				l0.7,13.9l-22.7,0.7c-2.1,0,39.5,171.2,39.5,171.2l19.5,0C350.4,415.5,345.3,352.3,338.1,329.7z"/>
			<g>
				<path class="st8" d="M332,421.5l0.1-8c0-0.8,0.7-1.3,1.4-1.3l13.8,0.4c0.7,0,1.2,0.5,1.3,1.2c0.2,1,0.4,7.2,0.6,8.6
					c0,0-2.3-1.8-8.7-2C333.9,420.2,332,421.5,332,421.5z"/>
				<g>
					<path class="st8" d="M333,419.4c0,0,1.6-1.3,7.4-1.1c4.3,0.1,6.5,1.2,7.2,1.7c0.2,0.1,0.4,0.3,0.5,0.4c1.3,1.4,2.2,3.5,2.2,5.9
						l0,2.6h-20.8l0-2.6C329.5,423.2,331,420.5,333,419.4z"/>
				</g>
			</g>
			<path class="st8" d="M297.7,413.7c-5.5,2.6-10.2,2.1-14.5,0.4c-0.6-0.2-1.3-0.1-1.7,0.4c-3,3.7-7.3,6.2-12.1,7l-1.8,0.3
				c-0.5,0-0.9,0-1.4,0c-5.6,0.1-10.4,1-9.7,7.4l11.3,0L299,429l0.2-10.4l0,0l0-3.3C299.2,414.4,298.6,413.7,297.7,413.7z"/>
			<g>
				<g>
					<path class="st9" d="M317.1,250.3c1.5,5.6,5.4,8,10,11c0.6,0.4,0.1,1.3-0.6,1c-4.4-2.4-10-6.3-10-11.8
						C316.6,250,317,250,317.1,250.3L317.1,250.3z"/>
				</g>
			</g>
			<g>
				<g>
					<path class="st9" d="M270.5,258.5c1.8,0.1,3.2-2.9,3.9-4.3c0.8-1.4,1.3-2.9,1.9-4.4c0.1-0.3,0.7-0.3,0.7,0.1
						c0,2.4-1.3,4.5-2.5,6.4c-1,1.4-2,3.4-4,2.8C270.1,259,270.1,258.5,270.5,258.5L270.5,258.5z"/>
				</g>
			</g>
			<g>
				<g>
					<path class="st9" d="M295,252.7c0.4,3.7,0.7,8,0,11.7c0,0.2-0.4,0.2-0.5,0c-0.7-3.6-0.4-8,0-11.7
						C294.5,252.4,294.9,252.4,295,252.7L295,252.7z"/>
				</g>
			</g>
			<g>
				<g>
					<path class="st9" d="M328.9,335.7c-3.5,1.7-8.8,2.4-12.1-0.2c-0.3-0.2,0-0.6,0.3-0.5c2,0.3,3.7,1,5.7,1c2,0,3.9-0.4,5.7-1.1
						C329.1,334.8,329.4,335.5,328.9,335.7L328.9,335.7z"/>
				</g>
			</g>
			<g>
				<g>
					<path class="st9" d="M286.6,337.4c-3.1,0.4-7,0.5-9.9-0.8c-0.3-0.2-0.2-0.7,0.2-0.7c1.6,0,3.2,0.5,4.8,0.6
						c1.6,0.2,3.3,0.2,4.9,0.2C287.1,336.7,287.1,337.4,286.6,337.4L286.6,337.4z"/>
				</g>
			</g>
		</g>
		<g>
			<path class="st5" d="M266.9,185.9c0.5,0.1,0.8,0.7,1.1,1c0.4,0.4,0.7,0.7,0.9,1.2c0.1,0.3-0.2,0.6-0.5,0.5
				c-0.6-0.2-0.9-0.6-1.3-1c-0.3-0.4-0.8-0.8-0.8-1.4C266.4,186.1,266.6,185.9,266.9,185.9L266.9,185.9z"/>
		</g>
		<path id="XMLID_35_" class="st10" d="M311.9,126.5c-2.2-1.6-8.1-3.1-8.9-2.7c-0.8-0.4-6.2,0.8-8.5,2.4c-13.7,9.2-33,14.8-33,29.2
			c0,3.8,1.5,10.3,8.6,10.4l32.1,0.7l32.7,0.7c7.1,0.1,7.6-10.1,7.6-10.1C342.8,142.6,325.2,136.2,311.9,126.5z"/>
		<g>
			<path class="st11" d="M304.3,184.1c-0.1,0-0.1-0.1,0-0.1C304.3,183.9,304.3,184.1,304.3,184.1L304.3,184.1z"/>
		</g>
		<path id="XMLID_33_" class="st4" d="M310.1,131.8c-0.7,6.7-18.9,11.3-18.4,0.5l1.9-21.4l17.2-0.9
			C309.3,119.3,308.8,127.2,310.1,131.8z"/>
		<path class="st4" d="M279.5,106.5l3.9-28.6c0.4-3.9,4.1-6.6,7.9-5.9c7.6,1.4,15.1,2.8,22.6,4.5c3.9,0.9,7.1,3.7,8.4,7.5l0,0.1
			c0.9,2.5,0.8,5.3-0.2,7.8l-8.5,22.6c-1.5,3.4-6.6,12.5-20.1,10.5c-0.3,0-0.5,0-0.8-0.1l-0.4,0
			C284.6,123.4,278.8,113.7,279.5,106.5z"/>
		<path id="XMLID_7_" class="st4" d="M323,108c-2.5,3.4-6.2,5-8.4,3.4c-0.2-0.2-0.4-0.3-0.6-0.5c-1.5-1.8-1.2-5.4,1.1-8.5
			c2.5-3.4,6.2-5,8.4-3.4C325.6,100.5,325.4,104.6,323,108z"/>
		<g>
			<path class="st5" d="M295.4,124.7c2.4-0.6,4.9-0.4,7.3-1.2c2.4-0.8,4.3-2.4,6.7-3.2c0.1-0.1,0.3,0.1,0.2,0.3
				c-2.4,3.5-10.2,5.9-14.2,4.4C295.2,125,295.2,124.8,295.4,124.7L295.4,124.7z"/>
		</g>
		<g>
			<path class="st3" d="M300.8,86.9c3.2-3.1,9.5,0.8,10.2,4.5c0.1,0.3-0.2,0.5-0.5,0.3c-1.4-1.1-2.3-2.6-3.8-3.6
				c-1.9-1.2-3.7-1.1-5.8-1C300.8,87.1,300.7,87,300.8,86.9L300.8,86.9z"/>
		</g>
		<g>
			<path class="st3" d="M293.3,85.4c-1.4-0.8-2.6-1.6-4.2-1.5c-1.8,0.1-3.1,1.3-4.8,1.9c-0.3,0.1-0.4-0.2-0.3-0.5
				c1.8-3.1,8-4.3,9.5-0.1C293.5,85.3,293.4,85.4,293.3,85.4L293.3,85.4z"/>
		</g>
		<g>
			<path class="st5" d="M301.4,111.8c0.3,0.4,0.4,0.9,0.6,1.3c0.2,0.5,0.4,0.8,0.5,1.3c0.1,0.3-0.2,0.5-0.5,0.4
				c-1-0.5-1.6-1.9-1.3-2.9C300.8,111.6,301.2,111.6,301.4,111.8L301.4,111.8z"/>
		</g>
		<g>
			<path class="st5" d="M301.6,113.4c-0.5,1.1-2,1.9-3,2.2c-1.2,0.4-2.6,0.4-3.7-0.1c-0.3-0.1-0.1-0.5,0.1-0.6
				c1.1-0.5,2.3-0.3,3.5-0.7c1-0.3,1.9-1.2,3-1.3C301.6,113,301.7,113.3,301.6,113.4L301.6,113.4z"/>
		</g>
		<g>
			<path class="st12" d="M315.1,130.8c-1.1,13.4-26.5,18.5-27.2,2.4c0-0.5,0.8-0.6,0.8-0.1c1.1,6.8,6.4,9.9,13,8.6
				c5.5-1,11.7-4.9,12.3-11C314.1,130.2,315.2,130.2,315.1,130.8L315.1,130.8z"/>
		</g>
		<g>
			<path class="st5" d="M290.8,106.7c0.3,0,0.5-0.2,0.5-0.4c0.1-0.3-0.1-0.6-0.4-0.7c-0.7-0.2-2.5-0.8-3-1.7c-0.2-0.3-0.2-0.6,0-1
				c0.8-2,4-1.2,4-1.2c0.3,0.1,0.6-0.1,0.7-0.3l2.5-6.6c0.1-0.3,0-0.6-0.3-0.7c-0.3-0.1-0.6,0-0.7,0.3l-2.3,6.2
				c-1.2-0.2-4-0.4-4.9,2c-0.3,0.7-0.2,1.3,0.1,1.9c0.8,1.6,3.4,2.2,3.7,2.3C290.7,106.7,290.8,106.7,290.8,106.7z"/>
		</g>
		<path class="st3" d="M286.8,91.8c-0.3,1.7,0.3,3.2,1.3,3.4c1,0.2,2.1-1,2.4-2.7c0.3-1.7-0.3-3.2-1.3-3.4
			C288.2,88.9,287.1,90.1,286.8,91.8z"/>
		<path class="st3" d="M299.8,94.2c-0.3,1.7,0.3,3.2,1.3,3.4s2.1-1,2.4-2.7c0.3-1.7-0.3-3.2-1.3-3.4
			C301.1,91.3,300.1,92.5,299.8,94.2z"/>
		<path class="st0" d="M299.7,93.3c-0.1,0.5,0.1,0.9,0.4,0.9c0.3,0,0.6-0.3,0.6-0.8c0.1-0.5-0.1-0.9-0.4-0.9S299.8,92.8,299.7,93.3z
			"/>
		<path class="st0" d="M286.7,91c-0.1,0.5,0.1,0.9,0.4,0.9s0.6-0.3,0.6-0.8c0.1-0.5-0.1-0.9-0.4-0.9S286.7,90.5,286.7,91z"/>
		<path class="st3" d="M311.6,82.1c-2.5-0.2-11.6-1-24.5-4.5c-0.4-0.1-0.8,0-1,0.3c-0.6,0.8-2.1,4.2-3.5,5.9c0,0-1.4-24.1,24.6-20.3
			c23,3.4,21.7,25.5,15.4,35c0,0-0.1,0-0.3-0.1c-1.6-0.3-3.3,0.4-4.3,1.6c-0.6,0.7-1.3,1.6-2.1,2.9l0,0c-1.6-0.5-2.6-2.1-2.2-3.8
			c0.2-1,0.5-2.3,0.7-3.7c0.7-3.8,0.3-9.4-1.7-12.7l0-0.1C312.4,82.4,312,82.1,311.6,82.1z"/>
		<path class="st0" d="M332.5,432.1h14.9c1.6,0,3-1.3,3-3v-0.2h-20.8v0.2C329.5,430.8,330.9,432.1,332.5,432.1z"/>
		<g>
			<g>
				<path class="st9" d="M301.9,292.1c0.1,0,0.1,0,0.2,0c0.3-0.1,0.4-0.4,0.3-0.7c0-0.1-2.7-7.1-4.2-14.2c-0.1-0.3-0.4-0.5-0.7-0.4
					c-0.3,0.1-0.5,0.4-0.4,0.7c1.6,7.2,4.3,14.3,4.3,14.4C301.5,291.9,301.7,292.1,301.9,292.1z"/>
			</g>
		</g>
		<path class="st10" d="M341.4,150.7c8.8,13.2,14.7,25.5,14.7,25.5s-7.8,13.5-25.8,11.7l-13.5-23.3c0,0,1.6-10.3,9.2-13.9
			C333.5,147,341.4,150.7,341.4,150.7z"/>
		<path class="st10" d="M264.2,146.7c-8.8,13.2-14.7,25.5-14.7,25.5s7.8,13.5,25.8,11.7l13.5-23.3c0,0-1.6-10.3-9.2-13.9
			C272.1,143.1,264.2,146.7,264.2,146.7z"/>
		<g>
			<g>
				<path class="st13" d="M311,105.9c0.1,0,0.2-0.1,0.2-0.1c0,0,2.1-1.8,5.2-3.2c0.3-0.1,0.4-0.4,0.3-0.7c-0.1-0.3-0.4-0.4-0.7-0.2
					c-3.2,1.4-5.4,3.3-5.5,3.4c-0.2,0.2-0.2,0.5,0,0.7C310.7,105.9,310.9,106,311,105.9z"/>
			</g>
			<g>
				<g>
					<path class="st0" d="M312.2,104.9c0.1,1.4,0.7,4.1,3,7c0.2,0.3,0.3,0.6,0.1,0.9c-1.2,2.8-7.9,16.1-23.5,13.3
						c-13.2-2.4-13.9-21.4-13.1-25.5c0.1-0.5,0.5-0.9,1-0.9c2.5-0.4,9.7-1.3,13.5-0.6c3.9,0.7,14.5,3.7,17.8,4.6
						C311.7,103.9,312.2,104.4,312.2,104.9z"/>
				</g>
				<g>
					<g>
						<path class="st13" d="M304.8,109.9c0.2,0,0.4-0.1,0.5-0.3c0.1-0.3,0-0.5-0.3-0.6c-0.3-0.1-7.9-3.2-13.7-3.9
							c-5.8-0.8-10.4,0.2-10.6,0.2c-0.3,0.1-0.5,0.3-0.4,0.6c0.1,0.3,0.3,0.4,0.6,0.4c0,0,4.7-0.9,10.3-0.2
							c5.6,0.7,13.3,3.8,13.4,3.9C304.7,109.8,304.7,109.9,304.8,109.9z"/>
					</g>
					<g>
						<path class="st13" d="M304.7,113.5c0.2,0,0.4-0.1,0.5-0.3c0.1-0.3,0-0.5-0.3-0.6c-0.3-0.1-8.3-3-14.3-3.5
							c-5.9-0.6-9.1,0-9.2,0c-0.3,0.1-0.5,0.3-0.4,0.6c0.1,0.3,0.3,0.4,0.6,0.4c0,0,3.1-0.6,8.9,0c5.8,0.6,13.9,3.4,14,3.5
							C304.6,113.5,304.7,113.5,304.7,113.5z"/>
					</g>
					<g>
						<path class="st13" d="M303.4,117c0.2,0,0.4-0.1,0.5-0.3c0.1-0.3,0-0.5-0.3-0.6c-0.1,0-6-1.9-13-2.7c-6.9-0.7-8.1-0.5-8.2-0.5
							c-0.3,0.1-0.5,0.3-0.4,0.6c0.1,0.3,0.3,0.4,0.6,0.4c0,0,1.2-0.1,7.9,0.5c6.9,0.7,12.7,2.6,12.7,2.6
							C303.3,117,303.3,117,303.4,117z"/>
					</g>
					<g>
						<path class="st13" d="M297.6,119.7c0.2,0,0.4-0.1,0.5-0.4c0.1-0.3-0.1-0.5-0.4-0.6c-0.2,0-4.1-1.1-7.4-1.4
							c-3.2-0.3-5.2-0.3-5.3-0.3c-0.3,0-0.5,0.2-0.5,0.5c0,0.3,0.2,0.5,0.5,0.5c0,0,2,0,5.2,0.3c3.2,0.3,7.2,1.3,7.2,1.3
							C297.5,119.7,297.6,119.7,297.6,119.7z"/>
					</g>
				</g>
			</g>
		</g>
		<polygon class="st3" points="284.3,410.5 280.5,415.5 300.2,415.5 297.4,411.1 		"/>
		<path class="st8" d="M279.9,416.3c0.3-0.5,0.4-1.7,0.3-2.7c0-0.7,0.6-1.3,1.3-1.3h7.3c0.7,0,1.3,0.6,1.3,1.3
			c0,1.2-0.1,2.7-0.9,2.7H279.9z"/>
		<path class="st10" d="M272.2,160.9l-10.6-5.6c-1.3,16.8,4.5,52.6,5.3,76.4c0.1,3.1,0.3,6.3,0.4,9.2c0,0.5,0,2,0.3,2.4
			c15,16.5,52.9,5.2,60.7,2.8c0.9-0.3,1.5-1.1,1.6-2l0.4-5.1l1.6-10.9l10.7-71.1L272.2,160.9z"/>
		<path class="st14" d="M316.8,111.9c0,0.7-0.6,1.3-1.3,1.3s-1.3-0.6-1.3-1.3c0-0.7,0.6-1.3,1.3-1.3S316.8,111.2,316.8,111.9z"/>
		<g>
			<path class="st14" d="M325.6,133.4l-2.6-1.3c-0.8-0.4-1.8-0.1-2.3,0.7c-2.1,3.7-7.9,14.4-11.2,27.8c-0.3,1.1,0.6,2.2,1.7,2.2
				l3.1-0.1c0.7,0,1.4-0.5,1.6-1.2c1.3-3.8,5.9-16.6,10.4-25.7C326.8,134.9,326.4,133.8,325.6,133.4z"/>
			<path class="st14" d="M280.6,133.3l-2.4,0.6c-0.8,0.2-1.4,0.8-1.6,1.6c-0.8,3.6-2.7,14.1-2.1,25.4c0.1,1.2,1,2.1,2.2,2l1.8,0
				c1.2,0,2.2-1,2.1-2.2c-0.2-4.3-0.3-14.6,1.4-26.1C282.2,133.8,281.4,133.1,280.6,133.3z"/>
			<path class="st15" d="M261.1,344.3c-1.6-80.2-0.6-139.4,6.2-184.5c0.2-1,1-1.8,2.1-1.8c21.9-0.7,48,0.6,55.6,1
				c1.2,0.1,2.1,1.1,2,2.3c-0.6,9.2-2.5,46.6,4.6,89.5c6.3,38.4,12.7,76.3,14.1,84.6c0.2,1-0.4,1.9-1.3,2.3
				c-5.2,2.2-22.8,9.2-45.8,11.8c-22.2,2.6-33-1.6-36.3-3.3C261.6,345.8,261.1,345.1,261.1,344.3z"/>
			<g>
				<path class="st15" d="M287.5,348.6c3.4-0.1,7.1-0.3,10.9-0.8c22.8-2.6,40.4-9.6,45.3-11.7c0.2-0.1,0.3-0.3,0.3-0.5
					c-1.8-10.3-8-46.9-14.1-84.6c-7-42.7-5.3-79.6-4.6-89.9c0-0.2-0.1-0.3-0.1-0.3c-0.1-0.1-0.2-0.1-0.3-0.2
					c-6.8-0.4-30.5-1.6-51.5-1.1c-1.3,0-2.6,0.1-3.9,0.1c-0.2,0-0.4,0.2-0.4,0.4c-6.2,41-8,94.4-6.2,184.2c0,0.2,0.1,0.3,0.3,0.4
					C265.5,346,273,348.9,287.5,348.6C287.5,348.6,287.5,348.6,287.5,348.6z"/>
				<path class="st16" d="M273.3,161.2c19-0.4,40.3,0.5,49.1,1c0.6,0,1,0.5,1,1.1c-0.7,12.8-1.9,47.9,4.7,88
					c5.8,35.4,11.8,70.7,13.7,82.1c0.2,0.9-0.4,1.8-1.2,2.2c-6.9,2.7-22.7,8.3-42.5,10.6c-3.7,0.4-7.4,0.7-10.8,0.8
					c-11.5,0.3-18.3-1.6-21.8-2.9c-0.8-0.3-1.2-1-1.3-1.8c-1.7-87.1,0-139.6,5.9-180c0.1-0.5,0.5-0.9,1-0.9
					C272,161.3,272.6,161.3,273.3,161.2 M273.2,157.9c-1.3,0-2.6,0.1-3.9,0.1c-1,0-1.9,0.8-2.1,1.8c-6.8,45.1-7.8,104.3-6.2,184.5
					c0,0.8,0.5,1.5,1.2,1.9c2.7,1.4,10.4,4.4,25.2,4.1c3.3-0.1,7-0.3,11.1-0.8c23-2.6,40.6-9.6,45.8-11.8c0.9-0.4,1.4-1.3,1.3-2.3
					c-1.4-8.2-7.8-46.1-14.1-84.6c-7.1-42.9-5.2-80.3-4.6-89.5c0.1-1.2-0.8-2.2-2-2.3C317.7,158.6,294.2,157.4,273.2,157.9
					L273.2,157.9z"/>
			</g>
			<path class="st14" d="M329.3,224.6l0.4,5.1c0,0.3-0.2,0.5-0.4,0.6c-7,1.5-27.3,7.1-68.5,2.6c-0.3,0-0.5-0.3-0.5-0.5l0.3-5.1
				c0-0.3,0.3-0.6,0.7-0.6c4.7,0.8,33,4.8,67.5-2.5C328.9,224,329.3,224.3,329.3,224.6z"/>
			<path class="st16" d="M310.7,239.1c-4.6,0.6-21,2.6-36.4,0.8c-0.6-0.1-1.1,0.4-1.1,0.9c-0.1,3.2-0.5,13,0.5,23
				c0.1,0.9,0.5,1.8,1.1,2.5c2.7,2.9,10.5,10.7,18,11.5c7.7,0.8,17.9-9.4,21-12.6c0.5-0.6,0.8-1.4,0.7-2.2c-0.5-3.1-1.8-12-2.3-22.9
				C312,239.6,311.4,239,310.7,239.1z"/>
			<path class="st15" d="M307.4,243.3c-3.7,0.5-16.9,2.1-29.2,0.6c-0.5-0.1-0.9,0.3-0.9,0.8c-0.1,2.6-0.4,10.4,0.4,18.5
				c0.1,0.8,0.4,1.5,0.9,2c2.2,2.4,8.5,8.6,14.4,9.2c6.2,0.6,14.4-7.5,16.8-10.1c0.4-0.5,0.6-1.1,0.5-1.7c-0.4-2.5-1.5-9.6-1.9-18.4
				C308.5,243.7,308,243.2,307.4,243.3z"/>
			<g>
				<path class="st0" d="M281.6,182.1c-0.1,3.7,4.8,6.8,10.9,6.9c6.1,0.1,11.1-2.8,11.1-6.5c0.1-3.7-4.8-6.8-10.9-6.9
					C286.6,175.4,281.6,178.4,281.6,182.1z"/>
				<path class="st14" d="M283.7,182.1c0,2.6,3.9,4.7,8.8,4.8c4.9,0.1,8.9-1.9,8.9-4.5c0-2.6-3.9-4.7-8.8-4.8
					C287.8,177.5,283.8,179.5,283.7,182.1z"/>
			</g>
			<g>
				<path class="st0" d="M272.7,164.8l-0.6,6c0,0.4,0.3,0.7,0.7,0.7l13,0.3c0.4,0,0.7-0.3,0.7-0.6l0.3-6.3c0-0.4-0.3-0.7-0.7-0.7
					l-12.7-0.1C273,164.2,272.7,164.5,272.7,164.8z"/>
				<path class="st17" d="M273.9,165.7l-0.4,4.4c0,0.1,0.1,0.3,0.2,0.3l3.2,0.1c0.1,0,0.2-0.1,0.2-0.2l0.4-4.4
					c0-0.1-0.1-0.3-0.2-0.3l-3.2,0C274,165.5,273.9,165.5,273.9,165.7z"/>
				<path class="st17" d="M279.3,166.5l5.4,0.1c0.1,0,0.3,0.1,0.3,0.3l0,0.7c0,0.1-0.1,0.3-0.3,0.2l-5.4-0.1c-0.2,0-0.3-0.1-0.3-0.3
					l0.1-0.7C279.1,166.6,279.2,166.5,279.3,166.5z"/>
				<path class="st17" d="M279.1,168.4l3.3,0.1c0.1,0,0.3,0.1,0.3,0.3l0,0.6c0,0.1-0.1,0.2-0.3,0.2l-3.3-0.1c-0.1,0-0.3-0.1-0.3-0.3
					l0-0.6C278.9,168.5,279,168.3,279.1,168.4z"/>
				<path class="st3" d="M277.5,164.8l4.1,0.1c0.2,0,0.4-0.1,0.4-0.3l0.2-0.9c0.1-0.3-0.1-0.5-0.4-0.5l-4.4,0
					c-0.3,0-0.5,0.2-0.4,0.5l0.1,0.9C277.1,164.6,277.3,164.8,277.5,164.8z"/>
			</g>
		</g>
	</g>
	<g>
		<path class="st3" d="M148.7,91.9c-7.2,15.3-0.8,29,3.1,37.4s-2.1,23.2-2.1,23.2h40.5c0,0-10.3-12.4-6.4-21.9
			c3.9-9.5,20.8-52.3-15.5-52.3s-20.9,40.8-20.9,40.8"/>
		<g>
			<path class="st4" d="M205.2,166.2c-1.8,21-2,52.4,4.8,72.5c-3.2-0.4-6.4-0.8-9.6-1.1c-7.7-20.2-9.2-50.2-9.8-71.7
				C195.5,166,200.4,166.1,205.2,166.2z"/>
			<g>
				<path class="st0" d="M200.5,237.7c0,4.1,0.1,17,2.9,18.9c2.8,1.9,1.5-6.3,1.7-6.6c0,1.3,0.6,11.6,2.9,10.8
					c2.3-0.8,0.3-9.3,0.1-11.3c0.5,1.5,2.5,11.3,4.7,10.3c2.2-1-1.6-10.5-2.2-12.5c0.5,1,3.1,9.9,4.9,8.5c1.8-1.3-1.7-9.9-2.2-12.1
					c0.7-0.1,4.4,2.5,4.6,0.2c0.2-2.3-7.8-4.6-9.2-6.5c-1.4-2-3.5-2.3-5.6-2.9C202.3,235.7,201.3,236.4,200.5,237.7z"/>
			</g>
		</g>
		<polygon class="st4" points="180.4,230.1 178.5,230.7 178.9,237.9 		"/>
		<polygon class="st4" points="203.2,352.9 203.1,334.4 202.5,318.9 200.1,248.1 197.6,237.1 178.4,228.9 178.5,230.7 180.4,230.1 
			178.9,237.9 194.1,422.8 203.7,423.8 		"/>
		<path class="st4" d="M135.6,423.7c-1.2-0.7-2-1.3-2-1.3c0.5-0.7,1.5-1.6,2.2-2l4.6-66.3l0.1-1.7l6.3-51l7.8-62.8l23.9-7.9l0.4,7.2
			l-12.6,69.4l-8.6,47.3l-0.2,0.9L144.9,421c0.6,0.6,1.1,1.3,1.1,1.3s-0.5,0.5-1.4,1l-0.2,1.2l-3.7,0.2c-0.3,0-0.6,0.1-0.8,0.1h0
			l-4.3,0.3L135.6,423.7z"/>
		<g>
			<path class="st3" d="M141.2,322.2c0.1-1.6,0.3-3.1,0.4-4.6c0.7-16.1,3.5-75.7,5.7-86c2.5-12,10.5-19.8,10.5-19.8
				c0.9,0,1.6,0,2.4-0.1c0.1-0.2,0.1-0.4,0.2-0.7c14.4,2.1,37.2,0.6,37.3-1c0,0,0,0.4,0.1,1.2c0.6,2.9,7.6,38.1,7.1,101.2l0,0
				c1.1,29.7,1.3,70.9-0.2,104.3c-5.7,1.4-10,0.8-12.5,0c-9.8-50.3-9.4-97.6-9.4-97.6c-3.8-17.4-6.7-32.8-8.8-44.1
				c-3,14.4-6.7,31.6-9.8,45.8c0,0,0,0,0,0c0,0.3-9.8,59.3-17.5,95.5c0,0-2.4,1.4-6.6,1.2c-4.2-0.2-5.8-1.7-5.8-1.7
				C130.9,357,139.8,325.9,141.2,322.2z"/>
			<path class="st8" d="M192.2,416C192.2,416,192.2,416,192.2,416L192.2,416z"/>
			<path class="st8" d="M192.2,416C192.2,416,192.2,416,192.2,416C192.2,416,192.2,416,192.2,416z"/>
		</g>
		<polygon class="st4" points="196.8,419 206,421.6 208.1,424.7 202.4,426.4 196.4,425.2 195.6,422.6 		"/>
		<path class="st3" d="M192.8,431.2h36.8c0,0-0.1-3-1.3-4.6c-1.2-1.6-19.7-4.6-22.3-5.1c0,0-0.5,1.7-3.1,2.2
			c-2.6,0.5-8.2-3.1-8.2-3.1l-0.9-0.3L192.8,431.2"/>
		<g>
			<path class="st18" d="M157.5,140.4c1.5,4.5,4.9,9.5,13.9,8.8c7.5-0.6,9.4-6.8,9.9-10.1c10.3,4,21.8,7.2,22.6,15.4
				c0,0,0.5,7.1-5.1,7.6l-28,2.6l-24,2.7c-5.5,0.5-8.8-6.3-8.8-6.3C137.1,152.5,148.1,146.8,157.5,140.4z"/>
			<path class="st18" d="M171.3,149.3c-8.9,0.7-12.3-4.4-13.9-8.8c1.3-0.8,2.5-1.7,3.6-2.6c1.6-1.2,6.2-4.8,6.8-4.7
				c0.6-0.3,5.3,2.4,7.2,3.3c1.9,0.9,4,1.8,6.1,2.6C180.7,142.4,178.8,148.7,171.3,149.3z"/>
		</g>
		<path id="XMLID_14_" class="st19" d="M169.9,144.2L169.9,144.2c4.1-0.1,7.3-1.8,7.2-5.9l-0.6-18.4l-14.8,0.5l0.6,18.4
			C162.4,142.8,165.8,144.3,169.9,144.2z"/>
		<path class="st19" d="M155.3,95.2c8.3-1.5,15.8,3.1,24,1.6c0,0,0.6,0.1,0.6,0.1c1.8-0.3,5.6-2.8,7.3-2c1.6,0.8-0.5,4.5,1.6,4.7
			l0.6,18.6c0,9.8-10.9,15.1-15,15.1c-0.2,0,0,0-0.2,0c-13.2-0.7-17.4-11-18.2-16.6l-3.7-14.1C153.2,102.3,154.3,95.4,155.3,95.2z"
			/>
		<path id="XMLID_3_" class="st20" d="M171,76.8"/>
		<g>
			<g>
				<path class="st21" d="M191.1,216.3c1.5,3.4,3.6,6.7,6.8,8.6c0.2,0.1,0.3-0.1,0.2-0.3c-2.2-2.8-4.6-5.4-6.2-8.7
					C191.7,215.5,190.9,215.7,191.1,216.3L191.1,216.3z"/>
			</g>
		</g>
		<g>
			<g>
				<path class="st21" d="M156.2,223.9c4.1-1,8.1-3.2,11.2-6.1c0.3-0.2-0.1-0.7-0.4-0.5c-3.6,2.3-7.1,4.2-11.1,5.7
					C155.4,223.2,155.6,224,156.2,223.9L156.2,223.9z"/>
			</g>
		</g>
		<path class="st18" d="M191.2,142.7c10.3,4.3,14,6.7,16.2,24.9c0,0-1.4,4.3-11.1,6.5l-10.2-19.9L191.2,142.7z"/>
		<path class="st3" d="M185.8,107.4c0.1,1.8-0.7,3.2-1.8,3.3c-1.1,0-2-1.4-2-3.1s0.7-3.2,1.8-3.3
			C184.8,104.2,185.8,105.6,185.8,107.4z"/>
		<path class="st3" d="M172.4,107.4c0.1,1.8-0.7,3.2-1.8,3.3c-1.1,0-2-1.4-2-3.1s0.7-3.2,1.8-3.3
			C171.5,104.3,172.4,105.6,172.4,107.4z"/>
		<path class="st0" d="M172.7,106.5c0,0.5-0.2,0.9-0.5,0.9c-0.3,0-0.5-0.4-0.6-0.9c0-0.5,0.2-0.9,0.5-0.9
			C172.4,105.6,172.6,106,172.7,106.5z"/>
		<path class="st0" d="M186.1,106.5c0,0.5-0.2,0.9-0.5,0.9c-0.3,0-0.5-0.4-0.6-0.9c0-0.5,0.2-0.9,0.5-0.9
			C185.8,105.7,186.1,106.1,186.1,106.5z"/>
		<g>
			<path class="st22" d="M178.8,118.4C178.8,118.4,178.8,118.4,178.8,118.4c0.2,0,1.9-0.1,2.6-1c0.3-0.4,0.4-0.8,0.4-1.3
				c-0.2-1.5-1.7-1.9-2.9-1.9l-0.6-4.3c0-0.3-0.3-0.5-0.6-0.5c-0.3,0-0.5,0.3-0.5,0.6l0.7,4.8c0,0.3,0.3,0.5,0.6,0.5
				c0,0,2.1-0.1,2.2,0.9c0,0.2,0,0.3-0.1,0.4c-0.3,0.4-1.3,0.6-1.8,0.6c-0.3,0-0.6,0.3-0.6,0.6C178.3,118.2,178.5,118.4,178.8,118.4
				z"/>
		</g>
		<g>
			<path class="st19" d="M151.2,177.4c0,0-15.1,33.7-15,63.2c0,0-8.6,11.2-8.4,2.4c0.2-8.8-2.3-43.9,10.8-73.1L151.2,177.4z"/>
			<path class="st23" d="M127.8,242.9c0,0-1.3,17.8,0.6,18.2c1.1,0.2,2-4.1,2.4-6c0-0.1,0.2-0.1,0.2,0c0,2.8,0.2,11.3,1.8,10.8
				c1.5-0.5,1.5-8.9,1.5-11.8c0-0.1,0.1-0.1,0.2,0c0.5,3,2.3,11.8,3.7,11.4c1.4-0.3,0-9.3-0.7-12.9c0-0.1,0.1-0.1,0.1,0
				c0.9,3,2.9,9.5,3.9,9.1c1.2-0.5-1.1-9.2-1.7-11.1c0-0.1,0.1-0.2,0.2-0.2c0.7,0.5,2.7,1.2,3.4,0.4c1.1-1.4-7.3-8.2-7.3-10.2
				c0-1.6-5.5-3.6-5.5-3.6L127.8,242.9z"/>
			<path class="st0" d="M126.7,251.4l-0.5-14.9c0-0.5,0.3-0.9,0.8-1c3.9-0.7,7.4-0.5,9-0.4c0.5,0.1,0.9,0.5,0.8,1
				c-0.2,2.1,0,4.3,0,4.6c0.3,0.9,2.2,2.9,3.4,4.3c2.9,3.2,4.5,5,3.6,6.1c-0.7,0.9-2.2,0.6-3.2,0.2c2.7,10,1.6,10.6,1,10.8
				c-0.2,0.1-0.5,0.1-0.8,0c-0.3-0.1-0.8-0.4-2-3.2c0.8,6.8-0.2,7.1-0.8,7.2c-0.2,0-0.5,0.1-0.8-0.2c-0.8-0.5-1.7-2.7-2.6-6.6
				c-0.3,6.6-1.4,7-1.9,7.1c-0.1,0-0.2,0-0.3,0c-0.2,0-0.5-0.1-0.6-0.2c-0.8-0.6-1.3-3-1.6-7.1c-0.9,2.7-1.7,2.5-2.1,2.4
				C127,261.5,126.5,258,126.7,251.4L126.7,251.4z"/>
			<g>
				<g>
					<path class="st22" d="M137.8,213c-0.9-0.7-1.8-1.1-2.9-0.8c-0.5,0.1-0.4,0.9,0.1,1c0.8,0.2,1.5,0.3,2.2,0.7
						C137.7,214.2,138.3,213.4,137.8,213L137.8,213z"/>
				</g>
			</g>
		</g>
		<path class="st18" d="M138.4,157.2c7.9,4.9,23.2,0.5,20.2,10.3c-3,9.8-7.6,12.9-7.6,12.9s-14-2.2-15.4-7.8
			C134.7,169,138.4,157.2,138.4,157.2z"/>
		<path class="st24" d="M157.9,211.7c0,0-2.4-19.2-8.1-34.8l16.3-9.9l6.8,31.8L157.9,211.7z"/>
		<path class="st3" d="M148.6,431.2c0,0-0.5-6.1-2.6-8.9c0,0-5.5,3.3-12.3,0c0,0-2.2,2.5-2.9,8.9H148.6z"/>
		<path class="st25" d="M174.1,275c0,0,4-14.4,6-23.4"/>
		<path class="st15" d="M209.9,327.9c2-53.4,0-113.2-8.9-165.8c-0.2-1.2-1.1-1.6-1.9-1.6c-16.3,0.3-33.8,0.4-49.4,2.7
			c-2.4,0.4-2.2-1.2-2,2.3c2.1,26.6,4.2,52.4,0.8,80.8c-3,25.4-8.8,49.7-14.3,74.2c-0.3,1.5-0.7,1.5,1.4,2.5
			c11.4,5.8,28.3,8.9,40.7,10.1c11.9,1.2,22.5,0.3,32.2-3.5C210.7,328.8,209.9,328.4,209.9,327.9z"/>
		<g>
			<path class="st16" d="M148,143c0.8-0.3,1.4-1,2.3-1.1c0.9-0.1,1.2-0.8,2.1,0.6c4.6,6.4,8.3,14,10.8,21.6c0.2,0.6-0.4,1.8-1.5,1.7
				c-0.8-0.1-1.9,0.2-2.8,0c-0.8-0.2-1,0.2-1.5-1c-2.9-6.5-6.2-13.6-10.1-20C147.1,144.3,147.2,143.3,148,143z"/>
			<path class="st16" d="M188.5,140c0.8,0.2,1.4,0.1,2.2,0.5c0.8,0.4,1.1,0,1.4,1.3c1.6,6.2,2.5,13.1,2.3,19.8
				c0,0.7-0.8,1.7-1.9,1.6c-0.4,0-1.2,0.2-1.6,0c-1.1-0.5-1.9-0.1-1.9-1.9c0-6.4-0.6-13.7-1.8-20.4
				C187.2,140.6,187.7,139.8,188.5,140z"/>
			<g>
				<path class="st15" d="M186.8,332.1c-3.1,0-7.2-0.1-9.6-0.3c-14.6-1.6-28-4.3-41.1-10.1c-0.5-0.2-0.4-0.1-0.3-0.6
					c4.8-25.1,11.3-49.2,14.4-74.6c3.4-28.8,1.6-53.6-0.9-81.6c0-0.4,0,0,0.1-0.3c0.1-0.2,0-0.1,0.3-0.2c15.3-1.5,30.6-2.3,46.1-2.5
					c1,0,2.4,0,3.4,0c0.2,0,0.4,0.1,0.4,0.3c9,52.6,10.7,112.3,9,165.5c0,0.1,0,0.2-0.3,0.4c-5.7,3-15.8,3.7-21,3.9
					C185.1,332.2,186.8,332.1,186.8,332.1z"/>
				<path class="st16" d="M195.7,163.5c0.5,0,1.2-0.1,1.7,0c0.5,0.1,0.8,0.1,0.9,0.8c8.5,51.4,10.5,109.7,8.6,161.7
					c0,0.5,0.1,1.2-1.2,1.6c-6,2-12.3,2.8-19.3,3c-2.1,0-6.8,0-9.2-0.3c-13.1-1.5-26.5-3.9-38.3-9.1c-1.5-0.7-1.6-0.2-1.1-2.2
					c5.6-24.3,10.9-47.5,13.8-72.3c3.4-28.1,1.5-52.6-0.6-79.7c-0.1-1.2,0-0.9,0.9-1C166.2,164.4,181.1,163.8,195.7,163.5
					 M195.7,160.5c-15.1,0.6-31.5,0.5-45.9,2.8c-2.4,0.4-2.2-1.2-1.9,2.3c2.2,26.6,4.2,52.4,0.8,80.8c-3,25.4-9,49.6-14.3,74.2
					c-0.4,1.7-0.8,1.5,1.3,2.5c12.1,6,27.2,8.6,41.1,10.2c2.5,0.3,7.7,0.3,9.5,0.3c8-0.1,16-1.1,22.4-4c1.7-0.7,1.3-1.2,1.3-1.8
					c1.9-53.4,0-113.1-9-165.8c-0.2-1.2-0.9-1.5-1.9-1.6C198.1,160.4,196.6,160.5,195.7,160.5C195.7,160.5,195.7,160.5,195.7,160.5z
					"/>
			</g>
			<path class="st16" d="M150.8,222.3c0,1.5-0.3,3.1-0.2,4.5c0,0.3-0.3,0.4,0.5,0.5c18.4,2.9,35.9,3.4,54.7,0.6
				c0.1,0,0.5-0.2,0.4-0.5c-0.3-1.4-0.1-3.1-0.6-4.5c-0.1-0.4,0.6-0.7-0.7-0.5c-17.4,3.6-35.7,1.9-53.6-0.6
				C151.1,221.7,150.8,221.9,150.8,222.3z"/>
			<path class="st16" d="M166.4,234.7c9.4,1.2,19.5,1.2,29.3,0.1c0.4,0,0.9-0.3,1,0.9c1,6.4,1.9,13.5,1.7,20.4
				c0,0.6,0.1,1.4-0.8,2.3c-4.1,4.1-8.2,9.9-15,10.5c-6.8,0.6-13.5-5.7-18-10.5c-0.8-0.9-0.8-0.5-0.7-2.1c0.6-6.3,1-13.9,1.3-20.6
				C165.2,235.3,165,234.5,166.4,234.7z"/>
		</g>
		<path id="XMLID_15_" class="st19" d="M158.1,115.3c0.8,3-0.2,5.9-2.1,6.4c-0.2,0-0.4,0.1-0.6,0.1c-1.8,0-3.6-1.9-4.3-4.7
			c-0.8-3,0.2-5.9,2.1-6.4C155.1,110.1,157.3,112.2,158.1,115.3z"/>
		<path class="st0" d="M179.9,123.4c0,0-8-1.2-8-1.2s0,3.6,3.5,4.6C179,127.8,179.9,123.4,179.9,123.4z"/>
		<g>
			<path class="st5" d="M169.7,133.2c0.2,0,0.5-0.2,0.5-0.4c0.1-0.3-0.1-0.6-0.4-0.7c-4.9-1.6-7.2-3.9-7.2-4c-0.2-0.2-0.6-0.2-0.8,0
				c-0.2,0.2-0.2,0.6,0,0.8c0.1,0.1,2.4,2.6,7.7,4.3C169.6,133.2,169.7,133.2,169.7,133.2z"/>
		</g>
		<g>
			<g>
				<path class="st13" d="M161.7,115c-0.1,0-0.2,0-0.2-0.1c0,0-2-1.4-4.8-2.4c-0.3-0.1-0.4-0.3-0.3-0.6c0.1-0.2,0.4-0.3,0.6-0.3
					c3,1,5,2.5,5.1,2.5c0.2,0.2,0.2,0.4,0.1,0.6C162,115,161.9,115,161.7,115z"/>
			</g>
			<g>
				<g>
					<path class="st0" d="M160.4,114.5c-0.3,1.1-1.1,3.4-3.5,5.6c-0.2,0.2-0.3,0.5-0.2,0.8c0.8,2.5,5.2,14.6,19.3,14
						c11.9-0.5,14.6-16.6,14.4-20.1c0-0.4-0.4-0.8-0.8-0.9c-2.1-0.6-8.5-2.2-11.9-2.1c-3.5,0.2-13.2,1.4-16.2,1.8
						C160.9,113.7,160.5,114,160.4,114.5z"/>
				</g>
				<g>
					<g>
						<path class="st13" d="M166.4,119.5c-0.2,0-0.3-0.1-0.4-0.3c-0.1-0.2,0.1-0.5,0.3-0.5c0.3-0.1,7.4-1.8,12.5-1.7
							c5.2,0,9.2,1.4,9.4,1.4c0.2,0.1,0.4,0.3,0.3,0.5c-0.1,0.2-0.3,0.3-0.6,0.2c0,0-4.1-1.3-9-1.4c-5,0-12.2,1.7-12.3,1.7
							C166.5,119.5,166.4,119.5,166.4,119.5z"/>
					</g>
					<g>
						<path class="st13" d="M166,122.7c-0.2,0-0.3-0.2-0.4-0.3c-0.1-0.2,0.1-0.5,0.3-0.5c0.3-0.1,7.7-1.5,13-1.3
							c5.3,0.2,8,1.1,8.1,1.1c0.2,0.1,0.4,0.3,0.3,0.5c-0.1,0.2-0.3,0.3-0.6,0.3c0,0-2.7-0.8-7.8-1c-5.2-0.2-12.7,1.3-12.8,1.3
							C166.1,122.7,166.1,122.7,166,122.7z"/>
					</g>
					<g>
						<path class="st13" d="M166.8,125.7c-0.2,0-0.3-0.2-0.4-0.3c-0.1-0.2,0.1-0.5,0.4-0.5c0.1,0,5.5-1,11.8-0.7
							c6.2,0.2,7.2,0.5,7.3,0.5c0.2,0.1,0.4,0.3,0.3,0.5c-0.1,0.2-0.3,0.3-0.6,0.3c0,0-1-0.3-7-0.5c-6.2-0.2-11.5,0.7-11.5,0.7
							C166.9,125.7,166.9,125.7,166.8,125.7z"/>
					</g>
					<g>
						<path class="st13" d="M171.6,128.7c-0.2,0-0.4-0.2-0.4-0.4c0-0.2,0.1-0.4,0.4-0.5c0.2,0,3.8-0.4,6.7-0.3
							c2.9,0.1,4.6,0.4,4.7,0.4c0.3,0,0.4,0.2,0.4,0.5c0,0.2-0.3,0.4-0.5,0.4c0,0-1.8-0.2-4.6-0.4c-2.8-0.1-6.5,0.3-6.5,0.3
							C171.7,128.7,171.7,128.7,171.6,128.7z"/>
					</g>
				</g>
			</g>
		</g>
		<g>
			<path class="st0" d="M189.5,183.7c0.1,3.7-4.7,6.9-10.8,7.1c-6.1,0.2-11.1-2.6-11.3-6.3c-0.1-3.7,4.7-6.9,10.8-7.1
				C184.3,177.2,189.4,180,189.5,183.7z"/>
			
				<ellipse transform="matrix(0.9993 -3.645598e-02 3.645598e-02 0.9993 -6.5939 6.6299)" class="st14" cx="178.5" cy="184.1" rx="8.8" ry="4.6"/>
		</g>
		<g>
			<path class="st0" d="M196,168.7l0.7,6c0,0.4-0.2,0.7-0.6,0.8l-13,0.6c-0.4,0-0.7-0.3-0.7-0.6l-0.4-6.2c0-0.4,0.3-0.7,0.7-0.7
				l12.7-0.4C195.7,168.1,196,168.3,196,168.7z"/>
			<path class="st17" d="M194.8,169.5l0.5,4.4c0,0.1-0.1,0.3-0.2,0.3l-3.2,0.2c-0.1,0-0.2-0.1-0.3-0.2l-0.5-4.4
				c0-0.1,0.1-0.3,0.2-0.3l3.2-0.1C194.7,169.3,194.8,169.4,194.8,169.5z"/>
			<path class="st17" d="M189.4,170.5l-5.4,0.2c-0.1,0-0.3,0.1-0.3,0.3l0.1,0.7c0,0.1,0.1,0.2,0.3,0.2l5.4-0.3
				c0.2,0,0.3-0.1,0.2-0.3l-0.1-0.7C189.7,170.6,189.6,170.5,189.4,170.5z"/>
			<path class="st17" d="M189.6,172.3l-3.3,0.2c-0.1,0-0.3,0.1-0.2,0.3l0.1,0.6c0,0.1,0.1,0.2,0.3,0.2l3.3-0.2
				c0.1,0,0.3-0.1,0.2-0.3l-0.1-0.6C189.9,172.4,189.8,172.3,189.6,172.3z"/>
			<path class="st3" d="M191.2,168.7l-4.1,0.1c-0.2,0-0.4-0.1-0.4-0.3l-0.3-0.9c-0.1-0.3,0.1-0.5,0.4-0.6l4.4-0.1
				c0.3,0,0.5,0.2,0.5,0.5l0,0.9C191.6,168.5,191.4,168.7,191.2,168.7z"/>
		</g>
		<path class="st3" d="M166.4,83.1c27.4,0,23.5,19.9,23.5,19.9c-11.7-0.3-20.7-2.6-26-4.4c-0.4-0.1-0.9,0.1-1,0.5
			c-2.3,7.6-8.5,11.5-8.5,11.5S139.1,83.1,166.4,83.1z"/>
	</g>
	<g>
		<g>
			<g>
				<path class="st23" d="M403.7,164.5c0,0-12.6,24.8-14.4,37.2c-1.4,9.8-0.7,13.7,8.9,28.6c3.5,5.4,6.9,13.2,6.9,13.2l12.6-2.8
					c0,0-14.2-27.3-13.2-34.2c1.1-6.9,18.9-42.4,18.9-42.4L403.7,164.5z"/>
				<g>
					<path class="st5" d="M402.7,206.3c-0.8,0-1.6,0-2.5,0.1c-0.8,0.1-1.6,0.3-2.4,0.2c-0.3,0-0.5-0.4-0.2-0.6
						c1.4-0.9,3.6-0.8,5.2-0.5C403.3,205.5,403.2,206.3,402.7,206.3L402.7,206.3z"/>
				</g>
				<g>
					<path class="st4" d="M405.3,240.6c-0.1-0.1-1.3,16,0.2,17.2c1.5,1.3,2.6-6.5,2.6-6.5s0.9,12.5,2.5,12.2
						c1.6-0.3,2.3-10.4,2.3-10.4s3.8,12.5,6.2,12.6c2.4,0-2.2-14.2-2.2-14.2s7,9.8,8.6,8.7c1.6-1.2-6.9-13.1-6.9-13.1
						s7.4,3.6,8.3,2.1c0.9-1.5-11.6-10-11.6-10L405.3,240.6z"/>
				</g>
			</g>
			<path class="st0" d="M420.5,266c0.9-1.3,0.2-5.3-0.8-9.2c1.9,2.2,3.9,4.2,5.2,4.5c0.6,0.1,1-0.1,1.3-0.3c1.3-0.9,0.4-3-0.1-3.9
				c-1-2.2-2.9-5.2-4.4-7.5c3.4,1.2,5.4,1.3,6.2,0.1c0.2-0.3,0.4-0.8,0-1.6c-0.7-1.5-4.2-4.3-7.3-6.6l0,0c-2.2-1.6-4.4-5.9-5.1-7.4
				c-0.2-0.3-0.5-0.5-0.8-0.6c-1.8-0.1-7.2,0-13.5,3.8c-0.4,0.3-0.6,0.8-0.4,1.3c0.9,1.8,2.9,6.1,2.9,9.4c-0.3,8,0.4,9.4,0.6,9.9
				c0.1,0.3,0.3,0.5,0.5,0.7c0.5,0.4,1.1,0.5,1.6,0.3c0.4-0.2,0.9-0.6,1.2-1.3c0.3,2.2,0.7,4.5,1.2,5.6c0.6,1.4,1.5,1.4,1.9,1.3
				c0.5-0.1,1.8-0.4,2.7-6.4c0.4,1.1,0.9,2.4,1.4,3.5c1.6,3.5,2.8,5,4.2,5C419.7,266.7,420.1,266.5,420.5,266z"/>
		</g>
		<path class="st3" d="M424.5,83.1c-0.8,18,4,31,20.5,34.6c14.8,3.2,29.7-6.3,34.7-23.7c3.7-12.8-3.9-30.8-22.5-33.9
			C435.8,56.5,425.3,66.2,424.5,83.1z"/>
		<path class="st0" d="M406.8,432.1h36.1c1.8,0,3.2-1.4,3.2-3.2v-1h-42.4v1C403.6,430.7,405,432.1,406.8,432.1z"/>
		<path class="st3" d="M464.8,108.9c0,0-3.2,6.6-8.8,7.1l4.4-6.5L464.8,108.9z"/>
		<g>
			<g>
				<path class="st23" d="M428.7,391.7l14.2-5.4l1.1,23.1h-14C429.4,401.3,428.7,391.9,428.7,391.7z"/>
				<path class="st0" d="M443.9,409.5l0.5,11.4l-13.7,0.5c0,0-0.4-5.6-0.8-11.9H443.9z"/>
			</g>
			<g>
				<path class="st23" d="M475.6,392.8l14.2-5.4l3.4,22h-14.3C477.4,401.7,475.7,393,475.6,392.8z"/>
				<path class="st0" d="M493.2,409.5l1.7,11.4l-13.7,0.5c0,0-1.1-5.6-2.3-11.9H493.2z"/>
			</g>
			<path class="st3" d="M417.3,241.7l25.1,2c0.8,0.1,1.5,0.8,1.5,1.6c0,4.1,0,8.8,0,13.9c0,0.8,0.6,1.5,1.4,1.6l8.5,1
				c1.3,0.2,1.9,1.6,1.1,2.6l-4.3,5.4c-0.2,0.3-0.3,0.6-0.4,1c-0.2,4.1-1.3,31.3-5.7,64c0,0,0,0,0,0c0,0,4.9,26.4,1.9,70.5
				c-0.1,0.9-0.8,1.5-1.7,1.5l-15.6-0.3c-0.8,0-1.5-0.6-1.6-1.4c-4.1-34.6-12.6-124.3-12-161.9C415.6,242.4,416.4,241.6,417.3,241.7
				z"/>
			<path class="st3" d="M438.5,244.4l21.1-0.6c0.9,0,1.6-0.8,1.6-1.7l-0.5-9.9c-0.1-1.1,1-2,2.1-1.6l8.8,2.8
				c0.4,0.1,0.7,0.4,0.9,0.8c1.2,2.2,5.1,10.7,5.6,27.5c0.3,9.4,1,18.7,2,28c4.8,43.1,13,104.3,14.5,115.6c0.1,1-0.6,1.8-1.6,1.8
				l-15.2,0c-0.7,0-1.4-0.5-1.6-1.2C472.6,390.8,436.5,244.4,438.5,244.4z"/>
			<g>
				<path class="st14" d="M479.1,417.4l0.1-3.3c0-0.8,0.7-1.3,1.4-1.3l13.8,0.4c0.7,0,1.2,0.5,1.3,1.2c0.2,1,0.4,2.5,0.6,3.9
					c0,0-2.3-1.8-8.7-2C480.9,416.1,479.1,417.4,479.1,417.4z"/>
				<g>
					<polygon class="st0" points="497.5,430.9 476.6,430.9 476.6,428.9 497.5,428.9 					"/>
					<path class="st14" d="M475,424.3c0-3.1,1.7-5.8,4-6.9c0,0,1.9-1.3,8.5-1.1c6.4,0.2,8.7,2,8.7,2c1.6,1.4,2.7,3.6,2.7,6.1l0,4.6
						h-1.6l0-2.6c0-2.4-0.9-4.5-2.2-5.9c-0.2-0.2-0.3-0.3-0.5-0.4c-0.8-0.5-2.9-1.6-7.2-1.7c-5.8-0.2-7.4,1.1-7.4,1.1
						c-2.1,1.1-3.5,3.8-3.5,6.9l0,2.6H475L475,424.3z"/>
					<path class="st0" d="M480.1,419.4c0,0,1.6-1.3,7.4-1.1c4.3,0.1,6.5,1.2,7.2,1.7c0.2,0.1,0.4,0.3,0.5,0.4
						c1.3,1.4,2.2,3.5,2.2,5.9l0,2.6h-20.8l0-2.6C476.6,423.2,478,420.5,480.1,419.4z"/>
				</g>
			</g>
			<g>
				<path class="st14" d="M413.4,421.8c0.5,0,0.9,0,1.4,0l1.8-0.3c4.7-0.8,9-3.3,12.1-7l0,0c0.4-0.5,1.1-0.6,1.7-0.4
					c4.3,1.8,9,2.2,14.5-0.4c0.8,0,1.5,0.7,1.5,1.5l0,3.3l0,0l-0.2,10.4l-31.1,0.1C415.7,425.8,414.6,423.3,413.4,421.8z"/>
				<path class="st0" d="M413.4,421.8c1.2,1.6,2.3,4,1.6,7.3l-11.3,0C403,422.8,407.8,421.9,413.4,421.8z"/>
			</g>
			<g>
				<g>
					<path class="st21" d="M464.2,250.3c1.5,5.6,5.4,8,10,11c0.6,0.4,0.1,1.3-0.6,1c-4.4-2.4-10-6.3-10-11.8
						C463.6,250,464.1,250,464.2,250.3L464.2,250.3z"/>
				</g>
			</g>
			<g>
				<g>
					<path class="st21" d="M417.5,258.5c1.8,0.1,3.2-2.9,3.9-4.3c0.8-1.4,1.3-2.9,1.9-4.4c0.1-0.3,0.7-0.3,0.7,0.1
						c0,2.4-1.3,4.5-2.5,6.4c-1,1.4-2,3.4-4,2.8C417.1,259,417.2,258.5,417.5,258.5L417.5,258.5z"/>
				</g>
			</g>
			<g>
				<g>
					<path class="st21" d="M442,252.7c0.4,3.7,0.7,8,0,11.7c0,0.2-0.4,0.2-0.5,0c-0.7-3.6-0.4-8,0-11.7
						C441.5,252.4,442,252.4,442,252.7L442,252.7z"/>
				</g>
			</g>
			<g>
				<g>
					<path class="st21" d="M476,335.7c-3.5,1.7-8.8,2.4-12.1-0.2c-0.3-0.2,0-0.6,0.3-0.5c2,0.3,3.7,1,5.7,1c2,0,3.9-0.4,5.7-1.1
						C476.1,334.8,476.4,335.5,476,335.7L476,335.7z"/>
				</g>
			</g>
			<g>
				<g>
					<path class="st21" d="M433.7,337.4c-3.1,0.4-7,0.5-9.9-0.8c-0.3-0.2-0.2-0.7,0.2-0.7c1.6,0,3.2,0.5,4.8,0.6
						c1.6,0.2,3.3,0.2,4.9,0.2C434.2,336.7,434.1,337.4,433.7,337.4L433.7,337.4z"/>
				</g>
			</g>
		</g>
		<g>
			<path class="st5" d="M414,185.9c0.5,0.1,0.8,0.7,1.1,1c0.4,0.4,0.7,0.7,0.9,1.2c0.1,0.3-0.2,0.6-0.5,0.5c-0.6-0.2-0.9-0.6-1.3-1
				c-0.3-0.4-0.8-0.8-0.8-1.4C413.5,186.1,413.7,185.9,414,185.9L414,185.9z"/>
		</g>
		<path class="st18" d="M419.2,160.9l-10.6-5.6c-1.3,16.8,4.5,52.6,5.3,76.4c0.1,3.1,0.3,6.3,0.4,9.2c0,0.5,0,2,0.3,2.4
			c15,16.5,52.9,5.2,60.7,2.8c0.9-0.3,1.5-1.1,1.6-2l0.4-5.1l1.6-10.9l10.7-71.1L419.2,160.9z"/>
		<path id="XMLID_29_" class="st18" d="M459,126.5c-2.2-1.6-8.1-3.1-8.9-2.7c-0.8-0.4-6.2,0.8-8.5,2.4c-13.7,9.2-33,14.8-33,29.2
			c0,3.8,1.5,10.3,8.6,10.4l32.1,0.7l32.7,0.7c7.1,0.1,7.6-10.1,7.6-10.1C489.8,142.6,472.3,136.2,459,126.5z"/>
		<g>
			<path class="st11" d="M451.3,184.1c-0.1,0-0.1-0.1,0-0.1C451.4,183.9,451.4,184.1,451.3,184.1L451.3,184.1z"/>
		</g>
		<path id="XMLID_28_" class="st23" d="M457.1,131.8c-0.7,6.7-18.9,11.3-18.4,0.5l1.9-21.4l17.2-0.9
			C456.3,119.3,455.9,127.2,457.1,131.8z"/>
		<path class="st23" d="M426.6,106.5l3.9-28.6c0.4-3.9,4.1-6.6,7.9-5.9c7.6,1.4,15.1,2.8,22.6,4.5c3.9,0.9,7.1,3.7,8.4,7.5l0,0.1
			c0.9,2.5,0.8,5.3-0.2,7.8l-8.9,21.9c-1.5,3.4-9.8,12.6-19.8,11.3c-0.3,0-0.5,0-0.8-0.1l-0.4,0
			C431.7,123.4,425.8,113.7,426.6,106.5z"/>
		<path id="XMLID_12_" class="st23" d="M470,108c-2.5,3.4-6.2,5-8.4,3.4c-0.2-0.2-0.4-0.3-0.6-0.5c-1.5-1.8-1.2-5.4,1.1-8.5
			c2.5-3.4,6.2-5,8.4-3.4C472.7,100.5,472.5,104.6,470,108z"/>
		<g>
			<path class="st3" d="M447.8,86.9c3.2-3.1,9.5,0.8,10.2,4.5c0.1,0.3-0.2,0.5-0.5,0.3c-1.4-1.1-2.3-2.6-3.8-3.6
				c-1.9-1.2-3.7-1.1-5.8-1C447.8,87.1,447.7,87,447.8,86.9L447.8,86.9z"/>
		</g>
		<g>
			<path class="st3" d="M440.3,85.4c-1.4-0.8-2.6-1.6-4.2-1.5c-1.8,0.1-3.1,1.3-4.8,1.9c-0.3,0.1-0.4-0.2-0.3-0.5
				c1.8-3.1,8-4.3,9.5-0.1C440.6,85.3,440.4,85.4,440.3,85.4L440.3,85.4z"/>
		</g>
		<g>
			<path class="st5" d="M448.5,111.8c0.3,0.4,0.4,0.9,0.6,1.3c0.2,0.5,0.4,0.8,0.5,1.3c0.1,0.3-0.2,0.5-0.5,0.4
				c-1-0.5-1.6-1.9-1.3-2.9C447.9,111.6,448.3,111.6,448.5,111.8L448.5,111.8z"/>
		</g>
		<g>
			<path class="st5" d="M448.6,113.4c-0.5,1.1-2,1.9-3,2.2c-1.2,0.4-2.6,0.4-3.7-0.1c-0.3-0.1-0.1-0.5,0.1-0.6
				c1.1-0.5,2.3-0.3,3.5-0.7c1-0.3,1.9-1.2,3-1.3C448.6,113,448.7,113.3,448.6,113.4L448.6,113.4z"/>
		</g>
		<g>
			<path class="st26" d="M462.2,130.8c-1.1,13.4-26.5,18.5-27.2,2.4c0-0.5,0.8-0.6,0.8-0.1c1.1,6.8,6.4,9.9,13,8.6
				c5.5-1,11.7-4.9,12.3-11C461.2,130.2,462.2,130.2,462.2,130.8L462.2,130.8z"/>
		</g>
		<g>
			<path class="st5" d="M437.9,106.7c0.3,0,0.5-0.2,0.5-0.4c0.1-0.3-0.1-0.6-0.4-0.7c-0.7-0.2-2.5-0.8-3-1.7c-0.2-0.3-0.2-0.6,0-1
				c0.8-2,4-1.2,4-1.2c0.3,0.1,0.6-0.1,0.7-0.3l2.5-6.6c0.1-0.3,0-0.6-0.3-0.7c-0.3-0.1-0.6,0-0.7,0.3l-2.3,6.2
				c-1.2-0.2-4-0.4-4.9,2c-0.3,0.7-0.2,1.3,0.1,1.9c0.8,1.6,3.4,2.2,3.7,2.3C437.8,106.7,437.8,106.7,437.9,106.7z"/>
		</g>
		<path class="st3" d="M433.9,91.8c-0.3,1.7,0.3,3.2,1.3,3.4c1,0.2,2.1-1,2.4-2.7c0.3-1.7-0.3-3.2-1.3-3.4
			C435.2,88.9,434.2,90.1,433.9,91.8z"/>
		<path class="st3" d="M446.8,94.2c-0.3,1.7,0.3,3.2,1.3,3.4c1,0.2,2.1-1,2.4-2.7c0.3-1.7-0.3-3.2-1.3-3.4
			C448.2,91.3,447.1,92.5,446.8,94.2z"/>
		<path class="st0" d="M446.7,93.3c-0.1,0.5,0.1,0.9,0.4,0.9c0.3,0,0.6-0.3,0.6-0.8c0.1-0.5-0.1-0.9-0.4-0.9
			C447.1,92.5,446.8,92.8,446.7,93.3z"/>
		<path class="st0" d="M433.7,91c-0.1,0.5,0.1,0.9,0.4,0.9c0.3,0,0.6-0.3,0.6-0.8c0.1-0.5-0.1-0.9-0.4-0.9
			C434.1,90.2,433.8,90.5,433.7,91z"/>
		<path class="st3" d="M458.6,82.1c-2.5-0.2-11.6-1-24.5-4.5c-0.4-0.1-0.8,0-1,0.3c-0.6,0.8-2.1,4.2-3.5,5.9c0,0-1.4-24.1,24.6-20.3
			c23,3.4,21.7,25.5,15.4,35c0,0-0.1,0-0.3-0.1c-1.6-0.3-3.3,0.4-4.3,1.6c-0.6,0.7-1.3,1.6-2.1,2.9l0,0c-1.6-0.5-2.6-2.1-2.2-3.8
			c0.2-1,0.5-2.3,0.7-3.7c0.7-3.8,0.3-9.4-1.7-12.7l0-0.1C459.5,82.4,459.1,82.1,458.6,82.1z"/>
		<path class="st0" d="M478.2,432.1h17.7c1.8,0,3.2-1.4,3.2-3.2l0,0h-24l0,0C475,430.7,476.4,432.1,478.2,432.1z"/>
		<g>
			<g>
				<path class="st21" d="M449,292.1c0.1,0,0.1,0,0.2,0c0.3-0.1,0.4-0.4,0.3-0.7c0-0.1-2.7-7.1-4.2-14.2c-0.1-0.3-0.4-0.5-0.7-0.4
					c-0.3,0.1-0.5,0.4-0.4,0.7c1.6,7.2,4.3,14.3,4.3,14.4C448.6,291.9,448.8,292.1,449,292.1z"/>
			</g>
		</g>
		<path class="st18" d="M411.3,146.7c-8.8,13.2-14.7,25.5-14.7,25.5s7.8,13.5,25.8,11.7l13.5-23.3c0,0-1.6-10.3-9.2-13.9
			C419.2,143.1,411.3,146.7,411.3,146.7z"/>
		<g>
			<path class="st16" d="M475,134.9l-2.6-1.4c-0.8-0.4-1.8-0.2-2.3,0.6c-2.2,3.7-8.2,14.2-11.8,27.5c-0.3,1.1,0.6,2.2,1.7,2.2h3.1
				c0.7,0,1.4-0.4,1.6-1.1c1.4-3.8,6.3-16.4,11-25.5C476.2,136.4,475.8,135.4,475,134.9z"/>
			<path class="st16" d="M430.1,131.4l-2.4,0.6c-0.8,0.2-1.4,0.8-1.6,1.6c-0.8,3.6-3.1,14.1-2.6,25.3c0,1.2,1,2.1,2.2,2.1h1.8
				c1.2,0,2.2-1,2.1-2.2c-0.1-4.3,0-14.6,1.9-26C431.7,131.9,430.9,131.2,430.1,131.4z"/>
			<path class="st15" d="M405.9,344.4c0.1-80.2,2.4-139.4,10.2-184.3c0.2-1,1.1-1.8,2.1-1.8c21.9-0.2,47.9,1.6,55.5,2.2
				c1.2,0.1,2.1,1.1,2,2.3c-0.8,9.2-3.5,46.5,2.6,89.6c5.5,38.6,11.1,76.6,12.3,84.8c0.1,1-0.4,1.9-1.3,2.3c-5.2,2.1-23,8.7-46,10.8
				c-22.2,2.1-32.9-2.3-36.2-4.1C406.3,345.9,405.9,345.2,405.9,344.4z"/>
			<g>
				<path class="st15" d="M432.2,349.3c3.5,0,7.1-0.2,10.9-0.5c22.9-2.1,40.7-8.7,45.6-10.7c0.2-0.1,0.3-0.3,0.3-0.5
					c-1.5-10.4-6.9-47.1-12.3-84.9c-6.1-42.8-3.5-79.7-2.6-90c0-0.2,0-0.3-0.1-0.3c-0.1-0.1-0.2-0.2-0.3-0.2
					c-6.8-0.5-30.5-2.2-51.5-2.2c-1.3,0-2.6,0-3.9,0c-0.2,0-0.4,0.2-0.5,0.4c-7.1,40.9-10,94.2-10.2,184c0,0.2,0.1,0.3,0.3,0.4
					C410.3,346.1,417.7,349.3,432.2,349.3C432.2,349.3,432.2,349.3,432.2,349.3z"/>
				<path class="st16" d="M422.1,161.6c19,0,40.3,1.4,49.1,2.1c0.6,0,1,0.5,1,1.1c-1,12.8-2.9,47.8,2.8,88.1
					c5.1,35.5,10.2,70.9,11.9,82.3c0.1,0.9-0.4,1.8-1.3,2.2c-6.9,2.6-22.9,7.8-42.7,9.7c-3.8,0.4-7.4,0.5-10.8,0.5
					c-11.5,0-18.3-2-21.7-3.4c-0.7-0.3-1.2-1-1.2-1.9c0.2-87.1,3.1-139.6,9.8-179.8c0.1-0.5,0.5-0.9,1-0.9
					C420.8,161.6,421.4,161.6,422.1,161.6 M422.1,158.3c-1.3,0-2.6,0-3.9,0c-1,0-1.9,0.8-2.1,1.8c-7.8,44.9-10.1,104.1-10.2,184.3
					c0,0.8,0.4,1.5,1.1,1.9c2.7,1.4,10.3,4.7,25.1,4.7c3.3,0,7-0.2,11.1-0.5c23-2.1,40.8-8.7,46-10.8c0.9-0.4,1.5-1.3,1.3-2.3
					c-1.2-8.3-6.8-46.3-12.3-84.8c-6.1-43.1-3.4-80.4-2.6-89.6c0.1-1.2-0.8-2.2-2-2.3C466.6,160,443.1,158.3,422.1,158.3
					L422.1,158.3z"/>
			</g>
			<path class="st16" d="M476.1,226.2l0.3,5.1c0,0.3-0.2,0.5-0.4,0.6c-6.9,1.3-27,6.5-67.4,1.1c-0.3,0-0.5-0.3-0.5-0.6l0.4-5.1
				c0-0.3,0.3-0.6,0.7-0.5c4.6,0.9,32.3,5.5,66.4-1.1C475.8,225.6,476.1,225.8,476.1,226.2z"/>
			<path class="st16" d="M457.8,240.3c-4.7,0.5-21.1,2.2-36.4,0c-0.6-0.1-1.1,0.3-1.1,0.9c-0.2,3.2-0.7,12.9,0,23
				c0.1,0.9,0.5,1.8,1.1,2.5c2.6,3,10.3,11,17.7,11.9c7.7,1,18.1-9,21.2-12.1c0.6-0.6,0.8-1.4,0.7-2.2c-0.4-3.1-1.6-12-1.8-23
				C459.1,240.8,458.5,240.2,457.8,240.3z"/>
		</g>
		<g>
			<g>
				<path class="st13" d="M457,105.1c0.1,0,0.2,0,0.3-0.1c0,0,2.4-1.3,5.6-1.9c0.3-0.1,0.5-0.3,0.4-0.6c-0.1-0.3-0.3-0.5-0.6-0.4
					c-3.4,0.6-5.8,2-5.9,2c-0.2,0.1-0.3,0.5-0.2,0.7C456.6,105,456.8,105.1,457,105.1z"/>
			</g>
			<g>
				<g>
					<path class="st0" d="M458.9,103.9c0.1,1.4,0.6,4.3,2.8,7.3c0.2,0.3,0.3,0.6,0.1,1c-1.3,2.9-8.1,16.6-23,13
						c-16-3.8-12.9-22.3-12-26.5c0.1-0.5,0.5-0.9,1-0.9c2.4-0.3,9.4-1.1,13.1-0.2c3.7,0.9,14,4.2,17.1,5.2
						C458.4,102.9,458.8,103.3,458.9,103.9z"/>
				</g>
				<g>
					<g>
						<path class="st13" d="M451.6,108.8c0.2,0,0.4-0.1,0.5-0.3c0.1-0.3,0-0.6-0.3-0.7c-0.3-0.1-7.6-3.5-13.1-4.4
							c-5.6-0.9-10.1-0.1-10.3-0.1c-0.3,0.1-0.5,0.3-0.4,0.6c0.1,0.3,0.3,0.5,0.6,0.4c0,0,4.6-0.8,9.9,0.1
							c5.4,0.9,12.8,4.3,12.9,4.3C451.5,108.8,451.5,108.8,451.6,108.8z"/>
					</g>
					<g>
						<path class="st13" d="M451.4,112.6c0.2,0,0.4-0.1,0.5-0.3c0.1-0.3,0-0.6-0.3-0.7c-0.3-0.1-8-3.2-13.7-4
							c-5.7-0.7-8.8-0.2-8.9-0.2c-0.3,0-0.5,0.3-0.4,0.6c0,0.3,0.3,0.5,0.6,0.4c0,0,3-0.5,8.6,0.2c5.6,0.7,13.4,3.9,13.5,3.9
							C451.3,112.5,451.4,112.6,451.4,112.6z"/>
					</g>
					<g>
						<path class="st13" d="M450,116.1c0.2,0,0.4-0.1,0.5-0.3c0.1-0.3,0-0.6-0.3-0.7c-0.1,0-5.7-2.1-12.5-3.1
							c-6.7-0.9-7.8-0.8-7.9-0.7c-0.3,0-0.5,0.3-0.4,0.6c0,0.3,0.3,0.5,0.6,0.4c0,0,1.2-0.1,7.6,0.7c6.7,0.9,12.2,3,12.3,3
							C449.9,116,450,116.1,450,116.1z"/>
					</g>
					<g>
						<path class="st13" d="M444.4,118.7c0.2,0,0.4-0.1,0.5-0.4c0.1-0.3-0.1-0.6-0.3-0.6c-0.2,0-4-1.2-7.1-1.6
							c-3.1-0.4-5-0.4-5.1-0.4c-0.3,0-0.5,0.2-0.5,0.5c0,0.3,0.2,0.5,0.5,0.5c0,0,1.9,0.1,5,0.4c3.1,0.4,6.9,1.6,7,1.6
							C444.3,118.7,444.3,118.7,444.4,118.7z"/>
					</g>
				</g>
			</g>
		</g>
		<g>
			<path class="st0" d="M431.4,183.7c-0.1,3.7,4.7,6.9,10.8,7.1c6.1,0.2,11.1-2.6,11.3-6.3c0.1-3.7-4.7-6.9-10.8-7.1
				S431.6,180,431.4,183.7z"/>
			
				<ellipse transform="matrix(3.645597e-02 -0.9993 0.9993 3.645597e-02 242.3085 619.5671)" class="st14" cx="442.4" cy="184.1" rx="4.6" ry="8.8"/>
		</g>
		<g>
			<path class="st0" d="M453,168.4l-0.7,6c0,0.4,0.2,0.7,0.6,0.8l13,0.6c0.4,0,0.7-0.3,0.7-0.6l0.4-6.2c0-0.4-0.3-0.7-0.7-0.7
				l-12.7-0.4C453.4,167.8,453.1,168.1,453,168.4z"/>
			<path class="st17" d="M465.5,169.7l-0.3,4.3c0,0.1-0.1,0.3-0.3,0.2l-3.3-0.1c-0.1,0-0.2-0.1-0.2-0.2l0.3-4.4
				c0-0.1,0.1-0.3,0.3-0.2l3.2,0.1C465.4,169.5,465.5,169.6,465.5,169.7z"/>
			<path class="st17" d="M459.9,170.2l-5.4-0.2c-0.1,0-0.3,0.1-0.3,0.3L454,171c0,0.1,0.1,0.3,0.2,0.3l5.5,0.1
				c0.2,0,0.3-0.1,0.3-0.3l0-0.7C460.1,170.3,460,170.2,459.9,170.2z"/>
			<path class="st17" d="M459.7,172l-3.3,0c-0.2,0-0.3,0.1-0.3,0.3l0,0.6c0,0.1,0.1,0.2,0.2,0.2l3.4,0c0.2,0,0.3-0.1,0.3-0.3l0-0.6
				C460,172.1,459.9,172,459.7,172z"/>
			<path class="st3" d="M457.8,168.5l4.1,0.1c0.2,0,0.4-0.1,0.4-0.3l0.3-0.9c0.1-0.3-0.1-0.5-0.4-0.6l-4.4-0.1
				c-0.3,0-0.5,0.2-0.5,0.5l0,0.9C457.4,168.3,457.6,168.5,457.8,168.5z"/>
		</g>
		<g>
			<g>
				<path class="st23" d="M491.2,168.5c0,0-10.3,25.9-18.5,35.4c-6.4,7.5-9.9,9.6-27.4,12.2c-6.3,0.9-16.1,0.5-16.1,0.5l-4.5-8.3
					c0,0,29.9-7.3,34.4-12.7c4.5-5.4,19.4-42.2,19.4-42.2L491.2,168.5z"/>
				<g>
					<path class="st5" d="M460.5,196.8c0.5,0.6,1.1,1.2,1.6,1.9c0.5,0.6,0.9,1.4,1.5,2c0.2,0.2,0.6,0.1,0.6-0.3
						c-0.3-1.6-1.8-3.2-3-4.2C460.7,195.8,460.1,196.4,460.5,196.8L460.5,196.8z"/>
				</g>
				<g>
					<path class="st4" d="M432.6,217.4c0.1,0-11.2,11.5-13.1,11.2c-1.9-0.3,3.2-6.3,3.2-6.3s-10,7.6-10.8,6.2
						c-0.8-1.4,6.3-8.6,6.3-8.6s-12,5.4-13.6,3.6c-1.6-1.8,12.1-7.7,12.1-7.7s-12,1.2-12.2-0.7c-0.2-1.9,14.4-3.4,14.4-3.4
						s-7.5-3.2-7.1-4.9c0.5-1.7,15.2,2.1,15.2,2.1L432.6,217.4z"/>
				</g>
			</g>
			<path class="st0" d="M403.9,223.2c0.3-1.5,3.4-3.7,6.8-5.6c-2.8,0.2-5.5,0.1-6.5-0.6c-0.5-0.3-0.6-0.8-0.6-1.1
				c-0.2-1.5,1.8-2.2,2.7-2.6c2.2-0.8,5.5-1.5,8.1-2c-3.1-1.5-4.5-2.9-4.2-4.1c0.1-0.3,0.3-0.8,1.1-1.1c1.5-0.5,5.8,0,9.4,0.6l0,0
				c2.6,0.4,6.9-0.9,8.4-1.4c0.3-0.1,0.7,0,0.9,0.2c1.2,1.2,4.8,5,6.3,11.8c0.1,0.5-0.2,1-0.6,1.1c-1.8,0.6-6.1,2-8.3,4.3
				c-5.3,5.5-6.7,6-7.2,6.2c-0.3,0.1-0.6,0.1-0.8,0.1c-0.6-0.1-1-0.4-1.3-0.9c-0.2-0.4-0.1-1,0.1-1.7c-1.7,1.3-3.5,2.5-4.7,2.9
				c-1.3,0.5-1.9-0.1-2.2-0.5c-0.3-0.4-0.9-1.5,2.6-6.1c-1.1,0.5-2.2,0.9-3.3,1.3c-3.5,1.3-5.3,1.4-6.2,0.5
				C404,224.2,403.8,223.7,403.9,223.2z"/>
		</g>
		<path class="st18" d="M495,172.5c-4.9,11.7-9.6,20.4-9.6,20.4s-15.5,1.6-24.5-14.2l11.1-24.5c0,0,9.3-4.7,16.7-0.6
			c0.3,0.2,0.6,0.3,0.9,0.5C495.6,157.9,497.8,165.8,495,172.5z"/>
		<path class="st18" d="M482.3,142.4c11.9,10.4,14.1,17.6,13.9,25.4c-0.2,7.8-22.9,6.1-22.9,6.1L482.3,142.4z"/>
	</g>
	<g>
		<path class="st3" d="M602,98.9c0,0,3.7-10.2,13.3-6.8c9.3,3.3-2.7,29.4,0.8,45.1c0.1,0.6-0.5,1-1,0.8c-3.4-1.6-12.1-6.6-13.4-17
			C600,108,602,98.9,602,98.9z"/>
		<path class="st14" d="M599.3,92.7c0,0,5.8-3.9,10.5,3.4c4.7,7.3-2.8,9.9-2.8,9.9L599.3,92.7z"/>
		<path class="st3" d="M563.9,106.8c0,0,0.9-20.5,23-20.5c27.7,0,30.9,38.1,5.2,50.4L563.9,106.8z"/>
		<g>
			<path class="st4" d="M549.9,172.5c1.7,20.5,1.9,47.7-4.7,67.3c3.1-0.4,6.2-0.7,9.3-1.1c7.5-19.7,8.9-45.5,9.5-66.5
				C559.3,172.3,554.6,172.4,549.9,172.5z"/>
			<g>
				<path class="st4" d="M554.5,238.8c0,4-0.1,16.6-2.8,18.5c-2.7,1.9-1.4-6.2-1.6-6.4c0,1.3-0.6,11.3-2.8,10.5s-0.3-9.1-0.1-11
					c-0.4,1.4-2.4,11-4.6,10s1.5-10.3,2.1-12.2c-0.5,1-3,9.6-4.8,8.3c-1.8-1.3,1.7-9.6,2.2-11.8c-0.7-0.1-4.3,2.4-4.5,0.2
					c-0.2-2.2,7.6-4.5,9-6.4c1.4-1.9,3.4-2.2,5.4-2.8C552.8,236.8,553.7,237.6,554.5,238.8z"/>
			</g>
			<path class="st0" d="M555,238.5c-0.5-0.8-1.1-1.4-1.6-1.9c-0.3-0.4-0.7-0.7-1-1.1l-0.3-0.3l-0.4,0.1c-0.3,0.1-3.5-1.9-3.8-1.8
				c-1.7,0.5-1.8,3.8-3.1,5.6c-0.5,0.7-1.2,0.9-2.7,1.7c-2.8,1.4-5.4,2.7-5.3,4.4c0.1,0.7,0.4,1.1,0.7,1.3c0.9,0.5,2.3,0,3.4-0.5
				c0,0,0,0,0.1,0c-0.1,0.4-0.3,0.8-0.4,1.3c-1.6,5-2.8,8.9-1.2,10.1c0.3,0.2,0.7,0.3,1.1,0.2c0.3-0.1,0.5-0.3,0.8-0.5
				c-0.4,2.3-0.2,3.8,0.9,4.2c0.4,0.2,0.8,0.2,1.2,0c0.8-0.4,1.4-1.4,2.1-3c0,2.1,0.3,3.6,1.5,4c0.2,0.1,0.3,0.1,0.5,0.1
				c0.3,0,0.5-0.1,0.8-0.3c0.8-0.6,1.3-2.2,1.7-4.1c0.1,0.1,0.2,0.2,0.4,0.3c0.3,0.2,0.9,0.3,1.7-0.2c2.5-1.8,3-10.3,3.1-18.4l0-0.7
				L555,238.5z"/>
		</g>
		<polygon class="st4" points="574.1,235 575.9,235.6 575.5,242.6 		"/>
		<polygon class="st4" points="551.9,354.8 552,336.8 552.5,321.7 554.8,252.5 557.3,241.8 576.1,233.8 575.9,235.6 574.1,235 
			575.5,242.6 560.7,423 551.4,424 		"/>
		<path class="st4" d="M617.8,423.9c1.2-0.6,1.9-1.3,1.9-1.3c-0.5-0.7-1.5-1.5-2.1-1.9l-4.5-64.7l-0.1-1.7l-6.2-49.7l-7.6-61.3
			l-23.3-7.7l-0.4,7l12.3,67.7l8.4,46.2l0.2,0.9l12.3,63.8c-0.6,0.6-1.1,1.3-1.1,1.3s0.5,0.5,1.3,1l0.2,1.2l3.6,0.2
			c0.3,0,0.5,0.1,0.8,0.1h0l4.2,0.3L617.8,423.9z"/>
		<path class="st3" d="M618.3,414.1c3.3-57.3-4.5-85.6-6-89.2c-0.1-1.5-0.3-3-0.4-4.5c-0.7-15.7-3.4-73.8-5.6-84
			C603.9,224.7,596,217,596,217c-0.8,0-1.6,0-2.3-0.1c-0.1-0.2-0.1-0.4-0.2-0.6c-14,2.1-36.3,0.5-36.4-0.9c0,0,0,0.4-0.1,1.1
			c-0.6,2.8-7.4,37.1-6.9,98.7l0,0c-1,28.9-1.6,66.8-0.1,99.4c5.6,1.3,9.8,0.1,12.2,0c0.1,0,0.3-1.2,0.5-3.5l0,0
			c9.6-49.1,8.9-89.4,8.9-89.4c3.7-17,6.6-32,8.6-43c3,14.1,6.5,30.8,9.5,44.7c0,0,0,0,0,0c0,0.3,8,55.8,15.6,91.1l0.2-0.1
			c0.1,0.8,0.2,1.3,0.2,1.3c6.9-0.3,12.6,0,12.6,0C618.3,415.2,618.3,414.6,618.3,414.1C618.3,414.1,618.3,414.1,618.3,414.1z"/>
		<polygon class="st4" points="558.1,419.3 549.1,421.8 547.1,424.9 552.6,426.5 558.5,425.3 559.2,422.8 		"/>
		<g>
			<path class="st18" d="M527.3,426.8c1.2-1.6,19.2-4.5,21.8-5c0,0,0.5,1.7,3,2.1c2.6,0.5,8-3,8-3l0.8-0.3l0.7,7.3h-35
				C526.9,427.5,527.1,427.1,527.3,426.8z"/>
			<path class="st3" d="M561.7,428l0.2,2c0.1,0.7-0.5,1.3-1.2,1.3h-33.3c-0.7,0-1.3-0.6-1.2-1.4c0.1-0.6,0.2-1.3,0.5-1.9H561.7z"/>
		</g>
		<path id="XMLID_24_" class="st14" d="M592.9,145c-1.6-1.2-6-4.7-6.7-4.5c-0.6-0.3-5.2,2.4-7,3.3c-10.9,5.4-27.1,8-28.1,17.6
			c0,0-0.4,7,5,7.5l27.4,2.6l23.5,2.6c5.4,0.5,7.4-7.6,7.4-7.6C615.3,156.6,602.6,152.3,592.9,145z"/>
		<path class="st14" d="M555.4,193c-9.8-12.7,4.1-24,4.8-25.8l3.5-17.6l12.9,20.6l26-18.8l4.7,3.2l-5,15.4l-6.3,47
			c-5.5,0.8-27.8,3.8-39-0.7C557.9,207.5,558.9,197.6,555.4,193z"/>
		<path class="st8" d="M619.3,412.6c0.4,0.4,0.4,2,0.2,2.6c-0.2,0.6,0.2,2-0.2,2.5c-0.4,0.5-14.8,1.4-15,0.5c-0.1-0.8,0.3-2,0-2.8
			c-0.2-0.8-0.4-2.5,0.6-2.4C605.9,413.1,618.8,412.2,619.3,412.6z"/>
		<path class="st8" d="M563.4,411.8c0.4,0.4,0.4,2,0.2,2.6c-0.2,0.6,0.2,2-0.2,2.5s-14.8,1.4-15,0.5c-0.1-0.8,0.3-2,0-2.8
			c-0.2-0.8-0.4-2.5,0.6-2.4C550.1,412.3,563,411.3,563.4,411.8z"/>
		<path id="XMLID_20_" class="st4" d="M584.4,152.8L584.4,152.8c-4-0.1-7.1-3.5-7-7.5l0.6-18l14.4,0.5l-0.6,18
			C591.7,149.8,588.4,152.9,584.4,152.8z"/>
		<path class="st4" d="M598.7,109.9c-8.1-1.4-15.5-3.6-23.6-5c0,0-0.6,0.1-0.6,0.1c-1.8-0.3-3.7,0.5-5.3,1.3
			c-1.6,0.7-3.4,1.2-5.4,1.3l1.5,19.3c0.2,7,7.2,12.9,14.3,13.5c0.2,0,0.4,0,0.5,0c12.9-0.6,17-7.9,17.8-13.5l3.6-16.5
			C600.6,110.3,599.6,110.1,598.7,109.9z"/>
		<path id="XMLID_9_" class="st20" d="M583.3,85.4"/>
		<g>
			<g>
				<path class="st21" d="M563.7,221.5c-1.5,3.3-3.5,6.5-6.6,8.4c-0.1,0.1-0.3-0.1-0.2-0.3c2.2-2.7,4.5-5.3,6-8.4
					C563.1,220.7,563.9,221,563.7,221.5L563.7,221.5z"/>
			</g>
		</g>
		<g>
			<g>
				<path class="st21" d="M597.7,228.9c-4-1-7.9-3.1-10.9-6c-0.2-0.2,0.1-0.7,0.4-0.5c3.5,2.2,7,4.1,10.8,5.6
					C598.5,228.2,598.3,229,597.7,228.9L597.7,228.9z"/>
			</g>
		</g>
		<path class="st14" d="M563.5,149.7c-16.8,6.7-16,20.1-15.8,33c0,0,1.3,4.2,10.8,6.3l9.9-28.2L563.5,149.7z"/>
		<path class="st14" d="M602.4,151.2c6.4,3,14,7,16.3,27.7l-5.5-5.7l-14.5-16.4L602.4,151.2z"/>
		<g>
			<path class="st5" d="M577,132c-0.3-0.4-0.6-0.8-0.9-1.2c2.3,0.1,4.8-0.2,6.8-1.2c0.3-0.2,0.8,0.3,0.4,0.6
				C581.7,131.4,579.3,132,577,132z"/>
		</g>
		<g>
			<path class="st5" d="M586.1,124.1c-0.5,0-0.5-0.8,0-0.8C586.6,123.3,586.6,124.1,586.1,124.1L586.1,124.1z"/>
		</g>
		<g>
			<path class="st5" d="M589.3,123.4C589.3,123.4,589.3,123.3,589.3,123.4c0.4-0.7,1.2,0.1,0.6,0.5c0,0-0.1,0-0.1,0
				C589.5,124.1,589.1,123.7,589.3,123.4L589.3,123.4z"/>
		</g>
		<g>
			<path class="st5" d="M569.1,123.3c-0.6,0-0.6-0.9,0-0.9C569.7,122.4,569.7,123.3,569.1,123.3L569.1,123.3z"/>
		</g>
		<g>
			<path class="st5" d="M567.3,125.8C567.4,125.8,567.4,125.8,567.3,125.8c0.3-0.1,0.5,0.1,0.5,0.4c0,0,0,0.1,0,0.1
				C567.6,127.1,566.5,125.9,567.3,125.8L567.3,125.8z"/>
		</g>
		<g>
			<path class="st5" d="M571.1,126.4c-0.6,0-0.6-0.9,0-0.9C571.7,125.4,571.7,126.4,571.1,126.4L571.1,126.4z"/>
		</g>
		<g>
			<path class="st27" d="M594.4,147.5c0.4,4.7-5.1,8-9.3,8.8c-5.9,1-10.3-2.9-10.8-8.6c-0.1-0.6,1-0.8,1.1-0.1c1.3,5,4.3,8.5,10,7.3
				c3.5-0.7,8-3.4,8-7.4C593.5,146.9,594.4,146.9,594.4,147.5L594.4,147.5z"/>
		</g>
		<g>
			<path class="st5" d="M583,128.3c0.3,0.4,0.3,1,0.5,1.5c0.2,0.5,0.6,1,0.8,1.5c0.1,0.2-0.1,0.4-0.3,0.3c-1-0.4-1.9-2.4-1.3-3.4
				C582.7,128.1,582.9,128.1,583,128.3L583,128.3z"/>
		</g>
		<path class="st3" d="M568.8,115.2c-0.1,1.7,0.7,3.1,1.7,3.2c1,0,1.9-1.3,2-3c0.1-1.7-0.7-3.1-1.7-3.2
			C569.8,112.1,568.9,113.5,568.8,115.2z"/>
		<path class="st3" d="M581.9,115.3c-0.1,1.7,0.7,3.1,1.7,3.2c1,0,1.9-1.3,2-3c0.1-1.7-0.7-3.1-1.7-3.2
			C582.8,112.2,581.9,113.5,581.9,115.3z"/>
		<path class="st0" d="M581.7,114.4c0,0.5,0.2,0.9,0.5,0.9c0.3,0,0.5-0.4,0.5-0.8c0-0.5-0.2-0.9-0.5-0.9
			C581.9,113.5,581.7,113.9,581.7,114.4z"/>
		<path class="st0" d="M568.6,114.4c0,0.5,0.2,0.9,0.5,0.9c0.3,0,0.5-0.4,0.5-0.8c0-0.5-0.2-0.9-0.5-0.9
			C568.8,113.6,568.6,113.9,568.6,114.4z"/>
		<path class="st28" d="M576.7,117.7l-0.7,4.7c0,0-2.6-0.2-2.8,1.4c-0.2,1.6,2.4,1.6,2.4,1.6"/>
		<g>
			<path class="st4" d="M602.6,184c0,0,14.7,28.9,14.7,57.7c0,0,8.4,10.9,8.2,2.3c-0.2-8.6,2.3-38.9-10.5-67.3L602.6,184z"/>
			<path class="st4" d="M625.4,243.9c0,0,1.3,17.5-0.6,17.7c-2.2,0.3-2.5-7.6-2.5-7.6s0.1,12.9-1.8,12.3c-1.7-0.5-1.4-12.4-1.4-12.4
				s-2.1,12.5-3.8,12.1c-1.7-0.4,0.9-14.1,0.9-14.1s-3,10.9-4.3,10.3c-1.3-0.6,1.1-13.6,1.1-13.6s-4.1,2.6-5.1,1.2
				c-1.1-1.4,9.1-6.7,9.2-8.2c0.1-1.5,5.4-3.5,5.4-3.5L625.4,243.9z"/>
			<path class="st0" d="M626.5,252.3L626.5,252.3l0-14.8c0-0.4-0.3-0.8-0.8-0.8c-4.7-0.4-7.5,0.3-8.6,0.7c-0.3,0.1-0.5,0.4-0.5,0.8
				v3.4c-0.2,0.5-2.5,2.2-4.1,3.3c-3.1,2.2-5,3.5-5.2,4.6c0,0.3,0,0.6,0.2,0.8c0.8,1,2.4,0.9,4.8-0.4c-2.1,12.2-1,12.7-0.5,12.9
				c0.2,0.1,0.5,0.1,0.7,0c0.4-0.2,1-0.7,1.9-3.1c-0.7,6,0,6.8,0.8,7c0.2,0,0.5,0.1,0.8-0.1c0.4-0.2,1.2-0.7,2.5-6.4
				c0.3,6.5,1.3,6.8,1.8,6.9c0.1,0,0.2,0,0.3,0c0.2,0,0.4-0.1,0.6-0.2c0.9-0.6,1.3-3.3,1.5-6.2c0.2,0.6,0.5,1,0.9,1.3
				c0.4,0.3,0.8,0.4,1.2,0.4C625.5,262.2,626.7,262,626.5,252.3z"/>
			<g>
				<path class="st5" d="M615.7,214.7c0.8-0.7,1.8-1,2.8-0.8c0.5,0.1,0.4,0.8-0.1,0.9c-0.7,0.2-1.5,0.3-2.1,0.7
					C615.8,215.9,615.2,215.1,615.7,214.7L615.7,214.7z"/>
			</g>
		</g>
		<path class="st14" d="M615.1,163.8c-7.7,4.8-22.7,0.5-19.7,10.1c2.3,7.3,6.1,13.1,8.2,16.1c0.6,0.9,1.8,1.4,2.9,1.2
			c3.8-0.8,12.2-3,13.2-7.2C620.5,180.4,615.1,163.8,615.1,163.8z"/>
		<path class="st24" d="M596,217c0,0,2.4-18.7,7.9-34l-15.9-9.7l-6.6,31L596,217z"/>
		<g>
			<path class="st3" d="M622,428c0.1,0.6,0.3,1.2,0.4,1.9c0.1,0.7-0.4,1.4-1.2,1.4h-14.7c-0.7,0-1.3-0.6-1.2-1.3
				c0.1-0.5,0.2-1.2,0.3-1.9H622z"/>
			<path class="st18" d="M607.7,422.6c0,0,5.4,3.2,12,0c0,0,1.4,1.5,2.3,5.4h-16.4C606,426.1,606.6,423.9,607.7,422.6z"/>
		</g>
		<path class="st29" d="M580.3,278.7c0,0-3.9-14-5.8-22.8"/>
		<g>
			<path class="st16" d="M605.7,150c-0.8-0.3-1.4-1-2.3-1.1s-1.1-0.8-2.1,0.6c-4.4,6.2-8.1,13.6-10.6,21.1c-0.2,0.6,0.4,1.8,1.5,1.7
				c0.8-0.1,1.9,0.2,2.7,0c0.8-0.2,1,0.2,1.5-0.9c2.8-6.4,6.1-13.3,9.8-19.5C606.6,151.2,606.5,150.3,605.7,150z"/>
			<path class="st16" d="M566.2,147.1c-0.7,0.2-1.4,0.1-2.1,0.5c-0.7,0.4-1.1,0-1.4,1.3c-1.5,6-2.4,12.8-2.3,19.3
				c0,0.7,0.8,1.7,1.8,1.6c0.4,0,1.1,0.2,1.5,0c1.1-0.4,1.9-0.1,1.9-1.8c0-6.3,0.6-13.4,1.7-19.9
				C567.5,147.6,566.9,146.8,566.2,147.1z"/>
			<path class="st15" d="M554,168.6c0.2-1.2,1.1-1.6,1.8-1.5c15.8,0.3,32.9,0.4,48,2.7c0.5,1.3,1.1,2.6,2,3.7
				c-2,25.5-3.9,50.3-0.7,77.4c2.9,24.8,8.6,48.5,13.9,72.4c0.3,1.5,0.6,1.5-1.3,2.5c-11.1,5.6-27.7,8.7-39.7,9.9
				c-11.6,1.1-21.9,0.3-31.4-3.4c-2-0.8-1.3-1.2-1.3-1.7C543.4,278.3,545.3,220,554,168.6z"/>
			<g>
				<path class="st15" d="M567.9,334.5c3,0,7-0.1,9.4-0.3c14.2-1.5,27.4-4.2,40.1-9.8c0.5-0.2,0.4-0.1,0.3-0.6
					c-4.7-24.5-11.1-48-14-72.8c-3.3-28.1-1.6-52.3,0.9-79.6c0-0.4,0,0-0.1-0.2c-0.1-0.2,0-0.1-0.3-0.2c-14.9-1.4-29.9-2.2-45-2.5
					c-0.9,0-2.3,0-3.3,0c-0.2,0-0.4,0.1-0.4,0.3c-8.7,51.3-10.5,109.6-8.7,161.4c0,0.1,0,0.2,0.3,0.4c5.5,2.9,15.4,3.6,20.5,3.8
					C569.5,334.6,567.9,334.5,567.9,334.5z"/>
				<path class="st16" d="M559.2,170c14.3,0.3,28.8,0.9,42.8,2.4c0.9,0.1,1-0.2,0.9,1c-2,26.5-3.9,50.4-0.6,77.8
					c2.9,24.2,8.1,46.8,13.5,70.6c0.4,1.9,0.4,1.5-1.1,2.2c-11.5,5-24.5,7.4-37.4,8.8c-2.4,0.3-7,0.3-9,0.3
					c-6.8-0.1-13-0.9-18.9-2.9c-1.3-0.4-1.2-1.1-1.2-1.6c-1.8-50.7,0.1-107.7,8.4-157.8c0.1-0.6,0.4-0.7,0.9-0.8
					C558,169.9,558.7,170,559.2,170 M559.2,167.1c-0.9,0-2.4-0.1-3.4,0c-0.9,0.1-1.6,0.4-1.8,1.5c-8.7,51.3-10.6,109.7-8.7,161.7
					c0,0.5-0.4,1,1.2,1.7c6.3,2.8,14,3.8,21.8,3.9c1.8,0,6.9,0,9.3-0.3c13.6-1.6,28.2-4.2,40.1-10c2.1-1,1.7-0.8,1.3-2.5
					c-5.1-24-11-47.6-13.9-72.4c-3.3-27.6-1.3-52.8,0.8-78.8c0.1-1.7,0.4-1.9-1.9-2.2C590,167.6,573.9,167.6,559.2,167.1
					C559.2,167.1,559.2,167.1,559.2,167.1z"/>
			</g>
			<path class="st16" d="M603,227.3c0,1.4,0.3,3,0.2,4.4c0,0.3,0.3,0.4-0.5,0.5c-18,2.9-35,3.3-53.3,0.6c-0.1,0-0.5-0.2-0.4-0.5
				c0.3-1.4,0.1-3.1,0.5-4.4c0.1-0.4-0.6-0.7,0.6-0.4c17,3.5,34.8,1.9,52.3-0.6C602.6,226.8,603,226.9,603,227.3z"/>
			<path class="st16" d="M587.8,239.5c-9.1,1.2-19.1,1.2-28.6,0.1c-0.4,0-0.8-0.3-1,0.9c-0.9,6.2-1.8,13.2-1.7,19.9
				c0,0.6-0.1,1.3,0.8,2.3c4,4,8,9.7,14.7,10.2c6.7,0.6,13.2-5.6,17.6-10.2c0.8-0.8,0.8-0.5,0.7-2.1c-0.6-6.2-1-13.5-1.3-20.1
				C588.9,240,589.1,239.3,587.8,239.5z"/>
		</g>
		<g>
			<g>
				<path class="st13" d="M590.2,123.9c0.1,0,0.1,0,0.2-0.1c0,0,1.8-1.3,4.3-2.2c0.2-0.1,0.3-0.3,0.3-0.5c-0.1-0.2-0.3-0.3-0.5-0.2
					c-2.7,0.9-4.5,2.2-4.6,2.3c-0.2,0.1-0.2,0.4-0.1,0.6C589.9,123.9,590.1,123.9,590.2,123.9z"/>
			</g>
			<g>
				<g>
					<path class="st0" d="M591.6,122.8c0.3,1,1,3.1,3.1,5.2c0.2,0.2,0.3,0.5,0.2,0.7c-0.7,2.3-4.7,13.6-17.3,12.8
						c-10.6-0.7-13.2-15.2-13-18.5c0-0.4,0.3-0.7,0.7-0.8c1.9-0.5,7.6-2,10.7-1.9c3.1,0.2,11.9,1.4,14.6,1.7
						C591.1,122.1,591.5,122.4,591.6,122.8z"/>
				</g>
				<g>
					<g>
						<path class="st13" d="M586.2,127.4c0.2,0,0.3-0.1,0.3-0.3c0.1-0.2-0.1-0.4-0.3-0.5c-0.3-0.1-6.7-1.6-11.3-1.6
							c-4.7,0-8.3,1.2-8.4,1.3c-0.2,0.1-0.3,0.3-0.3,0.5c0.1,0.2,0.3,0.3,0.5,0.2c0,0,3.7-1.2,8.2-1.2c4.5,0,11,1.6,11.1,1.6
							C586.1,127.4,586.1,127.4,586.2,127.4z"/>
					</g>
					<g>
						<path class="st13" d="M586.5,130.3c0.2,0,0.3-0.1,0.3-0.3c0.1-0.2-0.1-0.4-0.3-0.5c-0.3-0.1-6.9-1.4-11.7-1.3
							c-4.8,0.2-7.2,0.9-7.3,1c-0.2,0.1-0.3,0.3-0.3,0.5c0.1,0.2,0.3,0.3,0.5,0.2c0,0,2.4-0.8,7.1-0.9c4.7-0.2,11.4,1.2,11.5,1.2
							C586.4,130.3,586.5,130.3,586.5,130.3z"/>
					</g>
					<g>
						<path class="st13" d="M585.8,133.1c0.2,0,0.3-0.1,0.4-0.3c0.1-0.2-0.1-0.4-0.3-0.5c0,0-4.9-0.9-10.6-0.7
							c-5.6,0.2-6.5,0.4-6.6,0.5c-0.2,0.1-0.3,0.3-0.3,0.5c0.1,0.2,0.3,0.3,0.5,0.2c0,0,0.9-0.2,6.3-0.4c5.6-0.2,10.4,0.7,10.4,0.7
							C585.7,133.1,585.7,133.1,585.8,133.1z"/>
					</g>
					<g>
						<path class="st13" d="M581.5,135.8c0.2,0,0.3-0.2,0.4-0.3c0-0.2-0.1-0.4-0.3-0.4c-0.1,0-3.4-0.4-6-0.3
							c-2.6,0.1-4.2,0.3-4.2,0.3c-0.2,0-0.4,0.2-0.4,0.4c0,0.2,0.2,0.4,0.5,0.3c0,0,1.6-0.2,4.2-0.3c2.5-0.1,5.9,0.3,5.9,0.3
							C581.4,135.8,581.4,135.8,581.5,135.8z"/>
					</g>
				</g>
			</g>
		</g>
		<g>
			<path class="st0" d="M565.3,190.2c-0.1,3.7,4.7,6.9,10.8,7.1c6.1,0.2,11.1-2.6,11.3-6.3c0.1-3.7-4.7-6.9-10.8-7.1
				C570.5,183.7,565.5,186.5,565.3,190.2z"/>
			<path class="st14" d="M567.5,190.3c-0.1,2.6,3.8,4.8,8.7,5c4.9,0.2,8.9-1.8,9-4.3c0.1-2.6-3.8-4.8-8.7-5
				C571.6,185.8,567.6,187.8,567.5,190.3z"/>
		</g>
		<g>
			<path class="st0" d="M584.1,175.6l-0.7,6c0,0.4,0.2,0.7,0.6,0.8l13,0.6c0.4,0,0.7-0.3,0.7-0.6l0.4-6.2c0-0.4-0.3-0.7-0.7-0.7
				l-12.7-0.4C584.4,175,584.1,175.3,584.1,175.6z"/>
			<path class="st17" d="M596.5,176.9l-0.3,4.3c0,0.1-0.1,0.3-0.3,0.2l-3.3-0.1c-0.1,0-0.2-0.1-0.2-0.2l0.3-4.4
				c0-0.1,0.1-0.3,0.3-0.2l3.2,0.1C596.4,176.7,596.5,176.8,596.5,176.9z"/>
			<path class="st17" d="M590.9,177.4l-5.4-0.2c-0.1,0-0.3,0.1-0.3,0.3l-0.1,0.7c0,0.1,0.1,0.3,0.2,0.3l5.5,0.1
				c0.2,0,0.3-0.1,0.3-0.3l0-0.7C591.1,177.5,591,177.4,590.9,177.4z"/>
			<path class="st17" d="M590.7,179.2l-3.3,0c-0.2,0-0.3,0.1-0.3,0.3l0,0.6c0,0.1,0.1,0.2,0.2,0.2l3.3,0c0.2,0,0.3-0.1,0.3-0.3
				l0-0.6C591,179.3,590.9,179.2,590.7,179.2z"/>
			<path class="st3" d="M588.9,175.7l4.1,0.1c0.2,0,0.4-0.1,0.4-0.3l0.3-0.9c0.1-0.3-0.1-0.5-0.4-0.6l-4.4-0.1
				c-0.3,0-0.5,0.2-0.5,0.5l0,0.9C588.5,175.5,588.6,175.7,588.9,175.7z"/>
		</g>
		<path class="st3" d="M593.1,108.2c0,0,0.1,10.2,7.1,15.6l3.3-15.6H593.1z"/>
		<path class="st30" d="M593.8,109.1c-4,0.6-17.2,2.4-30.4,0c-0.7-0.1-1.1-0.8-0.9-1.4c0.9-3.2,4.3-11.4,16.1-11.4
			c11.8,0,15.2,8.2,16.1,11.4C594.9,108.3,594.5,109,593.8,109.1z"/>
		<path id="XMLID_1_" class="st4" d="M601.8,125.2c-1.3,3.1-3.8,4.9-5.8,4.1c-0.2-0.1-0.4-0.2-0.5-0.3c-1.5-1.1-1.9-3.9-0.7-6.7
			c1.3-3.1,3.8-4.9,5.8-4.1C602.5,119,603.1,122.1,601.8,125.2z"/>
		<path class="st4" d="M586.9,118c0,0-3-2.1-7.4,0v1h6.8L586.9,118z"/>
		<path class="st4" d="M573.3,118.2c0,0-2.3-2.1-5.5,0v1h5.1L573.3,118.2z"/>
	</g>
</g>
</svg>
