<?xml version="1.0" encoding="utf-8"?>
<!-- Generator: Adobe Illustrator 23.0.0, SVG Export Plug-In . SVG Version: 6.00 Build 0)  -->
<svg version="1.1" id="Layer_1" xmlns="http://www.w3.org/2000/svg" xmlns:xlink="http://www.w3.org/1999/xlink" x="0px" y="0px"
	 viewBox="0 0 2100 2000" style="enable-background:new 0 0 2100 2000;" xml:space="preserve">
<style type="text/css">
	.st0{opacity:0.26;fill:#29ABE2;}
	.st1{opacity:0.42;fill:#29ABE2;}
	.st2{fill:#FFFFFF;}
	.st3{fill:#E08A68;}
	.st4{fill:#562F0F;}
	.st5{fill:#EF9E78;}
	.st6{fill:#603813;}
	.st7{fill:#330F1D;}
	.st8{fill:#434580;}
	.st9{fill:#F07A6E;}
	.st10{fill:#3B3F72;}
	.st11{fill:#333333;}
	.st12{fill:#DADEEA;}
	.st13{fill:#C0C3CC;}
	.st14{fill:#2E3192;}
	.st15{fill:#B3B3B3;}
	.st16{fill:#CCCCCC;}
	.st17{fill:#E6E6E6;}
	.st18{fill:#29ABE2;}
	.st19{fill:#2E3460;}
	.st20{fill:#666666;}
	.st21{fill:#64342F;}
	.st22{fill:#2B203E;}
	.st23{fill:#8C6239;}
	.st24{fill:#7C4F29;}
	.st25{fill:#262728;}
	.st26{fill:#222A4E;}
	.st27{fill:#BABBBF;}
	.st28{fill:#CED0D8;}
	.st29{fill:#3F1D1B;}
	.st30{fill:#747CBB;}
	.st31{fill:#161E3A;}
	.st32{fill:#283460;}
	.st33{opacity:0.69;}
	.st34{opacity:0.43;clip-path:url(#SVGID_2_);fill:#FFFFFF;}
	.st35{opacity:0.43;clip-path:url(#SVGID_4_);fill:#FFFFFF;}
	.st36{fill:none;stroke:#42210B;stroke-width:3;stroke-miterlimit:10;}
	.st37{fill:#42210B;}
	.st38{opacity:0.45;fill:#0B101E;}
	.st39{fill:#1D2744;}
	.st40{fill:#210812;}
	.st41{fill:#2D3259;}
	.st42{fill:#3F220A;}
	.st43{fill:#C1272D;}
	.st44{fill:#3D1623;}
	.st45{fill:#471F1C;}
	.st46{fill:#F7931E;}
	.st47{opacity:0.43;clip-path:url(#SVGID_6_);fill:#FFFFFF;}
	.st48{opacity:0.43;clip-path:url(#SVGID_8_);fill:#FFFFFF;}
</style>
<g>
	<rect class="st0" width="2100" height="1484"/>
	<rect y="1484" class="st1" width="2100" height="516"/>
</g>
<path class="st2" d="M177.5,311.6h-23.7v-23.7c0-3-2.4-5.4-5.4-5.4s-5.4,2.4-5.4,5.4v23.7h-23.7c-3,0-5.4,2.4-5.4,5.4
	c0,3,2.4,5.4,5.4,5.4H143v23.7c0,3,2.4,5.4,5.4,5.4s5.4-2.4,5.4-5.4v-23.7h23.7c3,0,5.4-2.4,5.4-5.4
	C182.9,314,180.4,311.6,177.5,311.6z"/>
<path class="st2" d="M1117.2,114.7h-23.7V91c0-3-2.4-5.4-5.4-5.4c-3,0-5.4,2.4-5.4,5.4v23.7h-23.7c-3,0-5.4,2.4-5.4,5.4
	c0,3,2.4,5.4,5.4,5.4h23.7v23.7c0,3,2.4,5.4,5.4,5.4c3,0,5.4-2.4,5.4-5.4v-23.7h23.7c3,0,5.4-2.4,5.4-5.4
	C1122.5,117.2,1120.1,114.7,1117.2,114.7z"/>
<path class="st2" d="M611.1,189.7h-17.8v-17.8c0-2.2-1.8-4-4-4s-4,1.8-4,4v17.8h-17.8c-2.2,0-4,1.8-4,4s1.8,4,4,4h17.8v17.8
	c0,2.2,1.8,4,4,4s4-1.8,4-4v-17.8h17.8c2.2,0,4-1.8,4-4S613.3,189.7,611.1,189.7z"/>
<path class="st2" d="M297.5,89.2h-17.8V71.4c0-2.2-1.8-4-4-4c-2.2,0-4,1.8-4,4v17.8h-17.8c-2.2,0-4,1.8-4,4s1.8,4,4,4h17.8v17.8
	c0,2.2,1.8,4,4,4c2.2,0,4-1.8,4-4V97.3h17.8c2.2,0,4-1.8,4-4S299.8,89.2,297.5,89.2z"/>
<path class="st2" d="M1646.2,137.9h-17.8v-17.8c0-2.2-1.8-4-4-4s-4,1.8-4,4v17.8h-17.8c-2.2,0-4,1.8-4,4s1.8,4,4,4h17.8v17.8
	c0,2.2,1.8,4,4,4s4-1.8,4-4V146h17.8c2.2,0,4-1.8,4-4S1648.4,137.9,1646.2,137.9z"/>
<path class="st2" d="M1552.9,372.8h-17.8V355c0-2.2-1.8-4-4-4s-4,1.8-4,4v17.8h-17.8c-2.2,0-4,1.8-4,4c0,2.2,1.8,4,4,4h17.8v17.8
	c0,2.2,1.8,4,4,4s4-1.8,4-4v-17.8h17.8c2.2,0,4-1.8,4-4C1556.9,374.7,1555.1,372.8,1552.9,372.8z"/>
<path class="st2" d="M1061.7,454h-17.8v-17.8c0-2.2-1.8-4-4-4c-2.2,0-4,1.8-4,4V454H1018c-2.2,0-4,1.8-4,4c0,2.2,1.8,4,4,4h17.8
	v17.8c0,2.2,1.8,4,4,4c2.2,0,4-1.8,4-4v-17.8h17.8c2.2,0,4-1.8,4-4C1065.8,455.8,1063.9,454,1061.7,454z"/>
<path class="st2" d="M2019.7,734.1h-17.8v-17.8c0-2.2-1.8-4-4-4s-4,1.8-4,4v17.8H1976c-2.2,0-4,1.8-4,4s1.8,4,4,4h17.8V760
	c0,2.2,1.8,4,4,4s4-1.8,4-4v-17.8h17.8c2.2,0,4-1.8,4-4S2021.9,734.1,2019.7,734.1z"/>
<path class="st2" d="M2068.4,222.6h-17.8v-17.8c0-2.2-1.8-4-4-4c-2.2,0-4,1.8-4,4v17.8h-17.8c-2.2,0-4,1.8-4,4s1.8,4,4,4h17.8v17.8
	c0,2.2,1.8,4,4,4c2.2,0,4-1.8,4-4v-17.8h17.8c2.2,0,4-1.8,4-4S2070.6,222.6,2068.4,222.6z"/>
<path class="st2" d="M120,857.9h-17.8v-17.8c0-2.2-1.8-4-4-4s-4,1.8-4,4v17.8H76.3c-2.2,0-4,1.8-4,4c0,2.2,1.8,4,4,4h17.8v17.8
	c0,2.2,1.8,4,4,4s4-1.8,4-4V866H120c2.2,0,4-1.8,4-4C124,859.7,122.2,857.9,120,857.9z"/>
<ellipse class="st1" cx="1055.5" cy="1718.5" rx="909" ry="179.5"/>
<g>
	<path class="st3" d="M1778.1,471.2c0,0-13.4,78.6-8.8,96c4.6,17.4,39,31.9,39,31.9s-74.5,52.8-102.7,36.8
		c-28.2-16-25.2-8.7-25.2-8.7s29.6-18.2,32.9-30.7c3.3-12.6,1.2-121.2,1.2-121.2L1778.1,471.2z"/>
	<g>
		<path class="st4" d="M1822.8,330.2c0,0,24.9-2.1,27.1,33.5c2.2,35.5-15.7,77.3-5.7,87.9c10,10.6,32.8,11,37.9-0.8
			c0,0,7.4,16.1-12.9,27.7c-20.3,11.6-47.7,20.6-63.7,10.6c0,0-24.2-36-8.2-81.4s12.8-56.5,14.4-65
			C1813.2,334,1822.8,330.2,1822.8,330.2z"/>
		<path class="st3" d="M1640.3,426.7c0,0-2.5-15.9-16.5-10.9s-14.8,26.9-8.9,35.2c5.9,8.4,16.4,24.8,19.5,23.9
			c3.1-0.9,6.7-4.7,6.7-4.7L1640.3,426.7z"/>
		<path class="st5" d="M1635.8,444.3c0,0,1.1,46.6,4.4,62.8c3.2,16.2,36.2,43.2,44.6,48.1c8.4,4.9,21.6,3,21.6,3
			s42.5-26.1,49.1-37.3c6.6-11.2,18.7-59.7,18.7-59.7s8-60.3,4.1-79.6c-7.8-38.9-41.4-52.3-81.1-44.9s-52.4,11.6-56.7,42.5
			C1638.4,392.8,1635.8,444.3,1635.8,444.3z"/>
		
			<ellipse transform="matrix(0.8943 -0.4475 0.4475 0.8943 52.7448 841.3893)" class="st4" cx="1807" cy="309.1" rx="45.1" ry="45.1"/>
		<path class="st6" d="M1636.2,417.8c0,0-24.9-4.7-39.7-29.4c-23.8-39.8,30-42.8,43.8-59.1c15.5-18.2,44.5-45.5,58.7-46.8
			c65.8-5.7,74.8,30,74.8,30s52.5,10.3,61.1,53.9c5.8,29.7-17.5,110.1-36.1,142.3c-14.2,24.7-41.4,51.8-54.7,60.6
			c0,0,41.9-114,30.4-162.6c0,0-2.4-12.9-10-19.8c-19.3-17.4-10.4-40.5-10.4-40.5C1701.1,407.1,1641.7,405.8,1636.2,417.8z"/>
		<path class="st5" d="M1791.8,435.9c0,0,6.1-14.8,18.6-6.7c12.5,8.1,8.1,29.6,0.4,36.3c-7.7,6.7-21.8,20.3-24.5,18.6
			c-2.8-1.6-5.4-6.2-5.4-6.2L1791.8,435.9z"/>
		
			<ellipse transform="matrix(0.442 -0.897 0.897 0.442 566.2265 1875.6979)" class="st2" cx="1790.8" cy="482.7" rx="9.6" ry="9.6"/>
		<path class="st6" d="M1637.2,458c0,0-31.2,8.6-24,49.9c0,0,8.8-22.8,24.4-27.1L1637.2,458z"/>
	</g>
	<path class="st7" d="M1636,408.1l32.9,6.1c0,0,3-0.3,1.4-2.2c-1.6-1.9-23.9-7.2-28.9-6.9C1636.6,405.4,1634.3,407,1636,408.1z"/>
	<path class="st7" d="M1754.1,407.7l-37.3,6.6c0,0-3.3-0.3-1.5-2.5c1.9-2.2,27.2-8,32.8-7.6C1753.6,404.6,1756.1,406.4,1754.1,407.7
		z"/>
	<path class="st8" d="M1662.1,1601.7c0,0-30.9,47.1-53.4,61c-6.9,4.3-11.8,11.2-12.8,19.3c-0.7,5.7,0,11.9,4.2,16.6
		c10.5,11.8,20.7,8.2,32.5,5.6c11.8-2.6,51.3-42.1,51.3-42.1l2.6-6.6l11.3-20.4c3.1-5.7,4.2-12.3,2.9-18.6l-3.7-18.8L1662.1,1601.7z
		"/>
	<path class="st5" d="M1660.6,1595.9c0,0-25.7,47.4-47.1,61.5c-6.5,4.3-10.6,11.4-11.2,19.2c-0.5,6.6,0.3,13.9,5,19.1
		c10.5,11.8,14.5,4.3,23.8,2.7c11.9-2.1,51.3-42.1,51.3-42.1l2.6-6.6l11.3-20.4c3.1-5.7,4.2-12.3,2.9-18.6l-3.7-18.8L1660.6,1595.9z
		"/>
	<path class="st8" d="M1803,1633l-4.8,36.3l8.6,22.2l2.6,1.3c0,0,5.2,50.9,6.5,53.5c1.3,2.6,1.3,9.1,9.1,15.7s24.5,7.1,37.6-6
		c13-13,14.4-26.1,14.4-26.1s-33.7-76.2-35-84c-1.3-7.8-6.5-26.1-6.5-26.1L1803,1633z"/>
	<path class="st5" d="M1798.1,1613.3l3.4,32.6c0.5,17.3-1.3,26.8,8.1,41.3l0,0l2.6,1.3c0,0,5.2,50.9,6.5,53.5
		c1.3,2.6,1.3,9.1,9.1,15.7c7.8,6.5,23.7,0.3,36.8-12.7c13-13,5.7-30.1,5.7-30.1s-27.4-61-28.7-68.9c-1.3-7.8-3.4-30.5-3.4-30.5
		L1798.1,1613.3z"/>
	<g>
		<path class="st9" d="M1686.3,492.9c-4.2-0.7-9.1-2-10.7-5.3c-1.2-2.6,0-5.9,3.5-10c6.2-7.1,1.2-43.6-1.3-57l3.1-0.4
			c0,0.1,2.3,12.4,3.5,25.7c1.7,18,0.7,29.3-2.8,33.3c-2.9,3.3-3.9,5.8-3.1,7.5c0.8,1.6,3.4,2.8,8.4,3.7L1686.3,492.9z"/>
	</g>
	<path class="st10" d="M1677.1,613.8c0,0-93,165.7-96.1,202.2c-3.3,38.1,51.4,26.5,51.4,26.5l52.5-126.1
		C1684.8,716.5,1728.6,634.2,1677.1,613.8z"/>
	<path class="st5" d="M1624.4,951.9c0,0-27.5,91.7-26.9,150c0.2,14.2,55.2,275.9,61.9,489.4c0.2,7.2-6.4,12.5,0.7,13.1l18.3,1.6
		c11.8,1,19.3-7.3,18.1-20.2l29.4-200c0.2-1.5,0.4-3,0.5-4.5l15.6-258.5l-3.5,247.5c-0.1,6,0.6,11.9,2,17.7l59.1,240.4
		c0,0,26.5,27.1,39.8,0c3-6.2-11.2-129.1-11.2-254.7c0-55.4,84.5-271.3,79.1-296c-10.7-49-100.7-147.2-100.7-147.2L1624.4,951.9z"/>
	<path class="st11" d="M1624.4,951.9c0,0-27.5,91.7-26.9,150c0.2,14.2,16.5,120.3,16.5,120.3s114.4,66.3,258.6,14.9
		c0,0,40.1-134.7,34.7-159.5c-10.7-49-100.7-147.2-100.7-147.2L1624.4,951.9z"/>
	<path class="st5" d="M1847.1,982.7l-33.1,20.5c0,0-14.2,7.9-7.9,34.6c6.3,26.8,45.7,48.8,45.7,48.8l9.4-70.8l7.9-14.2L1847.1,982.7
		z"/>
	<path class="st12" d="M1690.3,613.8l21.5-13.3c-1.7,39.8,23.1,45,42.3,25.6l28.6-43.5l55.4,38.1c0,0-46.5,218.6-48.4,250.1
		c-1.2,19.3,41.6,64.6,20.8,71.8c-26.2,9-61.6,8.5-86.5,6.5c-20.4-1.7-49.4,0.2-67.2-4.7c-21.4-5.9,1.9-68.6,3.5-110
		c2.3-57.4-9.9-91.2-9.9-91.2L1690.3,613.8z"/>
	<path class="st13" d="M1798.1,869c0.8-13.9,20.1-68.8,25.6-119c-35.8,17.7-74.3,25.9-115.3,24.3c-16.8-0.1-33.3-1.4-49.4-3.9
		c-0.5,22.3-4.6,43.4-1.7,57.2c8.3,39.8-21.6,110.7-0.2,116.6c17.8,4.9,46.8,3.1,67.2,4.7c24.8,2,60.3,2.5,86.5-6.5
		C1831.4,935.3,1796.9,888.4,1798.1,869z"/>
	<g>
		
			<ellipse transform="matrix(9.973885e-03 -1 1 9.973885e-03 1274.6361 2169.0444)" class="st7" cx="1732.7" cy="440.8" rx="11" ry="7.9"/>
		<path class="st7" d="M1740.3,438.3c0,0,4.6,1.5,10.8-4.6c0,0-3.1,15.4-18.5,13.9L1740.3,438.3z"/>
	</g>
	<g>
		<path class="st7" d="M1650.5,440.9c0.1,6.1,3.6,11,8,10.9c4.3,0,7.8-5,7.8-11.1s-3.6-11-8-10.9
			C1653.9,429.8,1650.4,434.8,1650.5,440.9z"/>
		<path class="st7" d="M1650.8,438.3c0,0-4.6,1.5-10.8-4.6c0,0,3.1,15.4,18.5,13.9L1650.8,438.3z"/>
	</g>
	<path class="st8" d="M1784.5,584.3c0,0-100.8,132.3-109,321.9c0,0,10.4,36.3,20.8,58.9s41.5,124.6,72.7,152.3
		c31.2,27.7,138.5-39.8,138.5-39.8s-3.2-97.5-102.7-206.9c0,0,71.5-161.8,69.8-199.9C1872.8,632.7,1836.4,596.4,1784.5,584.3z"/>
	<path class="st8" d="M1711.9,600.5c0,0-60.7,124-52,177.6c8.7,53.7,17.3,112.5,15.6,135c-1.7,22.5-43.3,173.1-57.1,185.2
		c-13.8,12.1-22.5,2.8-22.5,2.8s9.9-145.9,59.7-237c0,0,2-53.5-3.2-70.8c-5.2-17.3-40.1-31.4-38.4-57.4c1.7-26,44.8-67.4,49.8-95.6
		C1671.3,597.7,1689.4,617.8,1711.9,600.5z"/>
	<polygon class="st8" points="1701.2,1624.2 1701.2,1649.5 1689.6,1658.2 1686,1651.7 	"/>
	<path class="st8" d="M1605.1,1664c0,0-24.1,50.5,28.2,37.6l21-18.1c0,0-2.2-23.8-28.9-36.1L1605.1,1664z"/>
	<path class="st8" d="M1817.3,1739.9c0,0,6.3,31.4,22.2,24.2c48.1-21.5,31.6-47.2,31.6-47.2l-8.2-20.5c0,0-17.9-10-28-2.9
		c-10,7.2-20.1,18.7-20.1,18.7L1817.3,1739.9z"/>
	<path class="st2" d="M1672.7,512.4c0,0,44.3-8.1,62.5-15.1c0,0-27.1,17.6-39.3,17.6C1683.6,514.9,1672.7,512.4,1672.7,512.4z"/>
	<path class="st10" d="M1808,590.6c0,0-26.5,66.3-29.8,101.1l-44.8,23.2l28.2,31.5c0,0-72.9,91.2-81.2,137.6
		c0,0,46.4-106.1,96.1-135.9l-28.2-31.5l38.1-19.9C1786.5,696.6,1789.8,646.9,1808,590.6z"/>
	<path class="st10" d="M1698.6,608l-34.8,57.2l5.8,25.7l-24,15.7c0,0,23.2,139.2,25.7,149.2l-34-150.8l24.9-14.9l-4.1-26.5
		L1698.6,608z"/>
	
		<rect x="1784.8" y="993.4" transform="matrix(0.9023 -0.4312 0.4312 0.9023 -252.0869 886.1204)" class="st10" width="87.9" height="11.6"/>
	<g>
		<polygon class="st14" points="1685.4,870.7 1637.3,724.8 1746.7,632 1801.4,791.1 		"/>
		<polygon class="st15" points="1683.7,870.7 1658.8,719.9 1740.1,640.3 1793.1,791.1 		"/>
		<polygon class="st16" points="1683.7,870.7 1648.9,718.2 1730.1,638.6 1783.2,789.5 		"/>
		<polygon class="st17" points="1683.7,870.7 1638.9,713.2 1720.2,633.7 1773.2,784.5 		"/>
		<polygon class="st18" points="1683.7,870.7 1637.3,724.8 1718.5,645.3 1771.6,796.1 		"/>
	</g>
	<path class="st10" d="M1585.6,834c-1.7-6.1-1.4-12.8,0.2-18.9c2.1-7.8,6.2-21,10.3-25.6c5.9-6.6,96.1-61.3,100.8-61.3
		c0,0,8.3,13.3,16.6,36.5c0,0-77.1,79.6-88.9,84.5C1614.5,853.4,1591.4,855.2,1585.6,834z"/>
	<path class="st19" d="M1697,728.1c-3.4,0-51.3,28.5-79.9,46.8c14.3,3.2,27.2,10.6,38.3,20.8c4.9,4.5,8.9,9.7,12.1,15.3
		c22.9-22.5,46.1-46.4,46.1-46.4C1705.2,741.4,1697,728.1,1697,728.1z"/>
	<path class="st5" d="M1690.3,733.1l21.5-21.5c0,0,8.3-9.9,21.5-13.3c13.3-3.3,38.7-5,38.7-5s6.6,7.2,2.2,11.1
		c0,0,3.9,17.1,0.6,23.8c-3.3,6.6-3.3,14.9-6.6,19.9c-3.3,5-54.7,8.3-54.7,8.3l-11.6,11.6c0,0-26.5-9.9-13.3-33.2"/>
	<path class="st10" d="M1809.7,645.3c0,0,19.9-19.9,46.4,1.7c24.2,19.6,8.3,43.1,8.3,43.1s-79.6,159.1-92.8,162.4
		s-24.9,14.9-36.5,9.9c-9.1-3.9-67.8-68.7-91.2-94.5c-7.4-8.2-3.7-15.8,3.9-23.8c7.3-7.7,15.1-16.8,30.9-9.3l56.4,54.7L1809.7,645.3
		z"/>
	<path class="st5" d="M1673.8,738.1c0,0-8.3-7.2-19.9-9.4c-11.6-2.2-26.5,7.7-31.5,16c-5,8.3-2.8,27.1-2.8,27.1l24.3-11.1l0,0
		c2.4,4.2,11.6,0.6,11.3,0.9l0,0c11.2-1.1,19.5-11,18.7-22.3L1673.8,738.1z"/>
</g>
<g>
	<g>
		<g>
			<path class="st3" d="M1257.5,384c0,0,14.4,84.7,9.5,103.5c-4.9,18.7-42.1,34.4-42.1,34.4s80.4,56.9,110.7,39.6
				c30.4-17.3,40.5-25.9,40.5-25.9s-23.8-3.2-27.3-16.7c-3.5-13.5-1.3-130.7-1.3-130.7L1257.5,384z"/>
			<path class="st5" d="M1417.7,356.1c0,0-4.6,54.4-9.5,73.1c-4.9,18.7-45.4,48-55.5,53.2c-10.1,5.2-25.4,2-25.4,2
				s-47.9-33.5-54.8-47c-6.9-13.5-17.7-71.1-17.7-71.1s-12.6-74.6,0.8-93.4c13.4-18.8,52-58.2,98-46.8s60.4,17.2,63.3,53.7
				C1418.2,295.7,1417.7,356.1,1417.7,356.1z"/>
			<path class="st20" d="M1406.8,326.2l-36.1,0.4c0,0-3.1-2-1.1-6.2c2-4.1,26.8-7.5,31.9-4.4C1406.8,319,1408.9,324.1,1406.8,326.2z
				"/>
			<path class="st20" d="M1281.6,328.9l40.9-0.4c0,0,3.5-2.4,1.1-7c-2.4-4.6-30.4-7.9-36.2-4.3
				C1281.5,320.7,1279.3,326.6,1281.6,328.9z"/>
			<path class="st21" d="M1357,1597.7c0,0,50.1,76.4,78.9,83.2c0,0,25.5,22.1,11.9,37.3s-37.3,15.3-52.6,11.9
				c-15.3-3.4-66.2-54.3-66.2-54.3l-3.4-8.5l-5.1,8.5l-18.7-13.6l10.2-69.6L1357,1597.7z"/>
			<path class="st21" d="M1211.9,1628.2l-1.7,56l-18.7,28.9l-3.4,1.7c0,0-6.8,66.2-8.5,69.6c-1.7,3.4-1.7,11.9-11.9,20.4
				c-10.2,8.5-35.6,20.4-52.6,3.4c-17-17-18.7-34-18.7-34s47.5-110.3,49.2-120.5c1.7-10.2,8.5-34,8.5-34L1211.9,1628.2z"/>
			
				<ellipse transform="matrix(1 -9.972486e-03 9.972486e-03 1 -3.4263 13.8073)" class="st22" cx="1382.8" cy="350.5" rx="8.5" ry="11.9"/>
			
				<ellipse transform="matrix(1 -9.972486e-03 9.972486e-03 1 -3.4377 13.0456)" class="st22" cx="1306.4" cy="351.2" rx="8.5" ry="11.9"/>
			<g>
				<path class="st9" d="M1356.5,400c4.5-0.8,9.8-2.2,11.5-5.7c1.3-2.8,0-6.3-3.8-10.8c-6.7-7.7-1.3-47,1.4-61.5l-3.4-0.4
					c0,0.1-2.4,13.4-3.8,27.7c-1.8,19.5-0.8,31.5,3,35.9c3.1,3.5,4.2,6.3,3.4,8.1c-0.8,1.8-3.7,3-9,4L1356.5,400z"/>
			</g>
			<path class="st2" d="M1369.5,421.9l-48.9-9.8c0,0-5.5,0.2,1,9.7c6.5,9.5,34.8,12.1,34.8,12.1S1369.2,431.4,1369.5,421.9z"/>
			<path class="st23" d="M1423.2,902.3c0,0,14.9,57.3,16.2,120.1c1.2,56.9-63.3,488.5-75.5,569.3c-1.2,7.6-7.4,13.5-15.1,14.1
				l-19.8,1.7c-12.7,1.1-23.5-9.1-23.1-21.8l13-495.5l-103.6,541.5c0,0-51.9,22.4-66.2-6.8c-6.6-13.4,12.8-603.3,24.3-656.2
				c11.5-52.9,53.3-89.4,53.3-89.4L1423.2,902.3z"/>
			<path class="st24" d="M1366.9,1347.9c11.2,0,22.2-0.7,33-2.1c-15.4,108.6-30.7,210.6-36,245.9c-1.2,7.6-7.4,13.5-15.1,14.1
				l-19.8,1.7c-12.7,1.1-23.5-9.1-23.1-21.8l7-242.6C1330.3,1347,1348.3,1348.6,1366.9,1347.9z"/>
			<path class="st24" d="M1176.3,1268.9c24.4,26.3,53.3,44.9,86.7,55.7c5,2.6,2.6,5,7.7,7.2l-55.5,299.7c0,0-51.9,22.4-66.2-6.8
				c-3.7-7.6,0.9-201.1,7.7-376.6C1162.8,1255.4,1169.3,1262.4,1176.3,1268.9z"/>
			<path class="st11" d="M1247,350c0,0,18.6-7,16.7-25.6c-1.9-18.7,4.5-59.5,9.5-64.6c5-5.1,105.3,5.7,137.5-5.6l7.4,59.3l6.7-60.4
				c0,0,44-5,29-38c-29.5-64.9-70.2-13.5-116-13s-98.8-13.3-119,9s-15.3,35.8-15.3,35.8s7.5,67.8,21.3,92.3L1247,350z"/>
			<line class="st20" x1="1418.1" y1="313.4" x2="1411.3" y2="258.4"/>
			<path class="st20" d="M1246.8,271.4c6.6,3.5,13.3,6.3,20.3,8.7c-2.7,14.6-4.4,33.3-3.3,44.3c1.9,18.7-16.7,25.6-16.7,25.6
				l-22.2-10.8c-12.8-22.7-20.2-82.6-21.2-91.2C1216.5,258.4,1230.9,266.2,1246.8,271.4z"/>
			<path class="st25" d="M1413.9,904.5c0,0,0,26-28.9,41.3c-28.9,15.3-71.3,23.8-93.4,18.7c-22.1-5.1-86.6-37.3-90-56l0.6,0.6
				L1413.9,904.5z"/>
			
				<rect x="1269.6" y="932.2" transform="matrix(-0.9747 -0.2234 0.2234 -0.9747 2305.3127 2157.4485)" class="st26" width="10.2" height="32.3"/>
			
				<rect x="1366.4" y="923.7" transform="matrix(-0.9124 0.4092 -0.4092 -0.9124 3007.4346 1236.1113)" class="st26" width="10.2" height="32.3"/>
			
				<rect x="1237.4" y="920.3" transform="matrix(-0.9022 -0.4314 0.4314 -0.9022 1959.3505 2317.2393)" class="st26" width="10.2" height="32.3"/>
			
				<rect x="1398.6" y="908.4" transform="matrix(-0.733 0.6802 -0.6802 -0.733 3061.5605 647.4779)" class="st26" width="10.2" height="32.3"/>
			<path class="st5" d="M1254.5,337.3c0,0-6.1-17.8-21.3-9.1c-15.2,8.6-11.5,34.1-3,42.5c8.6,8.4,24,25.2,27.4,23.5
				c3.4-1.7,6.7-6.9,6.7-6.9L1254.5,337.3z"/>
			<path class="st12" d="M1363,519.7l-36.6,44.4l-81.2-51.8l-104.7,51.1c0,0,44.1,165.9,46.1,199.9c1.3,20.9,0.2,70.6-0.8,105.8
				c-0.7,23.8,14.1,45.2,36.6,53c28.3,9.7,66.5,20.3,93.2,18.2c22-1.8,45.8-7.2,65-12.6c23.1-6.4,39.7-26.5,41.6-50.4
				c5.1-64.4,13.8-192.1,5.9-236.9c-10.8-61-38-105.4-38-105.4L1363,519.7z"/>
			<polygon class="st27" points="1327.3,563.8 1356.2,551.9 1378.3,563.8 1356.2,529.9 			"/>
			<polygon class="st12" points="1320.5,568.4 1315.1,539.6 1253.4,480.8 1226.6,521.8 1283.2,582.3 			"/>
			<path class="st12" d="M1346.9,494.3l16.1,13.5c6.9,15.2,15.3,56,15.3,56l-20.4-25.5l-27.3,24
				C1330.6,562.4,1357.4,529,1346.9,494.3z"/>
			<polygon class="st27" points="1279.8,567.2 1315.4,540 1325.6,563.8 1307,557 			"/>
			<g>
				<path class="st28" d="M1317,971.3l34.8-3.8c3.2-0.3,5.6-3.3,5.2-6.5l-1.8-17c-0.3-3.2-3.3-5.6-6.5-5.2l-34.8,3.8
					c-3.2,0.3-5.6,3.3-5.2,6.5l1.8,17C1310.9,969.3,1313.8,971.7,1317,971.3z"/>
				<path class="st25" d="M1318.6,968.4l31-3.4c2.7-0.3,4.7-2.8,4.4-5.5l-1.5-13.7c-0.3-2.7-2.8-4.7-5.5-4.4l-31,3.4
					c-2.7,0.3-4.7,2.8-4.4,5.5l1.5,13.7C1313.3,966.7,1315.8,968.7,1318.6,968.4z"/>
			</g>
			<g>
				<path class="st29" d="M1359.1,1609.4c6.7,5.1,14.7,7.8,22,11.8c2.1,1.1,22.9,15.1,17.5,18.6c-1.3,0.8-10.3-3.9-11.3-4.3
					c-3.5-1.8-6.9-4-9.8-6.8c-5.4-5.3-7.2-13-12.9-18c-1.1-1-2.9,0-2.5,1.5c1.3,5.1,1.7,10.2,1,15.4c-0.3,2.6-0.9,5.2-1.8,7.7
					c-0.5,1.4-1,2.8-1.7,4.1c-0.7,1.4-0.7,3.1-2.2,2.2c-2.8-1.9-1.5-13.6-1.2-16.6c0.5-5.9,1.7-11.7,3.5-17.4
					c0.6-1.8-2.3-2.6-2.9-0.8c-2.7,8.2-4,16.8-3.8,25.4c0.1,3-0.5,13.6,4.5,13.6c4.4,0.1,6.7-9.7,7.5-12.9
					c1.8-7.1,1.6-14.5-0.1-21.6c-0.8,0.5-1.7,1-2.5,1.5c4,3.6,5.8,8.6,8.7,13c2.4,3.6,5.6,6.6,9.2,9.1c4,2.7,8.4,4.7,12.9,6.3
					c2.2,0.8,5.6,2.7,7.7,0.8c6-5.5-7.3-16.1-11-18.8c-9.2-6.7-20.5-9.6-29.5-16.5C1359.1,1605.7,1357.6,1608.3,1359.1,1609.4
					L1359.1,1609.4z"/>
			</g>
			<g>
				<path class="st29" d="M1167.1,1641.4c1.4,10.4,6,19.9,9.1,29.8c1.9,5.8,3.4,11.8,4,17.8c0.5,4.7,1.4,12.7-1.3,17
					c-1,1.6-2.7,2.6-4.1,1.6c-0.7-0.5-1.2-2.3-1.6-3.1c-1.4-2.8-2.7-5.6-3.8-8.5c-2-5.2-3.5-10.8-3.8-16.4
					c-0.7-10.9,5.3-20.6,4.6-31.3c-0.1-1.4-2-2.1-2.8-0.8c-3.9,6.7-9.1,12.5-15.4,17.1c-2.4,1.7-5,3.3-7.7,4.6
					c-2.1,1-4.3,1.9-6.5,2.7c-1.6,0.5-4.3,2.2-4-1.5c0.1-0.9,3.2-4.3,3.4-4.6c1.2-1.5,2.5-3,3.8-4.4c2.4-2.6,5-5.2,7.7-7.5
					c6.1-5.4,13-9.9,20.2-13.6c1.7-0.9,0.2-3.5-1.5-2.6c-9.5,4.9-18.1,11.1-25.7,18.6c-3,3-14.7,13.1-10.8,18.2
					c1.8,2.5,5.4,1,7.7,0.3c4.4-1.5,8.6-3.4,12.5-5.9c7.8-5,14.3-11.8,18.9-19.8c-0.9-0.3-1.9-0.5-2.8-0.8c0.5,7.8-3,14.8-4.2,22.4
					c-0.8,5.4-0.5,10.8,0.6,16.1c1.3,6.4,3.7,12.5,6.6,18.4c1.4,2.8,2.9,7.9,6.9,6.7c9-2.6,6.5-20.7,5.6-27
					c-2.4-15.1-10.6-28.5-12.6-43.6C1169.9,1639.5,1166.9,1639.5,1167.1,1641.4L1167.1,1641.4z"/>
			</g>
			<path class="st30" d="M1353.8,543.3c0,0-21.2,9.3-38-3.7l-15.6,12.4l17.4,30.5l-7.5,91.5l35.5,54.1c0,0,16.8-37.3,16.8-41.1
				c0-3.7-18.7-106.4-18.7-106.4l13.1-28L1353.8,543.3z"/>
			<path class="st31" d="M1222.6,522.7c0,0,113.9,154.9,117.6,182.9c0,0,30.7-119.2,32-170.1c0.1-4.9-3-10.2-0.5-12.7
				c0.2-0.2,20.8,12.9,20.8,12.9s42.9,42.9,41.1,184.8c-1.4,107.3-13.8,191.1-1.9,216.5c29.9,63.5,1.9,108.3,1.9,108.3
				s-78.4,7.5-93.3-98.9c-18.3,58.1-61.7,85.6-89.6,89.6c-78.4,11.2-89.6-5.6-89.6-5.6l26.1-140c0,0-6-148.9-17-182.7
				c-11-33.8-46.7-126-22.2-153.2L1222.6,522.7z"/>
		</g>
		<path class="st11" d="M1384,410.5c0,0-0.6-6.8-15.2-8c-14.6-1.1-37-8-42.6-5.7c-5.6,2.3-14.9,4.6-14.9,11.4
			c0,0,54.1,13.7,72.8,13.7C1384,421.9,1387.7,419.7,1384,410.5z"/>
		<g>
			<path class="st32" d="M1342,946.8c20.3-108.7,15-169.3,7.4-186.4c-20.7-46.6-115.4-101.7-129.3-109.6l49.8-19.7l-58.5-24
				l-5.6-75.9l-1.9,0.1l5.6,77.1l55.3,22.7l-49.1,19.5l1.7,1c1.1,0.6,108.2,60.2,130.2,109.7c7.6,17,12.7,76.9-7.5,185.3L1342,946.8
				z"/>
		</g>
		<g>
			<path class="st32" d="M1349.5,760.9c9.6-47.1,24.2-78.9,34.8-97.4c11.5-20,20.8-29,20.9-29l1.2-1.1l-40.4-11l37.6-20.4
				l-20.7-72.5l-1.8,0.5l20.3,71l-40.3,21.9l41.8,11.4c-2.8,3-10.6,11.9-20,28.2c-10.7,18.6-25.4,50.7-35.1,98L1349.5,760.9z"/>
		</g>
	</g>
	<g>
		<g class="st33">
			<defs>
				
					<ellipse id="SVGID_1_" transform="matrix(0.7071 -0.7071 0.7071 0.7071 155.4436 1081.8158)" class="st33" cx="1383.6" cy="353.3" rx="27.9" ry="27.9"/>
			</defs>
			<clipPath id="SVGID_2_">
				<use xlink:href="#SVGID_1_"  style="overflow:visible;"/>
			</clipPath>
			
				<ellipse transform="matrix(0.7071 -0.7071 0.7071 0.7071 155.4436 1081.8158)" class="st34" cx="1383.6" cy="353.3" rx="27.9" ry="27.9"/>
			
				<rect x="1356.1" y="339.3" transform="matrix(-0.6328 -0.7743 0.7743 -0.6328 2015.6682 1643.5587)" class="st34" width="82.8" height="9.2"/>
			
				<rect x="1345.5" y="349.7" transform="matrix(-0.6328 -0.7743 0.7743 -0.6328 1991.3295 1650.2589)" class="st34" width="82.8" height="6.6"/>
		</g>
		<g class="st33">
			<defs>
				
					<ellipse id="SVGID_3_" transform="matrix(0.7071 -0.7071 0.7071 0.7071 134.3066 1032.78)" class="st33" cx="1313.8" cy="354.3" rx="27.9" ry="27.9"/>
			</defs>
			<clipPath id="SVGID_4_">
				<use xlink:href="#SVGID_3_"  style="overflow:visible;"/>
			</clipPath>
			
				<ellipse transform="matrix(0.7071 -0.7071 0.7071 0.7071 134.3066 1032.78)" class="st35" cx="1313.8" cy="354.3" rx="27.9" ry="27.9"/>
			
				<rect x="1286.4" y="340.3" transform="matrix(-0.6328 -0.7743 0.7743 -0.6328 1900.9904 1591.1719)" class="st35" width="82.8" height="9.2"/>
			
				<rect x="1275.8" y="350.7" transform="matrix(-0.6328 -0.7743 0.7743 -0.6328 1876.6528 1597.8716)" class="st35" width="82.8" height="6.6"/>
		</g>
		
			<ellipse transform="matrix(0.7071 -0.7071 0.7071 0.7071 155.3816 1081.9717)" class="st36" cx="1383.7" cy="353.4" rx="28.2" ry="28.2"/>
		
			<rect x="1342.2" y="347.7" transform="matrix(-0.9999 1.428985e-02 -1.428985e-02 -0.9999 2702.3555 689.1595)" class="st37" width="13" height="13"/>
		<path class="st37" d="M1285.8,344.4l-13,0.2l0.1,8.4c0,0,8.4,2.7,11.3,8.2L1285.8,344.4z"/>
		<path class="st37" d="M1410.4,342.7l10.2-0.1l0.1,8.4c0,0-6.5,2.9-8.7,8.5L1410.4,342.7z"/>
		<polygon class="st23" points="1272.8,344.6 1250.3,338.7 1252.3,344.9 1272.9,353 		"/>
		
			<ellipse transform="matrix(0.9566 -0.2915 0.2915 0.9566 -46.0134 398.184)" class="st36" cx="1313.2" cy="353.5" rx="28.2" ry="28.2"/>
	</g>
	<path class="st31" d="M1392.8,536c0,0,89.6,144.2,98,161c8.4,16.8,6.3,46.1-6.3,60.8c-12.6,14.7-161.4,14.7-161.4,14.7l98.5-62.9
		l18.9-16.8L1392.8,536z"/>
	<path class="st5" d="M1402.8,663.6c0,0,20-10.6,40,4.4s11,24,11,24l-33,12L1402.8,663.6z"/>
	<path class="st38" d="M1415.4,749.4c-0.4-10.8,1.8-20.9,6.8-30.2c2.4-7.5,6.2-14.2,11.3-20.1l-11.8,10.5l-98.5,62.9
		c0,0,50.6,0,95.2-2.9C1416.7,762.9,1415.7,756.1,1415.4,749.4z"/>
	<path class="st39" d="M1119,589.4c0-0.3,0.1-0.6,0.1-0.9c4.1-33.3,46.3-45,66.8-18.5l89,140.6l125.9-49.6c0,0,28.2,14,28.2,43.3
		c0,0-133.1,84.9-139.4,89.1c-6.3,4.2-31.4,14.7-56.6,2.1l-109-182.3C1119.8,606,1118,597.7,1119,589.4z"/>
	<path class="st5" d="M1304.8,695c0,0-44-30-58-31s-39,14-45,21s-8,13-4,16c0,0-2,11,7,10c0,0,2,10,6,10c0,0,1,7,9,8
		c0,0,39.6-18,50-18C1274.8,711,1304.8,695,1304.8,695z"/>
</g>
<g>
	<path class="st40" d="M500.2,508c0,0-9.1-17.3-35.2-14c-1.1,0.1-2.2,0.3-3.4,0.5c-28.7,5.3,33.6-158.2,33.6-158.2
		S536.2,467.5,500.2,508z"/>
	<path class="st3" d="M387.4,440c0,0,13.2,77.8,8.7,95c-4.5,17.2-38.7,31.6-38.7,31.6s73.8,52.3,101.7,36.4s24.9-8.7,24.9-8.7
		s-29.3-18-32.6-30.4c-3.2-12.4-1.2-120-1.2-120L387.4,440z"/>
	<path class="st5" d="M500.3,396.4c0,0,7.8,49.5,7.5,67.3c-0.3,17.8-30,52.7-37.9,59.5c-7.9,6.8-22.3,7.3-22.3,7.3s-50-19.4-59.1-30
		c-9.1-10.5-31.3-59.6-31.3-59.6s-20.1-62.3-19.7-83.5c0.7-42.7,33.7-63.3,77.2-63.1c43.5,0.2,57.7,2.2,68.2,34.1
		C487.6,342.4,500.3,396.4,500.3,396.4z"/>
	<path class="st7" d="M488.9,373l-32.7-5.8c0,0-2.7-1.3-0.6-2.5c2.1-1.2,24.7,1.5,29.2,3.5C489.3,370.3,490.9,372.6,488.9,373z"/>
	<path class="st7" d="M489.4,400.7l-23.8,11.4c0,0-2.4,0.3-1.7-1.8c0.7-2.1,16.5-10.9,20.4-11.5
		C488.2,398.2,490.5,399.3,489.4,400.7z"/>
	<path class="st7" d="M369.7,379.1l30.9-21.3c0,0,2.1-2.6-0.7-2.8c-2.8-0.2-24.8,13.3-28.4,17.4
		C367.9,376.6,367.4,379.6,369.7,379.1z"/>
	<path class="st8" d="M469.4,1559.3c0,0,30.6,46.7,52.9,60.4c6.9,4.2,11.7,11.1,12.7,19.1c0.7,5.6,0,11.7-4.2,16.4
		c-10.4,11.7-20.5,8.1-32.2,5.5s-50.7-41.6-50.7-41.6l-2.6-6.5l-11.2-20.2c-3.1-5.6-4.1-12.1-2.9-18.4l3.7-18.6L469.4,1559.3z"/>
	<path class="st5" d="M470.8,1553.6c0,0,25.4,46.9,46.6,60.9c6.4,4.3,10.5,11.3,11.1,19c0.5,6.5-0.3,13.7-4.9,18.9
		c-10.4,11.7-14.3,4.3-23.6,2.7c-11.8-2.1-50.7-41.6-50.7-41.6l-2.6-6.5l-11.2-20.2c-3.1-5.6-4.1-12.1-2.9-18.4l3.7-18.6
		L470.8,1553.6z"/>
	<path class="st8" d="M329.9,1590.3l4.8,35.9l-8.5,22l-2.6,1.3c0,0-5.2,50.4-6.5,53c-1.3,2.6-1.3,9-9,15.5c-7.8,6.5-24.3,7-37.2-5.9
		c-12.9-12.9-14.2-25.8-14.2-25.8s33.3-75.5,34.6-83.2c1.3-7.8,6.5-25.8,6.5-25.8L329.9,1590.3z"/>
	<path class="st5" d="M338.8,1579.4l-7.5,23.7c-0.5,17.1,1.3,26.5-8,40.9l0,0l-2.6,1.3c0,0-5.2,50.4-6.5,53c-1.3,2.6-1.3,9-9,15.5
		c-7.8,6.5-23.5,0.3-36.4-12.6c-12.9-12.9-5.7-29.8-5.7-29.8s27.1-60.4,28.4-68.2c1.3-7.8,3.3-30.2,3.3-30.2L338.8,1579.4z"/>
	<g>
		<path class="st9" d="M456.9,455.5c3.8-1.7,8.3-4.1,9-7.6c0.5-2.8-1.3-5.7-5.7-8.8c-7.7-5.4-11.4-41.6-12.2-55.1l-3.1,0.4
			c0,0.1,0.7,12.5,2.7,25.5c2.6,17.8,6.2,28.3,10.5,31.4c3.5,2.5,5.1,4.7,4.8,6.5c-0.3,1.8-2.6,3.5-7.2,5.5L456.9,455.5z"/>
	</g>
	<path class="st10" d="M539.5,915.9c0,0,27.2,90.8,26.6,148.5c-0.2,14.1-74.4,273.1-81,484.5c-0.2,7.1-6.8,12.4-13.9,13l-18.2,1.5
		c-11.6,1-22.4-7.2-21.2-20l-9.7-252.8l20.6-205.7l-71.9,254l-22.2,246.6c0,0-47.7,20.6-60.8-6.2c-3-6.1,7.1-121.6,7.1-245.9
		c0-54.9-41-268.6-35.6-293.1c10.5-48.6,99.7-145.7,99.7-145.7L539.5,915.9z"/>
	<path class="st41" d="M424.8,1360.6c24.2,11.9,49.5,19.4,76.1,22.5c-8.1,55.1-14.2,112-15.9,165.8c-0.2,7.1-6.8,12.4-13.9,13
		l-18.2,1.5c-11.6,1-22.4-7.2-21.2-20L424.8,1360.6z"/>
	<path class="st41" d="M287.2,1257c9.3,13.1,20.1,25.4,32.4,36.8c15.7,16.9,33.1,31.1,52,42.4l-0.8,2.7l-22.2,246.6
		c0,0-47.7,20.6-60.8-6.2c-3-6.1,7.1-121.6,7.1-245.9C295,1318,291.7,1289.9,287.2,1257z"/>
	<path class="st5" d="M319,946.5l32.7,20.3c0,0,14,7.8,7.8,34.3c-6.2,26.5-45.2,48.3-45.2,48.3l-9.4-70.1l-7.8-14L319,946.5z"/>
	<path class="st12" d="M474.2,581.1L452.9,568c1.6,39.4-22.9,44.6-41.9,25.3l-28.3-43.1l-54.8,37.7c0,0,46,216.4,47.9,247.6
		c1.1,19.2-41.2,64-20.6,71.1c25.9,8.9,61,8.4,85.6,6.4c20.2-1.6,48.9,0.2,66.5-4.7c21.2-5.9-1.9-67.9-3.5-108.9
		c-2.3-56.8,9.8-90.3,9.8-90.3L474.2,581.1z"/>
	<path class="st13" d="M367.6,833.9c-0.8-13.7-19.9-68.1-25.3-117.8c35.5,17.6,73.5,25.6,114.2,24.1c16.6-0.1,32.9-1.4,48.9-3.9
		c0.5,22.1,4.6,42.9,1.7,56.6c-8.2,39.4,21.4,109.6,0.2,115.5c-17.6,4.9-46.3,3-66.5,4.7c-24.6,2-59.7,2.5-85.6-6.4
		C334.6,899.5,368.7,853,367.6,833.9z"/>
	<path class="st3" d="M589.2,534c2.2-11.9-2-27.8-0.3-33.1c2.5-7.9,10.6-11.5,15.9-2.7c4.1,6.8,1.3,22.6,0.3,31.7
		c-0.3,2.7,1.7,4,1.7,4s0.2,0,0.6-0.1c0,0.1-0.1,0.1-0.1,0.2l1.8-0.2c0,0-6.4,3.5-0.2,7.6c0.1,0.1,0.2,0.1,0.3,0.2
		c0,0-8.5,1-4.2,7.3c0,0-6.1,3-4.5,7.2c0,0-5,1.2-3.4,5.4l11.6,9.6l-0.7-0.2c0,0-4.8,5.5-12.8,7.8c-8,2.3-0.2,13.2-0.2,13.2
		l-5.1-1.8c0,0-9-15.7-5-27c0.3-0.7,0.5-1.4,0.7-1.9C587.3,554.8,586,551.2,589.2,534z"/>
	<path class="st5" d="M597.4,663.6l-13.6-50.7c0,0,4.4-11.7,5-24c0.2-4.1,1.7-8.1,4.3-11.3l3-3.6l-9-5c-0.8-2.4-0.2-5,1.6-6.7
		l0.1-0.1l-0.3-0.9c-0.7-2.2-0.2-4.5,1.4-6.1l1.8-1.8l-0.6-1.1c-1.4-2.7-0.5-6,2-7.7l0,0l-0.7-2c-1.1-3.2,0.4-6.8,3.4-8.3
		c3.9-2,9.2-4.8,12.6-6.6c2.3-1.2,5-1.1,7.2,0.2c8.5,5.3,24.3,14.8,24.4,15.3c4,15.9-1.5,27.9-8.8,39.7c-1.6,2.6-3.2,5.9-5.9,7.3
		l-7.3,2.9l10.2,67.8C628.3,661,609.8,668.1,597.4,663.6z"/>
	<path class="st10" d="M490.5,584.2c0,0,66.6,113.1,74.5,144.5l14.8-122.3c0,0,58.1,9.4,56.5,26.5c-1.1,12.1-6.3,151.1-19.5,171
		c-13.3,19.9-40.9,33.1-64.9,13c-23.9-20.1-71.7-136.1-71.7-136.1L490.5,584.2z"/>
	<g>
		<path class="st7" d="M404.5,415.2c1.5,5.8,6.1,9.7,10.3,8.6c4.2-1.1,6.3-6.7,4.9-12.5c-1.5-5.8-6.1-9.7-10.3-8.6
			C405.2,403.8,403,409.4,404.5,415.2z"/>
		<path class="st7" d="M404.2,412.7c0,0-4.1,2.6-11.5-1.9c0,0,6.6,14.1,21,9L404.2,412.7z"/>
	</g>
	<path class="st6" d="M483.3,352.2c0,0,43.9,78.6,16.9,155.8c0,0,40.9-41.8,28.5-121.6c-12.5-79.9-42.3-115.4-60-130
		c-19.9-16.3-51.1-20.5-66.4-19c-70.7,6.7-73.4,46.2-73.4,46.2s-37.8,4-38.5,51.8c-0.4,32.5,24,130.2,49.9,160.7
		c19.8,23.4,53.8,25.3,69.6,32c0,0-66.4-91-63.6-144.6c0,0,0.1-14.1,6.8-22.8c17-22.1,3.1-44.9,3.1-44.9
		C424,369.7,475.2,340.7,483.3,352.2z"/>
	<path class="st42" d="M290.4,335.3c0.4-29.2,14.6-42,25.7-47.6c12.8,18.2,27.9,34,45.4,47.6c0.2,7.5-1.7,16.4-8.5,25.2
		c-6.7,8.7-6.8,22.8-6.8,22.8C343.5,437,409.8,528,409.8,528c-15.8-6.7-52-8-68-24C313.6,475.7,289.9,367.8,290.4,335.3z"/>
	<path class="st42" d="M499.3,391.9c10.2,2.5,20.5,4.3,30.8,5.3C537.4,470,500.2,508,500.2,508C515.2,465.2,508.4,422,499.3,391.9z"
		/>
	<path class="st5" d="M333.6,417.6c0,0-9.3-14.5-21-3.5c-11.7,11-2.9,32.9,6.6,38.5c9.5,5.6,26.9,17.3,29.6,15
		c2.6-2.3,4.5-7.6,4.5-7.6L333.6,417.6z"/>
	<path class="st3" d="M632.7,550.6c-4.4-1.5-20.6-11.8-22-11.8c-1.5,0-16.2,5.9-16.2,5.9l16.2-2.9L632.7,550.6z"/>
	<path class="st3" d="M626.9,560.9c-4.4-1.5-16.2-10.3-17.6-10.3c-1.5,0-17.6,2.9-17.6,2.9h17.6L626.9,560.9z"/>
	<path class="st3" d="M628.3,574.1c-4.4-1.5-22-10.3-23.5-10.3c-1.5,0-16.2-1.5-16.2-1.5l16.2,4.4L628.3,574.1z"/>
	<path class="st3" d="M623.9,584.4c-4.4-1.5-22-10.3-23.5-10.3c-1.5,0-13.2-4.4-13.2-4.4l13.2,7.3L623.9,584.4z"/>
	<path class="st2" d="M333.8,469.4c1.3,5.5,6.9,8.9,12.4,7.5c5.5-1.3,8.9-6.9,7.5-12.4c-1.3-5.5-6.9-8.9-12.4-7.5
		C335.8,458.3,332.4,463.9,333.8,469.4z"/>
	<path class="st8" d="M381,551.9c0,0,99.8,130.9,108,318.8c0,0-10.3,36-20.6,58.3c-10.3,22.3-41.1,123.4-72,150.8
		c-30.8,27.4-137.1-39.4-137.1-39.4s3.2-96.5,101.7-204.8c0,0-70.8-160.2-69.1-197.9C293.6,599.9,329.6,563.9,381,551.9z"/>
	<path class="st8" d="M452.9,568c0,0,60.1,122.8,51.5,175.9c-8.6,53.1-17.1,111.4-15.4,133.7c1.7,22.3,42.8,171.4,56.6,183.4
		c13.7,12,22.3,2.7,22.3,2.7s-9.8-144.4-59.1-234.7c0,0-2-52.9,3.1-70.1c5.1-17.1,39.7-31.1,38-56.8c-1.7-25.7-44.4-66.8-49.3-94.7
		C493.1,565.2,475.2,585.1,452.9,568z"/>
	<polygon class="st8" points="430.7,1581.6 430.7,1606.6 442.1,1615.2 445.7,1608.8 	"/>
	<path class="st8" d="M525.8,1620.9c0,0,23.9,50-27.9,37.2l-20.7-17.9c0,0,2.1-23.6,28.6-35.8L525.8,1620.9z"/>
	<path class="st8" d="M315.7,1696.2c0,0-6.2,31.1-22,24c-47.6-21.3-31.3-46.7-31.3-46.7l8.1-20.3c0,0,17.8-9.9,27.7-2.8
		c9.9,7.1,19.9,18.5,19.9,18.5L315.7,1696.2z"/>
	<path class="st10" d="M357.7,558.2c0,0,26.3,65.6,29.5,100.1l44.3,23l-27.9,31.2c0,0,72.2,90.3,80.4,136.2c0,0-46-105-95.2-134.6
		l27.9-31.2L379,663.2C379,663.2,375.8,614,357.7,558.2z"/>
	<path class="st10" d="M466,575.4l34.5,56.6l-5.7,25.4l23.8,15.6c0,0-23,137.9-25.4,147.7l33.6-149.4l-24.6-14.8l4.1-26.3L466,575.4
		z"/>
	
		<rect x="293.7" y="957" transform="matrix(-0.9023 -0.4312 0.4312 -0.9023 226.3508 1976.754)" class="st10" width="87" height="11.5"/>
	<path class="st3" d="M195.2,536.4c0,0-17.6-45.5-26.7-62.8c-2.9-5.5-0.5-12.4,5.4-14.4c3.3-1.1,7.2-0.7,11.1,3.8
		c10.3,11.8,11.8,27.9,11.8,27.9l13.2,22L195.2,536.4z"/>
	<path class="st5" d="M211.4,593.7l-4.4-27.9l-23.5-57.3l18.4-33.3c3.1-5.6,9.3-8.7,15.6-7.8l22.4,3.1c5.9,0.8,10.6,5.2,11.9,11
		l10.7,49.1c1.2,5.3-1.1,10.7-5.7,13.6l-15.8,9.9v41.1L211.4,593.7z"/>
	<path class="st10" d="M320.1,581.9L320.1,581.9l-72,114.6l2.9-114.6c0,0-48.5-30.9-60.2,10.3c0,0-7.3,151.3-7.3,160.1
		c0,8.8,32.3,38.2,52.9,35.3c13.6-1.9,61-50.5,91.7-83.4c17.5-18.7,26.5-43.7,25-69.2v0C351.8,612.9,339.4,592.9,320.1,581.9z"/>
	<path class="st3" d="M252.5,490.1c0,0-22-6.6-29.4-5.1c-7.3,1.5-8.8,8.8-8.8,8.8"/>
	<path class="st3" d="M254,500c0,0-22.5,0.9-29.4,3.7c-6.9,2.8-7,8.2-7,8.2"/>
	<path class="st3" d="M258.4,516.2c0,0-22.5,0.9-29.4,3.7c-6.9,2.8-7,8.2-7,8.2"/>
	<path class="st43" d="M418.9,466l54.9-1.3c0,0,4-1.8-1,14.2c-3.9,12.5-18,12-18,12S418.8,489,418.9,466z"/>
	<path class="st2" d="M418.9,465l54.9-0.2c0,0,5.9,0.8-3,6.1c-8.9,5.2-40.1,3.4-40.1,3.4S417.4,471.1,418.9,465z"/>
</g>
<g>
	<g>
		<path class="st3" d="M873.9,424.1c0,0-13.9,81.6-9.2,99.6c4.7,18,40.5,33.1,40.5,33.1s-77.4,54.8-106.6,38.2
			c-29.3-16.6-39-24.9-39-24.9s22.9-3,26.3-16.1c3.4-13,1.3-125.9,1.3-125.9L873.9,424.1z"/>
		<path class="st5" d="M719.7,397.2c0,0,4.4,52.4,9.1,70.4c4.7,18,43.7,46.2,53.4,51.2c9.8,5,24.5,1.9,24.5,1.9s46.1-32.2,52.8-45.2
			c6.7-13,17-68.5,17-68.5s12.2-71.8-0.7-89.9c-12.9-18.1-50.1-56.1-94.4-45.1c-44.2,11-58.2,16.6-61,51.7
			C719.2,339.1,719.7,397.2,719.7,397.2z"/>
		<path class="st7" d="M730.1,368.5l34.8,0.3c0,0,3-2,1.1-6c-1.9-4-25.8-7.2-30.8-4.3C730.2,361.5,728.2,366.5,730.1,368.5z"/>
		<path class="st7" d="M850.7,371.1l-39.4-0.4c0,0-3.4-2.3-1.1-6.8c2.3-4.5,29.3-7.6,34.9-4.2C850.8,363.2,853,368.8,850.7,371.1z"
			/>
		<path class="st21" d="M778.1,1592.7c0,0-48.2,73.6-76,80.1c0,0-24.5,21.2-11.4,36s36,14.7,50.7,11.4s63.7-52.3,63.7-52.3l3.3-8.2
			l4.9,8.2l18-13.1l-9.8-67L778.1,1592.7z"/>
		<path class="st28" d="M743.8,570.4c0,0-75.9,187.3-77.6,215.1c-1.7,27.8-6.6,41.6-5,65.9c1.7,24.3,44.6,130.1,44.6,130.1l19.8-33
			L743.8,570.4z"/>
		<path class="st21" d="M917.8,1622.1l1.6,53.9l18,27.8l3.3,1.6c0,0,6.5,63.7,8.2,67c1.6,3.3,1.6,11.4,11.4,19.6
			c9.8,8.2,34.3,19.6,50.7,3.3c16.3-16.3,18-32.7,18-32.7s-45.8-106.2-47.4-116.1c-1.6-9.8-8.2-32.7-8.2-32.7L917.8,1622.1z"/>
		
			<ellipse transform="matrix(9.970012e-03 -1 1 9.970012e-03 353.9597 1141.1329)" class="st22" cx="753.3" cy="391.8" rx="11.4" ry="8.2"/>
		<path class="st22" d="M835,392.6c-0.1,6.3-3.8,11.4-8.3,11.4c-4.5,0-8.1-5.2-8.1-11.5c0.1-6.3,3.8-11.4,8.3-11.4
			C831.4,381.2,835.1,386.3,835,392.6z"/>
		<g>
			<path class="st9" d="M778.6,439.5c-4.3-0.8-9.5-2.1-11.1-5.5c-1.2-2.7,0-6.1,3.7-10.4c6.5-7.4,1.2-45.3-1.3-59.2l3.2-0.4
				c0,0.1,2.3,12.9,3.6,26.7c1.7,18.7,0.8,30.4-2.9,34.6c-3,3.4-4.1,6-3.3,7.8c0.8,1.7,3.5,2.9,8.7,3.8L778.6,439.5z"/>
		</g>
		<path class="st43" d="M760.8,457.3l60.5-1c0,0,6.5,1.7-3.4,13c-9.9,11.3-44.2,7.7-44.2,7.7S759,470.3,760.8,457.3z"/>
		<path class="st2" d="M760.8,456.3l60.5-0.1c0,0,6.5,0.8-3.3,5.5s-44.2,3-44.2,3S759.1,461.8,760.8,456.3z"/>
		<path class="st26" d="M721.9,919.3c0,0-21.9,59-23.2,119.5c-1.2,54.8,61,470.4,72.7,548.2c1.1,7.4,7.1,13,14.5,13.6l19,1.6
			c12.2,1,22.6-8.8,22.2-21l-12.5-430.4l99.8,474.6c0,0,50,21.6,63.7-6.5c6.3-12.9-12.4-581-23.4-631.9
			c-11.1-50.9-51.3-86.1-51.3-86.1L721.9,919.3z"/>
		<path class="st31" d="M768.5,1352.2c-10.8,0-21.3-0.7-31.8-2c14.9,104.5,29.6,202.8,34.7,236.7c1.1,7.4,7.1,13,14.5,13.6l19,1.6
			c12.2,1,22.6-8.8,22.2-21l-6.8-233.6C803.8,1351.3,786.5,1352.9,768.5,1352.2z"/>
		<path class="st31" d="M952.1,1276.2c-23.5,25.3-51.4,43.2-83.5,53.7c-4.8,2.5-9.7,4.8-14.6,6.9l60.7,288.6c0,0,50,21.6,63.7-6.5
			c3.6-7.3-0.9-193.6-7.4-362.6C965.1,1263.2,958.9,1269.9,952.1,1276.2z"/>
		<path class="st44" d="M884,393.1c0,0-17.9-6.7-16.1-24.7c1.8-18-4.3-57.3-9.2-62.2c-4.9-5-101.4,5.5-132.4-5.4l-7.1,57.1
			l-4.3-64.6c0,0-14.7-5.1-3.1-21.3c11.6-16.2,26.6-45.5,70.7-45.1c44.1,0.4,99.7,5.9,119.1,27.3c19.4,21.4,40.7,21.7,40.7,21.7
			l-16.5,17.8c0,0-7.2,65.3-20.5,88.9L884,393.1z"/>
		<path class="st7" d="M901.8,254.3c-19.4-21.4-74.9-26.9-119.1-27.3c-44.1-0.4-59.1,28.8-70.7,45.1c-11.6,16.2,3.1,21.3,3.1,21.3
			l0,0.5c4.2,2,7.9,4.6,11.2,7.7l0.1-0.8c30.9,10.9,127.5,0.5,132.4,5.4c0.1,0.1,0.2,0.3,0.4,0.4c7.9-7.2,18.5-11.6,29.2-11.5
			c15,0.1,27.4,8,34.8,19.5c1.9-12.2,2.8-20.8,2.8-20.8l16.5-17.8C942.4,276,921.2,275.8,901.8,254.3z"/>
		<path class="st25" d="M723.3,925.2c0,0,0,25.1,27.8,39.8c27.8,14.7,68.7,22.9,89.9,18c21.2-4.9,83.4-36,86.6-53.9l-0.5,0.5
			L723.3,925.2z"/>
		
			<rect x="852.4" y="951.9" transform="matrix(0.9747 -0.2234 0.2234 0.9747 -194.4731 215.9941)" class="st26" width="9.8" height="31.1"/>
		
			<rect x="759.3" y="943.8" transform="matrix(0.9124 0.4092 -0.4092 0.9124 459.4865 -228.7183)" class="st26" width="9.8" height="31.1"/>
		
			<rect x="883.5" y="940.5" transform="matrix(0.9022 -0.4314 0.4314 0.9022 -325.5143 476.8077)" class="st26" width="9.8" height="31.1"/>
		
			<rect x="728.2" y="929.1" transform="matrix(0.733 0.6802 -0.6802 0.733 838.2125 -246.4897)" class="st26" width="9.8" height="31.1"/>
		<path class="st7" d="M887.4,380c-7.1-0.1-13.6-1.9-19.2-4.9c2.4,13,15.8,18,15.8,18l21.4-10.4c1.4-2.5,2.8-5.6,4.1-8.9
			C902.8,377.8,895.2,380.1,887.4,380z"/>
		<path class="st21" d="M1040.9,1139.2c0,0-3.9-45.8-9.6-54.2c-4.2-6.1-36,10.8-35.7,10.8c0.3,0-10.1,4.2-7,8.9
			c0.2,0.3,0.4,3.8,0.6,4.1c5.3,6.8,30.5-11.3,32.4-8.2c4.8,8,4.8,38.6,8,43.4C1031.6,1147,1040.9,1139.2,1040.9,1139.2z"/>
		<path class="st5" d="M876.8,379.2c0,0,5.9-17.1,20.5-8.8c14.6,8.3,11.1,32.8,2.9,40.9c-8.3,8.1-23.1,24.3-26.4,22.6
			c-3.3-1.7-6.5-6.6-6.5-6.6L876.8,379.2z"/>
		<path class="st12" d="M772.3,554.7l35.3,42.8l78.1-49.9l100.9,49.2c0,0-42.5,159.8-44.4,192.4c-1.2,20.1-0.2,68,0.7,101.9
			c0.6,22.9-13.6,43.6-35.3,51c-27.2,9.3-64,19.6-89.8,17.5c-21.2-1.7-44.1-7-62.5-12.1c-22.2-6.2-38.2-25.5-40.1-48.5
			c-5-62-13.3-184.9-5.7-228.1c10.4-58.7,36.6-101.5,36.6-101.5L772.3,554.7z"/>
		<path class="st28" d="M942.2,789.3c0.2-3.6,0.9-8.8,2-15.1c-22.9,23.7-49.7,40.6-80.6,50.6c-30.9,16.3-64.3,23.7-100,22.4
			c-18-0.1-35.5-1.8-52.5-5.3c1.4,21.5,2.9,41.4,4.1,57.2c1.8,23,17.8,42.4,40.1,48.5c18.5,5.1,41.4,10.4,62.5,12.1
			c25.8,2.1,62.6-8.1,89.8-17.5c21.6-7.4,35.9-28.1,35.3-51C942,857.3,941,809.4,942.2,789.3z"/>
		<polygon class="st27" points="806.7,597.2 778.9,585.8 757.6,597.2 778.9,564.5 		"/>
		<path class="st5" d="M968.5,1033l-20.9,33.8c0,0-19.3,22.5-16.1,38.6c3.2,16.1,11.3,11.3,11.3,11.3v40.2c0,0,11.3,12.9,16.1,4.8
			c4.8-8,43.4-11.3,51.5-27.3s-9.7-61.1-9.7-61.1l3.2-19.3L968.5,1033z"/>
		<polygon class="st12" points="813.3,601.6 818.5,573.9 877.9,517.3 903.6,556.8 849.1,615.1 		"/>
		<path class="st12" d="M787.8,530.3l-15.5,13c-6.7,14.6-14.7,53.9-14.7,53.9l19.6-24.5l26.3,23.1
			C803.5,595.8,777.7,563.7,787.8,530.3z"/>
		<path class="st12" d="M986.5,597.2c0,0,83.4,181.4,88.3,222.3c4.9,40.9-69.3,248.9-69.3,248.9s-44.1-6.5-45.8-29.4l36.6-227.7
			L944,729.6C944,729.6,926,620.1,986.5,597.2z"/>
		<polygon class="st27" points="852.4,600.5 818.1,574.3 808.3,597.2 826.3,590.7 		"/>
		<rect x="845.9" y="659.3" class="st28" width="70.3" height="9.8"/>
		<g>
			<path class="st28" d="M816.6,989.6l-33.5-3.6c-3.1-0.3-5.4-3.1-5-6.2l1.8-16.4c0.3-3.1,3.1-5.4,6.2-5l33.5,3.6
				c3.1,0.3,5.4,3.1,5,6.2l-1.8,16.4C822.5,987.7,819.7,990,816.6,989.6z"/>
			<path class="st25" d="M815.1,986.8l-29.9-3.2c-2.6-0.3-4.6-2.7-4.3-5.3l1.4-13.1c0.3-2.6,2.7-4.6,5.3-4.3l29.9,3.2
				c2.6,0.3,4.6,2.7,4.3,5.3l-1.4,13.1C820.1,985.2,817.7,987.1,815.1,986.8z"/>
		</g>
		<g>
			<path class="st29" d="M774.6,1601.5c-8.4,6.5-19,9.3-27.7,15.4c-4,2.8-16.1,12.1-11.6,18.1c1.7,2.3,4.1,1.1,6.4,0.3
				c4.4-1.5,8.7-3.3,12.6-5.8c3.5-2.2,6.8-5,9.3-8.4c3.3-4.5,5-9.9,9.3-13.7c-0.8-0.5-1.7-1-2.5-1.5c-1.7,6.7-1.9,13.5-0.3,20.3
				c0.7,3.1,3,13.1,7.5,13c4.9-0.1,4.3-9.9,4.4-12.8c0.3-8.5-1.1-16.9-3.7-25c-0.6-1.8-3.5-1-2.9,0.8c1.7,5.2,2.9,10.4,3.3,15.8
				c0.2,2.4,1.4,16-1,16.9c-0.4,0.9-0.8,0.9-1-0.1c-0.3-0.5-0.5-1-0.8-1.5c-0.7-1.4-1.2-2.7-1.8-4.2c-0.8-2.3-1.4-4.6-1.7-7
				c-0.8-5.3-0.5-10.5,0.8-15.6c0.4-1.5-1.4-2.4-2.5-1.5c-5.4,4.8-7.2,12.2-12.4,17.3c-2.7,2.7-6,4.8-9.4,6.5
				c-2.1,1.1-4.3,2-6.6,2.8c-0.9,0.3-1.9,0.7-2.9,1c-1.5,1-2,0.5-1.3-1.2c-0.5-3.8,5.2-8.1,8-10.3c3-2.4,6.2-4.4,9.6-6.2
				c6.8-3.7,14.3-6.2,20.5-11C777.6,1602.9,776.1,1600.3,774.6,1601.5L774.6,1601.5z"/>
		</g>
		<g>
			<path class="st29" d="M958,1634.9c-1.9,14.2-9.6,27-12,41.2c-1,5.8-3.7,25.5,5.7,27c3.7,0.6,5.1-4.3,6.4-6.9
				c2.6-5.4,4.9-11,6.1-16.8c1.1-5.3,1.5-10.8,0.7-16.2c-1.1-7.3-4.6-14.1-4-21.6c-0.9,0.3-1.9,0.5-2.8,0.8
				c4.4,7.6,10.4,14,17.8,18.8c3.4,2.2,16.5,10.6,20,5.7c3.7-5-7.3-14.5-10.2-17.4c-7.3-7.4-15.7-13.4-24.9-18.1
				c-1.7-0.9-3.2,1.7-1.5,2.6c6.8,3.5,13.1,7.6,18.9,12.6c2.7,2.3,5.3,4.8,7.7,7.5c1.6,1.8,7,6.4,7.2,8.9c0.3,4.4-7.3,0.1-9.1-0.7
				c-3.1-1.5-6.2-3.3-9-5.3c-5.8-4.3-10.6-9.8-14.2-16c-0.8-1.3-2.7-0.7-2.8,0.8c-0.7,9.9,4.8,18.9,4.5,28.9
				c-0.2,5.4-1.4,10.6-3.2,15.7c-0.9,2.6-2,5.2-3.3,7.8c-1.3,2.7-3.1,9.3-6.5,2.6c-2.1-4.1-1.4-10.9-1-15.4c0.6-5.8,2-11.5,3.8-17.1
				c3.1-9.7,7.6-19,8.9-29.1C961.2,1632.9,958.2,1633,958,1634.9L958,1634.9z"/>
		</g>
		<g>
			<path class="st21" d="M841.4,1235.7l247.7-128.7c0,0,12.9-1.6,12.9,3.2s22.5,193,22.5,193l-246.1,162.5c0,0-35.4,3.2-32.2-1.6
				c3.2-4.8-8-225.2-8-225.2L841.4,1235.7z"/>
			<path class="st45" d="M878.4,1465.7c0,0-35.4,3.2-32.2-1.6c1.9-2.9-6.1-158.1-7.6-223.2c-0.1-6.2,8.9-6.9,9.8-0.9L878.4,1465.7z"
				/>
			<g>
				<path class="st45" d="M1007.1,1307.3c-11.2,0-150.2-14.7-156.1-15.3l0.2-1.6c1.4,0.2,144.9,15.3,156,15.3
					c9.8,0,17.2-5.1,22.1-8.4c0.6-0.4,1.1-0.8,1.6-1.1c3.5-2.5,47-83.4,75.3-137.3l1.4,0.8c-7.3,13.8-71,134.6-75.9,137.8
					c-0.5,0.3-1,0.7-1.6,1.1C1025,1302,1017.4,1307.3,1007.1,1307.3z"/>
			</g>
			<circle class="st46" cx="1013.9" cy="1283.5" r="10.9"/>
		</g>
		<path class="st21" d="M929.9,1208.3c0,0-16.1-59.5-12.9-69.2c2.3-7,19.2-19.2,28.2-25.3c4.6-3.1,10.9,1.3,9.2,6.6
			c-0.1,0.3-0.2,0.6-0.4,1c-3.2,8-20.9,17.7-22.5,24.1c-1.6,6.4,11.3,48.3,11.3,54.7S929.9,1208.3,929.9,1208.3z"/>
		<g>
			<g class="st33">
				<defs>
					
						<ellipse id="SVGID_5_" transform="matrix(0.7071 -0.7071 0.7071 0.7071 -59.8253 646.0278)" class="st33" cx="749.9" cy="395.2" rx="26.9" ry="26.9"/>
				</defs>
				<clipPath id="SVGID_6_">
					<use xlink:href="#SVGID_5_"  style="overflow:visible;"/>
				</clipPath>
				
					<ellipse transform="matrix(0.7071 -0.7071 0.7071 0.7071 -59.8253 646.0278)" class="st47" cx="749.9" cy="395.2" rx="26.9" ry="26.9"/>
				
					<rect x="696.3" y="382.3" transform="matrix(0.6026 -0.7981 0.7981 0.6026 -16.0371 741.1826)" class="st47" width="79.7" height="8.8"/>
				
					<rect x="706.8" y="391.9" transform="matrix(0.6026 -0.7981 0.7981 0.6026 -18.5483 752.9076)" class="st47" width="79.7" height="6.3"/>
			</g>
			<g class="st33">
				<defs>
					
						<ellipse id="SVGID_7_" transform="matrix(0.7071 -0.7071 0.7071 0.7071 -39.0061 693.0394)" class="st33" cx="817.1" cy="393.6" rx="26.9" ry="26.9"/>
				</defs>
				<clipPath id="SVGID_8_">
					<use xlink:href="#SVGID_7_"  style="overflow:visible;"/>
				</clipPath>
				
					<ellipse transform="matrix(0.7071 -0.7071 0.7071 0.7071 -39.0061 693.0394)" class="st48" cx="817.1" cy="393.6" rx="26.9" ry="26.9"/>
				
					<rect x="763.5" y="380.7" transform="matrix(0.6026 -0.7981 0.7981 0.6026 11.9495 794.1316)" class="st48" width="79.7" height="8.8"/>
				
					<rect x="774" y="390.3" transform="matrix(0.6026 -0.7981 0.7981 0.6026 9.4389 805.8578)" class="st48" width="79.7" height="6.3"/>
			</g>
			
				<ellipse transform="matrix(0.7071 -0.7071 0.7071 0.7071 -59.976 645.9696)" class="st36" cx="749.8" cy="395.4" rx="27.2" ry="27.2"/>
			
				<rect x="777.2" y="388.6" transform="matrix(0.9997 -2.419502e-02 2.419502e-02 0.9997 -9.3244 19.0724)" class="st37" width="12.5" height="12.5"/>
			<path class="st37" d="M843.7,383.1l12.5-0.3l0.2,8.1c0,0-8,2.9-10.6,8.3L843.7,383.1z"/>
			<path class="st37" d="M723.7,386l-9.8,0.2l0.2,8.1c0,0,6.4,2.5,8.6,7.9L723.7,386z"/>
			<polygon class="st23" points="856.2,382.8 877.6,376.3 875.9,382.3 856.4,390.9 			"/>
			
				<ellipse transform="matrix(0.7071 -0.7071 0.7071 0.7071 -38.2987 693.226)" class="st36" cx="817.6" cy="392.8" rx="27.2" ry="27.2"/>
		</g>
	</g>
</g>
</svg>
