<?xml version="1.0" encoding="utf-8"?>
<!-- Generator: Adobe Illustrator 23.0.0, SVG Export Plug-In . SVG Version: 6.00 Build 0)  -->
<svg version="1.1" id="content_1_" xmlns="http://www.w3.org/2000/svg" xmlns:xlink="http://www.w3.org/1999/xlink" x="0px" y="0px"
	 viewBox="0 0 612 330" style="enable-background:new 0 0 612 330;" xml:space="preserve">
<style type="text/css">
	.st0{fill:#FFBE2E;}
	.st1{fill:#FFEECC;}
	.st2{fill:#16110D;}
</style>
<rect id="background" class="st0" width="612" height="330"/>
<g id="_x31_5">
	<g id="XMLID_1183_">
		<path id="XMLID_1190_" class="st1" d="M172.4,100.1c3.7,1.9,7.9,2.3,11.9,1c2.7-0.9,5.1-2.5,7-4.6c1.2,1.1,2.6,2.1,4.1,2.8
			c1.6,0.8,3.3,1.4,5,1.7c0.4,1.2,1,2.4,1.7,3.5c0,0-0.1,0.1-0.1,0.1c-0.8,0.8-1.6,1.7-2.1,2.8c-2.6,5-0.6,11.2,4.5,13.7
			c2.4,1.3,5.2,1.5,7.8,0.6c2.6-0.8,4.7-2.6,5.9-5c0.8-1.6,1.2-3.4,1.1-5.1c1,1.1,2.2,2.1,3.7,2.9c0.3,0.1,0.6,0.3,0.8,0.4
			c-0.3,0.2-0.6,0.4-0.8,0.7c-0.8,0.8-1.5,1.7-2,2.7c-2.4,4.8-0.5,10.7,4.3,13.1c2.3,1.2,5,1.4,7.5,0.6c2.5-0.8,4.5-2.5,5.7-4.8
			c1-1.9,1.2-3.9,0.9-5.8c1.3,0.3,2.6,0.3,3.9-0.1c1.8-0.6,3.3-1.8,4.1-3.5c1.8-3.5,0.4-7.8-3.1-9.6c-1.1-0.6-2.2-0.8-3.4-0.8
			c1.4-4,0.6-8.4-1.9-11.7c0.2-0.3,0.3-0.5,0.5-0.8c2.2-4.2,0.5-9.4-3.8-11.6c-2.1-1.1-4.4-1.2-6.6-0.5c-1.2,0.4-2.3,1-3.2,1.9
			c-0.7,0.7-1.3,1.5-1.8,2.4c-0.1,0.2-0.2,0.4-0.3,0.6c-0.4-0.4-0.7-0.8-1.2-1.1c0.3-1.4,0.4-2.8,0.4-4.2c1.4,0.1,2.8,0,4.1-0.4
			c2.5-0.8,4.6-2.6,5.8-5c2.2-4.4,0.9-9.7-2.9-12.6c0.2-0.4,0.5-0.8,0.7-1.2c4.1-8.1,0.9-18.1-7.2-22.2c-3.9-2-8.4-2.4-12.6-1
			c-2.3,0.8-4.4,2-6.2,3.6c-1.4,1.3-2.5,2.8-3.4,4.5c0,0.1-0.1,0.2-0.1,0.2c-1.6-1.9-3.5-3.5-5.8-4.6c-4.6-2.3-9.8-2.8-14.6-1.2
			c-2.7,0.9-5.1,2.3-7.2,4.2c-1.6,1.5-2.9,3.2-3.9,5.2c-3.5,7-2.4,15.1,2.3,20.8c-1,0.6-2,1.3-2.8,2.1c-1.3,1.2-2.4,2.6-3.2,4.3
			C161.7,86.8,164.7,96.2,172.4,100.1z"/>
		<path id="XMLID_1189_" class="st0" d="M208.9,88.7c5,5.3,13.3,5.6,18.7,0.6c2-1.9,3.3-4.3,3.9-6.8c-0.9,0-1.9,0.1-2.8,0.4
			c-1.2,0.4-2.3,1-3.2,1.9c-0.7,0.7-1.3,1.5-1.8,2.4c-0.1,0.2-0.2,0.4-0.3,0.6c-0.4-0.4-0.7-0.8-1.2-1.1c0.3-1.4,0.4-2.8,0.4-4.2
			c1.4,0.1,2.8,0,4.1-0.4c2-0.6,3.7-1.9,4.9-3.5c-0.2-2.8-1.4-5.6-3.5-7.9c-5-5.3-13.3-5.6-18.7-0.6C204.2,75,203.9,83.4,208.9,88.7
			z"/>
		<path id="XMLID_1188_" class="st0" d="M213.5,117c0.8,0.9,1.8,1.6,2.9,2.1c0.6-0.7,1.1-1.4,1.5-2.2c0.8-1.6,1.2-3.4,1.1-5.1
			c1,1.1,2.2,2.1,3.7,2.9c0.3,0.1,0.6,0.3,0.8,0.4c-0.3,0.2-0.6,0.4-0.8,0.7c-0.8,0.8-1.5,1.7-2,2.7c-0.2,0.5-0.4,1-0.6,1.5
			c2.3,0,4.5-0.8,6.3-2.5c3.7-3.4,3.9-9.2,0.4-12.9c-3.4-3.7-9.2-3.9-12.9-0.4C210.3,107.6,210.1,113.3,213.5,117z"/>
		<path id="XMLID_1187_" class="st0" d="M195.7,85.3c6.8-6.4,7.1-17,0.8-23.8c-6.4-6.8-17-7.1-23.8-0.8c-2,1.8-3.4,4-4.3,6.4
			c0.7,2.1,1.8,4,3.2,5.7c-1,0.6-2,1.3-2.8,2.1c-0.4,0.4-0.8,0.8-1.1,1.2c0.6,3,2,6,4.2,8.4C178.3,91.3,188.9,91.7,195.7,85.3z"/>
		<path id="XMLID_1184_" class="st2" d="M172.9,46.3c2.1-2,4.6-3.4,7.4-4.3c5-1.6,10.4-1.2,15.1,1.2c2.1,1.1,3.9,2.4,5.4,4.1
			c0.9-1.5,1.9-2.9,3.2-4.1c0,0,0,0,0,0c1.8-1.7,4-3,6.4-3.8c4.4-1.4,9-1,13.1,1.1c8.4,4.3,11.7,14.7,7.5,23
			c-0.1,0.3-0.3,0.5-0.4,0.7c3.8,3.2,4.9,8.6,2.6,13c-1.3,2.5-3.5,4.4-6.2,5.3c-1.2,0.4-2.5,0.6-3.7,0.5c0,1.1-0.1,2.3-0.4,3.4
			c0.1,0.1,0.2,0.2,0.3,0.3c1.1-2.1,3-3.7,5.3-4.4c2.3-0.8,4.8-0.5,7,0.6c4.5,2.3,6.3,7.9,4,12.4c-0.1,0.2-0.2,0.3-0.3,0.5
			c2.3,3.2,3,7.3,2,11.1c1,0.1,2,0.4,2.9,0.8c3.8,2,5.3,6.6,3.4,10.4c-0.9,1.8-2.5,3.2-4.5,3.8c-1.1,0.4-2.2,0.5-3.4,0.3
			c0.1,1.9-0.2,3.7-1.1,5.4c-1.3,2.5-3.4,4.3-6,5.1c-2.6,0.8-5.4,0.6-7.9-0.7c-5.1-2.6-7.1-8.9-4.5-13.9c0.6-1.1,1.3-2.1,2.3-3
			c-1-0.5-2-1.2-2.8-2c-0.1,1.4-0.5,2.7-1.1,3.9c-1.3,2.6-3.5,4.5-6.3,5.3c-2.7,0.9-5.7,0.6-8.3-0.7c-5.3-2.7-7.4-9.3-4.7-14.5
			c0.5-1,1.2-1.9,2-2.7c-0.6-0.9-1-1.9-1.4-2.9c-1.7-0.4-3.3-0.9-4.8-1.7c-1.3-0.7-2.6-1.5-3.8-2.5c-1.9,2-4.2,3.5-6.8,4.4
			c-4.1,1.3-8.5,1-12.3-1l0,0c-7.9-4.1-11.1-13.8-7-21.7c1.3-2.6,3.2-4.7,5.7-6.2c-4.6-6-5.4-14.2-1.9-20.9
			C169.9,49.7,171.2,47.9,172.9,46.3z M201.1,49.5l-0.6-0.7c-1.6-1.9-3.5-3.4-5.7-4.5c-4.4-2.3-9.4-2.7-14.2-1.2
			c-4.7,1.5-8.5,4.8-10.7,9.1c-3.3,6.5-2.5,14.4,2.2,20.2l0.4,0.5l-0.6,0.4c-2.6,1.5-4.5,3.6-5.8,6.1c-3.7,7.3-0.8,16.3,6.5,20.1
			l0,0c3.6,1.8,7.6,2.2,11.4,0.9c2.6-0.8,4.9-2.4,6.7-4.4l0.4-0.5l0.5,0.4c1.2,1.1,2.5,2,3.9,2.7c1.5,0.8,3.2,1.4,4.9,1.7l0.4,0.1
			l0.1,0.3c0.4,1.2,0.9,2.3,1.6,3.4l0.3,0.4l-0.5,0.4c-0.8,0.8-1.5,1.7-2,2.7c-2.4,4.7-0.5,10.5,4.2,12.9c2.3,1.2,4.9,1.4,7.3,0.6
			c2.4-0.8,4.4-2.5,5.6-4.7c0.7-1.5,1.1-3.1,1-4.8l-0.1-1.7l1.1,1.3c1,1.1,2.2,2,3.5,2.7c0.3,0.1,0.5,0.2,0.8,0.4l1,0.4l-0.8,0.6
			c-1.2,0.9-2,1.9-2.7,3.2c-2.3,4.5-0.5,10,4,12.3c2.2,1.1,4.7,1.3,7,0.6c2.3-0.7,4.2-2.3,5.3-4.5c0.9-1.7,1.2-3.6,0.9-5.5l-0.1-0.9
			l0.9,0.2c1.2,0.3,2.4,0.2,3.5-0.1c1.7-0.5,3-1.7,3.8-3.2c1.6-3.2,0.4-7.1-2.8-8.8c-1-0.5-2.1-0.8-3.1-0.7l-0.9,0l0.3-0.8
			c1.3-3.8,0.6-7.9-1.8-11.1l-0.3-0.3l0.2-0.4c0.2-0.2,0.3-0.5,0.4-0.7c2-3.9,0.4-8.7-3.5-10.8c-1.9-1-4.1-1.2-6.1-0.5
			c-2,0.7-3.7,2.1-4.6,3.9c-0.1,0.2-0.2,0.4-0.3,0.6l-0.4,0.9l-0.6-0.7c-0.4-0.4-0.7-0.7-1.1-1.1l-0.3-0.2l0.1-0.4
			c0.3-1.3,0.4-2.7,0.4-4.1l0-0.7l0.7,0.1c1.3,0.1,2.6,0,3.9-0.4c2.4-0.8,4.3-2.4,5.5-4.7c2.1-4.1,0.9-9-2.7-11.8l-0.4-0.3l0.3-0.5
			c0.2-0.4,0.4-0.7,0.6-1.1c4-7.8,0.9-17.4-6.9-21.4c-3.8-2-8.1-2.3-12.2-1c-2.2,0.7-4.2,1.9-5.9,3.5c0,0,0,0,0,0
			c-1.3,1.2-2.4,2.7-3.3,4.4L201.1,49.5z"/>
		<g id="XMLID_1816_">
			<path id="XMLID_1858_" class="st1" d="M200,84.5c-8.2,0-14.9-6.7-14.9-14.9c0-8.2,6.7-14.9,14.9-14.9c8.2,0,14.9,6.7,14.9,14.9
				C214.8,77.8,208.2,84.5,200,84.5z M200,55.9c-7.5,0-13.6,6.1-13.6,13.6c0,7.5,6.1,13.6,13.6,13.6c7.5,0,13.6-6.1,13.6-13.6
				C213.6,62,207.5,55.9,200,55.9z"/>
		</g>
	</g>
	<g id="XMLID_1191_">
		
			<ellipse id="XMLID_1196_" transform="matrix(0.9247 -0.3807 0.3807 0.9247 -2.514 98.7476)" class="st1" cx="248.4" cy="55.7" rx="8.5" ry="8.5"/>
		<path id="XMLID_1195_" class="st0" d="M244.7,63.5c1.2,0.7,2.6,1.1,4.1,1.1c4.4,0,8.1-3.4,8.5-7.7c-1.2-0.7-2.6-1.1-4.1-1.1
			C248.7,55.8,245.1,59.2,244.7,63.5z"/>
		<path id="XMLID_1192_" class="st2" d="M248.4,64.9c-5,0-9.1-4.1-9.1-9.1c0-5,4.1-9.1,9.1-9.1c5,0,9.1,4.1,9.1,9.1
			C257.5,60.8,253.4,64.9,248.4,64.9z M248.4,47.9c-4.3,0-7.9,3.5-7.9,7.9c0,4.3,3.5,7.9,7.9,7.9c4.3,0,7.9-3.5,7.9-7.9
			C256.2,51.4,252.7,47.9,248.4,47.9z"/>
	</g>
	<g id="XMLID_1736_">
		
			<ellipse id="XMLID_1739_" transform="matrix(0.9872 -0.1597 0.1597 0.9872 -13.9688 33.5114)" class="st2" cx="201.5" cy="103.7" rx="9.8" ry="9.8"/>
		<path id="XMLID_1737_" class="st0" d="M203.7,96.5c0,5.1-4.2,9.3-9.3,9.3c-0.4,0-0.8,0-1.2-0.1c0,0.4,0.1,0.7,0.1,1.1
			c0.3,0,0.7,0.1,1.1,0.1c5.7,0,10.4-4.7,10.4-10.4c0-0.4,0-0.8-0.1-1.1c-0.4-0.1-0.7-0.1-1.1-0.1C203.7,95.7,203.7,96.1,203.7,96.5
			z"/>
	</g>
</g>
<g id="_x31_4">
	<g id="XMLID_3311_">
		<polygon id="XMLID_3332_" class="st0" points="90.5,278.3 76.8,270.4 76.8,254.6 90.5,262.5 		"/>
		<polygon id="XMLID_3331_" class="st0" points="104.2,254.6 90.5,262.5 76.8,254.6 90.5,246.7 		"/>
		<polygon id="XMLID_3329_" class="st1" points="104.2,257.8 90.5,266 76.8,258.1 90.5,249.9 		"/>
		<path id="XMLID_3312_" class="st2" d="M90.5,246.2l-13.7,7.9l-0.4,0.2v16.3l13.7,7.9l0,0l0.4,0.2l0.4-0.2l0,0l13.7-7.9v-15.8v-0.5
			L90.5,246.2z M90.5,247.2l12.9,7.4l-6.5,3.7l-6.4,3.7l-2-1.2l-10.9-6.3L90.5,247.2z M77.2,270.2v-14.9l12.9,7.4v14.9L77.2,270.2z"
			/>
	</g>
</g>
<g id="_x31_3">
	<polygon id="XMLID_270_" class="st0" points="45.1,224.8 65.7,236.8 65.7,250.6 45.1,238.6 	"/>
	<path id="XMLID_266_" class="st0" d="M88.4,218.5l-11.2-2.8l0,0l-10.7-2.6c0,1.3-0.5,2.5-1.4,3.9c-0.9,1.3-2.4,2.6-4.4,3.7
		c-2.3,1.3-4.8,2.4-7.6,3.1c-2.8,0.7-5.4,1.1-8,1.1l15,8.7l0,0l5.6,3.3l12.7,3.4l12.7-13L88.4,218.5z"/>
	<path id="XMLID_267_" class="st2" d="M78.6,241l-13.3-3.6l-20.9-12.2v-1c2.5,0,5.8-0.4,8.5-1.1c2.7-0.7,5.2-1.8,7.4-3
		c1.9-1.1,3.3-2.3,4.2-3.5c0.8-1.2,1.3-2.4,1.3-3.5v-0.9l23.1,5.7l3,9.6L78.6,241z M66,236.2l12.2,3.3l12.2-12.4l-2.5-8L67.1,214
		c-0.2,1.1-0.7,2.3-1.5,3.4c-1,1.4-2.5,2.7-4.6,3.9c-2.3,1.4-5,2.4-7.8,3.2c-2,0.5-3.9,0.9-5.7,1L66,236.2z"/>
	<path id="XMLID_262_" class="st0" d="M100.5,179.3l-20.6-12c-5.3,0.3-10.6,2-15.7,5c-5.8,3.4-10.4,7.5-13.7,12.3
		c-3.3,4.9-5,10-5,15.2c0,2.8,0.4,5,1.2,6.7c0.4,0.9,0.8,1.4,1.5,2c0,0,0.2,0.3,0.2,0.3l21.8,12.8l0.1-0.1l4-6.3
		c2-2.6,0.2-3.1,1.4-5.9c1.6-3.7-1.6-3.5-1.6-7.1c0-2,5.7-1.9,5.2-3.3l3.9-9.7L100.5,179.3z"/>
	<path id="XMLID_121_" class="st0" d="M96.6,206.8l-17.7-10.5l-1,10.1L96.6,206.8C96.6,206.9,96.7,206.8,96.6,206.8z"/>
	<path id="XMLID_255_" class="st1" d="M51.3,188L76,202.6l4.3-3.5l2.7-6.8l16.3-10.4l-19.5-11.4c-5.3,0.3-10.6,2-15.7,5
		C58.3,178.8,54.6,183.2,51.3,188z"/>
	<path id="XMLID_256_" class="st1" d="M69.1,238.9l2.3,0.6l13.9-2.6l-22.9-13.3c-1.8,0.9-3.8,1.7-5.9,2.2c-2.8,0.7-5.4,1.1-8,1.1
		l15,8.7L69.1,238.9z"/>
	<path id="XMLID_171_" class="st2" d="M96.8,206.1l-13.3-7.9c0.4-0.3,0.8-0.5,1.2-0.8c3.3-1.9,7.2-2.9,11.7-3.2l0.5,0l4.2-14.5l0,0
		l0.2-0.8l-0.6-0.4l0,0l-20.6-12l-0.2,0c-5.4,0.3-10.8,2-16,5.1c-5.9,3.4-10.6,7.6-13.9,12.6c-3.4,5-5.1,10.2-5.1,15.6
		c0,2.9,0.4,5.3,1.2,7c0.4,0.9,0.8,1.5,1.6,2.2c0.1,0.1,0.1,0.1,0.2,0.2l21.4,12.6c0,0,0,0,0.1,0l0,0l1.2,0.6c0,0,0,0,0,0
		c1.7,0.7,4.2,1,7.6,0.8c4.4-0.3,5.9-0.2,6.5-0.1c0.7,0.1,1.2,0.3,1.4,0.6c0.2,0.2,0.4,0.7,0.4,1.2c0,1.1-0.4,2.3-1.3,3.5
		c-0.9,1.2-2.3,2.4-4.2,3.5c-2.2,1.3-4.7,2.3-7.4,3c-2.6,0.7-5.2,1-7.6,1l-19.9-11.6c-0.4-0.2-0.8-0.2-1.2,0l-0.5,0.3V239L65,251
		l0,0l0.5,0.3l0.9,0l0,0c2.2-0.1,4.4-0.5,6.5-1.2c2.3-0.8,5.1-2.1,8.4-4.1c4-2.3,7.5-5.1,10.5-8.4c3-3.3,5.3-6.8,6.9-10.5
		c1.6-3.7,2.4-7.5,2.4-11.1c0-4-0.9-7-2.7-8.7C98,206.8,97.5,206.5,96.8,206.1z M65,249.4l-19.2-11.2V226L65,237.2V249.4z M48.6,208
		c-0.6-0.5-0.9-0.9-1.3-1.8c-0.7-1.5-1.1-3.7-1.1-6.4c0-5.1,1.6-10.1,4.9-14.8c3.3-4.8,7.8-8.9,13.5-12.1c5-2.9,10.1-4.5,15.2-4.9
		l18.6,10.8c-4.7,0.6-9.4,2.2-13.9,4.8c-5.9,3.4-10.6,7.6-13.9,12.6c-3.4,5-5.1,10.2-5.1,15.6c0,2.8,0.4,5.1,1.2,6.8L49,208.3
		L48.6,208z M89.1,205.1c-5.4,0.3-7.3,0.1-8-0.1c-0.7-0.2-1-0.7-1-1.5c0-0.9,0.4-1.9,1.1-2.9c0.3-0.5,0.7-0.9,1.2-1.4l10,5.9
		C91.3,205,90.2,205,89.1,205.1z"/>
</g>
<g id="_x31_2">
	<g id="XMLID_17_">
		<polygon id="XMLID_281_" class="st0" points="97.4,115.6 97.4,139.1 108.4,145.4 108.4,121.9 		"/>
		<polygon id="XMLID_273_" class="st0" points="159.1,137.3 159.1,160.8 120.5,138.4 120.5,115 		"/>
		<path id="XMLID_114_" class="st0" d="M172.6,129.5l-13.4,7.7L120.5,115l-12.1,7l-11-6.3L135,93.9l11,6.3l-12.1,7L172.6,129.5z"/>
		<path id="XMLID_176_" class="st1" d="M172.6,132.9l-13.4,7.7l-38.7-22.3l-12.1,7l-11-6.3L135,97.3l11,6.3l-12.1,7L172.6,132.9z"/>
		<path id="XMLID_254_" class="st2" d="M173.2,129.9L173.2,129.9v-0.8l-0.7-0.4l0,0l-25.9-15v-13.2l0,0v-0.8l-0.7-0.4l0,0l-11-6.3
			l-37.6,21.7l0,0l-0.7,0.4v0.8l0,0v23.5l11,6.3l0,0l0.7,0.4l0.7-0.4l0,0l11.4-6.6l38,21.9l0,0l0.7,0.4l0.7-0.4l0,0l13.4-7.7V129.9z
			 M135,94.7l9.6,5.5l-12.1,7l0.9,0.5l13.2,7.6l0,0l24.5,14.2l-12,6.9l-38-21.9l0,0l-0.7-0.4l-0.7,0.4l0,0l-5.4,3.1l-6.1,3.5
			l-9.6-5.5L135,94.7z M98.1,138.7v-21.9l9.6,5.5v21.9L98.1,138.7z M121.2,138v-21.9l37.3,21.5v21.9L121.2,138z"/>
	</g>
	<g id="XMLID_692_">
		<polygon id="XMLID_6664_" class="st0" points="126.7,158.3 148.7,145.4 170.4,158.3 149.2,170.9 		"/>
		<polygon id="XMLID_6663_" class="st1" points="126.7,160.2 148.7,147.3 170.4,160.2 149.2,172.8 		"/>
		<polygon id="XMLID_6662_" class="st0" points="126.7,168.3 126.7,158.3 149.2,170.9 148.8,181.1 		"/>
		<path id="XMLID_6661_" class="st0" d="M150.1,155.5c1.8,0.2,2.5,1,2.5,2c0,0.1,0,0,0,0.1l5.3,2.6c0.5-0.8,0.8-1.6,0.8-2.5
			c0-3.3-4.1-5.9-9.2-6.2L150.1,155.5z"/>
		<path id="XMLID_6658_" class="st2" d="M158.2,160.7l-6.3-2.8l0.1-0.4c0-0.3,0-1.2-1.9-1.5l-0.4,0L149,151l0.5,0
			c5.6,0.3,9.8,3.2,9.8,6.8c0,1-0.3,1.9-0.9,2.8L158.2,160.7z M153.1,157.3l4.5,2.2c0.3-0.6,0.5-1.1,0.5-1.7c0-2.8-3.4-5.1-7.9-5.6
			l0.4,2.8C152.6,155.3,153.1,156.5,153.1,157.3z"/>
		<path id="XMLID_6657_" class="st0" d="M151,159.3c-0.7,0.4-0.4-0.9-1.5-0.9c-1,0-2.3,1.3-3,0.9l-5.5,2.4c1.8,1.4,4.6,2.3,7.8,2.3
			c3.4,0,6.3-1,8.1-2.6L151,159.3z"/>
		<path id="XMLID_6654_" class="st2" d="M148.7,164.5c-3.2,0-6.1-0.9-8.1-2.5l-0.6-0.5l6.5-3l0.2,0.1c0.2,0,0.7-0.2,1-0.4
			c0.5-0.3,1.2-0.6,1.8-0.6c0.9,0,1.2,0.6,1.4,0.9l0,0l0.3,0.1l6.6,2.6l-0.5,0.5C155.3,163.5,152.1,164.5,148.7,164.5z M142.2,161.7
			c1.8,1.1,4.1,1.6,6.6,1.6c2.7,0,5.2-0.7,6.9-1.9l-4.6-1.6c-0.2,0-0.3,0.1-0.5,0c-0.4-0.1-0.5-0.4-0.7-0.6
			c-0.2-0.3-0.2-0.4-0.4-0.4c-0.3,0-0.8,0.3-1.2,0.5c-0.6,0.3-1.2,0.6-1.8,0.5L142.2,161.7z"/>
		<path id="XMLID_6653_" class="st0" d="M144.9,157.5C144.8,157.4,144.9,157.7,144.9,157.5c0-1.1,0.7-2.3,2.5-2.5l0.6-3.5
			c-5.1,0.2-9.2,2.9-9.2,6.2c0,1,0.4,2,1.1,2.8L144.9,157.5z"/>
		<path id="XMLID_6650_" class="st2" d="M139.6,161.1l-0.2-0.2c-0.8-1-1.2-2.1-1.2-3.2c0-3.6,4.2-6.5,9.8-6.8l0.5,0l-0.5,4.6l-0.4,0
			c-1.4,0.2-1.9,1-2,1.8l0.1,0.3l-0.1,0.1v0.2l-0.5,0.1L139.6,161.1z M147.3,152.2c-4.5,0.4-7.9,2.8-7.9,5.6c0,0.7,0.2,1.4,0.7,2
			l4.2-2.5l0.1-0.2l0,0c0.2-1.1,1-2.2,2.5-2.5L147.3,152.2z"/>
		<path id="XMLID_6649_" class="st0" d="M152.6,157.5c0,1.2-1.7,2.2-3.8,2.2c-2.1,0-3.8-1-3.8-2.2c0-0.9,1-3.1,2.3-3.5
			c0.5-0.1,0.9,1.3,1.5,1.3c0.6,0,1-1.5,1.5-1.3C151.5,154.4,152.6,156.7,152.6,157.5z"/>
		<path id="XMLID_6646_" class="st2" d="M148.8,160.3c-2.5,0-4.4-1.2-4.4-2.8c0-1,1.1-3.6,2.8-4.1c0.6-0.2,1,0.4,1.3,0.8
			c0.1,0.1,0.2,0.3,0.3,0.4c0.1-0.1,0.2-0.3,0.3-0.4c0.3-0.4,0.7-1,1.3-0.8c1.6,0.4,2.8,3,2.8,4.1
			C153.2,159.1,151.2,160.3,148.8,160.3z M147.3,154.7c-0.9,0.4-1.7,2.2-1.7,2.9c0,0.7,1.3,1.6,3.3,1.6c1.9,0,3.3-0.8,3.3-1.6
			c0-0.6-0.8-2.5-1.8-2.9c-0.1,0.1-0.2,0.2-0.2,0.3c-0.3,0.4-0.7,1-1.3,1c-0.6,0-1-0.5-1.3-1C147.4,154.9,147.3,154.7,147.3,154.7z"
			/>
		<path id="XMLID_6645_" class="st0" d="M151.4,155.3c0,0.8-1.2,1.5-2.7,1.5c-1.5,0-2.7-0.7-2.7-1.5c0-0.8,1.2-1.5,2.7-1.5
			C150.2,153.8,151.4,154.4,151.4,155.3z"/>
		<path id="XMLID_6636_" class="st1" d="M151.4,156.4c0,0.8-1.2,1.5-2.7,1.5c-1.5,0-2.7-0.7-2.7-1.5c0-0.8,1.2-1.5,2.7-1.5
			C150.2,154.9,151.4,155.6,151.4,156.4z"/>
		<path id="XMLID_6624_" class="st2" d="M148.8,157.4c-1.9,0-3.2-0.9-3.2-2.1c0-1.2,1.4-2.1,3.2-2.1c1.8,0,3.2,0.9,3.2,2.1
			S150.6,157.4,148.8,157.4z M148.8,154.4c-1.3,0-2.1,0.5-2.1,0.9c0,0.4,0.8,0.9,2.1,0.9c1.3,0,2.1-0.5,2.1-0.9
			C150.8,154.9,150,154.4,148.8,154.4z"/>
		<path id="XMLID_6602_" class="st2" d="M170.4,157.7L170.4,157.7l-21.7-13l-22,13l-0.6,0.4l0,10.6l22.7,13.1l22.2-12.9l0-10.8
			L170.4,157.7z M148.7,146l20.5,12.3l-16.5,9.7l-3.6,2.2l-21.3-11.9L148.7,146z M127.2,159.3l4,2.2l17.4,9.7l0,9l-21.3-12.3
			L127.2,159.3z"/>
	</g>
</g>
<g id="_x31_1">
	<g id="XMLID_199_">
		<g id="XMLID_111_">
			<polygon id="XMLID_296_" class="st2" points="302.3,189 302.3,234.4 303,234.8 324.3,221.9 324.3,174.9 			"/>
			<path id="XMLID_276_" class="st0" d="M303,234l-13.4-7.7v-44.7l-12.1-7V162l37.6,21.7v12.7l-12.1-7V234z"/>
			<polygon id="XMLID_263_" class="st0" points="277.4,162 298,149.5 335.6,171.2 315.1,183.7 			"/>
			<polygon id="XMLID_192_" class="st1" points="277.4,165.4 298,152.9 335.6,174.6 315.1,187.1 			"/>
			<path id="XMLID_194_" class="st2" d="M336.3,171.6L336.3,171.6v-0.8l-0.7-0.4l0,0L298,148.7l-20.6,12.5l0,0l-0.7,0.4v0.8l0,0V175
				l12.1,7v44.7l13.4,7.7l1.4,0v-43.8l10.7,6.2l0,0l0.7,0.4l0.7-0.4l0,0l20.6-12.5V171.6z M298,150.3l36.3,20.9l-4.5,2.7l-14.8,9
				L278.8,162L298,150.3z M302.3,188.2v44.7l-12-6.9v-44.7l-12.1-7v-11.1l36.2,20.9v11.1L302.3,188.2z"/>
		</g>
		<g id="XMLID_203_">
			<polygon id="XMLID_291_" class="st0" points="313,198.2 313,188.3 314.4,187.5 314.4,195.8 324.3,189.9 324.3,191.5 			"/>
		</g>
	</g>
	<g id="XMLID_691_">
		<path id="XMLID_831_" class="st1" d="M311.3,143.9c3.7,4.1,3.4,10.4-0.6,14.1c-4.1,3.7-10.4,3.4-14.1-0.6
			c-3.7-4.1-3.4-10.4,0.6-14.1C301.3,139.6,307.6,139.9,311.3,143.9z"/>
		<path id="XMLID_830_" class="st0" d="M307,160.4c1.6-0.4,3.1-1.2,4.4-2.3c3.8-3.5,4.3-9.3,1.2-13.4c-1.6,0.4-3.1,1.2-4.4,2.3
			C304.3,150.5,303.9,156.3,307,160.4z"/>
		<path id="XMLID_823_" class="st2" d="M311.2,158.6c-4.4,4-11.2,3.7-15.2-0.7c-4-4.4-3.7-11.2,0.7-15.2c4.4-4,11.2-3.7,15.2,0.7
			S315.6,154.6,311.2,158.6z M297.7,143.9c-3.8,3.4-4,9.3-0.6,13c3.4,3.8,9.3,4,13,0.6s4-9.3,0.6-13
			C307.3,140.7,301.5,140.4,297.7,143.9z"/>
	</g>
</g>
<g id="_x31_0">
	<g id="XMLID_465_">
		<polygon id="XMLID_486_" class="st0" points="230.1,124.1 247.1,114.1 247.1,130.6 219.2,147 219.2,142.4 		"/>
		<polygon id="XMLID_485_" class="st0" points="247.1,114.1 238.5,96.5 213.9,111.3 233.2,122.3 		"/>
		<polygon id="XMLID_484_" class="st1" points="257.8,110.2 238.5,99.2 213.8,114 232.9,125.2 		"/>
		<path id="XMLID_480_" class="st2" d="M232.2,122.3l-18.8-10.8l0-0.5l25.2-15.1l19.3,11.1l-10.7,6.6l0.5,0.3l0,0v0.5v16.4l-28.9,17
			l0-3.4l11-20.8L232.2,122.3z M238.5,97l-23.7,14.2l18.3,10.5l23.7-14.2L238.5,97z M219.7,146.2l27-15.9V115l-13.5,7.9l0,0
			l-2.7,1.6l-10.8,18.1L219.7,146.2z"/>
		<g id="XMLID_466_">
			<polygon id="XMLID_479_" class="st1" points="232.1,125.9 230.1,127.1 228.8,131.2 226.4,132.8 225.5,136.4 223.5,137.6 
				222.1,141.7 219.4,143.4 202.7,133.9 205.7,132.2 206.2,128.5 209,127 209.5,123.2 212.4,121.7 212.9,118 215.7,116.5 			"/>
			<g id="XMLID_467_">
				<path id="XMLID_469_" class="st2" d="M199.9,133.1l0-0.6l0.5-0.3l2.8-1.6l0-2.8l0-0.6l0.5-0.3l2.8-1.6v-2.8V122l0.5-0.3l2.8-1.5
					v-2.8v-0.6l0.6-0.3l2.8-1.6l0.1-2.7l0-0.6l0.5-0.3l0,0l1.1,0.6l0,0l13.7,7.8l4,2.2l0,0l0.5,0.4v0.5l-0.3,2.8l0,0l-0.1,0.5l0,0
					l-0.5,0.3l-2.2,1.4l-0.5,3l0,0l-0.1,0.6l-0.5,0.3l0,0l-2.2,1.4l-0.5,3l0,0l-0.1,0.6l-0.5,0.3l0,0l-2.2,1.4l-0.5,3l0,0l-0.1,0.6
					l-0.5,0.3l0,0l-2.5,1.5l-0.9,4l-18.9-10.6V133.1z M229.2,127.1l2-1.2l-17.5-10.1l-2.2,1.2L229.2,127.1z M225.9,132.4l2-1.2
					l-17.5-10.1l-2.2,1.2L225.9,132.4z M222.6,137.6l2-1.2l-17.5-10.1l-2.3,1.3L222.6,137.6z M219.2,142.9l2-1.2l-17.5-10.1
					l-2.3,1.3L219.2,142.9z"/>
			</g>
		</g>
	</g>
	<g id="XMLID_19_">
		<g id="XMLID_191_">
			<polygon id="XMLID_293_" class="st0" points="270.8,93 271.6,109.9 282,106.4 285.8,93 280.3,89 			"/>
		</g>
		<polygon id="XMLID_288_" class="st0" points="286.3,132.2 269.9,122.2 274.6,114.1 296.1,121.5 		"/>
		<path id="XMLID_187_" class="st0" d="M269.7,90.3c1.2-1.8,2.2-3.6,2.9-5.4l18.9-7.8l-19.8-11.8c-3.2-2.2-8.9-0.9-17,3.7l-16.3,9.4
			l23.4,16.6L269.7,90.3z"/>
		<polygon id="XMLID_39_" class="st0" points="238.5,135.7 259,147.9 259,90.6 238.5,78.4 		"/>
		<path id="XMLID_186_" class="st1" d="M269.7,94c1.2-1.8,2.2-3.6,2.9-5.4l18.9-7.8L271.8,69c-3.2-2.2-8.9-0.9-17,3.7l-16.3,9.4
			l23.1,13.8L269.7,94z"/>
		<path id="XMLID_190_" class="st2" d="M286.8,132.7l15.8-9.1L288,106.7c5.4-6.8,8.2-13.6,8.2-20.3c0-4.5-1.1-7.6-3.2-9.3l0.1,0
			l-0.5-0.3c-0.1-0.1-0.2-0.1-0.3-0.2c-0.1-0.1-0.2-0.1-0.3-0.2l-19.8-11.8c-3.5-2.3-9.3-1.1-17.7,3.7l-15.9,9.2l0,0l-0.7,0.4v0.7
			l0,0v57.4l20.5,12.2l0,0l0.7,0.4l0.7-0.4l0,0l13.4-7.7v-15.7l12.8,7.7l0,0l0.5,0.3L286.8,132.7L286.8,132.7z M274.6,105.6
			l-1.5,0.9V95l2.3-1.3c3-1.7,4.3-1.7,4.9-1.3c0.6,0.3,0.9,1.2,0.9,2.7C281.3,99.6,279.1,103.1,274.6,105.6z M255.1,69.6
			c7.8-4.5,13.2-5.8,16.3-3.7l16.6,9.9c-3.3,0.1-7.6,1.7-13.1,4.9L259,89.8l-19.1-11.4L255.1,69.6z M239.2,135.4V79.6L258.3,91v55.7
			L239.2,135.4z M273.1,123.3v-3.6l2.5-1.4l8.2,11.5L273.1,123.3z"/>
	</g>
</g>
<g id="_x39_">
	<g id="XMLID_1768_">
		<polygon id="XMLID_1783_" class="st0" points="226.6,222.2 226.6,217.5 249.2,230.7 248.8,235.1 		"/>
		<g id="XMLID_1769_">
			<polygon id="XMLID_1782_" class="st0" points="270.9,217.5 248.8,230.2 226.6,217.5 248.8,204.7 			"/>
			<polygon id="XMLID_1781_" class="st0" points="263.5,217.5 248.8,226 234.1,217.5 248.8,209 			"/>
			<path id="XMLID_1778_" class="st1" d="M248.8,206.2l-20.8,12l22,12.9l20.9-12.1L248.8,206.2z M248.8,226l-12.6-7.7l12.6-9
				l14.5,8.1L248.8,226z"/>
			<path id="XMLID_1774_" class="st2" d="M271.4,217.2L271.4,217.2l-0.4-0.3l-22.1-12.8l-22.1,12.8l0,0l-0.4,0.3l0,0v0.5v4.9
				l22.1,12.8l0.4,0.3l0,0l0,0l0.4-0.3l22.1-12.6v-5.1V217.2L271.4,217.2z M248.4,234.4l-21.3-12.3v-3.9l21.3,12.3V234.4z
				 M248.8,229.7l-21.3-12.3l21.3-12.3l21.3,12.3L248.8,229.7z"/>
			<path id="XMLID_1770_" class="st2" d="M263.7,217.8l0.7-0.4l-15.2-8.8l-0.4-0.3l-15.6,9l15.6,9l13.5-7.8L263.7,217.8L263.7,217.8
				z M249.2,209.7l13.4,7.7l-2.3,1.3l-11.1-6.3V209.7z M238.2,219.3l10.6-6l10.6,6l-10.6,6.1L238.2,219.3z"/>
		</g>
	</g>
	<g id="XMLID_1763_">
		<path id="XMLID_1767_" class="st0" d="M248.3,219.2L248.3,219.2c-2.3,0-4.2-1.9-4.2-4.2v-25.3c0-1.9,1.5-3.4,3.4-3.4h1.7
			c1.9,0,3.4,1.5,3.4,3.4v25.3C252.5,217.3,250.6,219.2,248.3,219.2z"/>
		<path id="XMLID_1764_" class="st2" d="M249.2,185.6h-1.7c-2.2,0-4.1,1.8-4.1,4.1v25.3c0,2.7,2.2,4.9,4.9,4.9
			c2.7,0,4.9-2.2,4.9-4.9v-25.3C253.2,187.5,251.4,185.6,249.2,185.6z M244.8,214.9v-25.3c0-1.5,1.2-2.7,2.7-2.7h0.9
			c0.4,0.6,0.7,1.3,0.7,2v25.3c0,1.7-1,3.1-2.4,3.8C245.5,217.5,244.8,216.3,244.8,214.9z"/>
	</g>
	
		<ellipse id="XMLID_1762_" transform="matrix(0.1228 -0.9924 0.9924 0.1228 37.072 406.2733)" class="st0" cx="248.4" cy="182.2" rx="20.6" ry="20.6"/>
	<path id="XMLID_1761_" class="st1" d="M252.5,185.8c-8.1,0-15.1-4.7-18.5-11.5c-2.2,2.5-3.5,5.8-3.5,9.4c0,3,0.9,5.7,2.4,8
		c0,0.1,0.2,0.2,0.2,0.3c0.3,0.4,0.6,0.9,1,1.3c1.7,1.5,4.4,4.3,10.8,4.3c6.8,0,9.1-2.5,10.6-4.1c0.5-0.5,0.9-1,1.3-1.6
		c0,0,0-0.1,0-0.1l0.4-0.6c1.4-2,1.9-4,2.1-6.5C257.3,185.3,255,185.8,252.5,185.8z"/>
	<path id="XMLID_1758_" class="st2" d="M248.4,160.9c-11.7,0-21.3,9.5-21.3,21.3c0,11.7,9.5,21.3,21.3,21.3
		c11.7,0,21.3-9.5,21.3-21.3C269.6,170.4,260.1,160.9,248.4,160.9z M228.5,181c0.6-9.7,8.3-17.7,18-18.6c6.3-0.6,12.1,1.8,16.2,6
		l-0.4,0.2l-8.2,8.4c0,0,5.4,7.5,1.7,15.6c-1.5,3.4-4.3,5.1-7.4,5.9c-8.2,2.2-16.8-2.7-19.1-10.9C228.6,185.4,228.4,183.2,228.5,181
		z"/>
	<path id="XMLID_1756_" class="st0" d="M248.3,149.9c-8,0-14.4,6.5-14.4,14.4c0,3,0.9,5.7,2.4,8l0,0c0,0.1,0.2,0.2,0.2,0.3
		c0.3,0.4,0.6,0.9,1,1.3c1.7,1.5,4.4,4.3,10.8,4.3c6.8,0,9.1-2.5,10.6-4.1c0.5-0.5,0.9-1,1.3-1.6c0,0,0-0.1,0-0.1l0.4-0.6
		c1.5-2.3,2.1-4.5,2.1-7.5C262.7,156.4,256.3,149.9,248.3,149.9z"/>
	<path id="XMLID_1755_" class="st1" d="M262.5,164.4c0-0.5,0-1.1-0.1-1.6c-2.4-4.7-7.2-7.9-12.9-7.9c-8,0-14.4,6.5-14.4,14.4
		c0,0.6,0,1.1,0.1,1.6c0.3,0.5,0.6,1,0.9,1.5c0,0.1,0.2,0.2,0.2,0.3c0.3,0.4,0.6,0.9,1,1.3c1.7,1.5,4.4,4.3,10.8,4.3
		c6.8,0,9.1-2.5,10.6-4.1c0.5-0.5,0.9-1,1.3-1.6c0,0,0-0.1,0-0.1l0.4-0.6C261.9,169.6,262.5,167.4,262.5,164.4z"/>
	<path id="XMLID_1208_" class="st2" d="M248.3,149.2c-8.3,0-15.1,6.8-15.1,15.1c0,3,0.9,5.9,2.5,8.3c0.1,0.1,0.2,0.3,0.2,0.3l0,0.1
		c0.3,0.4,0.6,0.9,1.1,1.4l0.3,0.2c1.8,1.6,4.7,4.2,11,4.2c7,0,9.4-2.5,11-4.2l0.1-0.1c0.5-0.6,1-1.1,1.3-1.7l0.1-0.1l0-0.1l0.3-0.4
		c1.6-2.3,2.2-4.6,2.2-7.8C263.4,156,256.6,149.2,248.3,149.2z M234.6,164.2c0.1-5.7,3.9-10.8,9.3-12.8c0.1,0,0.2-0.1,0.3-0.1
		c4-1.4,9.3,0.6,11.6,4.2c3.7,5.7,1.7,10.8-0.9,14.2c-3.4,4.4-7.9,5.1-11.5,4.8c-2.1-0.2-4.1-0.9-5.8-2c-0.2-0.1-0.3-0.2-0.3-0.2
		c0,0-0.1-0.2-0.2-0.3l0,0C235.4,169.8,234.5,167,234.6,164.2z"/>
</g>
<g id="_x38_">
	<g id="XMLID_1204_">
		<g id="XMLID_8619_">
			<polygon id="XMLID_9323_" class="st0" points="414.5,278.4 414.5,274.1 434.9,286 434.5,290 			"/>
			<g id="XMLID_8620_">
				<polygon id="XMLID_9322_" class="st0" points="454.5,274.1 434.5,285.7 414.5,274.1 434.5,262.6 				"/>
				<polygon id="XMLID_9321_" class="st0" points="447.8,274.1 434.5,281.8 421.2,274.1 434.5,266.4 				"/>
				<path id="XMLID_9318_" class="st1" d="M434.5,264l-18.8,10.9l19.9,11.6l18.9-10.9L434.5,264z M434.5,281.8l-11.3-7l11.3-8.1
					l13.1,7.3L434.5,281.8z"/>
				<path id="XMLID_9314_" class="st2" d="M454.9,273.9L454.9,273.9l-0.4-0.2l-20-11.6l-20,11.6l0,0l-0.4,0.2l0,0v0.5v4.4l20,11.6
					l0.4,0.2l0,0l0,0l0.4-0.2l20-11.4v-4.6V273.9L454.9,273.9z M434.1,289.4l-19.2-11.1v-3.5l19.2,11.1V289.4z M434.5,285.2
					l-19.2-11.1l19.2-11.1l19.2,11.1L434.5,285.2z"/>
				<path id="XMLID_8621_" class="st2" d="M448,274.5l0.6-0.3l-13.7-7.9l-0.4-0.2l-14.1,8.1l14.1,8.1l12.2-7L448,274.5L448,274.5z
					 M434.9,267.1l12.1,7l-2.1,1.2l-10-5.7V267.1z M424.9,275.8l9.6-5.4l9.6,5.4l-9.6,5.6L424.9,275.8z"/>
			</g>
		</g>
		<g id="XMLID_1197_">
			<path id="XMLID_1733_" class="st0" d="M434.1,275.7L434.1,275.7c-2.1,0-3.8-1.7-3.8-3.8V249c0-1.7,1.4-3.1,3.1-3.1h1.5
				c1.7,0,3.1,1.4,3.1,3.1v22.8C437.9,274,436.2,275.7,434.1,275.7z"/>
			<path id="XMLID_1744_" class="st2" d="M434.9,245.4h-1.5c-2,0-3.7,1.6-3.7,3.7v22.8c0,2.4,2,4.4,4.4,4.4c2.4,0,4.4-2,4.4-4.4V249
				C438.5,247,436.9,245.4,434.9,245.4z M430.9,271.8V249c0-1.3,1.1-2.4,2.4-2.4h0.8c0.4,0.5,0.6,1.1,0.6,1.8v22.8
				c0,1.5-0.9,2.8-2.2,3.4C431.6,274.1,430.9,273.1,430.9,271.8z"/>
		</g>
		
			<ellipse id="XMLID_1211_" transform="matrix(0.7071 -0.7071 0.7071 0.7071 -44.1314 377.927)" class="st0" cx="434.1" cy="242.2" rx="18.6" ry="18.6"/>
		<path id="XMLID_1209_" class="st1" d="M437.9,245.5c-7.3,0-13.6-4.2-16.7-10.4c-2,2.3-3.1,5.2-3.1,8.5c0,2.7,0.8,5.2,2.2,7.3
			c0,0.1,0.2,0.2,0.2,0.3c0.3,0.4,0.6,0.8,0.9,1.1c1.5,1.4,4,3.9,9.7,3.9c6.2,0,8.2-2.2,9.6-3.7c0.4-0.5,0.8-0.9,1.2-1.4
			c0,0,0-0.1,0-0.1l0.4-0.5c1.2-1.8,1.8-3.6,1.9-5.9C442.2,245.1,440.1,245.5,437.9,245.5z"/>
		<path id="XMLID_1754_" class="st2" d="M434.1,223c-10.6,0-19.2,8.6-19.2,19.2c0,10.6,8.6,19.2,19.2,19.2
			c10.6,0,19.2-8.6,19.2-19.2C453.3,231.6,444.7,223,434.1,223z M416.2,241.1c0.5-8.8,7.5-16,16.2-16.8c5.7-0.5,11,1.6,14.6,5.4
			l-0.4,0.1l-7.4,7.6c0,0,4.8,6.8,1.5,14.1c-1.4,3-3.9,4.6-6.7,5.3c-7.4,2-15.2-2.5-17.2-9.9C416.3,245.2,416.1,243.2,416.2,241.1z"
			/>
		<path id="XMLID_1207_" class="st0" d="M434.1,213.1c-7.2,0-13,5.8-13,13c0,2.7,0.8,5.2,2.2,7.3l0,0c0,0.1,0.2,0.2,0.2,0.3
			c0.3,0.4,0.6,0.8,0.9,1.1c1.5,1.4,4,3.9,9.7,3.9c6.2,0,8.2-2.2,9.6-3.7c0.4-0.5,0.8-0.9,1.2-1.4c0,0,0-0.1,0-0.1l0.4-0.5
			c1.4-2.1,1.9-4.1,1.9-6.7C447.1,218.9,441.3,213.1,434.1,213.1z"/>
		<path id="XMLID_1212_" class="st1" d="M446.9,226.2c0-0.5,0-1-0.1-1.5c-2.1-4.2-6.5-7.2-11.6-7.2c-7.2,0-13,5.8-13,13
			c0,0.5,0,1,0.1,1.5c0.2,0.5,0.5,0.9,0.8,1.4c0,0.1,0.2,0.2,0.2,0.3c0.3,0.4,0.6,0.8,0.9,1.1c1.5,1.4,4,3.9,9.7,3.9
			c6.2,0,8.2-2.2,9.6-3.7c0.4-0.5,0.8-0.9,1.2-1.4c0,0,0-0.1,0-0.1l0.4-0.5C446.4,230.8,446.9,228.9,446.9,226.2z"/>
		<path id="XMLID_1732_" class="st2" d="M434.1,212.5c-7.5,0-13.6,6.1-13.6,13.6c0,2.7,0.8,5.3,2.3,7.5c0.1,0.1,0.1,0.2,0.2,0.3l0,0
			c0.3,0.4,0.6,0.8,1,1.2l0.2,0.2c1.6,1.4,4.2,3.8,9.9,3.8c6.3,0,8.5-2.3,10-3.8l0.1-0.1c0.5-0.5,0.9-1,1.2-1.5l0.1-0.1l0-0.1
			l0.3-0.4c1.4-2.1,2-4.2,2-7.1C447.7,218.6,441.6,212.5,434.1,212.5z M421.7,226c0.1-5.2,3.5-9.7,8.4-11.5c0.1,0,0.2-0.1,0.3-0.1
			c3.6-1.2,8.4,0.6,10.5,3.8c3.3,5.1,1.5,9.8-0.8,12.9c-3.1,4-7.2,4.6-10.4,4.3c-1.9-0.2-3.7-0.8-5.3-1.8c-0.2-0.1-0.2-0.2-0.3-0.2
			c0,0-0.1-0.2-0.2-0.2l0,0C422.4,231,421.6,228.5,421.7,226z"/>
	</g>
	<path id="XMLID_1869_" class="st2" d="M444.1,218.8v1.1l15.9,0l-1.6,1.5l0.8,0.8l2.5-2.3l2.3,0v0.2l-5.6,5.2l0.8,0.8l4.8-4.4v2.3
		l-5.6,5.2l0.8,0.8l4.8-4.4v2.3l-5.6,5.2l0.8,0.8l4.8-4.4v2.3l-5.6,5.2l0.8,0.8l4.8-4.4v2.3l-5.6,5.2l0.8,0.8l4.8-4.4v2.3l-5.6,5.2
		l0.8,0.8l4.8-4.4v2.3l-5.6,5.2l0.8,0.8l4.8-4.4v2.3l-5.6,5.2l0.8,0.8l4.8-4.4v2.3l-5.5,5.1l0.8,0.8l4.7-4.4v2.3l-5.5,5.1l0.8,0.8
		l4.7-4.4v2.3l-5.5,5.1l0.8,0.8l4.7-4.4v2.3l-5.5,5.1l0.8,0.8l4.7-4.4v2.3l-5.5,5.1l0.8,0.8l4.7-4.4v2.3l-3.2,2.9h-24.2v1.1h28.5
		v-55.4L444.1,218.8z M462.5,273l1.5-1.4v1.4H462.5z"/>
</g>
<g id="_x37_">
	<g id="XMLID_526_">
		<g id="XMLID_504_">
			<polygon id="XMLID_520_" class="st0" points="506.7,142.3 458.2,113.7 458.2,130.1 517.4,165.3 517.5,160.6 			"/>
			<polygon id="XMLID_519_" class="st0" points="458.2,113.7 477.2,102.6 522.7,129.5 503.7,140.6 			"/>
			<polygon id="XMLID_518_" class="st1" points="458.2,116.4 477.2,105.3 522.7,132.2 504,143.4 			"/>
			<path id="XMLID_514_" class="st2" d="M504.7,140.6l18.5-10.8l0-0.5l-46.1-27.2l-19,11.1l0,0l-0.5,0.3l0,0v0.5v16.4l60.2,35.7
				l0-3.4L507.1,142L504.7,140.6z M477.1,103.2l44.6,26.4l-18,10.5l-44.6-26.3L477.1,103.2z M516.9,164.4l-58.3-34.6v-15.3l45,26.6
				l0,0l2.6,1.6l10.6,18.1L516.9,164.4z"/>
			<g id="XMLID_505_">
				<polygon id="XMLID_513_" class="st1" points="504.7,144.2 506.7,145.4 508,149.5 510.3,151 511.3,154.7 513.2,155.9 514.6,160 
					517.2,161.6 533.6,152.2 530.7,150.5 530.3,146.8 527.5,145.2 527,141.5 524.2,140 523.7,136.3 520.9,134.7 				"/>
				<g id="XMLID_506_">
					<path id="XMLID_507_" class="st2" d="M536.5,151.4l0-0.6l-0.5-0.3l-2.8-1.6l0-2.8l0-0.6l-0.5-0.3l-2.8-1.6v-2.8v-0.6l-0.5-0.3
						l-2.7-1.5v-2.8V135l-0.5-0.3l-2.8-1.6l-0.1-2.7l0-0.6l-0.5-0.3l0,0l-1,0.6l0,0l-13.5,7.8l-3.9,2.2l0,0l-0.5,0.4v0.5l0.3,2.8
						l0,0l0.1,0.5l0,0l0.5,0.3l2.2,1.4l0.5,3l0,0l0.1,0.6l0.5,0.3l0,0l2.2,1.4l0.5,3l0,0l0.1,0.6l0.5,0.3l0,0l2.2,1.4l0.5,3l0,0
						l0.1,0.6l0.5,0.3l0,0l2.5,1.5l0.9,4l18.6-10.6V151.4z M507.6,145.4l-1.9-1.2l17.2-10.1l2.2,1.2L507.6,145.4z M510.9,150.7
						l-2-1.2l17.2-10.1l2.2,1.2L510.9,150.7z M514.1,155.9l-1.9-1.2l17.2-10.1l2.2,1.3L514.1,155.9z M517.4,161.2l-2-1.2l17.2-10.1
						l2.2,1.3L517.4,161.2z"/>
				</g>
			</g>
		</g>
		<g id="XMLID_197_">
			<path id="XMLID_198_" class="st0" d="M454.8,145l-12.2,2.4l-5.3,0.6l-2.5-0.6l-23.9-13.2v22.2c0.2,4.1,3.6,8.1,10.4,12
				c6.9,4,14,6,21.3,6.1c7.2,0.1,14.1-1.8,20.6-5.5l29.9-17.2v-22.2L454.8,145z"/>
			<g id="XMLID_112_">
				<path id="XMLID_113_" class="st0" d="M493.1,129.5l-29.9,17.2c-6.5,3.8-13.4,5.6-20.6,5.5c-7.2-0.1-14.3-2.1-21.3-6.1
					c-6.8-3.9-10.2-7.9-10.4-12c-0.2-4.1,3-8,9.5-11.8l30.2-17.4l13.5,7.8L435,129.6c-3.5,2-5.4,3.9-5.7,5.5
					c-0.3,1.7,0.9,3.2,3.4,4.7c2.7,1.6,5.5,2.3,8.3,2.1c2.8-0.2,6-1.3,9.6-3.4l29.1-16.8L493.1,129.5z"/>
				<path id="XMLID_200_" class="st1" d="M492.7,133l-29.9,17.2c-6.5,3.8-13.4,5.6-20.6,5.5c-7.2-0.1-14.3-2.1-21.3-6.1
					c-6.8-3.9-10.2-7.9-10.4-12c-0.2-4.1,3-8,9.5-11.8l30.2-17.4l13.5,7.8l-29.1,16.8c-3.5,2-5.4,3.9-5.7,5.5
					c-0.3,1.7,0.9,3.2,3.4,4.7c2.7,1.6,5.5,2.3,8.3,2.1c2.8-0.2,6-1.3,9.6-3.4l29.1-16.8L492.7,133z"/>
			</g>
			<path id="XMLID_261_" class="st2" d="M493.8,129.9v-0.8l-0.6-0.4l0,0l-13.5-7.8l-14.9,8.6v-16.4v-0.8l-0.5-0.3l-13.6-7.9
				l-30.5,17.6c-6.7,3.9-10,8-9.8,12.4c0,0.2,0,0.4,0.1,0.6l-0.1-0.1l0,21.7c0.2,4.3,3.8,8.6,10.7,12.6c7,4,14.3,6.1,21.6,6.2
				c0.1,0,0.2,0,0.4,0c7.2,0,14.1-1.9,20.6-5.6l30.2-17.4V129.9L493.8,129.9z M420.8,123l29.8-17.2l12.1,7L434.6,129
				c-3.7,2.2-5.7,4.1-6,6c-0.3,2,0.9,3.8,3.8,5.4c2.8,1.6,5.8,2.4,8.7,2.2c2.9-0.2,6.2-1.4,9.9-3.5l28.7-16.6l12,6.9l-28.8,16.7
				c-6.4,3.7-13.2,5.5-20.3,5.4c-7.1-0.1-14.1-2.1-20.9-6c-6.5-3.8-9.9-7.6-10.1-11.4C411.5,130.4,414.6,126.6,420.8,123z
				 M421.7,167.8c-6.5-3.8-9.9-7.6-10.1-11.4v-17.8c1.7,2.8,4.8,5.6,9.4,8.2c2,1.1,4,2.1,6,2.9v20.7
				C425.2,169.7,423.4,168.8,421.7,167.8z M435.3,173v-20.8c1.8,0.3,3.6,0.6,5.4,0.7v20.8C438.8,173.6,437,173.4,435.3,173z"/>
		</g>
	</g>
	<g id="XMLID_684_">
		<g id="XMLID_1825_">
			<polygon id="XMLID_1833_" class="st0" points="483.8,117.4 468,108.3 468,90 483.8,99.2 			"/>
			<polygon id="XMLID_1832_" class="st0" points="493.3,94 483.8,99.2 468,90 477.5,84.9 			"/>
			<polygon id="XMLID_1831_" class="st1" points="493.3,97.7 483.8,103.2 468,94.1 477.5,88.6 			"/>
			<path id="XMLID_1826_" class="st2" d="M477.5,84.3l-9.5,5.2l-0.5,0.3v18.8l15.8,9.1l0,0l0.5,0.3l0.5-0.3l0,0l9.5-5.2V94.3v-0.5
				L477.5,84.3z M477.5,85.4l14.9,8.6l-1.1,0.4l-7.4,4.3l-2.3-1.3L468.9,90L477.5,85.4z M468.5,108V90.8l14.9,8.6v17.2L468.5,108z"
				/>
		</g>
	</g>
</g>
<g id="_x36_">
	<g id="XMLID_24_">
		<g id="XMLID_202_">
			<polygon id="XMLID_366_" class="st0" points="510.5,206.8 512.8,224.8 519.9,223 530.1,206.8 524.3,200.5 			"/>
		</g>
		<path id="XMLID_108_" class="st0" d="M512.6,202.9c1.2-1.8,2.2-3.6,2.9-5.4l18.1-7.5l-19.8-11.8c-3.2-2.2-8.9-0.9-17,3.7
			l-15.5,9.1l23.4,16.6L512.6,202.9z"/>
		<polygon id="XMLID_201_" class="st0" points="481.4,248.2 501.9,260.4 501.9,203.1 481.4,190.9 		"/>
		<path id="XMLID_110_" class="st1" d="M512.3,206.5c1.2-1.8,2.2-3.6,2.9-5.4l18.1-7.5l-19.8-11.8c-3.2-2.2-8.9-0.9-17,3.7
			l-15.5,9.1l22.1,13.1L512.3,206.5z"/>
		<path id="XMLID_278_" class="st2" d="M535.1,190.2L535.1,190.2l-0.3-0.3c-0.3-0.2-0.7-0.5-1.1-0.6l-19.5-11.6
			c-3.5-2.3-9.3-1.1-17.7,3.7l-15.1,8.8l0,0l-0.8,0.5v0.7l0,0v57.3l20.5,12.2l0,0l0.7,0.4l0.7-0.4l0,0l13.4-7.7v-19l3.4-2
			c6.1-3.5,10.9-8.1,14.2-13.5c3.3-5.5,5-11.5,5-18C538.6,195.6,537.4,192.1,535.1,190.2z M497.2,182.6c7.8-4.5,13.2-5.8,16.3-3.7
			l16.3,9.7c-3,0.1-6.6,1.5-11.1,4l-16.8,9.7L483,191.1l-0.1-0.1L497.2,182.6z M482.1,247.9v-55.7l19.1,11.4v55.7L482.1,247.9z
			 M521.9,214.6c-1.1,1.9-2.7,3.4-4.6,4.5l-1.4,0.8v-11.6l3.1-1.8c1.7-1,2.9-1.3,3.6-0.9c0.8,0.4,0.9,1.8,0.9,2.9
			C523.6,210.6,523.1,212.7,521.9,214.6z"/>
	</g>
	<g id="XMLID_1817_">
		<g id="XMLID_1818_">
			<polygon id="XMLID_1850_" class="st0" points="529.1,276 512.1,266.1 512.1,246.5 529.1,256.3 			"/>
			<polygon id="XMLID_1824_" class="st0" points="546.1,246.5 529.1,256.3 512.1,246.5 529.1,236.7 			"/>
			<polygon id="XMLID_1823_" class="st1" points="546.1,250.6 529.1,260.7 512.1,250.9 529.1,240.7 			"/>
			<path id="XMLID_1819_" class="st2" d="M529.1,236.2l-17,9.8l-0.5,0.3v20.2l17,9.8l0,0l0.5,0.3l0.5-0.3l0,0l17-9.8v-19.6v-0.6
				L529.1,236.2z M529.1,237.3l16,9.2l-8,4.6l-8,4.6l-2.5-1.4l-13.5-7.8L529.1,237.3z M512.6,265.9v-18.5l16,9.2v18.5L512.6,265.9z"
				/>
		</g>
	</g>
</g>
<g id="_x35_">
	<g id="XMLID_1784_">
		<g id="XMLID_1800_">
			<polygon id="XMLID_1815_" class="st0" points="308.2,126.6 308.2,122.3 328.6,134.3 328.2,138.2 			"/>
			<g id="XMLID_1801_">
				<polygon id="XMLID_1814_" class="st0" points="348.2,122.3 328.2,133.9 308.2,122.3 328.2,110.8 				"/>
				<polygon id="XMLID_1813_" class="st0" points="341.5,122.3 328.2,130 314.9,122.3 328.2,114.7 				"/>
				<path id="XMLID_1810_" class="st1" d="M328.2,112.2L309.4,123l19.9,11.6l18.9-10.9L328.2,112.2z M328.2,130l-11.3-7l11.3-8.1
					l13.1,7.3L328.2,130z"/>
				<path id="XMLID_1806_" class="st2" d="M348.6,122.1L348.6,122.1l-0.4-0.2l-20-11.6l-20,11.6l0,0l-0.4,0.2l0,0v0.5v4.4l20,11.6
					l0.4,0.2l0,0l0,0l0.4-0.2l20-11.4v-4.6V122.1L348.6,122.1z M327.8,137.6l-19.2-11.1V123l19.2,11.1V137.6z M328.2,133.4
					L309,122.3l19.2-11.1l19.2,11.1L328.2,133.4z"/>
				<path id="XMLID_1802_" class="st2" d="M341.7,122.7l0.6-0.3l-13.7-7.9l-0.4-0.2l-14.1,8.1l14.1,8.1l12.2-7L341.7,122.7
					L341.7,122.7z M328.6,115.4l12.1,7l-2.1,1.2l-10-5.7V115.4z M318.6,124l9.6-5.4l9.6,5.4l-9.6,5.6L318.6,124z"/>
			</g>
		</g>
		<g id="XMLID_1795_">
			<path id="XMLID_1799_" class="st0" d="M327.8,123.9L327.8,123.9c-2.1,0-3.8-1.7-3.8-3.8V97.3c0-1.7,1.4-3.1,3.1-3.1h1.5
				c1.7,0,3.1,1.4,3.1,3.1v22.8C331.6,122.2,329.9,123.9,327.8,123.9z"/>
			<path id="XMLID_1796_" class="st2" d="M328.5,93.6H327c-2,0-3.7,1.6-3.7,3.7v22.8c0,2.4,2,4.4,4.4,4.4c2.4,0,4.4-2,4.4-4.4V97.3
				C332.2,95.2,330.6,93.6,328.5,93.6z M324.6,120.1V97.3c0-1.3,1.1-2.4,2.4-2.4h0.8c0.4,0.5,0.6,1.1,0.6,1.8v22.8
				c0,1.5-0.9,2.8-2.2,3.4C325.3,122.3,324.6,121.3,324.6,120.1z"/>
		</g>
		<circle id="XMLID_1794_" class="st0" cx="327.8" cy="90.5" r="18.6"/>
		<path id="XMLID_1793_" class="st1" d="M331.6,93.7c-7.3,0-13.6-4.2-16.7-10.4c-2,2.3-3.1,5.2-3.1,8.5c0,2.7,0.8,5.2,2.2,7.3
			c0,0.1,0.2,0.2,0.2,0.3c0.3,0.4,0.6,0.8,0.9,1.1c1.5,1.4,4,3.9,9.7,3.9c6.2,0,8.2-2.2,9.6-3.7c0.4-0.5,0.8-0.9,1.2-1.4
			c0,0,0-0.1,0-0.1l0.4-0.5c1.2-1.8,1.8-3.6,1.9-5.9C335.9,93.3,333.8,93.7,331.6,93.7z"/>
		<path id="XMLID_1790_" class="st2" d="M327.8,71.3c-10.6,0-19.2,8.6-19.2,19.2s8.6,19.2,19.2,19.2S347,101,347,90.5
			S338.4,71.3,327.8,71.3z M309.9,89.4c0.5-8.8,7.5-16,16.2-16.8c5.7-0.5,11,1.6,14.6,5.4l-0.4,0.1l-7.4,7.6c0,0,4.8,6.8,1.5,14.1
			c-1.4,3-3.9,4.6-6.7,5.3c-7.4,2-15.2-2.5-17.2-9.9C310,93.4,309.8,91.4,309.9,89.4z"/>
		<path id="XMLID_1789_" class="st0" d="M327.8,61.3c-7.2,0-13,5.8-13,13c0,2.7,0.8,5.2,2.2,7.3l0,0c0,0.1,0.2,0.2,0.2,0.3
			c0.3,0.4,0.6,0.8,0.9,1.1c1.5,1.4,4,3.9,9.7,3.9c6.2,0,8.2-2.2,9.6-3.7c0.4-0.5,0.8-0.9,1.2-1.4c0,0,0-0.1,0-0.1l0.4-0.5
			c1.4-2.1,1.9-4.1,1.9-6.7C340.8,67.2,335,61.3,327.8,61.3z"/>
		<path id="XMLID_1788_" class="st1" d="M340.6,74.4c0-0.5,0-1-0.1-1.5c-2.1-4.2-6.5-7.2-11.6-7.2c-7.2,0-13,5.8-13,13
			c0,0.5,0,1,0.1,1.5c0.2,0.5,0.5,0.9,0.8,1.4c0,0.1,0.2,0.2,0.2,0.3c0.3,0.4,0.6,0.8,0.9,1.1c1.5,1.4,4,3.9,9.7,3.9
			c6.2,0,8.2-2.2,9.6-3.7c0.4-0.5,0.8-0.9,1.2-1.4c0,0,0-0.1,0-0.1l0.4-0.5C340.1,79.1,340.6,77.1,340.6,74.4z"/>
		<path id="XMLID_1785_" class="st2" d="M327.8,60.7c-7.5,0-13.6,6.1-13.6,13.6c0,2.7,0.8,5.3,2.3,7.5c0.1,0.1,0.1,0.2,0.2,0.3l0,0
			c0.3,0.4,0.6,0.8,1,1.2l0.2,0.2c1.6,1.4,4.2,3.8,9.9,3.8c6.3,0,8.5-2.3,10-3.8l0.1-0.1c0.5-0.5,0.9-1,1.2-1.5l0.1-0.1l0-0.1
			l0.3-0.4c1.4-2.1,2-4.2,2-7.1C341.4,66.8,335.3,60.7,327.8,60.7z M315.4,74.2c0.1-5.2,3.5-9.7,8.4-11.5c0.1,0,0.2-0.1,0.3-0.1
			c3.6-1.2,8.4,0.6,10.5,3.8c3.3,5.1,1.5,9.8-0.8,12.9c-3.1,4-7.2,4.6-10.4,4.3c-1.9-0.2-3.7-0.8-5.3-1.8c-0.2-0.1-0.2-0.2-0.3-0.2
			c0,0-0.1-0.2-0.2-0.2l0,0C316.1,79.3,315.3,76.8,315.4,74.2z"/>
	</g>
	<g id="XMLID_1853_">
		<circle id="XMLID_1851_" class="st1" cx="358.7" cy="44.8" r="11.2"/>
		<path id="XMLID_1872_" class="st0" d="M367.6,51.9c0.5-0.6,0.9-1.2,1.2-1.9c-0.9,0.2-1.8,0.4-2.7,0.4c-5.7,0-10.4-4.7-10.4-10.4
			c0-2.3,0.8-4.5,2.1-6.2c-0.8,0.1-1.5,0.2-2.2,0.4c-0.9,1.7-1.5,3.7-1.5,5.8c0,6.6,5.4,12,12,12C366.6,52,367.1,52,367.6,51.9z"/>
	</g>
</g>
<g id="_x34_">
	<g id="XMLID_833_">
		<polygon id="XMLID_1746_" class="st2" points="201.3,154.1 201.3,211.8 116.1,261.1 124,241.3 133.2,241.4 153.9,195.1 
			165.3,207.5 175.7,189.7 182.9,196.5 		"/>
		<polygon id="XMLID_1742_" class="st0" points="116.1,261.1 107.9,256.4 115.7,236.6 124,241.3 		"/>
		<polygon id="XMLID_1726_" class="st1" points="115.3,261.3 109.6,257.9 117.5,238.2 125.8,242.8 119.1,259.6 		"/>
		<polygon id="XMLID_1738_" class="st0" points="125,236.7 133.2,241.4 124,241.3 115.7,236.6 		"/>
		<polygon id="XMLID_1725_" class="st1" points="126.9,238.2 135.3,243 125.8,242.8 117.7,238.2 		"/>
		<polygon id="XMLID_1734_" class="st0" points="145.6,190.4 153.9,195.1 133.2,241.4 125,236.7 		"/>
		<polygon id="XMLID_1727_" class="st1" points="147.8,192 156,196.7 135.3,243 127.1,238.3 		"/>
		<polygon id="XMLID_1730_" class="st0" points="167.5,185 175.7,189.7 165.3,207.5 158.4,200.1 		"/>
		<polygon id="XMLID_1728_" class="st1" points="169.3,186.6 177.5,191.3 167.1,209.1 160.2,201.7 		"/>
		<polygon id="XMLID_832_" class="st0" points="193.1,149.4 201.3,154.1 182.9,196.5 175.7,189.7 		"/>
		<polygon id="XMLID_1731_" class="st1" points="194.9,151 201.3,154.7 201.3,159.7 184.7,198.1 177.5,191.3 		"/>
		<path id="XMLID_1723_" class="st2" d="M201.9,154.3L201.9,154.3v-0.5l-0.9-0.5l0,0l-8.2-4.7l-17.4,40.2l-8.2-4.6l-9,14.9l-3.7-4.1
			l0,0l-0.3-0.4l-0.7-0.4l0,0l-8.2-4.7l-20.8,46.6l-8.6-0.1l0,0l-0.6,0l-0.4,0.9l0,0l-7.9,19.8l8.2,4.7l0,0l0.8,0.4l0.5-0.3l0,0
			l85.4-49.3V154.3z M193.4,150.3l7.1,4.1l-17.8,41.1l-6.2-5.9l0.1-0.1l-0.1,0L193.4,150.3z M159.2,200l8.5-14.1l7.2,4.1l-9.7,16.6
			L159.2,200z M145.9,191.3l7.1,4.1l-8.2,18.4l-12,26.8l-2.7-1.5l-4.4-2.5L145.9,191.3z M118.1,237.3l6.6,0.1l3.5,2l2.5,1.4l-3.2,0
			l-3.4,0l-4.9-2.8L118.1,237.3z M116.1,237.5l1.8,1l5.3,3l-7.4,18.6l-7.1-4.1L116.1,237.5z M117.3,259.6l7.1-17.7l8.6,0.1l0,0
			l0.6,0l0.4-0.9l0,0l11.7-26.2l8.4-18.8l3.6,3.9l0,0l7.8,8.4l10.4-17.9l7.2,6.9l17.6-40.5v54.4L117.3,259.6z"/>
	</g>
	<g id="XMLID_1854_">
		
			<ellipse id="XMLID_1862_" transform="matrix(0.2287 -0.9735 0.9735 0.2287 -110.6737 341.3662)" class="st1" cx="160.1" cy="240.5" rx="10.5" ry="10.5"/>
		<path id="XMLID_1861_" class="st0" d="M168.5,247.3c0.4-0.6,0.8-1.2,1.2-1.8c-0.8,0.2-1.7,0.4-2.6,0.4c-5.4,0-9.8-4.4-9.8-9.8
			c0-2.2,0.7-4.2,2-5.8c-0.7,0.1-1.4,0.2-2.1,0.4c-0.9,1.6-1.4,3.5-1.4,5.4c0,6.2,5.1,11.3,11.3,11.3
			C167.5,247.4,168,247.3,168.5,247.3z"/>
	</g>
</g>
<g id="_x33_">
	<g id="XMLID_22_">
		<polygon id="XMLID_292_" class="st2" points="199.3,213 198.3,229.5 208.1,223.7 209.8,210.4 204.1,205.5 		"/>
		<path id="XMLID_179_" class="st0" d="M214.9,260.8l-2.4-12.2l-16.1-9.3l-2.5,9.3l-14.7-8.5l16.2-48.2l17.9,10.3l16.4,67
			L214.9,260.8z M209.6,234.3l-2.1-10.6c-0.5-2.4-1.1-5.4-1.8-9.2c-0.7-3.7-1.2-5.3-1.4-6.9c-0.2,1.2-0.6,2.1-1.2,4.8
			c-0.6,2.7-1.9,8-4,15.8L209.6,234.3z"/>
		<polygon id="XMLID_279_" class="st0" points="195.2,191.9 216.1,179.7 233.9,190.1 213.1,202.2 		"/>
		<polygon id="XMLID_185_" class="st1" points="195.2,195.4 216.1,183.2 233.9,193.5 213.1,205.7 		"/>
		<g id="XMLID_184_">
			<polygon id="XMLID_21_" class="st0" points="199.1,228.2 210.8,235.7 207.4,223.3 			"/>
			<polygon id="XMLID_183_" class="st1" points="201.3,229.4 210.3,234.6 208,225.5 			"/>
		</g>
		<g id="XMLID_20_">
			<path id="XMLID_275_" class="st2" d="M230.3,269.6l20.8-12.1l-16.4-67l0,0l-0.2-0.8l-0.6-0.3l0,0L216,178.9l-20.8,12.1l0,0
				l-0.6,0.3l-0.3,0.8l0,0l-16.2,48.2l14.8,8.5l0,0l0.8,0.5l0.6-0.3l0,0l8.9-4.9l8.5,4.9l2.4,12.2l14.7,8.5l0,0l0.6,0.3L230.3,269.6
				L230.3,269.6z M216.1,180.5l16.5,9.5l-19.5,11.3l-16.5-9.5L216.1,180.5z M228.5,267.8l-13-7.5l-2.4-12.2l-8.3-4.8h0l-8.8-5.1
				l-2.5,9.3l-13.5-7.8l15.7-46.9l16.9,9.8l13.3,54.3L228.5,267.8z"/>
			<path id="XMLID_284_" class="st2" d="M206.3,214.4c-0.7-3.7-1-5.4-1.3-6.9l-1.5-1c-0.2,1.2-0.6,3.2-1.2,5.9
				c-0.6,2.7-1.9,8-4,15.7l-0.1,0.5l12.3,7.1l-2.4-12.1C207.7,221.2,207.1,218.1,206.3,214.4z M199.9,227.9c2-7.6,3.3-12.6,3.9-15.3
				c0.2-0.8,0.3-1.5,0.5-2.2c0.2,1.2,0.5,2.6,0.8,4.2c0.7,3.7,1.3,6.8,1.8,9.2l1.8,9.2L199.9,227.9z"/>
		</g>
	</g>
	<g id="XMLID_462_">
		<polygon id="XMLID_468_" class="st0" points="258.8,256.3 241.2,245.8 241.2,263.1 270.1,280.4 270.1,275.5 		"/>
		<polygon id="XMLID_464_" class="st0" points="241.2,245.8 261.1,234.2 275.6,242.8 255.7,254.4 		"/>
		<polygon id="XMLID_463_" class="st1" points="241.2,248.7 261.2,237 275.7,245.6 255.9,257.4 		"/>
		<path id="XMLID_475_" class="st2" d="M256.7,254.4l19.5-11.3l0-0.5l-15-8.9l-19.9,11.6l0,0l-0.5,0.3l0,0v0.6v17.3l29.9,17.9l0-3.5
			l-11.4-21.8L256.7,254.4z M261.1,234.8l13.5,8l-19,11l-13.5-8L261.1,234.8z M269.6,279.5l-27.9-16.7v-16.1l14,8.3l0,0l2.8,1.6
			l11.1,19L269.6,279.5z"/>
		<g id="XMLID_455_">
			<polygon id="XMLID_454_" class="st1" points="256.7,258.2 258.8,259.5 260.2,263.7 262.6,265.4 263.6,269.3 265.7,270.5 
				267.1,274.8 269.9,276.5 287.1,266.6 284.1,264.8 283.6,261 280.6,259.3 280.2,255.4 277.2,253.8 276.7,249.9 273.7,248.3 			"/>
			<g id="XMLID_453_">
				<path id="XMLID_458_" class="st2" d="M290.1,265.8l0-0.6l-0.5-0.3l-2.9-1.6l0-2.9l0-0.6l-0.5-0.3l-2.9-1.6v-2.9v-0.7l-0.6-0.3
					l-2.9-1.6v-2.9v-0.7l-0.6-0.3l-2.9-1.6l-0.1-2.9l0-0.6l-0.5-0.3l0,0l-1.1,0.6l0,0l-14.2,8.2l-4.1,2.4l0,0l-0.5,0.4v0.6l0.4,3
					l0,0l0.1,0.5l0,0l0.5,0.3l2.3,1.4l0.6,3.2l0,0l0.1,0.6l0.5,0.3l0,0l2.3,1.4l0.6,3.2l0,0l0.1,0.6l0.5,0.3l0,0l2.3,1.4l0.6,3.2
					l0,0l0.1,0.6l0.5,0.3l0,0l2.6,1.6l1,4.2l19.5-11.1V265.8z M259.7,259.5l-2-1.3l18.1-10.6l2.3,1.3L259.7,259.5z M263.2,265
					l-2.1-1.3l18.1-10.6l2.3,1.3L263.2,265z M266.6,270.5l-2-1.3l18.1-10.6l2.4,1.3L266.6,270.5z M270.1,276.1l-2.1-1.3l18.1-10.6
					l2.4,1.3L270.1,276.1z"/>
			</g>
		</g>
	</g>
</g>
<g id="_x32_">
	<g id="XMLID_673_">
		<polygon id="XMLID_683_" class="st0" points="449.2,194.1 449.2,198.7 450.3,200.6 452.1,208.4 454.8,210.2 454.6,197 450,194.9 
					"/>
		<polygon id="XMLID_682_" class="st1" points="452.6,196.6 452.6,201.7 453.9,209.6 458.8,210.2 459.5,202.4 459.5,198 		"/>
		<path id="XMLID_681_" class="st0" d="M468.2,183.7L468.2,183.7l-6.4-34.4h0c-0.3-2.3-2.3-4-4.6-4c-2.4,0-4.3,1.7-4.6,4h-0.1
			l-6,34.4h0c-0.2,0.9-0.4,1.8-0.4,2.8c0,6.2,5,11.2,11.2,11.2c6.2,0,11.2-5,11.2-11.2C468.6,185.5,468.5,184.6,468.2,183.7z"/>
		<g id="XMLID_679_">
			<path id="XMLID_680_" class="st1" d="M467.1,183.2L467.1,183.2l-5.2-31.6h0c-0.3-2.1-1.9-3.7-3.8-3.7c-1.9,0-3.5,1.6-3.8,3.7
				h-0.1l-4.9,31.5h0c-0.2,0.8-0.3,1.7-0.3,2.5c0,5.7,4.1,10.3,9.1,10.3c5,0,9.1-4.6,9.1-10.3C467.4,184.9,467.3,184,467.1,183.2z"
				/>
		</g>
		<path id="XMLID_674_" class="st2" d="M469.1,186.5c0-0.7-0.1-1.5-0.3-2.3h0l-6.5-35l-0.1-0.4h0c-0.5-2.3-2.6-4-5-4
			c-2.4,0-4.5,1.7-5,4h-0.1l-6,34.8l-0.1,0.8c-0.2,1-0.2,1.2-0.2,2.1c0,3,1.2,5.8,3.1,7.9v3.8c0,0.9,0.4,1.6,1,2.3l1.3,6.6
			c0,2,2.7,3.6,6.1,3.6s6.1-1.6,6-3.5l1.3-6.7c0.6-0.7,1-1.5,1-2.3l0-3.3C467.7,192.8,469.1,189.8,469.1,186.5z M446.6,186.5
			c0-0.8,0.1-1.7,0.4-2.7l0.1-0.6l0.3-1.8l5.5-31.7h0.1l0.1-0.4c0.3-1.8,1.6-3.1,3.3-3.5c1.2,0.6,1.9,1.4,1.9,3.2l2.8,32l0,0.9
			c0.1,1.1,0,2,0,3c0,6.2-2.4,10.6-8.6,10.6c-0.3,0-0.5,0-0.8,0C448.7,193.7,446.6,190.3,446.6,186.5z M449.7,198.2v-2.8
			c2.1,1.8,4.7,2.9,7.6,2.9c0.7,0,1.4-0.1,2.1-0.2v3.9c-0.7,0.1-1.5,0.2-2.3,0.2C453.1,202.1,449.7,200.3,449.7,198.2z M452.1,207
			l-1.1-5.6c1.5,1,3.7,1.6,6.2,1.6c0.8,0,1.5-0.1,2.3-0.2l-0.6,6.7c-0.5,0.1-1.1,0.2-1.7,0.2C454.4,209.7,452.1,208.5,452.1,207z"/>
	</g>
	<g id="XMLID_671_">
		<path id="XMLID_672_" class="st0" d="M459.5,199v-1c0,0,1.6-0.4,3.2-1.1c2.3-1.1,2.8-2,2.8-2l0,1.2c0,0,0,0.5-2.4,1.6
			C461.3,198.6,459.5,199,459.5,199z"/>
	</g>
	<g id="XMLID_669_">
		<path id="XMLID_670_" class="st0" d="M459.4,202.8l0-1c0.3-0.1,1.3-0.2,2.7-0.6c1.4-0.4,2.2-0.7,2.3-0.7l-0.2,1.1
			c0,0-0.6,0.3-2,0.6C460.8,202.6,459.5,202.8,459.4,202.8z"/>
	</g>
</g>
<g id="_x31_">
	<g id="XMLID_585_">
		<g id="XMLID_542_">
			
				<ellipse id="XMLID_543_" transform="matrix(0.1598 -0.9872 0.9872 0.1598 130.9282 574.0361)" class="st1" cx="402.7" cy="210.1" rx="8.5" ry="8.5"/>
			<path id="XMLID_828_" class="st0" d="M399,217.9c1.2,0.7,2.6,1.1,4.1,1.1c4.4,0,8.1-3.4,8.5-7.7c-1.2-0.7-2.6-1.1-4.1-1.1
				C403,210.2,399.4,213.6,399,217.9z"/>
			<path id="XMLID_545_" class="st2" d="M402.7,219.2c-5,0-9.1-4.1-9.1-9.1c0-5,4.1-9.1,9.1-9.1c5,0,9.1,4.1,9.1,9.1
				C411.8,215.1,407.7,219.2,402.7,219.2z M402.7,202.2c-4.3,0-7.9,3.5-7.9,7.9c0,4.3,3.5,7.9,7.9,7.9c4.3,0,7.9-3.5,7.9-7.9
				C410.5,205.8,407,202.2,402.7,202.2z"/>
		</g>
		<g id="XMLID_357_">
			<path id="XMLID_358_" class="st1" d="M395.5,232.4c-1.5-4.2-4.5-7.5-8.5-9.3c-2.8-1.3-5.8-1.8-8.7-1.5c-0.1-1.7-0.5-3.4-1.1-5.1
				c-0.6-1.8-1.5-3.5-2.6-5c0.6-1.2,1-2.6,1.3-4c0.1,0,0.1,0,0.2,0c1.2,0,2.5-0.2,3.6-0.6c5.6-2,8.5-8.2,6.5-13.8
				c-1-2.7-2.9-4.9-5.6-6.1c-2.6-1.2-5.5-1.4-8.2-0.4c-1.8,0.7-3.3,1.7-4.5,3.1c0-1.6-0.2-3.3-0.8-4.9c-0.1-0.3-0.2-0.6-0.4-0.9
				c0.4,0,0.8,0.1,1.2,0.1c1.2,0,2.3-0.2,3.5-0.6c5.3-1.9,8.1-7.9,6.2-13.2c-0.9-2.6-2.8-4.7-5.3-5.9c-2.5-1.2-5.3-1.3-7.9-0.4
				c-2.1,0.8-3.8,2.1-5,3.8c-0.8-1.2-1.8-2.1-3.1-2.7c-1.8-0.9-3.9-1-5.7-0.3c-3.9,1.4-5.9,5.7-4.5,9.7c0.4,1.2,1.1,2.3,2.1,3.1
				c-3.9,2.1-6.5,6.1-7,10.4c-0.3,0.1-0.6,0.2-0.9,0.3c-4.7,1.7-7.2,6.9-5.5,11.7c0.8,2.3,2.5,4.1,4.7,5.2c1.2,0.6,2.5,0.9,3.9,0.9
				c1,0,2.1-0.2,3.1-0.5c0.2-0.1,0.5-0.2,0.7-0.3c0,0.6,0,1.1,0.1,1.7c-1.2,0.9-2.4,1.9-3.4,3c-1-1.1-2.1-2-3.5-2.7
				c-2.6-1.2-5.4-1.3-8.1-0.4c-4.9,1.8-7.7,6.8-6.9,11.8c-0.5,0.1-0.9,0.3-1.4,0.4c-9,3.3-13.8,13.3-10.5,22.4
				c1.6,4.4,4.8,7.9,9,9.9c2.4,1.1,4.9,1.7,7.4,1.7c2,0,4-0.3,5.9-1c0.1,0,0.2-0.1,0.3-0.1c-0.1,2.6,0.2,5.2,1.2,7.8
				c1.8,5.1,5.5,9.2,10.4,11.5c2.7,1.3,5.6,1.9,8.6,1.9c2.3,0,4.6-0.4,6.8-1.2c7.8-2.8,12.8-9.9,13.3-17.7c1.2,0.3,2.5,0.4,3.7,0.4
				c1.9,0,3.7-0.3,5.6-1C394.1,250.4,398.5,241,395.5,232.4z"/>
			<path id="XMLID_822_" class="st0" d="M359,214.8c0-7.7-6.3-14-14-14c-3,0-5.7,0.9-7.9,2.5c0.7,0.7,1.5,1.3,2.4,1.7
				c1.2,0.6,2.5,0.9,3.9,0.9c1,0,2.1-0.2,3.1-0.5c0.2-0.1,0.5-0.2,0.7-0.3c0,0.6,0,1.1,0.1,1.7c-1.2,0.9-2.4,1.9-3.4,3
				c-1-1.1-2.1-2-3.5-2.7c-2-0.9-4.2-1.2-6.3-0.8c-1.9,2.4-3,5.4-3,8.6c0,7.7,6.3,14,14,14C352.7,228.8,359,222.5,359,214.8z"/>
			<path id="XMLID_788_" class="st0" d="M375.9,189.6c0-1.3-0.3-2.5-0.7-3.7c-0.9,0.1-1.9,0.3-2.8,0.6c-1.8,0.7-3.3,1.7-4.5,3.1
				c0-1.6-0.2-3.3-0.8-4.9c-0.1-0.3-0.2-0.6-0.4-0.9c0.4,0,0.8,0.1,1.2,0.1c1.2,0,2.3-0.2,3.5-0.6c0.5-0.2,1.1-0.4,1.5-0.7
				c-1.7-1.7-4.1-2.7-6.6-2.7c-5.3,0-9.6,4.3-9.6,9.6c0,5.3,4.3,9.6,9.6,9.6C371.6,199.2,375.9,194.9,375.9,189.6z"/>
			<path id="XMLID_695_" class="st0" d="M366.7,226.9c-9.9,0-17.8,8-17.8,17.8c0,9.9,8,17.8,17.8,17.8c2.9,0,5.5-0.7,7.9-1.9
				c0.9-2.1,1.5-4.4,1.7-6.7c1.2,0.3,2.5,0.4,3.7,0.4c0.6,0,1.2,0,1.8-0.1c1.8-2.8,2.8-6,2.8-9.6
				C384.6,234.9,376.6,226.9,366.7,226.9z"/>
			<path id="XMLID_667_" class="st2" d="M356.2,273.6c-3.1,0-6-0.7-8.8-2c-5-2.4-8.9-6.6-10.8-11.9c-0.8-2.3-1.2-4.7-1.2-7.1
				c-1.8,0.6-3.6,0.9-5.5,0.9c0,0,0,0,0,0c-2.7,0-5.2-0.6-7.7-1.7c-4.4-2.1-7.7-5.7-9.3-10.3c-3.4-9.4,1.5-19.8,10.9-23.2
				c0.3-0.1,0.6-0.2,0.9-0.3c-0.6-5.2,2.4-10.1,7.4-11.9c2.8-1,5.9-0.9,8.6,0.4c1.2,0.6,2.3,1.3,3.2,2.3c0.8-0.9,1.7-1.6,2.7-2.3
				c0-0.2,0-0.3,0-0.5c-2.4,0.8-5,0.7-7.3-0.4c-2.4-1.1-4.1-3.1-5-5.5c-1.8-5.1,0.8-10.7,5.9-12.5c0.2-0.1,0.4-0.1,0.6-0.2
				c0.6-4.2,3-7.8,6.5-10c-0.7-0.8-1.3-1.7-1.6-2.7c-1.5-4.3,0.7-9,4.9-10.5c2-0.7,4.3-0.6,6.2,0.3c1.1,0.5,2.1,1.3,2.8,2.2
				c1.2-1.5,2.9-2.7,4.7-3.4c2.7-1,5.7-0.8,8.3,0.4c2.6,1.2,4.7,3.5,5.6,6.2c2,5.7-0.9,12-6.6,14c-1.3,0.5-2.5,0.7-3.9,0.7
				c0.4,1.1,0.7,2.3,0.8,3.6c1.1-1,2.3-1.7,3.7-2.2c2.9-1,6-0.9,8.7,0.4c2.8,1.3,4.9,3.6,5.9,6.5c2.1,5.9-1,12.5-6.9,14.7
				c-1.1,0.4-2.3,0.6-3.5,0.7c-0.2,1.1-0.6,2.2-1,3.2c1,1.5,1.9,3.1,2.5,4.8c0.5,1.5,0.9,3.1,1.1,4.7c2.9-0.2,5.8,0.3,8.4,1.6
				c4.1,1.9,7.3,5.4,8.8,9.7l0,0c3.2,8.9-1.4,18.7-10.3,21.9c-2.9,1-5.9,1.3-8.9,0.7c-0.8,8-6.1,14.8-13.7,17.6
				C360.9,273.2,358.5,273.6,356.2,273.6z M336.7,250.8l0,1c-0.1,2.6,0.3,5.1,1.1,7.6c1.8,5,5.4,8.9,10.1,11.2
				c4.7,2.2,10,2.5,14.9,0.7c7.3-2.6,12.4-9.4,12.9-17.2l0.1-0.7l0.7,0.2c3,0.7,6.1,0.5,8.9-0.5c8.2-2.9,12.4-12,9.5-20.3l0,0
				c-1.4-4-4.3-7.2-8.1-9c-2.6-1.2-5.5-1.7-8.4-1.4l-0.7,0.1l-0.1-0.7c-0.1-1.7-0.5-3.4-1.1-5c-0.6-1.7-1.5-3.3-2.5-4.8l-0.2-0.3
				l0.2-0.3c0.6-1.2,1-2.5,1.2-3.8l0.1-0.5l0.7,0c1.2,0,2.4-0.2,3.5-0.6c5.3-1.9,8-7.7,6.1-13c-0.9-2.6-2.8-4.6-5.2-5.8
				c-2.4-1.2-5.2-1.3-7.7-0.4c-1.6,0.6-3.1,1.6-4.2,2.9l-1.2,1.4l0-1.8c0-1.6-0.2-3.2-0.7-4.6c-0.1-0.3-0.2-0.6-0.3-0.8l-0.4-1
				l1.1,0.1c1.5,0.2,3,0,4.4-0.5c5-1.8,7.6-7.4,5.8-12.4c-0.9-2.4-2.6-4.4-5-5.5c-2.3-1.1-4.9-1.2-7.4-0.3c-1.9,0.7-3.5,1.9-4.6,3.6
				l-0.5,0.8l-0.5-0.8c-0.7-1.1-1.7-1.9-2.8-2.5c-1.7-0.8-3.5-0.9-5.3-0.2c-3.6,1.3-5.4,5.3-4.2,8.9c0.4,1.1,1,2.1,1.9,2.8l0.7,0.6
				l-0.8,0.4c-3.7,2-6.2,5.7-6.6,9.9l0,0.4l-0.4,0.1c-0.3,0.1-0.6,0.2-0.9,0.3c-4.4,1.6-6.7,6.4-5.1,10.9c0.8,2.1,2.3,3.8,4.4,4.8
				c2,1,4.3,1.1,6.4,0.3c0.2-0.1,0.4-0.2,0.6-0.3l0.9-0.4l0,1c0,0.6,0,1.1,0.1,1.6l0,0.4l-0.3,0.2c-1.2,0.8-2.3,1.8-3.3,2.9
				l-0.5,0.5l-0.5-0.5c-0.9-1.1-2-1.9-3.3-2.5c-2.4-1.1-5.1-1.3-7.6-0.4c-4.5,1.6-7.3,6.3-6.4,11.1l0.1,0.6l-0.6,0.2
				c-0.4,0.1-0.9,0.2-1.3,0.4c-8.7,3.1-13.3,12.8-10.1,21.6c1.5,4.3,4.6,7.7,8.7,9.6c2.3,1.1,4.7,1.6,7.1,1.6c0,0,0,0,0,0
				c1.9,0,3.8-0.3,5.7-1L336.7,250.8z"/>
			<g id="XMLID_1852_">
				<path id="XMLID_1855_" class="st1" d="M354.5,251.8c-10,0-18.1-8.1-18.1-18.1c0-10,8.1-18.1,18.1-18.1s18.1,8.1,18.1,18.1
					C372.6,243.7,364.5,251.8,354.5,251.8z M354.5,216.9c-9.3,0-16.8,7.6-16.8,16.8c0,9.3,7.6,16.8,16.8,16.8
					c9.3,0,16.8-7.6,16.8-16.8C371.4,224.5,363.8,216.9,354.5,216.9z"/>
			</g>
		</g>
		<g id="XMLID_1735_">
			
				<ellipse id="XMLID_1747_" transform="matrix(0.9952 -9.828277e-02 9.828277e-02 0.9952 -24.0331 38.3193)" class="st2" cx="376.9" cy="263.1" rx="13.3" ry="13.3"/>
			<path id="XMLID_1757_" class="st0" d="M379.9,253.5c0,6.9-5.6,12.6-12.6,12.6c-0.5,0-1.1,0-1.6-0.1c0,0.5,0.1,1,0.2,1.5
				c0.5,0,0.9,0.1,1.4,0.1c7.7,0,14-6.3,14-14c0-0.5,0-1-0.1-1.5c-0.5-0.1-1-0.1-1.5-0.2C379.9,252.3,379.9,252.9,379.9,253.5z"/>
		</g>
	</g>
	<g id="XMLID_581_">
		<path id="XMLID_562_" class="st0" d="M377.2,111c6.1,0.6-9,26.9-12.8,29c-3.8,2-25.9,16.7-28.5,13.8
			C333.2,150.8,363,109.6,377.2,111z"/>
		<path id="XMLID_575_" class="st1" d="M346.4,134.9c0,0,8.3-0.8,16-8.1c5.4-5.2,6.7-13.1,6.7-13.1
			C361.9,117.4,353.3,126.3,346.4,134.9z"/>
		<path id="XMLID_566_" class="st0" d="M399.6,120.6c-4.2-4-11.8,24.8-10.8,28.9c1,4.2,4.7,30.4,8.4,30.3
			C400.8,179.8,409.4,130,399.6,120.6z"/>
		<g id="XMLID_521_">
			<path id="XMLID_577_" class="st1" d="M378.3,144.1c-0.6-1.1-1.9-1.5-3.1-0.9c-2.7,1.4-8.1,4.5-10.9,11
				c-2.9,6.4-2.2,14.8-0.7,18.3c0.6,1.4,2.2,2.5,3.6,2c3.7-1.5,9.3-6.1,12-12.4C382.7,153.5,379.9,147.1,378.3,144.1z"/>
			<path id="XMLID_578_" class="st2" d="M366.4,175.3c-1.5,0-2.8-1.2-3.4-2.5c-1.6-3.7-2.2-12.3,0.7-18.9c2.1-4.8,6-8.7,11.3-11.3
				c1.5-0.7,3.2-0.2,4,1.2l0,0c3.2,5.9,3.5,12.2,0.9,18.5c-2.5,6.1-8.1,11.1-12.3,12.8C367.1,175.2,366.7,175.3,366.4,175.3z
				 M376.3,143.6c-0.3,0-0.5,0.1-0.7,0.2c-4.9,2.5-8.6,6.1-10.6,10.7c-2.8,6.2-2.2,14.3-0.7,17.8c0.5,1.1,1.7,2,2.7,1.6
				c3.2-1.3,8.9-5.6,11.6-12c2.5-5.9,2.2-11.8-0.8-17.3v0C377.4,143.9,376.9,143.6,376.3,143.6z"/>
		</g>
		<g id="XMLID_522_">
			<path id="XMLID_552_" class="st0" d="M376.6,149.4c-0.3-0.6-1-0.8-1.6-0.5c-1.4,0.7-4.2,2.4-5.8,5.8c-1.5,3.4-1.2,7.8-0.4,9.6
				c0.3,0.8,1.1,1.3,1.9,1c1.9-0.8,4.9-3.2,6.3-6.5C378.9,154.3,377.5,150.9,376.6,149.4z"/>
			<path id="XMLID_559_" class="st2" d="M369.6,163.6c-0.9,0-1.7-0.7-2.1-1.5c-0.8-1.9-1.3-6.3,0.4-10c1.1-2.5,3.2-4.6,5.9-6
				c0.9-0.5,2-0.1,2.5,0.8c1.7,3.1,1.8,6.4,0.5,9.8c-1.3,3.2-4.3,5.8-6.5,6.7C370,163.6,369.8,163.6,369.6,163.6z M374.7,147.3
				c-0.1,0-0.2,0-0.2,0.1c-2.5,1.2-4.3,3.1-5.3,5.3c-1.4,3.1-1.1,7.2-0.4,8.9c0.2,0.4,0.6,0.8,0.9,0.7c1.9-0.8,4.6-3.2,5.8-6
				c1.2-3,1.1-5.9-0.4-8.6v0C375,147.4,374.9,147.3,374.7,147.3z"/>
		</g>
		<path id="XMLID_571_" class="st2" d="M379.2,112.3c-0.2-1.1-0.9-1.8-2-1.9c-12.7-1.3-35.5,28.5-40.7,38.6
			c-1.9,3.7-1.6,4.7-1.2,5.3c0.4,0.4,0.9,0.6,1.7,0.6c3.6,0,11.6-4.4,23.5-11.7c1.9-1.2,3.4-2.1,4.2-2.5
			C368.5,138.6,380.3,118,379.2,112.3z M371.7,112.8c0,0-3.1,12.1-11,20.3c-6.6,6.8-16.4,9.8-19.5,10.6c1.2-1.8,2.5-3.7,4.1-5.8
			C353.5,127.1,363.9,116.3,371.7,112.8z"/>
		<path id="XMLID_558_" class="st0" d="M409.8,40.4l15.8,6.4c0,0-4,32.1-14.3,57.4c-10.2,25.2-20.5,42.5-20.5,42.5
			c-1.7,4.3-8.7,5.4-15.6,2.6c-6.9-2.8-11.1-8.5-9.4-12.8c0,0,2.4-14.5,14.6-44.9C392.6,61.2,409.8,40.4,409.8,40.4z"/>
		<path id="XMLID_568_" class="st1" d="M402.1,78.2C412.2,54.8,415,44.4,415,44.4l-6.9-2.7c-3.8,4.9-17.9,23.9-28.4,50
			c-1.8,4.5-3.4,8.6-4.8,12.4c-1.6,8.5-2.9,17-1,17.8C379.3,124.1,391.7,102.3,402.1,78.2z"/>
		<path id="XMLID_564_" class="st2" d="M400.1,120.1c-0.7-0.7-1.5-0.8-2.4-0.3c-4.8,2.7-10.4,26.3-9.6,29.9c0.2,0.8,0.5,2.6,0.9,4.8
			c2.9,16.5,5.2,26,8.1,26c0,0,0,0,0,0c0.8,0,1.5-0.9,2.3-2.9C403.5,167.3,408.8,128.5,400.1,120.1z M389.5,149.4
			c-0.9-3.8,5.1-26.2,8.9-28.4c0.1-0.1,0.3-0.1,0.4-0.1c0.1,0,0.3,0.1,0.4,0.2c2.1,2,3.3,5.9,3.9,10.8c-0.9,0.8-4.4,4.4-8.3,17.4
			c-1.9,6.3-2.4,11.7-2.2,16.1c-0.7-3.2-1.4-6.9-2.1-11.1C390,152.1,389.7,150.3,389.5,149.4z"/>
		<path id="XMLID_574_" class="st2" d="M409.6,39.5l-0.3,0.4c-0.2,0.2-17.4,21.2-29.5,51.4c-11.7,29-14.4,43.8-14.6,45
			c-1.8,4.6,2.6,10.7,9.8,13.6c2.6,1,5.2,1.6,7.6,1.6c1.8,0,3.6-0.3,5-0.9c1.8-0.8,3.2-2,3.8-3.6c0.6-1,10.7-18.2,20.6-42.5
			c10.1-25,14.3-57.2,14.3-57.5l0.1-0.5L409.6,39.5z M366.4,136.7l0-0.1c0-0.1,2.5-14.8,14.5-44.8c11.1-27.7,26.6-47.7,29-50.6
			l12,4.9l-5.2,2.5c0,0-5.1,23.5-17.6,51.1c-9.2,20.3-15.3,38.1-21.4,42.3c-4,2.8-8.4,2.1-10.4,0.2
			C366.1,140.3,365.8,138.4,366.4,136.7z"/>
		<g id="XMLID_551_">
			<path id="XMLID_547_" class="st2" d="M397.3,105c-1.3,0-2.7-0.3-4-0.8c-5.4-2.2-8.1-8.4-5.9-13.9v0c1.1-2.6,3.1-4.7,5.7-5.8
				c2.6-1.1,5.5-1.1,8.1-0.1c5.4,2.2,8.1,8.4,5.9,13.9c-1.1,2.7-3.1,4.7-5.7,5.8C400.1,104.7,398.7,105,397.3,105z"/>
			<path id="XMLID_549_" class="st0" d="M397.3,105.5c-1.4,0-2.8-0.3-4.2-0.8c-5.7-2.3-8.5-8.9-6.2-14.6c1.1-2.8,3.2-5,6-6.1
				c2.7-1.2,5.8-1.2,8.5-0.1c5.7,2.3,8.5,8.9,6.2,14.6c-1.1,2.8-3.2,5-6,6.1C400.2,105.2,398.8,105.5,397.3,105.5z M397.3,84.2
				c-1.3,0-2.7,0.3-3.9,0.8c-2.5,1.1-4.4,3-5.4,5.5c-2.1,5.2,0.4,11.1,5.6,13.2c2.5,1,5.3,1,7.7-0.1c2.5-1.1,4.4-3,5.4-5.5
				c2.1-5.2-0.4-11.1-5.6-13.2C399.8,84.4,398.6,84.2,397.3,84.2z"/>
			<g id="XMLID_602_">
				<path id="XMLID_546_" class="st0" d="M391.2,91.9c-1.4,3.4,0.3,7.2,3.6,8.5c3.3,1.4,7.2-0.3,8.5-3.6c1.4-3.4-0.3-7.2-3.6-8.5
					C396.4,86.9,392.6,88.5,391.2,91.9z"/>
			</g>
		</g>
		<path id="XMLID_554_" class="st0" d="M409.8,40.4c-1,2.5,1.7,6.1,6.1,7.8c4.4,1.8,8.8,1.2,9.8-1.4c1-2.5,3.1-18-1.3-19.8
			C420,25.2,410.8,37.8,409.8,40.4z"/>
		<path id="XMLID_576_" class="st1" d="M392.1,92.2c-0.3,0.7-0.4,1.3-0.4,2c0.6,1.1,1.5,1.9,2.8,2.4c2.8,1.2,6.1-0.2,7.2-3.1
			c0.3-0.7,0.4-1.3,0.4-2c-0.6-1.1-1.5-1.9-2.8-2.4C396.5,88,393.3,89.4,392.1,92.2z"/>
		<path id="XMLID_569_" class="st1" d="M422.2,32.2c0.6-1.6,0.8-3.5,0.8-5.3c-3.2,0.7-9.1,7.4-11.9,11.2c0,0-0.7,3.2,2.4,4.5
			C416,43.6,420.5,36.9,422.2,32.2z"/>
		<path id="XMLID_570_" class="st2" d="M424.6,26.4c-0.9-0.4-1.9-0.3-3.1,0.2c-4.8,2-11.4,11.2-12.4,13.5v0
			c-1.2,2.9,1.6,6.8,6.4,8.7c1.7,0.7,3.5,1.1,5.1,1.1c1.2,0,2.3-0.2,3.2-0.6c1.2-0.5,2-1.3,2.4-2.3
			C427.1,44.9,429.7,28.5,424.6,26.4z M423.3,48c-1.8,0.8-4.6,0.6-7.3-0.5c-4-1.6-6.6-4.8-5.7-7c0.8-2,7.1-10.8,11.6-12.7
			c0.6-0.3,1.2-0.4,1.6-0.3c0.3,1.6,0,5.8-1.1,10.5c-1.3,5.9-3.3,8.7-3.3,8.7s2.1,1,5.7-0.3c0,0,0,0.1,0,0.1
			C424.7,47.2,424.2,47.7,423.3,48z"/>
	</g>
</g>
</svg>
