<?xml version="1.0" encoding="utf-8"?>
<!-- Generator: Adobe Illustrator 23.0.0, SVG Export Plug-In . SVG Version: 6.00 Build 0)  -->
<svg version="1.1" xmlns="http://www.w3.org/2000/svg" xmlns:xlink="http://www.w3.org/1999/xlink" x="0px" y="0px"
	 viewBox="0 0 750 500" style="enable-background:new 0 0 750 500;" xml:space="preserve">
<style type="text/css">
	.st0{fill:#A4D2F5;}
	.st1{fill:#FFFFFF;}
	.st2{opacity:0.2;}
	.st3{fill:#40649F;}
	.st4{fill:#4EA2E5;}
	.st5{fill:#5C8BC6;}
	.st6{fill:#6FA1D8;}
	.st7{fill:#1C344D;}
	.st8{fill:#F7F7FF;}
	.st9{fill:#B0A8C6;}
	.st10{fill:#E9E4F2;}
	.st11{clip-path:url(#SVGID_2_);}
	.st12{fill:#CEC7DD;}
	.st13{fill:#F2F0F7;}
	.st14{fill:#9C95B5;}
	.st15{fill:#8A83A5;}
	.st16{fill:#338AC4;}
	.st17{clip-path:url(#SVGID_4_);fill:#1C344D;}
	.st18{fill:#DF5719;}
	.st19{fill:#F26B51;}
	.st20{fill:none;stroke:#FFFFFF;stroke-width:0.4938;stroke-miterlimit:10;}
	.st21{fill:none;stroke:#FFFFFF;stroke-width:0.5121;stroke-miterlimit:10;}
	.st22{fill:none;stroke:#FFFFFF;stroke-width:0.5241;stroke-miterlimit:10;}
</style>
<g id="BACKGROUND">
	<g>
		<g>
			<rect class="st0" width="750" height="500"/>
			<rect y="404.9" class="st1" width="750" height="95.1"/>
		</g>
		<g class="st2">
			<g>
				<g>
					<path class="st1" d="M159.5,201.1H36.1c0,0,0-11.1,21.1-6.2c0,0,7.9-11.4,27.2-5.8c9-9.5,41.2-8,40.3,6.5
						C139.3,189.3,156.5,193.4,159.5,201.1z"/>
				</g>
				<g>
					<path class="st1" d="M183,56.3h92.8c0,0-3.1-7.4-22.6-4.2c-4.6-12.8-26.3-9.7-30.5-5.6c-13.6-7.2-29.7-0.5-25.9,6.7
						C188,51.8,183,56.3,183,56.3z"/>
				</g>
				<g>
					<path class="st1" d="M516.7,64.5h72.9c0,0,0-5.6-12.4-3.1c0,0-4.6-5.8-16.1-3c-5.3-4.8-24.4-4.1-23.8,3.3
						C528.6,58.6,518.4,60.7,516.7,64.5z"/>
				</g>
				<g>
					<path class="st1" d="M556.9,87.2h112.4c0,0,0-10.1-19.2-5.6c0,0-7.2-10.4-24.8-5.3c-8.2-8.6-37.6-7.3-36.7,5.9
						C575.3,76.4,559.6,80.2,556.9,87.2z"/>
				</g>
				<g>
					<path class="st1" d="M119.4,69.2h46c0,0-0.2-5.1-10.5-4.2c-3.6-8.1-19.2-5.3-22.4-0.1C123.1,61.7,119.4,69.2,119.4,69.2z"/>
				</g>
				<g>
					<path class="st1" d="M368.9,60.3h46c0,0-0.2-5.9-10.5-4.8c-3.6-9.4-19.2-6.1-22.4-0.1C372.6,51.6,368.9,60.3,368.9,60.3z"/>
				</g>
				<g>
					<path class="st1" d="M667.8,164.1h46c0,0-0.2-5.9-10.5-4.8c-3.6-9.4-19.2-6.1-22.4-0.1C671.5,155.4,667.8,164.1,667.8,164.1z"
						/>
				</g>
			</g>
		</g>
	</g>
</g>
<g id="OBJECTS">
	<g>
		<g>
			<path class="st3" d="M570.5,293.1c-0.2,0-0.5,0-0.7,0c-0.8,0-1.5-0.7-1.5-1.6l0,0c0-0.8,0.7-1.4,1.5-1.4
				c27.6,0.4,32.8-23.1,33.7-29.2c0.1-0.8,0.8-1.3,1.6-1.3l0,0c0.9,0.1,1.5,0.9,1.4,1.7C605.5,268,599.4,293.1,570.5,293.1z"/>
		</g>
		<path class="st4" d="M553.4,416.5c0,1.4,7.4,2.5,16.5,2.5c9.1,0,16.5-1.1,16.5-2.5c0-1.4-7.4-2.5-16.5-2.5
			C560.8,414,553.4,415.1,553.4,416.5z"/>
		
			<ellipse transform="matrix(0.9871 -0.1602 0.1602 0.9871 -22.8349 93.7194)" class="st5" cx="569.9" cy="188.5" rx="79.1" ry="79.1"/>
		
			<ellipse transform="matrix(0.9871 -0.1602 0.1602 0.9871 -29.8884 83.1955)" class="st5" cx="501.1" cy="227" rx="23.9" ry="23.9"/>
		
			<ellipse transform="matrix(0.9999 -1.087773e-02 1.087773e-02 0.9999 -2.6376 5.6803)" class="st5" cx="520.9" cy="245.3" rx="23.9" ry="23.9"/>
		<circle class="st5" cx="547.8" cy="254.5" r="23.9"/>
		
			<ellipse transform="matrix(0.9871 -0.1602 0.1602 0.9871 -33.3459 100.6527)" class="st5" cx="607.6" cy="257.2" rx="23.9" ry="23.9"/>
		<circle class="st5" cx="648.7" cy="198.6" r="23.9"/>
		<circle class="st5" cx="613.1" cy="122.7" r="23.9"/>
		<circle class="st5" cx="527.9" cy="122.7" r="23.9"/>
		<circle class="st5" cx="501.1" cy="161.7" r="23.9"/>
		
			<ellipse transform="matrix(0.9749 -0.2225 0.2225 0.9749 -12.4358 123.7395)" class="st5" cx="542.9" cy="117.1" rx="25.4" ry="25.4"/>
		<ellipse transform="matrix(0.73 -0.6835 0.6835 0.73 -71.5889 336.7425)" class="st5" cx="390.4" cy="259" rx="13.6" ry="13.6"/>
		<circle class="st5" cx="491.6" cy="188.5" r="11.4"/>
		
			<ellipse transform="matrix(0.9999 -1.272134e-02 1.272134e-02 0.9999 -2.5848 6.2156)" class="st5" cx="487.3" cy="206.3" rx="11.4" ry="11.4"/>
		<circle class="st5" cx="505.5" cy="132.9" r="11.4"/>
		<ellipse transform="matrix(0.989 -0.1476 0.1476 0.989 -9.5644 84.585)" class="st5" cx="565" cy="106.7" rx="11.4" ry="11.4"/>
		<circle class="st5" cx="578.3" cy="104.6" r="14.4"/>
		
			<ellipse transform="matrix(0.7682 -0.6402 0.6402 0.7682 68.2946 405.6089)" class="st5" cx="594.3" cy="108.5" rx="11.4" ry="11.4"/>
		
			<ellipse transform="matrix(0.6001 -0.7999 0.7999 0.6001 145.9689 567.6899)" class="st5" cx="640.8" cy="137.9" rx="13.3" ry="13.3"/>
		
			<ellipse transform="matrix(0.9862 -0.1655 0.1655 0.9862 -16.3286 108.2394)" class="st5" cx="641.2" cy="152.1" rx="11.4" ry="11.4"/>
		<circle class="st5" cx="650.6" cy="224.5" r="11.4"/>
		
			<ellipse transform="matrix(0.9712 -0.2383 0.2383 0.9712 -38.1836 160.9964)" class="st5" cx="646.9" cy="238.5" rx="11.4" ry="11.4"/>
		<circle class="st5" cx="636.4" cy="248" r="11.4"/>
		
			<ellipse transform="matrix(0.386 -0.9225 0.9225 0.386 111.4688 709.0087)" class="st5" cx="588.3" cy="270.8" rx="11.4" ry="11.4"/>
		<circle class="st5" cx="570.4" cy="270.8" r="11.4"/>
		
			<ellipse transform="matrix(0.9732 -0.2298 0.2298 0.9732 -36.6552 152.7543)" class="st5" cx="637.6" cy="233.8" rx="11.4" ry="11.4"/>
		<circle class="st5" cx="650.6" cy="165.2" r="11.4"/>
		<g>
			<g>
				<g>
					<path class="st3" d="M670.8,192.1c-2.1,2.1-2.8,4.7-1.6,5.9c1.2,1.2,3.8,0.5,5.9-1.6c2.1-2.1,2.8-4.7,1.6-5.9
						C675.5,189.3,672.8,190,670.8,192.1z"/>
				</g>
				<g>
					<path class="st3" d="M549.7,274.7c-2.3-1.8-5.1-2.1-6.1-0.8c-1,1.3,0.1,3.9,2.4,5.7c2.3,1.8,5.1,2.1,6.1,0.8
						C553.1,279,552,276.5,549.7,274.7z"/>
				</g>
				<g>
					<path class="st3" d="M635.1,118.5c-2.1,2.1-2.8,4.7-1.6,5.9c1.2,1.2,3.8,0.5,5.9-1.6c2.1-2.1,2.8-4.7,1.6-5.9
						C639.9,115.7,637.2,116.4,635.1,118.5z"/>
				</g>
				<g>
					<path class="st3" d="M636.9,122.8c-2.9,0.4-5.1,2-4.9,3.7c0.2,1.7,2.8,2.7,5.7,2.3c2.9-0.4,5.1-2,4.9-3.7
						C642.4,123.4,639.8,122.4,636.9,122.8z"/>
				</g>
				<g>
					<path class="st3" d="M485.1,144.1c2.1,2.1,4.7,2.8,5.9,1.6c1.2-1.2,0.5-3.8-1.6-5.9c-2.1-2.1-4.7-2.8-5.9-1.6
						C482.3,139.3,483,142,485.1,144.1z"/>
				</g>
				<g>
					<path class="st3" d="M488.7,138.5c0.4,2.9,2,5.1,3.7,4.9c1.7-0.2,2.7-2.8,2.3-5.7c-0.4-2.9-2-5.1-3.7-4.9
						C489.4,133.1,488.3,135.6,488.7,138.5z"/>
				</g>
				<g>
					<path class="st3" d="M505.6,107.1c0.4,2.9,2,5.1,3.7,4.9c1.7-0.2,2.7-2.8,2.3-5.7c-0.4-2.9-2-5.1-3.7-4.9
						C506.2,101.6,505.2,104.2,505.6,107.1z"/>
				</g>
				<g>
					<path class="st3" d="M475.1,233.1c2.9,0.5,5.5-0.4,5.8-2c0.3-1.7-1.8-3.4-4.7-4c-2.9-0.5-5.5,0.4-5.8,2
						C470.1,230.8,472.2,232.6,475.1,233.1z"/>
				</g>
				<g>
					<path class="st3" d="M666.4,203.5c-2.1,2.1-2.8,4.7-1.6,5.9c1.2,1.2,3.8,0.5,5.9-1.6c2.1-2.1,2.8-4.7,1.6-5.9
						C671.1,200.7,668.5,201.4,666.4,203.5z"/>
				</g>
				<g>
					<path class="st3" d="M478.8,153.8c2.9,0.2,5.4-0.9,5.6-2.6c0.1-1.7-2.1-3.2-5.1-3.5c-2.9-0.2-5.4,0.9-5.6,2.6
						C473.6,152,475.9,153.5,478.8,153.8z"/>
				</g>
				<g>
					<path class="st3" d="M487.4,243.6c0.8-2.8,0.1-5.5-1.5-5.9c-1.6-0.4-3.6,1.5-4.3,4.4c-0.8,2.8-0.1,5.5,1.5,5.9
						C484.7,248.4,486.6,246.4,487.4,243.6z"/>
				</g>
				<g>
					<path class="st3" d="M555.8,95.8c2.3-1.9,3.2-4.5,2.1-5.8c-1.1-1.3-3.8-0.8-6,1.1c-2.3,1.9-3.2,4.5-2.1,5.8
						C550.9,98.2,553.6,97.7,555.8,95.8z"/>
				</g>
				<g>
					<path class="st3" d="M626.5,273.1c-0.2-2.9-1.6-5.3-3.3-5.2c-1.7,0.1-2.9,2.5-2.8,5.5c0.2,2.9,1.6,5.3,3.3,5.2
						S626.6,276.1,626.5,273.1z"/>
				</g>
				<g>
					<path class="st3" d="M559.1,182.7c2.3-1.9,3.2-4.5,2.1-5.8c-1.1-1.3-3.8-0.8-6,1.1c-2.3,1.9-3.2,4.5-2.1,5.8
						C554.1,185.1,556.8,184.6,559.1,182.7z"/>
				</g>
				<g>
					<path class="st3" d="M474.9,226.6c2,2.2,4.6,3,5.8,1.9c1.2-1.1,0.7-3.8-1.3-6c-2-2.2-4.6-3-5.8-1.9
						C472.4,221.7,473,224.4,474.9,226.6z"/>
				</g>
				<g>
					<path class="st3" d="M656.2,154.3c-2.1,2.1-2.8,4.7-1.6,5.9c1.2,1.2,3.8,0.5,5.9-1.6c2.1-2.1,2.8-4.7,1.6-5.9
						C660.9,151.5,658.3,152.2,656.2,154.3z"/>
				</g>
				<g>
					<path class="st3" d="M525.8,140.6c-2.1,2.1-2.8,4.7-1.6,5.9s3.8,0.5,5.9-1.6c2.1-2.1,2.8-4.7,1.6-5.9
						C530.5,137.8,527.8,138.5,525.8,140.6z"/>
				</g>
				<g>
					<path class="st3" d="M654.4,240.6c-2.1,2.1-2.8,4.7-1.6,5.9s3.8,0.5,5.9-1.6c2.1-2.1,2.8-4.7,1.6-5.9
						C659.1,237.8,656.5,238.6,654.4,240.6z"/>
				</g>
				<g>
					<path class="st3" d="M520.9,138c-0.2,2.9,0.9,5.4,2.6,5.6c1.7,0.1,3.2-2.1,3.5-5.1c0.2-2.9-0.9-5.4-2.6-5.6
						C522.7,132.8,521.1,135,520.9,138z"/>
				</g>
				<g>
					<path class="st3" d="M616.7,138.7c-0.6,2.9,0.3,5.5,1.9,5.8c1.6,0.3,3.5-1.7,4-4.6c0.6-2.9-0.3-5.5-1.9-5.8
						C619.1,133.7,617.3,135.8,616.7,138.7z"/>
				</g>
				<g>
					<path class="st3" d="M602.3,100.1c-0.6,2.9,0.3,5.5,1.9,5.8c1.6,0.3,3.5-1.7,4-4.6c0.6-2.9-0.3-5.5-1.9-5.8
						C604.7,95.1,602.8,97.2,602.3,100.1z"/>
				</g>
				<g>
					<path class="st3" d="M546.4,91.2c-0.6,2.9,0.3,5.5,1.9,5.8c1.6,0.3,3.5-1.7,4-4.6c0.6-2.9-0.3-5.5-1.9-5.8
						C548.8,86.2,547,88.3,546.4,91.2z"/>
				</g>
				<g>
					<path class="st3" d="M661.5,158.7c-2.9,0.4-5.1,2-4.9,3.7c0.2,1.7,2.8,2.7,5.7,2.3c2.9-0.4,5.1-2,4.9-3.7
						C666.9,159.3,664.4,158.3,661.5,158.7z"/>
				</g>
				<g>
					<path class="st3" d="M611,279.7c-1.5,2.6-1.5,5.3,0,6.1c1.5,0.8,3.8-0.6,5.3-3.1c1.5-2.6,1.5-5.3,0-6.1
						C614.8,275.8,612.5,277.2,611,279.7z"/>
				</g>
				<g>
					<path class="st3" d="M608.8,269.2c-2.6,1.3-4.1,3.6-3.4,5.1c0.8,1.5,3.5,1.6,6.1,0.3c2.6-1.3,4.1-3.6,3.4-5.1
						C614.2,268,611.4,267.9,608.8,269.2z"/>
				</g>
				<g>
					<path class="st3" d="M611.7,194.1c-2.6,1.3-4.1,3.6-3.4,5.1c0.8,1.5,3.5,1.6,6.1,0.3c2.6-1.3,4.1-3.6,3.4-5.1
						C617.1,192.9,614.3,192.8,611.7,194.1z"/>
				</g>
				<g>
					<path class="st3" d="M582.5,234c-1.1-2.7-3.2-4.5-4.8-3.9c-1.6,0.6-2,3.3-0.9,6.1c1.1,2.7,3.2,4.5,4.8,3.9
						C583.2,239.5,583.6,236.8,582.5,234z"/>
				</g>
				<g>
					<path class="st3" d="M558.7,165.7c-1.1-2.7-3.2-4.5-4.8-3.9c-1.6,0.6-2,3.3-0.9,6.1c1.1,2.7,3.2,4.5,4.8,3.9
						C559.4,171.2,559.8,168.4,558.7,165.7z"/>
				</g>
				<g>
					<path class="st3" d="M505.4,112.3c-2.7-1.3-5.4-1.1-6.1,0.4c-0.7,1.5,0.8,3.8,3.5,5.1c2.7,1.3,5.4,1.1,6.1-0.4
						C509.6,115.8,508,113.5,505.4,112.3z"/>
				</g>
				<g>
					<path class="st3" d="M630.3,109.4c-0.6,2.9,0.3,5.5,1.9,5.8c1.6,0.3,3.5-1.7,4-4.6c0.6-2.9-0.3-5.5-1.9-5.8
						C632.7,104.4,630.9,106.5,630.3,109.4z"/>
				</g>
				<g>
					<path class="st3" d="M668.7,206.4c-2.9,0.4-5.1,2-4.9,3.7c0.2,1.7,2.8,2.7,5.7,2.3c2.9-0.4,5.1-2,4.9-3.7
						C674.1,207,671.6,206,668.7,206.4z"/>
				</g>
			</g>
		</g>
		<g>
			<g>
				<g>
					<path class="st6" d="M486.6,181.3c1.8-1.8,2.4-4.1,1.4-5.2c-1-1-3.3-0.4-5.2,1.4c-1.8,1.8-2.4,4.1-1.4,5.2
						C482.5,183.7,484.8,183.1,486.6,181.3z"/>
				</g>
				<g>
					<path class="st6" d="M591.9,109.4c2,1.6,4.4,1.9,5.3,0.7c0.9-1.2-0.1-3.4-2.1-4.9c-2-1.6-4.4-1.9-5.3-0.7
						C589,105.7,589.9,107.9,591.9,109.4z"/>
				</g>
				<g>
					<path class="st6" d="M517.6,245.3c1.8-1.8,2.4-4.1,1.4-5.2c-1-1-3.3-0.4-5.2,1.4c-1.8,1.8-2.4,4.1-1.4,5.2
						C513.4,247.8,515.7,247.2,517.6,245.3z"/>
				</g>
				<g>
					<path class="st6" d="M516,241.6c2.5-0.3,4.4-1.8,4.3-3.2c-0.2-1.5-2.4-2.4-5-2c-2.5,0.3-4.4,1.8-4.3,3.2
						C511.3,241,513.5,242,516,241.6z"/>
				</g>
				<g>
					<path class="st6" d="M648.1,223.1c-1.8-1.8-4.1-2.4-5.2-1.4c-1,1-0.4,3.3,1.4,5.2c1.8,1.8,4.1,2.4,5.2,1.4
						C650.5,227.2,649.9,224.9,648.1,223.1z"/>
				</g>
				<g>
					<path class="st6" d="M645,227.9c-0.3-2.5-1.8-4.4-3.2-4.3c-1.5,0.2-2.4,2.4-2,5c0.3,2.5,1.8,4.4,3.2,4.3
						C644.4,232.6,645.3,230.4,645,227.9z"/>
				</g>
				<g>
					<path class="st6" d="M630.3,255.2c-0.3-2.5-1.8-4.4-3.2-4.3c-1.5,0.2-2.4,2.4-2,5c0.3,2.5,1.8,4.4,3.2,4.3
						C629.7,260,630.6,257.8,630.3,255.2z"/>
				</g>
				<g>
					<path class="st6" d="M656.8,145.6c-2.5-0.5-4.8,0.3-5,1.8c-0.3,1.4,1.6,3,4.1,3.4c2.5,0.5,4.8-0.3,5-1.8
						C661.1,147.6,659.3,146.1,656.8,145.6z"/>
				</g>
				<g>
					<path class="st6" d="M490.4,171.4c1.8-1.8,2.4-4.1,1.4-5.2c-1-1-3.3-0.4-5.2,1.4c-1.8,1.8-2.4,4.1-1.4,5.2
						C486.2,173.8,488.5,173.2,490.4,171.4z"/>
				</g>
				<g>
					<path class="st6" d="M653.6,214.7c-2.6-0.2-4.7,0.8-4.8,2.3c-0.1,1.5,1.9,2.8,4.4,3c2.6,0.2,4.7-0.8,4.8-2.3
						C658.1,216.2,656.1,214.9,653.6,214.7z"/>
				</g>
				<g>
					<path class="st6" d="M646.1,136.5c-0.7,2.5-0.1,4.8,1.3,5.2c1.4,0.4,3.1-1.3,3.8-3.8c0.7-2.5,0.1-4.8-1.3-5.2
						C648.5,132.3,646.8,134,646.1,136.5z"/>
				</g>
				<g>
					<path class="st6" d="M586.6,265.1c-2,1.7-2.8,3.9-1.8,5c0.9,1.1,3.3,0.7,5.3-1c2-1.7,2.8-3.9,1.8-5
						C590.9,263,588.5,263.5,586.6,265.1z"/>
				</g>
				<g>
					<path class="st6" d="M525.1,110.8c0.1,2.6,1.4,4.6,2.9,4.5c1.5-0.1,2.5-2.2,2.4-4.8c-0.1-2.6-1.4-4.6-2.9-4.5
						C526,106.1,525,108.2,525.1,110.8z"/>
				</g>
				<g>
					<path class="st6" d="M583.7,189.5c-2,1.7-2.8,3.9-1.8,5c0.9,1.1,3.3,0.7,5.3-1c2-1.7,2.8-3.9,1.8-5
						C588.1,187.4,585.7,187.8,583.7,189.5z"/>
				</g>
				<g>
					<path class="st6" d="M656.9,151.3c-1.7-1.9-4-2.6-5.1-1.7c-1.1,1-0.6,3.3,1.2,5.2c1.7,1.9,4,2.6,5.1,1.7
						C659.2,155.6,658.7,153.2,656.9,151.3z"/>
				</g>
				<g>
					<path class="st6" d="M499.3,214.2c1.8-1.8,2.4-4.1,1.4-5.2c-1-1-3.3-0.4-5.2,1.4c-1.8,1.8-2.4,4.1-1.4,5.2
						C495.1,216.6,497.4,216,499.3,214.2z"/>
				</g>
				<g>
					<path class="st6" d="M612.7,226.1c1.8-1.8,2.4-4.1,1.4-5.2s-3.3-0.4-5.2,1.4c-1.8,1.8-2.4,4.1-1.4,5.2
						C608.6,228.6,610.9,227.9,612.7,226.1z"/>
				</g>
				<g>
					<path class="st6" d="M500.8,139.1c1.8-1.8,2.4-4.1,1.4-5.2c-1-1-3.3-0.4-5.2,1.4c-1.8,1.8-2.4,4.1-1.4,5.2
						C496.7,141.5,499,140.9,500.8,139.1z"/>
				</g>
				<g>
					<path class="st6" d="M617,228.4c0.2-2.6-0.8-4.7-2.3-4.8c-1.5-0.1-2.8,1.9-3,4.4c-0.2,2.6,0.8,4.7,2.3,4.8
						C615.4,232.9,616.8,230.9,617,228.4z"/>
				</g>
				<g>
					<path class="st6" d="M546.2,261.3c0.5-2.5-0.2-4.8-1.7-5.1c-1.4-0.3-3,1.5-3.5,4c-0.5,2.5,0.2,4.8,1.7,5.1
						C544.1,265.7,545.7,263.9,546.2,261.3z"/>
				</g>
				<g>
					<path class="st6" d="M594.7,269.1c0.5-2.5-0.2-4.8-1.7-5.1c-1.4-0.3-3,1.5-3.5,4c-0.5,2.5,0.2,4.8,1.7,5.1
						S594.2,271.6,594.7,269.1z"/>
				</g>
				<g>
					<path class="st6" d="M494.7,210.4c2.5-0.3,4.4-1.8,4.3-3.2c-0.2-1.5-2.4-2.4-5-2c-2.5,0.3-4.4,1.8-4.3,3.2
						C489.9,209.8,492.1,210.7,494.7,210.4z"/>
				</g>
				<g>
					<path class="st6" d="M538.6,105.1c1.3-2.2,1.3-4.6,0-5.3c-1.3-0.7-3.3,0.5-4.6,2.7c-1.3,2.2-1.3,4.6,0,5.3
						C535.2,108.5,537.3,107.3,538.6,105.1z"/>
				</g>
				<g>
					<path class="st6" d="M540.5,114.2c2.3-1.2,3.6-3.2,2.9-4.5c-0.7-1.3-3.1-1.4-5.3-0.2c-2.3,1.2-3.6,3.2-2.9,4.5
						C535.8,115.3,538.2,115.4,540.5,114.2z"/>
				</g>
				<g>
					<path class="st6" d="M625.2,105.7c0.9,2.4,2.8,3.9,4.2,3.4c1.4-0.5,1.7-2.9,0.8-5.3c-0.9-2.4-2.8-3.9-4.2-3.4
						C624.6,100.9,624.3,103.3,625.2,105.7z"/>
				</g>
				<g>
					<path class="st6" d="M581.5,222.1c0.9,2.4,2.8,3.9,4.2,3.4c1.4-0.5,1.7-2.9,0.8-5.3c-0.9-2.4-2.8-3.9-4.2-3.4
						C580.9,217.4,580.6,219.7,581.5,222.1z"/>
				</g>
				<g>
					<path class="st6" d="M630.5,250.8c2.3,1.1,4.7,0.9,5.3-0.4c0.6-1.3-0.7-3.3-3-4.4c-2.3-1.1-4.7-0.9-5.3,0.4
						C626.8,247.7,628.2,249.6,630.5,250.8z"/>
				</g>
				<g>
					<path class="st6" d="M521.8,253.2c0.5-2.5-0.2-4.8-1.7-5.1c-1.4-0.3-3,1.5-3.5,4c-0.5,2.5,0.2,4.8,1.7,5.1
						S521.3,255.8,521.8,253.2z"/>
				</g>
				<g>
					<path class="st6" d="M488.4,168.9c2.5-0.3,4.4-1.8,4.3-3.2c-0.2-1.5-2.4-2.4-5-2c-2.5,0.3-4.4,1.8-4.3,3.2
						C483.6,168.3,485.9,169.2,488.4,168.9z"/>
				</g>
			</g>
		</g>
		<g>
			<g>
				<path class="st3" d="M569.9,416.5L569.9,416.5c-1.2,0-2.2-1.2-2.2-2.7V218.1c0-1.5,1-2.7,2.2-2.7l0,0c1.2,0,2.2,1.2,2.2,2.7
					v195.8C572.1,415.3,571.1,416.5,569.9,416.5z"/>
			</g>
		</g>
		<g>
			<path class="st3" d="M567,250.1c-39.3,0-46.7-34.8-47.9-42.7c-0.1-0.9,0.5-1.6,1.4-1.7l1-0.1c0.8-0.1,1.5,0.5,1.6,1.3
				c1,7.3,7.5,40,45.3,39.2c0.8,0,1.5,0.6,1.5,1.4l0,1c0,0.8-0.6,1.5-1.4,1.6C568,250.1,567.5,250.1,567,250.1z"/>
		</g>
	</g>
	<g>
		<rect x="99.7" y="402.3" class="st3" width="449.6" height="16.6"/>
		<rect x="137.1" y="66.9" class="st4" width="374.7" height="15.9"/>
		<g>
			<rect x="99.7" y="94.4" class="st7" width="35.7" height="6"/>
			<rect x="99.7" y="133" class="st7" width="35.7" height="6"/>
		</g>
		<rect x="122.1" y="97.7" class="st8" width="404.7" height="289.3"/>
		<rect x="143.6" y="235.4" class="st3" width="107.1" height="160.3"/>
		<rect x="153.9" y="245.3" class="st9" width="86.5" height="150.4"/>
		<rect x="265.4" y="235.4" class="st3" width="239.2" height="127.6"/>
		<rect x="153.9" y="245.3" class="st10" width="86.5" height="120.2"/>
		<rect x="273.1" y="245.3" class="st10" width="223.8" height="98.2"/>
		<g>
			<defs>
				<rect id="SVGID_1_" x="273.1" y="245.3" width="223.8" height="98.2"/>
			</defs>
			<clipPath id="SVGID_2_">
				<use xlink:href="#SVGID_1_"  style="overflow:visible;"/>
			</clipPath>
			<g class="st11">
				<g>
					<g>
						<g>
							<path class="st12" d="M396.7,314.1c0,0-0.8,2.6-1,3.5c-0.3,0.9-1,2.7-1.4,2.6c-0.4-0.1,0.4-3.5,0.2-3.7c-0.2-0.2-1.8,1.6-2,2
								c-0.2,0.5,0.4,3.9,0,4c-0.4,0-1.2-1.8-1.5-3.7c-0.2-2,2.6-6,2.6-6L396.7,314.1z"/>
						</g>
						<g>
							<path class="st12" d="M414.1,314.3c-0.2-8.4-6.2-9.1-6.2-9.1s-6.1-0.7-6.3,7.6c-0.2,6.4,1.6,23.9,2.4,31.7
								c0.2,2.2,1.8,4,3.6,4.2l0,0c1.8,0.2,3.4-1.2,3.7-3.3C412.2,337.8,414.2,320.8,414.1,314.3z"/>
						</g>
						<g>
							<path class="st12" d="M428.4,314.3c-0.2-8.4-6.2-9.1-6.2-9.1s-6.1-0.7-6.3,7.6c-0.2,6.4,1.6,23.9,2.4,31.7
								c0.2,2.2,1.8,4,3.6,4.2l0,0c1.8,0.2,3.4-1.2,3.7-3.3C426.6,337.8,428.6,320.8,428.4,314.3z"/>
						</g>
						<g>
							<path class="st12" d="M411.4,344.7c-0.2-3.5-3.6-3.5-3.6-3.5s-3.4,0-3.6,3.5c-0.2,3.5,1.7,30.2,1.7,30.2h4.4
								C410.3,374.9,411.5,348.2,411.4,344.7z"/>
						</g>
						<g>
							<path class="st12" d="M406.1,374.9c0,0-7.7,3.4-8.6,3.9c-0.9,0.4-1.3,1.3,1.1,1.3h9.8c1.1,0,2-0.7,2-1.6v-3.5H406.1z"/>
						</g>
						<g>
							<path class="st12" d="M425.1,342.3c-1.1-3.3-4.4-2.4-4.4-2.4s-3.3,0.9-2.5,4.4c0.8,3.4,10,28.6,10,28.6l4.2-1.2
								C432.5,371.7,426.3,345.6,425.1,342.3z"/>
						</g>
						<g>
							<path class="st12" d="M423.6,273.1c0,0,4.6-0.7,4.9,5.5c0.2,5.5,0.8,13.5,0.9,16.8c0,1.1-1,2.1-2.4,2.3l0,0
								c-1.4,0.2-2.6-0.5-2.9-1.6c-0.8-3.2-2.5-11.1-3.7-16.4C419.1,273.6,423.6,273.1,423.6,273.1z"/>
						</g>
						<g>
							<path class="st12" d="M422.5,272.4c-0.2-0.1-0.3-0.1-0.5-0.2c-4.8-1.4-9.9-1.4-14.7,0c-0.2,0.1-0.3,0.1-0.5,0.2
								c-0.6,0.2-1,0.8-1.1,1.6c-0.8,5.5,0,23.3,0.2,29.2c0.1,1.1,0.7,1.9,1.5,1.9h7.3h0h7.3c0.8,0,1.5-0.8,1.5-1.9
								c0.3-5.9,1-23.8,0.2-29.2C423.6,273.2,423.1,272.6,422.5,272.4z"/>
						</g>
						<g>
							<path class="st12" d="M427.7,309.7c-1.4-7.8-4.2-10.5-4.2-10.5h-17.7c0,0-2.6,3.8-4.1,11.5c-0.2,1.1,0.3,2.3,1.3,2.9
								c1.9,1.2,5.7,3,11.5,3c5.8,0,9.6-1.8,11.5-3C427,313,427.9,310.9,427.7,309.7z"/>
						</g>
						<g>
							<g>
								<rect x="411.1" y="264.3" class="st12" width="7" height="8.5"/>
							</g>
							<g>
								<path class="st12" d="M418,267.2c0,0-2,2.6-6.8,2.6c0-3.2,0-3.7,0-3.7L418,267.2z"/>
							</g>
						</g>
						<g>
							<path class="st12" d="M406.4,273.1c0,0-4.6-0.7-4.9,5.5c-0.2,5.5-0.8,13.5-0.9,16.8c0,1.1,1,2.1,2.4,2.3l0,0
								c1.4,0.2,2.6-0.5,2.9-1.6c0.8-3.2,2.5-11.1,3.7-16.4C411,273.6,406.4,273.1,406.4,273.1z"/>
						</g>
						<g>
							<path class="st12" d="M403.9,292.6c0,0-2.9-1.3-4.9,4.6c-1.8,5.2-4.5,12.8-5.6,15.9c-0.4,1,0,2.1,0.9,2.5l0,0
								c0.9,0.4,1.9-0.1,2.4-1.1c1.5-3,5-10.2,7.4-15.1C406.8,293.7,403.9,292.6,403.9,292.6z"/>
						</g>
						<g>
							<path class="st12" d="M427.7,342.9c0-2,7.3-34.8-4-44.7h-18c0,0-5,6.8-5,22.5c0,15.8,0.9,52.9,0.9,52.9h10.9l2.7-57.1
								c0,0,0.9,20.1,1.8,27.2c0.9,7.1,7.8,29,7.8,29l9.6-2.6C434.4,370.3,427.7,344.9,427.7,342.9z"/>
						</g>
						<g>
							<path class="st12" d="M411.1,270.6c0,0-7.2,0.6-9.6,4c-1.9,2.7-1.7,16.9-2.3,19.1c-0.7,2.2-8.7,17.2-5.9,19.4
								c2.8,2.2,4.3,2.9,5,2.2c0.7-0.7,2.7-5.6,2.7-5.6s13.1,1.7,21.2,1.7c8.1,0,9.5-4.3,8.8-7.3c-0.7-3-0.8-16.5-1.7-23.3
								c-0.9-6.8-0.8-7.7-11.2-10.2C414.1,271.9,411.1,270.6,411.1,270.6z"/>
						</g>
						<g>
							<path class="st12" d="M429.4,296.2c0,0-0.9,3.1-6.7,0.7c-5.1-2.1-12.6-5-15.7-6.2c-1-0.4-1.6-1.4-1.3-2.4l0,0
								c0.3-0.9,1.4-1.4,2.4-1.1c3.2,0.8,11,3,16.3,4.4C430.5,293.3,429.4,296.2,429.4,296.2z"/>
						</g>
						<g>
							<path class="st12" d="M408.3,293.1c-1.1-0.6-1.7-1.9-1.4-3.1c0.3-1.4,0.9-3,1.6-3.8c1.4-1.4,13.7,3.3,13.7,3.3
								s-0.5-12.1,2.5-16.8c4.4,1.3,4.5,3.4,5.7,13.8c1.1,10.5-0.9,13.5-5.7,13.5C421.1,300.1,412.1,295.3,408.3,293.1z"/>
						</g>
						<g>
							<path class="st12" d="M405.9,374.5c0,0-6,1.8-8.4,2.6c-2.4,0.8-1.2,3-1.2,3h14.1v-5.2C410.3,374.9,408.3,375.9,405.9,374.5z"
								/>
						</g>
						<g>
							<path class="st12" d="M428.4,372.5c0,0-6.5,5.4-7.2,6c-0.8,0.7-0.9,1.6,1.4,1l9.5-2.6c1.1-0.3,1.7-1.2,1.5-2.1l-0.9-3.4
								L428.4,372.5z"/>
						</g>
						<g>
							<path class="st12" d="M428.1,372.1c0,0-5.3,3.4-7.4,4.8s-0.4,3.2-0.4,3.2l13.5-3.8l-1.4-5
								C432.5,371.3,430.9,372.8,428.1,372.1z"/>
						</g>
						<g>
							<path class="st12" d="M401.2,289.7c0-0.4,2.7-0.3,2.7-0.3s-3.6-0.8-3.6-1.2c0-0.4,3.7,0.3,3.7,0.3s-3.8-1.4-3.7-1.8
								c0.1-0.4,3.8,0.8,3.8,0.8s-3.5-1.7-3.2-2c0.3-0.3,4.9,1.4,4.9,1.4s-2.3-1.6-2.3-2c0-0.2,0.7,0.1,1.7,0.5c1.8,0.8,3.2,2,3.2,2
								l-0.6,3C407.8,290.5,401.2,290.1,401.2,289.7z"/>
						</g>
						<g>
							<path class="st12" d="M411.5,268.9h1.8c4.4,0,8-3.6,8-8v-3.7c0-2.8-2.3-5-5-5h-2.1c-2.8,0-5,2.3-5,5v9.3
								C409.2,267.8,410.2,268.9,411.5,268.9z"/>
						</g>
						<g>
							<path class="st12" d="M409.2,260.5c0,0-3.2,4,0,4"/>
						</g>
						<g>
							<path class="st12" d="M416.2,261.5c0,0-2.1-2.3-1.6-7c-4.1,0-5.1,1-5.1,1s-2.5-2.1,0.7-4.8c3.2-2.6,11.3-2,12.5,3.3
								c1.2,5.3,0.5,10.7-4.6,13.3C418.5,263.5,416.2,261.5,416.2,261.5z"/>
						</g>
						<g>
							<g>
								<line class="st12" x1="416.8" y1="260.2" x2="413.9" y2="262.1"/>
							</g>
							<g>
								<line class="st12" x1="418.2" y1="263.3" x2="414.8" y2="266.8"/>
							</g>
							<g>
								<path class="st12" d="M414.4,261.7h-5.9c0,0-0.9,1-0.9,2.4s1.8,4.3,3.6,4.9c1.8,0.5,4.4-0.4,4.4-0.4L414.4,261.7z"/>
							</g>
						</g>
						<g>
							<path class="st12" d="M415.4,261.4c-0.5,1.2-0.1,2.5,0.9,2.9c1,0.4,2.1-0.3,2.6-1.6s0.1-2.5-0.9-2.9
								C417,259.4,415.8,260.1,415.4,261.4z"/>
						</g>
					</g>
				</g>
				<g>
					<g>
						<g>
							<rect x="271" y="302.8" class="st13" width="230.4" height="85"/>
						</g>
						<g>
							<rect x="271" y="365.6" class="st9" width="230.4" height="22.3"/>
						</g>
						<g>
							<g>
								<path class="st12" d="M323.6,311.1c0,0,0.8,2.3,0.7,3.2c0,0.9-0.4,2.7-0.8,2.7c-0.4,0-0.4-3.4-0.6-3.5
									c-0.2-0.1-1.5,1.8-1.5,2.3s1.2,3.6,0.9,3.7c-0.3,0.1-1.6-1.4-2.3-3.2c-0.7-1.8,0.9-4.6,0.9-4.6L323.6,311.1z"/>
							</g>
							<g>
								<path class="st12" d="M365.9,303.8c0,0,2.4,0.8,3.3,0.7c1,0,2.8-0.3,2.8-0.7c0-0.4-3.5-0.4-3.7-0.7
									c-0.2-0.2,1.9-1.4,2.4-1.4c0.5,0,3.7,1.2,3.8,0.9c0.1-0.3-1.4-1.6-3.3-2.2c-1.9-0.6-4.8,0.8-4.8,0.8L365.9,303.8z"/>
							</g>
							<g>
								<path class="st12" d="M319.6,289.3c0,0-3.2,0.3-2,6.2c1,5.2,2.3,12.8,2.9,15.9c0.2,1,1.1,1.8,2,1.7l0,0c1-0.1,1.6-1,1.6-2.1
									c-0.2-3.2-0.7-10.9-1-16.2C322.7,288.8,319.6,289.3,319.6,289.3z"/>
							</g>
							<g>
								<path class="st12" d="M343.4,271.4c-0.2-0.1-0.3-0.1-0.5-0.1c-4.8-1.4-9.9-1.4-14.7,0c-0.2,0-0.3,0.1-0.5,0.1
									c-0.6,0.2-1,0.8-1.1,1.5c-0.8,5.3,0,22.4,0.2,28.1c0.1,1,0.7,1.8,1.5,1.8h7.3h0h7.3c0.8,0,1.5-0.8,1.5-1.8
									c0.3-5.7,1-22.8,0.2-28.1C344.4,272.1,344,271.5,343.4,271.4z"/>
							</g>
							<g>
								<g>
									<path class="st12" d="M323.1,341.8c0,0,0-0.1,0-0.1C323,341.4,323.1,341.8,323.1,341.8z"/>
								</g>
								<g>
									<path class="st12" d="M348.5,310.6c0-1.9-0.2-3.7-0.5-5.6c0,0,0,0,0,0c-1.4-7.5-3.7-7.9-3.7-7.9h-18c0,0-1.8,0.9-3.2,8.4
										l-0.2,1.4c-0.3,2.4-0.5,4.7-0.5,7.1c-0.1,7.9-0.1,21.6,0.7,27.8c0.1,5.8,2,28,2,28h7.4c0,0,1.4-25.7,1.2-29c0,0,0,0,0,0
										c0.5-3.4,1.2-8.5,1.8-13.5c0.6,5.1,1.3,10.1,1.8,13.5c0,0,0,0,0,0c-0.2,3.4,1.2,29,1.2,29h7.4c0,0,1.8-22.2,2-28
										C348.7,335.4,348.6,318.9,348.5,310.6z"/>
								</g>
							</g>
							<g>
								<g>
									<rect x="333.3" y="263.5" class="st12" width="7" height="8.2"/>
								</g>
							</g>
							<g>
								<g>
									<path class="st12" d="M329.2,260.5c0,1.1,0.7,1.9,1.6,1.9s1.6-0.9,1.6-1.9c0-1.1-0.7-1.9-1.6-1.9S329.2,259.4,329.2,260.5z
										"/>
								</g>
								<g>
									<path class="st12" d="M341.4,260.5c0,1.1,0.7,1.9,1.6,1.9s1.6-0.9,1.6-1.9c0-1.1-0.7-1.9-1.6-1.9S341.4,259.4,341.4,260.5z
										"/>
								</g>
								<g>
									<path class="st12" d="M336.7,267.6h0.2c3.3,0,6-2.7,6-6v-5.1c0-2.7-2.2-4.9-4.9-4.9h-2.3c-2.7,0-4.9,2.2-4.9,4.9v5.1
										C330.8,264.9,333.5,267.6,336.7,267.6z"/>
								</g>
							</g>
							<g>
								<path class="st12" d="M328.2,272.3c0,0-4.3-1.7-6,4c-1.5,5-3.9,12.4-4.8,15.5c-0.3,1,0.5,2.2,1.8,2.7l0,0
									c1.3,0.5,2.7,0.1,3.2-0.8c1.5-2.8,5-9.8,7.4-14.5C332.5,273.8,328.2,272.3,328.2,272.3z"/>
							</g>
							<g>
								<path class="st12" d="M344.6,270.8c0,0-4.5,1.1-2.3,6.7c1.9,4.9,4.5,12.2,5.7,15.2c0.4,1,1.7,1.5,3.1,1.2l0,0
									c1.3-0.3,2.2-1.4,2.1-2.5c-0.5-3.1-2-10.8-3-15.9C349,269.5,344.6,270.8,344.6,270.8z"/>
							</g>
							<g>
								<path class="st12" d="M348.3,289.8c0,0-2.5,2.1,2.8,5.3c4.6,2.8,11.7,6.7,14.5,8.3c0.9,0.6,2.1,0.4,2.7-0.3l0,0
									c0.6-0.7,0.3-1.8-0.5-2.5c-2.6-2-8.9-6.9-13.1-10.2C349.7,286.7,348.3,289.8,348.3,289.8z"/>
							</g>
							<g>
								<path class="st12" d="M333.3,269.8c0,0-7.6,1.6-10.5,2.8c-2.9,1.3-5.6,15.1-5.6,15.1l6.8,2.9l-2.8,18.2
									c-0.3,2.2,1.3,4.3,3.6,4.6c4.8,0.6,13.3,1.3,22-0.2c2.1-0.4,3.6-2.2,3.4-4.3c-1.1-16.4-3.4-30.1-3.4-30.1l0.9,11.6l6.6-2.4
									l-2.7-15.6c-0.7-1.5-2.1-2.5-3.8-2.8l-7.5-1C340.4,268.8,337.3,271.5,333.3,269.8z"/>
							</g>
							<g>
								<path class="st12" d="M327.5,369.8c0,0-9.2,0-9.2,5c9.2,0,14.5,0,14.5,0l-0.2-5"/>
							</g>
							<g>
								<path class="st12" d="M343.5,369.8c0,0,9.2,0,9.2,5c-9.2,0-14.5,0-14.5,0l0.2-5"/>
							</g>
							<g>
								<path class="st12" d="M336.6,268.3c0,0,4.4,0.2,6.4-4.2c2-4.4,2.9-8.7-0.7-12.2c-3.6-3.5-8.7-2.3-10.5-0.5
									c-1.8,1.8-3.5,4.2-2.6,8.8C330,264.8,333.2,268.3,336.6,268.3z"/>
							</g>
						</g>
					</g>
				</g>
				<rect x="250.6" y="266.8" class="st12" width="54.2" height="98.5"/>
				<rect x="447.1" y="276.3" class="st12" width="54.2" height="89"/>
			</g>
		</g>
		<rect x="117.5" y="385.3" class="st5" width="413.9" height="17"/>
		<rect x="150" y="385.3" class="st14" width="94.2" height="17"/>
		<rect x="143.6" y="402.3" class="st15" width="107.1" height="16.6"/>
		<g>
			<rect x="88.5" y="422" class="st16" width="4.1" height="6.9"/>
			<rect x="125.1" y="422" class="st16" width="4.1" height="6.9"/>
			<rect x="86.4" y="358.7" class="st4" width="44.8" height="66"/>
			<rect x="88.8" y="361.1" class="st7" width="40.1" height="61.3"/>
		</g>
		<rect x="153.9" y="263.1" class="st12" width="70" height="102.4"/>
		<polygon class="st1" points="164.7,297.2 188.9,289.8 188.9,265.6 164.7,272.9 		"/>
		<g>
			<defs>
				<polygon id="SVGID_3_" points="240.3,245.3 153.9,245.3 153.9,385.3 240.3,385.5 				"/>
			</defs>
			<clipPath id="SVGID_4_">
				<use xlink:href="#SVGID_3_"  style="overflow:visible;"/>
			</clipPath>
			<path class="st17" d="M194.2,240v128l-34.7,10.6v-128l37.1-10.6 M199.8,233.1l-45.9,12.3v140l45.9-12.3V233.1L199.8,233.1z"/>
			<path class="st17" d="M155,315.8L155,315.8c0,1.6,0.7,2.7,1.5,2.4l40.6-12.2c0.8-0.3,1.5-1.7,1.5-3.3l0,0c0-1.6-0.7-2.7-1.5-2.4
				l-40.6,12.2C155.7,312.8,155,314.3,155,315.8z"/>
		</g>
		<g>
			<path class="st16" d="M83.6,206.6V236c17.1,7.3,36.4,7.3,53.5,0h0v-29.4H83.6z"/>
			<path class="st16" d="M244.2,206.6V236l-0.6,0.3c-16.7,7.1-35.6,7.1-52.3,0l-0.6-0.3v-29.4"/>
			<path class="st16" d="M351.3,206.6V236l0,0c-17.1,7.3-36.4,7.3-53.5,0l0,0v-29.4"/>
			<path class="st16" d="M458.3,206.6V236l0,0c-17.1,7.3-36.4,7.3-53.5,0l0,0v-29.4"/>
			<path class="st16" d="M565.4,206.6V236h0c-17.1,7.3-36.4,7.3-53.5,0l0,0v-29.4"/>
			<path class="st10" d="M190.7,206.6V236l0,0c-17.1,7.3-36.4,7.3-53.5,0l0,0v-29.4"/>
			<path class="st10" d="M297.7,206.6V236l0,0c-16.2,7.3-34.6,7.6-51,1l-2.5-1v-29.4"/>
			<path class="st10" d="M404.8,206.6V236l0,0c-17.1,7.3-36.4,7.3-53.5,0l0,0v-29.4"/>
			<path class="st10" d="M511.8,206.6V236h0c-17.1,7.3-36.4,7.3-53.5,0l0,0v-29.4"/>
			<polyline class="st4" points="83.6,206.6 122.1,151.3 167.1,151.3 137.1,206.6 			"/>
			<polyline class="st4" points="511.8,206.6 481.9,151.3 526.8,151.3 565.4,206.6 			"/>
			<polyline class="st13" points="137.1,206.6 167.1,151.3 212.1,151.3 190.7,206.6 			"/>
			<polyline class="st4" points="190.7,206.6 212.1,151.3 257,151.3 244.2,206.6 			"/>
			<polyline class="st13" points="244.2,206.6 257,151.3 302,151.3 297.7,206.6 			"/>
			<polyline class="st4" points="297.7,206.6 302,151.3 347,151.3 351.3,206.6 			"/>
			<polyline class="st13" points="351.3,206.6 347,151.3 391.9,151.3 404.8,206.6 			"/>
			<polyline class="st4" points="404.8,206.6 391.9,151.3 436.9,151.3 458.3,206.6 			"/>
			<polyline class="st13" points="458.3,206.6 436.9,151.3 481.9,151.3 511.8,206.6 			"/>
		</g>
		<rect x="122.1" y="136.4" class="st5" width="404.7" height="14.9"/>
		<path class="st1" d="M56.1,148.7h41.6c6.2,0,11.2-5,11.2-11.2V95.9c0-6.2-5-11.2-11.2-11.2H56.1c-6.2,0-11.2,5-11.2,11.2v41.6
			C44.9,143.7,49.9,148.7,56.1,148.7z"/>
		<path class="st7" d="M58,144.2h37.8c4.7,0,8.6-3.9,8.6-8.6V97.8c0-4.7-3.9-8.6-8.6-8.6H58c-4.7,0-8.6,3.9-8.6,8.6v37.8
			C49.4,140.3,53.3,144.2,58,144.2z"/>
		<rect x="122.1" y="82.8" class="st5" width="404.7" height="14.9"/>
	</g>
	<g>
		<g>
			<ellipse class="st18" cx="230.3" cy="442.4" rx="32.3" ry="7.7"/>
			<g>
				<path class="st19" d="M216.6,370.7c0,0,0.9,2.6,0.8,3.6c-0.1,1-0.4,3.1-0.8,3c-0.4,0-0.4-3.8-0.7-4c-0.3-0.2-1.6,2.1-1.6,2.6
					c-0.1,0.5,1.3,4.1,0.9,4.2c-0.4,0.1-1.7-1.6-2.4-3.6s1-5.2,1-5.2L216.6,370.7z"/>
				<path class="st19" d="M212.3,346.1c0,0-3.4,0.3-2.2,6.9c1.1,5.8,2.5,14.4,3.1,18c0.2,1.2,1.2,2,2.2,1.9h0c1-0.1,1.8-1.1,1.7-2.3
					c-0.2-3.6-0.7-12.3-1.1-18.2C215.7,345.6,212.3,346.1,212.3,346.1z"/>
				<path class="st19" d="M238,325.9c-0.2-0.1-0.4-0.1-0.5-0.2c-5.2-1.6-10.7-1.6-15.9,0c-0.2,0.1-0.4,0.1-0.6,0.2
					c-0.6,0.2-1.1,0.9-1.2,1.7c-0.9,5.9,0,25.3,0.3,31.6c0.1,1.2,0.8,2.1,1.6,2.1h7.9h0h7.9c0.9,0,1.6-0.9,1.6-2.1
					c0.3-6.4,1.1-25.7,0.3-31.6C239.1,326.8,238.7,326.1,238,325.9z"/>
				<g>
					<path class="st4" d="M216.1,405.3c0,0,0-0.1,0-0.1C215.9,404.9,216,405.3,216.1,405.3z"/>
					<path class="st7" d="M243.6,370.2c0-2.1-0.2-4.2-0.6-6.3c0,0,0,0,0,0c-1.6-8.4-4-8.9-4-8.9h-19.5c0,0-1.9,1-3.5,9.5l-0.2,1.6
						c-0.3,2.7-0.5,5.3-0.6,8c-0.1,8.9-0.1,24.3,0.8,31.4c0.1,6.5,2.1,31.6,2.1,31.6h8.1c0,0,1.5-29,1.3-32.7c0,0,0,0,0,0
						c0.5-3.9,1.3-9.6,2-15.3c0.7,5.7,1.4,11.4,2,15.3c0,0,0,0,0,0c-0.2,3.8,1.3,32.7,1.3,32.7h8.1c0,0,2-25.1,2.1-31.6
						C243.8,398.1,243.7,379.6,243.6,370.2z"/>
				</g>
				<g>
					<rect x="227.2" y="317.1" class="st19" width="7.6" height="9.2"/>
				</g>
				<g>
					<path class="st19" d="M222.7,313.6c0,1.2,0.8,2.2,1.7,2.2c0.9,0,1.7-1,1.7-2.2s-0.8-2.2-1.7-2.2
						C223.4,311.5,222.7,312.4,222.7,313.6z"/>
					<path class="st19" d="M235.9,313.6c0,1.2,0.8,2.2,1.7,2.2c0.9,0,1.7-1,1.7-2.2s-0.8-2.2-1.7-2.2
						C236.7,311.5,235.9,312.4,235.9,313.6z"/>
					<path class="st19" d="M231,321.7L231,321.7c3.6,0,6.6-3,6.6-6.6v-6c0-3-2.4-5.4-5.4-5.4h-2.3c-3,0-5.4,2.4-5.4,5.4v6
						C224.4,318.7,227.4,321.7,231,321.7z"/>
				</g>
				<path class="st19" d="M221.6,327c0,0-4.6-1.9-6.5,4.6c-1.6,5.7-4.2,14-5.2,17.5c-0.3,1.2,0.5,2.5,1.9,3h0
					c1.4,0.6,2.9,0.2,3.5-0.9c1.6-3.2,5.5-11,8-16.4C226.2,328.7,221.6,327,221.6,327z"/>
				<path class="st19" d="M231.9,330.1c0,0,1.9,4.7,7.8,1.4c5.2-2.9,12.9-6.9,16-8.6c1-0.6,1.4-2.1,0.8-3.5l0,0
					c-0.6-1.4-1.9-2.2-3.1-1.8c-3.4,1.1-11.7,4-17.2,5.9C229.8,325.7,231.9,330.1,231.9,330.1z"/>
				<path class="st19" d="M256.1,322.2c0,0,2.9-2.3-2.7-6.1c-4.9-3.4-12.3-8.1-15.3-10.1c-1-0.7-2.2-0.6-2.9,0.2l0,0
					c-0.6,0.8-0.5,2.1,0.4,2.9c2.7,2.4,9.2,8.2,13.7,12.1C254.4,325.6,256.1,322.2,256.1,322.2z"/>
				<path class="st4" d="M227.2,324.2c0,0-8.2,1.8-11.3,3.2c-3.1,1.5-6,17-6,17l7.3,3.3l-3,20.5c-0.4,2.5,1.4,4.8,3.9,5.2
					c5.2,0.7,14.4,1.5,23.8-0.2c2.3-0.4,3.9-2.5,3.7-4.8c-1.2-18.5-3.6-33.9-3.6-33.9l7.7-3.9l-3.3-10.6l-11.5,3.1
					C234.8,323,231.4,326.1,227.2,324.2z"/>
				<path class="st7" d="M220.8,437c0,0-10,0-10,5.6c9.9,0,15.7,0,15.7,0l-0.2-5.6"/>
				<path class="st7" d="M238.1,437c0,0,10,0,10,5.6c-9.9,0-15.7,0-15.7,0l0.2-5.6"/>
				<path class="st7" d="M230.6,322.5c0,0,4.8,0.2,7-4.7c2.2-4.9,3.2-9.9-0.8-13.8c-3.9-3.9-9.4-2.6-11.4-0.6c-2,2-3.8,4.7-2.9,9.9
					C223.5,318.6,227,322.5,230.6,322.5z"/>
			</g>
		</g>
		<g>
			<ellipse class="st18" cx="345.1" cy="442.4" rx="32.3" ry="7.7"/>
			<g>
				<path class="st19" d="M348.6,378c1.4-8.5-4.6-10.3-4.6-10.3s-6.1-3.6-7.9,4.8c-1.4,6.4-2.6,26-3.2,34c-0.2,2.2,1.1,4.3,2.9,4.9
					l0,0c1.8,0.6,3.7-0.6,4.3-2.7C342.5,401.2,347.6,384.5,348.6,378z"/>
				<path class="st19" d="M340.4,408c0.5-3.5-3-4.2-3-4.2s-3.4-0.6-4.2,2.9c-0.8,3.5-3.8,30.7-3.8,30.7l4.4,0.8
					C333.8,438.2,339.9,411.6,340.4,408z"/>
				<path class="st19" d="M329.7,437.3c0,0-7.8,3.5-8.8,3.9c-0.9,0.4-1.3,1.3,1.1,1.3h10c1.1,0,2-0.7,2-1.7v-3.6H329.7z"/>
				<path class="st19" d="M363.4,375.4c-0.2-8.6-6.4-9.3-6.4-9.3s-6.2-0.8-6.5,7.8c-0.2,6.5,1.6,24.4,2.5,32.3
					c0.2,2.2,1.8,4.1,3.7,4.3l0,0c1.9,0.2,3.5-1.2,3.8-3.4C361.5,399.4,363.6,382,363.4,375.4z"/>
				<path class="st19" d="M360.7,406.4c-0.2-3.6-3.6-3.6-3.6-3.6s-3.5,0-3.6,3.6c-0.2,3.6,1.7,30.9,1.7,30.9h4.5
					C359.6,437.3,360.8,410,360.7,406.4z"/>
				<path class="st19" d="M353.2,332.1c0,0,5.8-1.3,10.5,2.9c4.1,3.7,10.4,9.1,12.9,11.4c0.8,0.8,0.8,2.2,0,3.4l0,0
					c-0.8,1.1-2.3,1.6-3.2,1c-2.9-1.8-9.9-6.1-14.6-9.1C353.4,338.3,353.2,332.1,353.2,332.1z"/>
				<path class="st19" d="M357.5,332.7c-0.2-0.1-0.3-0.1-0.5-0.2c-4.9-1.5-10.1-1.5-15,0c-0.2,0.1-0.3,0.1-0.5,0.2
					c-0.6,0.2-1.1,0.8-1.2,1.6c-0.8,5.6,0,23.8,0.2,29.8c0.1,1.1,0.7,2,1.5,2h7.4h0h7.4c0.8,0,1.5-0.9,1.5-2c0.3-6,1-24.2,0.2-29.8
					C358.5,333.5,358.1,332.9,357.5,332.7z"/>
				<path class="st19" d="M362.7,370.7c-1.5-8-4.3-10.7-4.3-10.7h-18.1c0,0-2.7,3.8-4.2,11.8c-0.2,1.2,0.3,2.3,1.3,3
					c2,1.3,5.8,3.1,11.8,3.1s9.8-1.8,11.8-3.1C362,374.1,362.9,371.9,362.7,370.7z"/>
				<g>
					<rect x="347.2" y="324.3" class="st19" width="7.2" height="8.7"/>
					<path class="st19" d="M354.2,327.3c0,0-2.1,2.6-7,2.6c0-3.2,0-3.7,0-3.7L354.2,327.3z"/>
				</g>
				<g>
					<path class="st19" d="M343,321.1c0,1.1,0.7,2,1.6,2c0.9,0,1.6-0.9,1.6-2c0-1.1-0.7-2-1.6-2C343.7,319,343,320,343,321.1z"/>
					<path class="st19" d="M355.5,321.1c0,1.1,0.7,2,1.6,2c0.9,0,1.6-0.9,1.6-2c0-1.1-0.7-2-1.6-2C356.2,319,355.5,320,355.5,321.1z
						"/>
					<path class="st19" d="M350.8,328.7L350.8,328.7c3.4,0,6.2-2.8,6.2-6.2v-5.7c0-2.8-2.3-5.1-5.1-5.1h-2.2c-2.8,0-5.1,2.3-5.1,5.1
						v5.7C344.6,325.9,347.4,328.7,350.8,328.7z"/>
				</g>
				<path class="st19" d="M343.3,332.1c0,0-7,0.4-7.2,6.8c-0.2,5.6-0.8,13.8-0.9,17.1c0,1.1,1,2.1,2.4,2.3l0,0
					c1.4,0.2,2.7-0.5,3-1.6c0.8-3.3,2.6-11.3,3.7-16.8C345.7,333.9,343.3,332.1,343.3,332.1z"/>
				<path class="st19" d="M338.5,353.3c0,0-3-1.3-5,4.7c-1.8,5.3-4.4,14.1-5.5,17.3c-0.4,1.1-0.2,1.1,0.7,1.5l0,0
					c0.9,0.4,2-0.1,2.5-1.1c1.5-3,5.1-10.4,7.5-15.5C341.5,354.4,338.5,353.3,338.5,353.3z"/>
				<path class="st19" d="M376.9,347.1c0,0,1.9,2.7-3.6,5.8c-4.8,2.8-11.9,7-14.8,8.7c-1,0.6-2.2,0.4-2.7-0.4l0,0
					c-0.5-0.8-0.3-2,0.6-2.7c2.7-2.1,9.3-7,13.7-10.3C375.2,344.4,376.9,347.1,376.9,347.1z"/>
				<path class="st7" d="M359.3,342c0,0-9.8-2.7-19.4-0.3c-3,2.2-0.4,9.3-0.4,9.3v9c0,0-4.5,9.3-7.1,33.9
					c-2.6,24.5-3.9,41.7-3.9,41.7l8.4,1.7l12.4-59.4l3.5,58.9h8.3c0,0,1.1-27.7,2.4-40.6c1.4-12.9,3.1-27.3-4.1-37.1
					C358.5,351.8,359.3,342,359.3,342z"/>
				<path class="st4" d="M326.8,438.6C326.8,438.6,326.8,438.6,326.8,438.6c0.3,0.3,1.3,1.5,0.2,2.1c-1.2,0.6-2.3-1.1-2.3-1.1
					s-3.5,1.2-4.3,1.6c-0.8,0.3-0.5,1.5-0.5,1.5H334c0,0,0.9-1.5,0-4c-2,0-4.6,1.7-4.6,1.7l-1.6-2.1"/>
				<path class="st19" d="M355.2,437.3c0,0-7.8,3.5-8.8,3.9c-0.9,0.4-1.3,1.3,1.1,1.3h10c1.1,0,2-0.7,2-1.7v-3.6H355.2z"/>
				<path class="st4" d="M352.3,438.6C352.3,438.6,352.4,438.6,352.3,438.6c0.3,0.3,1.3,1.5,0.2,2.1c-1.2,0.6-2.3-1.1-2.3-1.1
					s-3.5,1.2-4.3,1.6c-0.8,0.3-0.5,1.5-0.5,1.5h14.2c0,0,0.9-1.5,0-4c-2,0-4.6,1.7-4.6,1.7l-1.6-2.1"/>
				<path class="st7" d="M344.6,320.8c0,0-2-3.1-0.4-6.7c1.6-3.6-0.9-5,3.3-8.3c4.2-3.4,15.5,3.4,9.5,15c-0.5-4.2-4.5-0.9-7.1-6.8
					C346.1,314,343.9,317.4,344.6,320.8z"/>
				<path class="st19" d="M330.8,375.3c0,0,0.3,2.5,0,3.5c-0.3,0.9-1,2.7-1.4,2.6c-0.4-0.1,0.4-3.6,0.2-3.8c-0.2-0.2-1.9,1.6-2,2.1
					c-0.2,0.5,0.4,4,0,4s-1.3-1.8-1.5-3.8c-0.2-2,2-4.6,2-4.6H330.8z"/>
				<path class="st19" d="M358.2,363.7c-0.3-0.2,1.2-2.5,1.2-2.5s-2.7,2.6-3,2.4s2.3-3,2.3-3s-3.3,2.5-3.6,2.2
					c-0.2-0.3,2.8-2.8,2.8-2.8s-3.3,2.1-3.5,1.7c-0.1-0.4,3.9-3.4,3.9-3.4s-2.7,1.1-2.9,0.8c-0.2-0.2,0.4-0.5,1.4-1.1
					c0.8-0.5,1.6-0.9,2.2-1.2c0.8-0.3,1.7-0.2,2.3,0.4l0,0c0.7,0.7,0.8,1.9,0.2,2.7C360.2,361.5,358.4,363.9,358.2,363.7z"/>
				<g>
					<path class="st1" d="M347.1,321.4h7.8l1,4.6c0,0-1.6,3-5.1,3c-3.5,0-5.1-2.9-5.1-2.9L347.1,321.4z"/>
					<line class="st20" x1="344.1" y1="319.2" x2="347.7" y2="322.1"/>
					<line class="st20" x1="357.6" y1="319.2" x2="354" y2="322.1"/>
				</g>
			</g>
		</g>
		<g>
			<ellipse class="st18" cx="689.6" cy="442.4" rx="32.3" ry="7.7"/>
			<g>
				<path class="st7" d="M670.3,310.8c2.3-5.7,6.8-5.3,7.5-5.2c0.7-0.1,5.3-0.4,7.5,5.2c2,5.1,3,7.2,1.3,8.7c-0.7,0.6-1.7,1-2.6,1
					h-6.1c-0.1,0-0.2,0-0.2,0h-6.1c-1,0-1.9-0.3-2.6-1C667.3,317.9,668.3,315.8,670.3,310.8z"/>
				<path class="st19" d="M680.2,375.6c-1.4-8.8,4.8-10.7,4.8-10.7s6.4-3.8,8.2,4.8c1.4,6.6,2.7,27.1,3.3,35.3
					c0.2,2.3-1.1,4.5-3,5.1l0,0c-1.9,0.6-3.8-0.6-4.5-2.8C686.6,399.7,681.3,382.4,680.2,375.6z"/>
				<path class="st19" d="M688.8,406.7c-0.5-3.7,3.1-4.3,3.1-4.3s3.6-0.6,4.4,3c0.8,3.6,3.9,31.8,3.9,31.8l-4.6,0.8
					C695.6,438,689.3,410.4,688.8,406.7z"/>
				<path class="st19" d="M699.9,437.1c0,0,8.1,3.6,9.1,4.1c1,0.5,1.4,1.4-1.1,1.4h-10.4c-1.2,0-2.1-0.8-2.1-1.7v-3.8H699.9z"/>
				<path class="st19" d="M664.9,372.9c0.2-8.9,6.6-9.7,6.6-9.7s6.4-0.8,6.7,8.1c0.2,6.8-1.7,25.3-2.6,33.5
					c-0.3,2.3-1.9,4.2-3.9,4.5l0,0c-2,0.2-3.6-1.3-3.9-3.5C666.9,397.8,664.7,379.8,664.9,372.9z"/>
				<path class="st19" d="M667.8,405.1c0.2-3.7,3.8-3.7,3.8-3.7s3.6,0,3.8,3.7c0.2,3.7-2,32.4-2,32.4l-4.5-0.4
					C668.8,437.1,667.6,408.8,667.8,405.1z"/>
				<path class="st19" d="M672.3,330.7c0,0-2.9-4-7.7,0.4c-4.3,3.9-10.8,9.4-13.4,11.8c-0.9,0.8-0.9,2.3,0,3.5l0,0
					c0.9,1.2,2.3,1.6,3.3,1c3-1.8,10.2-6.3,15.1-9.4C675.3,334.5,672.3,330.7,672.3,330.7z"/>
				<path class="st19" d="M671.1,328.6c0.2-0.1,0.4-0.1,0.5-0.2c5.1-1.5,10.4-1.5,15.6,0c0.2,0.1,0.4,0.1,0.5,0.2
					c0.6,0.2,1.1,0.9,1.2,1.7c0.8,5.8,0,24.7-0.2,30.9c-0.1,1.1-0.8,2-1.6,2h-7.7h0h-7.7c-0.8,0-1.6-0.9-1.6-2
					c-0.3-6.2-1.1-25.1-0.2-30.9C670,329.5,670.4,328.8,671.1,328.6z"/>
				<path class="st19" d="M665.6,368.1c1.5-8.2,4.4-11.1,4.4-11.1h19.1c0,0,2.5,4,4,12.2c0.2,1.2-0.3,2.4-1.4,3.1
					c-2,1.3-6,3.2-12.2,3.2s-10.2-1.9-12.2-3.2C666.4,371.6,665.4,369.3,665.6,368.1z"/>
				<g>
					
						<rect x="674.2" y="320" transform="matrix(-1 -1.224647e-16 1.224647e-16 -1 1355.9032 648.9392)" class="st19" width="7.4" height="9"/>
					<path class="st19" d="M674.5,323.1c0,0,2.2,2.7,7.2,2.7c0-3.4,0-3.9,0-3.9L674.5,323.1z"/>
				</g>
				<g>
					<ellipse class="st19" cx="684.4" cy="316.6" rx="1.6" ry="2.1"/>
					<ellipse class="st19" cx="671.5" cy="316.6" rx="1.6" ry="2.1"/>
					<path class="st19" d="M677.9,324.5L677.9,324.5c-3.5,0-6.5-2.9-6.5-6.5v-5.9c0-2.9,2.4-5.3,5.3-5.3h2.3c2.9,0,5.3,2.4,5.3,5.3
						v5.9C684.4,321.6,681.5,324.5,677.9,324.5z"/>
				</g>
				<path class="st19" d="M685.7,328.2c0,0,4.7-1.6,6.1,4.9c1.2,5.6,3.2,13.9,4,17.3c0.2,1.1-0.6,2.4-2.1,2.8l0,0
					c-1.4,0.4-2.8,0-3.3-1.1c-1.4-3.2-4.6-11.1-6.8-16.5C681.1,329.6,685.7,328.2,685.7,328.2z"/>
				<path class="st7" d="M689,352c0,0,5.3,12.9,6.5,29.6c-10,2-15.5,1.7-15.5,1.7l-0.9-7l-0.7,7c0,0-8,1.2-14-0.7
					c-0.4-12.2-0.2-23.1,5.3-29.8C682.7,353.7,689,352,689,352z"/>
				<path class="st4" d="M681.7,327.3l5.9,0.8c0,0,2.7,7.9,2.7,14.1c0,6.2-1.3,9.7-1.3,9.7s-7.1,3.4-19.2,0.8
					c-1.8-11.8-0.6-23.8-0.6-23.8l5.1-1.3C674.2,327.7,677.8,329.7,681.7,327.3z"/>
				<path class="st19" d="M695.7,350.1c0,0,1.1,3.2-5.1,4.7c-5.5,1.3-13.5,3.5-16.8,4.3c-1.1,0.3-2.2-0.3-2.5-1.2v0
					c-0.3-1,0.3-2,1.3-2.4c3.2-1.2,10.9-4.2,16.2-6.2C694.8,346.9,695.7,350.1,695.7,350.1z"/>
				<path class="st19" d="M650.9,343.6c0,0-2,2.8,3.8,6c5,2.9,9.9,5.9,13,7.6c1,0.6,2.2,0.4,2.8-0.5l0.1-0.1c0.6-0.8,0.3-2-0.7-2.8
					c-2.8-2.1-7.3-5.7-11.9-9.2C652.7,340.8,650.9,343.6,650.9,343.6z"/>
				<path class="st7" d="M695.4,439.3h4.5l1-1.8l2.4,0.8c8.3,0.4,6.7,4.2,6.7,4.2s-5.4,0-14.6,0
					C694.8,441.1,695.4,439.3,695.4,439.3z"/>
				<path class="st19" d="M673.3,437.1c0,0,8.1,3.6,9.1,4.1s1.4,1.4-1.1,1.4h-10.4c-1.2,0-2.1-0.8-2.1-1.7v-3.8H673.3z"/>
				<path class="st7" d="M668.8,439.3h4.5l1-1.8l2.4,0.8c8.3,0.4,6.7,4.2,6.7,4.2s-5.4,0-14.6,0
					C668.3,441.1,668.8,439.3,668.8,439.3z"/>
				<path class="st19" d="M671.6,361.4c0.3-0.2-1.4-2.5-1.4-2.5s2.9,2.6,3.2,2.4s-2.5-3-2.5-3s3.5,2.4,3.8,2.1c0.2-0.3-3-2.8-3-2.8
					s3.5,2,3.7,1.6c0.1-0.4-4.2-3.4-4.2-3.4s2.8,1,3.1,0.8c0.2-0.2-0.5-0.5-1.4-1.1c-1.8-1.1-3.7-1.6-3.7-1.6l-2.2,2.3
					C667,356.1,671.3,361.6,671.6,361.4z"/>
				<path class="st19" d="M670.3,361c-0.2-0.3,2.3-1.7,2.3-1.7s-3.7,1.2-3.9,0.9c-0.2-0.4,3.5-1.8,3.5-1.8s-4.2,0.8-4.3,0.4
					c-0.1-0.4,3.9-1.4,3.9-1.4s-4.1,0.4-4,0c0.1-0.4,5.2-1.4,5.2-1.4s-3-0.2-3.1-0.5c-0.1-0.2,0.6-0.3,1.8-0.4c2.1-0.3,4,0,4,0
					l1.1,3C676.7,358.1,670.5,361.4,670.3,361z"/>
				<g>
					<path class="st1" d="M681.7,316.9h-8l-1,4.7c0,0,1.7,3.1,5.3,3.1s5.3-3,5.3-3L681.7,316.9z"/>
					<line class="st21" x1="684.7" y1="314.7" x2="681" y2="317.6"/>
					<line class="st21" x1="670.7" y1="314.7" x2="674.5" y2="317.6"/>
				</g>
				<path class="st7" d="M685.8,314.9c0,0-6.2,1.2-11.4-6.7c-0.9,5.4-3.1,7.2-5,7.2c0-4,3.6-9.4,8.5-9.4S684.8,309.4,685.8,314.9z"
					/>
			</g>
		</g>
		<g>
			<ellipse class="st18" cx="574.8" cy="442.4" rx="32.3" ry="7.7"/>
			<g>
				<path class="st7" d="M561.3,321.3c5-3.4,0.6-7.9,3.1-13.7c2.4-5.5,6.8-5.1,7.2-5.1c0.5-0.1,4.8-0.5,7.2,5.1
					c2.5,5.9-1.9,10.3,3.1,13.7c5,3.4-0.9,8.6-10.3,8.6c0,0,0,0,0,0c0,0,0,0,0,0c0,0,0,0,0,0c0,0,0,0,0,0
					C562.2,329.9,556.3,324.7,561.3,321.3z"/>
				<path class="st19" d="M582.6,437c0,0,8.1,3.7,9.1,4.2c1,0.5,1.4,1.4-1.2,1.4h-10.6c-1.2,0-2.2-0.8-2.2-1.8l0.1-3.8H582.6z"/>
				<path class="st19" d="M563.4,325c0,0-3.8,0.8-5.3,6c-0.2,5.9-0.9,15-1.1,18.6c0,1.2,1.1,1.9,2.6,2.1l0,0
					c1.5,0.2,2.9-0.5,3.1-1.7c0.8-3.5,2.7-12,4-17.8C568.3,325.6,563.4,325,563.4,325z"/>
				<path class="st19" d="M564.6,325.9c0.2-0.1,0.4-0.1,0.5-0.2c5.2-1.6,10.7-1.6,15.9,0c0.2,0.1,0.4,0.1,0.6,0.2
					c0.6,0.2,1.1,0.9,1.2,1.7c0.9,5.9,0,25.3-0.3,31.6c-0.1,1.2-0.8,2.1-1.6,2.1h-7.9h0h-7.9c-0.9,0-1.6-0.9-1.6-2.1
					c-0.3-6.4-1.1-25.7-0.3-31.6C563.5,326.8,564,326.1,564.6,325.9z"/>
				<path class="st7" d="M560.9,404.2c-0.7-5.6-1.3-11.2-1.9-16.9c-0.5-5.3-1.4-10.9-1-16.2c0.2-3.9,1.6-8.1,3-11.7
					c0.2-0.6,1.7-4.5,2.6-4.5c0,0,19.2,0,19.2,0c0.7,0,2.1,4.2,2.3,4.7c2.3,6.1,2.5,12,2,18.4c-0.4,6-0.9,12.1-1.6,18.1
					c-0.3,2.6-0.5,5.2-0.8,7.8c0,0.4-0.1,0.9-0.3,1.3c-0.1,6.3-1.9,31.7-1.9,31.7h-4.8c0,0-1.3-29-1.1-32.7c0,0,0,0,0,0
					c-0.9-7.6-2.7-22.4-2.9-30.3c-0.1,0-0.3,0-0.4,0c-0.6,0-1.2,0-1.8-0.1c-0.3,8.6-1.8,23.1-2.6,30.1c0,0.4-0.1,0.9-0.3,1.3
					c-0.1,6.3-1.9,31.7-1.9,31.7H562C562,437,560.8,408,560.9,404.2C560.9,404.2,560.9,404.2,560.9,404.2z"/>
				<path class="st19" d="M582,325c0,0,5-0.8,5.3,6c0.2,5.9,0.9,15.1,1.1,18.7c0,1.2-1.1,1.8-2.6,2l0,0c-1.5,0.2-2.9-0.5-3.1-1.7
					c-0.8-3.5-2.7-12-4-17.8C577.1,325.6,582,325,582,325z"/>
				<path class="st4" d="M573.1,323.9l10.1,1.1l-0.4,29.9c-6.4,2-12.8,2-19.2,0l-0.6-30L573.1,323.9z"/>
				<path class="st19" d="M588.3,350.1c0,0-1,3.3-7.2,0.8c-5.5-2.2-13.6-5.4-17-6.7c-1.1-0.5-1.7-1.6-1.4-2.5l0,0
					c0.3-1,1.5-1.5,2.6-1.2c3.5,0.9,11.9,3.2,17.6,4.8C589.4,346.9,588.3,350.1,588.3,350.1z"/>
				<path class="st19" d="M557.2,350.1c0,0,1,3.3,7.2,0.8c5.5-2.2,13.6-5.4,17-6.7c1.1-0.5,1.7-1.6,1.4-2.5l0,0
					c-0.3-1-1.5-1.5-2.6-1.2c-3.5,0.9-11.9,3.2-17.6,4.8C556,346.9,557.2,350.1,557.2,350.1z"/>
				<g>
					<path class="st19" d="M573.1,328.5L573.1,328.5c-2.1,0-3.8-1.7-3.8-3.8v-7.1h7.6v7.1C576.9,326.8,575.2,328.5,573.1,328.5z"/>
					<path class="st19" d="M570.4,320.1c0,0,1.4,3.3,6.6,3.3c0-3.4,0-4.3,0-4.3L570.4,320.1z"/>
				</g>
				<path class="st4" d="M583.3,325c0,0,5.1-0.3,5.1,9.3c-3,0-5.5,0-5.5,0L583.3,325z"/>
				<path class="st4" d="M563,325c0,0-5.1-0.3-5.1,9.3c3,0,5.6,0,5.6,0L563,325z"/>
				<path class="st4" d="M586.1,438.5l-1.9,3.2h-6.5c-0.2,0-0.4,0.2-0.4,0.4l0,0c0,0.2,0.2,0.4,0.4,0.4h14.9c0.2,0,0.4-0.2,0.4-0.4
					v0c0-0.2-0.2-0.4-0.4-0.4h-3.5l0.8-1.4l-4-1.7"/>
				<path class="st19" d="M566.9,437c0,0,8.1,3.7,9.1,4.2c1,0.5,1.4,1.4-1.2,1.4h-10.6c-1.2,0-2.2-0.8-2.2-1.8l0.1-3.8H566.9z"/>
				<path class="st4" d="M570.3,438.5l-1.9,3.2h-6.5c-0.2,0-0.4,0.2-0.4,0.4l0,0c0,0.2,0.2,0.4,0.4,0.4h14.9c0.2,0,0.4-0.2,0.4-0.4
					v0c0-0.2-0.2-0.4-0.4-0.4h-3.5l0.8-1.4l-4-1.7"/>
				<path class="st19" d="M557.6,343.2c0-0.4,2.9-0.3,2.9-0.3s-3.9-0.9-3.9-1.3c0.1-0.4,4,0.3,4,0.3s-4.1-1.5-4-1.9
					c0.1-0.4,4.1,0.9,4.1,0.9s-3.8-1.8-3.5-2.1c0.3-0.4,5.3,1.5,5.3,1.5s-2.5-1.8-2.4-2.1c0-0.3,0.7,0.1,1.8,0.6
					c2,0.9,3.5,2.2,3.5,2.2l-0.7,3.2C564.7,344,557.5,343.5,557.6,343.2z"/>
				<path class="st19" d="M587.4,343.2c0-0.4-2.9-0.3-2.9-0.3s3.9-0.9,3.9-1.3c-0.1-0.4-4,0.3-4,0.3s4.1-1.5,4-1.9
					c-0.1-0.4-4.1,0.9-4.1,0.9s3.8-1.8,3.5-2.1c-0.3-0.4-5.3,1.5-5.3,1.5s2.5-1.8,2.4-2.1c0-0.3-0.7,0.1-1.8,0.6
					c-2,0.9-3.5,2.2-3.5,2.2l0.7,3.2C580.3,344,587.4,343.5,587.4,343.2z"/>
				<path class="st19" d="M571.4,304.7L571.4,304.7c4.1,0,7.5,3.4,7.5,7.5v6.2c0,2.2-2,3.9-4.1,3.6c-4.8-0.8-8.6-5-8.6-10.1v-1.9
					C566.2,307.1,568.5,304.7,571.4,304.7z"/>
				<path class="st19" d="M578.9,313.4c0,0,3.3,4.2,0,4.2"/>
				<path class="st7" d="M573.5,303.5c1.2,0.3,4.1,1.4,5.5,4.4c0,0-2-0.2-4-1.2c-0.1,2-0.9,5.4-5,7.8c-2,3.1-0.6,6-0.6,6
					s-4.3-0.5-4.3-8.8C565,304.5,570.5,301.7,573.5,303.5z"/>
				<g>
					<line class="st22" x1="570.4" y1="312.5" x2="573.4" y2="314.5"/>
					<line class="st22" x1="568.8" y1="315.8" x2="572.5" y2="319.7"/>
					<path class="st1" d="M573,314.2h6.4c0,0,0.9,1.1,0.9,2.6c0,1.5-2,4.7-3.9,5.3c-2,0.6-4.5-1-4.5-1L573,314.2z"/>
				</g>
				<path class="st19" d="M571.9,313.8c0.5,1.3,0.1,2.8-1,3.1c-1,0.4-2.3-0.4-2.8-1.7c-0.5-1.3-0.1-2.8,1-3.1
					C570.1,311.7,571.4,312.4,571.9,313.8z"/>
			</g>
		</g>
		<g>
			<ellipse class="st18" cx="459.9" cy="442.4" rx="32.3" ry="7.7"/>
			<g>
				<path class="st19" d="M440.5,371c0,0-0.8,2.8-1.1,3.8s-1,2.9-1.5,2.8c-0.4-0.1,0.4-3.8,0.2-4.1c-0.2-0.2-2,1.7-2.2,2.2
					c-0.2,0.5,0.4,4.3,0,4.3c-0.4,0-1.4-1.9-1.6-4.1c-0.2-2.2,2.9-6.5,2.9-6.5L440.5,371z"/>
				<path class="st19" d="M459.3,371.3c-0.2-9.1-6.8-9.9-6.8-9.9s-6.6-0.8-6.9,8.2c-0.2,6.9,1.7,25.9,2.6,34.3
					c0.3,2.4,1.9,4.3,3.9,4.6l0,0c2,0.2,3.7-1.3,4-3.6C457.3,396.7,459.5,378.3,459.3,371.3z"/>
				<path class="st19" d="M474.9,371.3c-0.2-9.1-6.8-9.9-6.8-9.9s-6.6-0.8-6.9,8.2c-0.2,6.9,1.7,25.9,2.6,34.3
					c0.3,2.4,1.9,4.3,3.9,4.6l0,0c2,0.2,3.7-1.3,4-3.6C472.8,396.7,475,378.3,474.9,371.3z"/>
				<path class="st19" d="M456.4,404.2c-0.2-3.8-3.9-3.8-3.9-3.8s-3.7,0-3.9,3.8c-0.2,3.8,1.9,32.7,1.9,32.7h4.8
					C455.3,437,456.5,408,456.4,404.2z"/>
				<path class="st19" d="M450.6,437c0,0-8.3,3.7-9.3,4.2c-1,0.5-1.4,1.4,1.2,1.4h10.6c1.2,0,2.2-0.8,2.2-1.8V437H450.6z"/>
				<path class="st19" d="M471.3,401.6c-1.2-3.6-4.8-2.6-4.8-2.6s-3.5,1-2.7,4.7c0.9,3.7,10.8,31,10.8,31l4.6-1.3
					C479.3,433.4,472.5,405.2,471.3,401.6z"/>
				<path class="st19" d="M469.7,326.6c0,0,5-0.8,5.3,6c0.2,5.9,0.8,14.6,1,18.2c0.1,1.2-1.1,2.3-2.6,2.5l0,0
					c-1.5,0.2-2.9-0.5-3.1-1.7c-0.8-3.5-2.7-12-4-17.8C464.8,327.2,469.7,326.6,469.7,326.6z"/>
				<path class="st19" d="M468.5,325.9c-0.2-0.1-0.4-0.1-0.5-0.2c-5.2-1.6-10.7-1.6-15.9,0c-0.2,0.1-0.4,0.1-0.6,0.2
					c-0.6,0.2-1.1,0.9-1.2,1.7c-0.9,5.9,0,25.3,0.3,31.6c0.1,1.2,0.8,2.1,1.6,2.1h7.9h0h7.9c0.9,0,1.6-0.9,1.6-2.1
					c0.3-6.4,1.1-25.7,0.3-31.6C469.6,326.8,469.1,326.1,468.5,325.9z"/>
				<path class="st19" d="M474,366.3c-1.6-8.4-4.6-11.4-4.6-11.4h-19.2c0,0-2.8,4.1-4.4,12.5c-0.2,1.2,0.3,2.5,1.4,3.1
					c2.1,1.3,6.2,3.3,12.5,3.3c6.3,0,10.4-1.9,12.5-3.3C473.3,369.9,474.3,367.6,474,366.3z"/>
				<g>
					<rect x="456.1" y="317.1" class="st19" width="7.6" height="9.2"/>
					<path class="st19" d="M463.5,320.3c0,0-2.2,2.8-7.4,2.8c0-3.4,0-4,0-4L463.5,320.3z"/>
				</g>
				<path class="st19" d="M451.1,326.6c0,0-5-0.8-5.3,6c-0.2,5.9-0.8,14.6-1,18.2c-0.1,1.2,1.1,2.3,2.6,2.5l0,0
					c1.5,0.2,2.9-0.5,3.1-1.7c0.8-3.5,2.7-12,4-17.8C455.9,327.2,451.1,326.6,451.1,326.6z"/>
				<path class="st19" d="M448.3,347.8c0,0-3.1-1.4-5.3,5c-1.9,5.6-4.9,13.8-6.1,17.2c-0.4,1.1,0,2.3,1,2.7l0,0
					c1,0.4,2.1-0.1,2.6-1.2c1.6-3.2,5.4-11.1,8-16.4C451.5,349,448.3,347.8,448.3,347.8z"/>
				<path class="st4" d="M474.1,402.3c0-2.2,7.9-37.7-4.4-48.4h-19.5c0,0-5.4,7.3-5.4,24.4c0,17.1,1,57.3,1,57.3h11.8l2.9-61.8
					c0,0,1,21.7,2,29.5c0.9,7.7,8.5,31.4,8.5,31.4l10.4-2.8C481.4,431.9,474.1,404.5,474.1,402.3z"/>
				<path class="st7" d="M456.1,323.9c0,0-7.8,0.7-10.3,4.4c-2,3-1.8,18.3-2.5,20.7c-0.7,2.4-9.4,18.7-6.4,21c3,2.3,4.7,3.1,5.5,2.3
					c0.8-0.8,2.9-6,2.9-6s14.2,1.9,23,1.9c8.8,0,10.2-4.6,9.5-7.9c-0.7-3.2-0.9-17.9-1.9-25.3c-1-7.4-0.9-8.3-12.2-11
					C459.3,325.4,456.1,323.9,456.1,323.9z"/>
				<path class="st19" d="M475.9,351.7c0,0-1,3.3-7.2,0.8c-5.5-2.2-13.6-5.4-17-6.7c-1.1-0.5-1.7-1.6-1.4-2.5l0,0
					c0.3-1,1.5-1.5,2.6-1.2c3.5,0.9,11.9,3.2,17.6,4.8C477.1,348.5,475.9,351.7,475.9,351.7z"/>
				<path class="st7" d="M453.1,348.3c-1.2-0.7-1.8-2.1-1.5-3.4c0.4-1.5,1-3.3,1.8-4.1c1.5-1.5,14.9,3.6,14.9,3.6
					s-0.6-13.1,2.7-18.1c4.8,1.4,4.9,3.6,6.1,15c1.2,11.3-1,14.6-6.1,14.6C467,355.9,457.2,350.7,453.1,348.3z"/>
				<path class="st7" d="M450.4,436.5c0,0-6.5,2-9.1,2.8c-2.6,0.8-1.3,3.2-1.3,3.2h15.2V437C455.3,437,453.1,438,450.4,436.5z"/>
				<path class="st19" d="M474.8,434.3c0,0-7,5.8-7.9,6.5c-0.8,0.7-1,1.7,1.5,1.1l10.2-2.8c1.1-0.3,1.9-1.3,1.6-2.3l-1-3.7
					L474.8,434.3z"/>
				<path class="st7" d="M474.5,433.9c0,0-5.7,3.7-8,5.2c-2.2,1.5-0.4,3.4-0.4,3.4l14.7-4.1l-1.5-5.4
					C479.3,433.1,477.5,434.7,474.5,433.9z"/>
				<path class="st19" d="M445.4,344.7c0-0.4,2.9-0.3,2.9-0.3s-3.9-0.9-3.9-1.3c0.1-0.4,4,0.3,4,0.3s-4.1-1.5-4-1.9
					c0.1-0.4,4.1,0.9,4.1,0.9s-3.8-1.8-3.5-2.1c0.3-0.4,5.3,1.5,5.3,1.5s-2.5-1.8-2.4-2.1c0-0.3,0.7,0.1,1.8,0.6
					c2,0.9,3.5,2.2,3.5,2.2l-0.7,3.2C452.5,345.5,445.4,345.1,445.4,344.7z"/>
				<path class="st19" d="M456.6,322.1h2c4.8,0,8.7-3.9,8.7-8.7v-4c0-3-2.4-5.4-5.4-5.4h-2.3c-3,0-5.4,2.4-5.4,5.4v10.1
					C454,321,455.2,322.1,456.6,322.1z"/>
				<path class="st19" d="M454,313.1c0,0-3.4,4.3,0,4.3"/>
				<path class="st7" d="M461.6,314.1c0,0-2.3-2.5-1.7-7.6c-4.4,0-5.6,1.1-5.6,1.1s-2.7-2.3,0.8-5.2s12.2-2.1,13.5,3.6
					c1.3,5.7,0.5,11.6-5,14.4C464.1,316.2,461.6,314.1,461.6,314.1z"/>
				<g>
					<line class="st22" x1="462.2" y1="312.7" x2="459.1" y2="314.7"/>
					<line class="st22" x1="463.8" y1="316" x2="460.1" y2="319.9"/>
					<path class="st1" d="M459.6,314.4h-6.4c0,0-0.9,1.1-0.9,2.6c0,1.5,2,4.7,3.9,5.3c2,0.6,4.8-0.5,4.8-0.5L459.6,314.4z"/>
				</g>
				<path class="st19" d="M460.7,314c-0.5,1.3-0.1,2.8,1,3.1c1,0.4,2.3-0.4,2.8-1.7c0.5-1.3,0.1-2.8-1-3.1
					C462.5,311.9,461.2,312.6,460.7,314z"/>
			</g>
		</g>
	</g>
</g>
</svg>
