<?xml version="1.0" encoding="utf-8"?>
<!-- Generator: Adobe Illustrator 23.0.0, SVG Export Plug-In . SVG Version: 6.00 Build 0)  -->
<svg version="1.1" id="Capa_1" xmlns="http://www.w3.org/2000/svg" xmlns:xlink="http://www.w3.org/1999/xlink" x="0px" y="0px"
	 viewBox="0 0 2122 2122" style="enable-background:new 0 0 2122 2122;" xml:space="preserve">
<style type="text/css">
	.st0{fill:#FFFFFF;}
	.st1{fill:#9EABD3;}
	.st2{fill:#B3E4FA;}
	.st3{fill:#561136;}
	.st4{fill:#152035;}
	.st5{fill:#E59375;}
	.st6{fill:#1A2652;}
	.st7{fill:#F7A483;}
	.st8{fill:#E1876F;}
	.st9{fill:#1F2732;}
	.st10{fill:#6652A2;}
	.st11{fill:#171F29;}
	.st12{fill:#2B3B6F;}
	.st13{fill:#F8A07D;}
	.st14{fill:#E98B6F;}
	.st15{fill:#3C2415;}
	.st16{enable-background:new    ;}
	.st17{fill:#0093C6;}
	.st18{fill:#3DAFE4;}
	.st19{fill:#80BBE6;}
	.st20{fill:#7C294B;}
	.st21{fill:#A1426F;}
	.st22{fill:#CC4E7E;}
	.st23{fill:#17181C;}
	.st24{fill:#104473;}
	.st25{fill:#065099;}
	.st26{fill:#872952;}
	.st27{fill:#271000;}
	.st28{fill:#394472;}
	.st29{fill:#424888;}
	.st30{fill:#5860AB;}
	.st31{fill:#6174B8;}
	.st32{fill:#053B6B;}
	.st33{fill:#007EA3;}
	.st34{fill:#040308;}
	.st35{fill:#30528B;}
	.st36{fill:#FFD47C;}
	.st37{fill:#3F1901;}
	.st38{fill:#004E89;}
	.st39{fill:#0061A2;}
	.st40{fill:#196EAB;}
	.st41{fill:#4F1531;}
	.st42{fill:#00468B;}
	.st43{fill:#0058A9;}
	.st44{fill:#340E08;}
	.st45{fill:#F4B78E;}
	.st46{fill:#F8B78F;}
	.st47{fill:#DD9D7E;}
	.st48{fill:#E6E7E8;}
	.st49{fill:#7FC78D;}
	.st50{fill:#F38DB6;}
	.st51{fill:#98C4E9;}
	.st52{fill:#A4DEF6;}
	.st53{fill:none;stroke:#699FD5;stroke-width:12.4726;stroke-miterlimit:10;}
	.st54{fill:none;stroke:#699FD5;stroke-width:13.462;stroke-miterlimit:10;}
</style>
<g>
	<rect y="0" class="st0" width="2121.3" height="2121.3"/>
	<g>
		<g>
			<g>
				<path class="st1" d="M1231.5,1222l-294.8-124l-229.9,155.2l122.1,51.4c-2.7,2.3-7.3,4.9-8.2,5.4c-4.3,1.9-9.8,3.4-15.1,4.4
					c-10.3,1.9-22.9,1.6-30.2,6.5c-11.4,7.7-2.4,21.7,20.1,31.8c0.7,0.3,1.3,0.6,2,0.9c24,10.1,52.9,11.8,64.7,3.9
					c9.6-6.4,2.2-16.7,7.9-24.2c0.5-0.6,5.4-4.8,9.5-7.2l121.9,51.3l95.1-64.2c-0.4-0.2-0.8-0.4-1.2-0.6c-4.7-2.1-11.4-4.3-12.5-4.6
					c-14.2-3.1-33.4,0.7-45.6-4.5c-15-6.7-12-21.9,6.5-34.3c18.7-12.6,46.1-17.7,61.2-11.3c9.4,4.2,9,10.7,12.6,16.1
					c1.9,2.8,4.7,5.8,8.4,8.1c0.4,0.3,2.1,1.1,4.3,2.1c1.8,0.8,3.9,1.7,5.9,2.3L1231.5,1222z"/>
			</g>
			<path class="st1" d="M918.6,1657.4c-7.4-5-20.3-4.7-30.7-6.6c-5.4-1-11-2.5-15.3-4.5c-0.9-0.4-5.6-3.1-8.4-5.4l124.1-52.2
				l-96.7-65.2c0.4-0.2,0.8-0.4,1.2-0.6c4.8-2.1,11.6-4.4,12.7-4.7c14.4-3.2,33.9,0.7,46.9-4.8c14.8-6.6,11.7-22-7.1-34.7
				c-19-12.8-46.8-18-62.6-11.3c-9.1,4-8.7,10.7-12.4,16.2c-1.9,2.9-4.8,5.9-8.6,8.2c-0.5,0.3-2.2,1.2-4.4,2.1c-1.8,0.8-4,1.7-6,2.4
				l-96.8-65.3L455,1557.1l233.7,157.7l123.9-52.1c4.2,2.5,9.2,6.7,9.7,7.4c5.8,7.6-1.7,18,8,24.6c12,8.1,41.4,6.3,65.8-3.9
				c0.7-0.3,1.4-0.6,2-0.9C921.1,1679.5,930.2,1665.3,918.6,1657.4z"/>
			<g>
				<path class="st1" d="M1150.4,1363.4l123.9-52.2c4.2,2.5,9.2,6.7,9.7,7.4c5.8,7.6-1.7,18,8,24.6c12,8.1,41.4,6.3,65.8-3.9
					c0.7-0.3,1.3-0.6,2-0.9c22.9-10.2,32.1-24.5,20.4-32.3c-7.4-5-20.3-4.7-30.7-6.6c-5.4-1-11-2.5-15.3-4.5
					c-0.9-0.4-5.6-3.1-8.4-5.4l124.1-52.2l233.7,157.7l-299.6,126.1l-96.7-65.2c0.4-0.2,0.8-0.4,1.2-0.6c4.8-2.1,11.7-4.4,12.8-4.7
					c14.4-3.2,33.9,0.7,46.4-4.6c15.3-6.8,12.2-22.2-6.6-34.9c-19-12.8-46.8-18-62.2-11.5c-9.5,4.2-9.1,10.9-12.8,16.4
					c-1.9,2.9-4.8,5.9-8.6,8.2c-0.5,0.3-2.2,1.2-4.4,2.1c-1.8,0.8-4,1.7-5.9,2.4L1150.4,1363.4z"/>
			</g>
			<g>
				<g>
					<path class="st1" d="M1549.6,1705.9l-121.9-51.3c-4.1,2.4-9,6.6-9.5,7.2c-5.7,7.5,1.7,17.7-7.9,24.2
						c-11.8,7.9-40.7,6.2-64.7-3.9c-0.7-0.3-1.3-0.6-2-0.9c-22.5-10-31.5-24.1-20.1-31.8c7.3-4.9,19.9-4.6,30.2-6.5
						c5.3-1,10.8-2.4,15.1-4.4c0.9-0.4,5.5-3.1,8.2-5.4l-122.1-51.4l-95.2,64.3c-2-0.7-4.1-1.5-5.9-2.3c-2.2-1-3.8-1.8-4.3-2.1
						c-3.7-2.3-6.5-5.2-8.4-8.1c-3.6-5.4-3.3-12-12.2-15.9c-15.5-6.5-42.9-1.5-61.6,11.1c-18.5,12.5-21.5,27.6-7,34.1
						c12.8,5.4,31.9,1.6,46.1,4.7c1.1,0.2,7.8,2.5,12.5,4.6c0.4,0.2,0.8,0.4,1.2,0.6l-95.1,64.2l294.8,124L1549.6,1705.9z"/>
				</g>
			</g>
		</g>
	</g>
	<path class="st2" d="M598,8.5c-23.7,75-65.7,143.6-115.6,204c-46.2,55.9-98.9,105.7-160.9,143.8C224.4,415.8,113,447.1,0,456.6V0
		h600.6C599.8,2.9,598.9,5.7,598,8.5z"/>
	<path class="st2" d="M1765.9,2041.1c21.6-71.3,56.7-137.9,104.9-194.8c26.2-31,57.6-58.4,89.2-83.7c32.5-26.1,66.7-50,102-72.2
		c16-10,31.7-18.7,49.3-25.4c3.3-1.3,6.7-2.5,10-3.7v460.1h-374.1C1751.8,2094.2,1757.9,2067.4,1765.9,2041.1z"/>
	<g>
		<g>
			<path class="st1" d="M856.2,1198.6c0,41.4-75.4,74.9-168.4,74.9c-93,0-168.4-33.5-168.4-74.9c0-41.4,75.4-74.9,168.4-74.9
				C780.8,1123.7,856.2,1157.2,856.2,1198.6z"/>
			<g>
				<g>
					<polygon class="st3" points="733.1,1193.5 735.9,1193 738.7,1169.8 731.4,1161.3 					"/>
					<g>
						<polygon class="st4" points="729.8,1191.7 733.1,1193.5 732.6,1155.6 726.8,1154.3 						"/>
						<g>
							<path class="st5" d="M755.3,1143.9l6.2,20.3c0,0,8.4,19.6,15.3,27.3c0,0,12.5,17.1-10.9,16c0,0-24.9-1.3-24.5-17.3
								c0.3-13.7-12.3-30.8-12.3-30.8c-4.6-8,0.1-14.6,1.6-16.4l4.3-4.9l20.9-3.7L755.3,1143.9z"/>
							<path class="st4" d="M778.1,1197.9c-10.3,1.9-20.7-1.9-27.1-8.2c-6.5-6.4-13.9-29.7-11.4-22c1,3.2-6.6-25.2-4.6-29.6
								l-4.3,4.9c-1.6,1.8-6.7,8.8-2.1,16.8c0,0,13.1,16.6,12.7,30.4c-0.4,16,24.5,17.3,24.5,17.3c14,0.7,15.1-5.2,13.8-10
								C779.2,1197.7,778.7,1197.8,778.1,1197.9z"/>
							<path class="st4" d="M789.9,1204.7c0,0,3.5,6.6-7.6,6.6c0,0-41.8-2.7-41.8-20.6l0-14.5c0,0,3.3,20.6,29.1,20.7
								c0,0,11.5,0,5.5-7.3L789.9,1204.7z"/>
						</g>
					</g>
				</g>
				<g>
					<path class="st6" d="M722.6,237.3c0,15.4-12.4,27.8-27.8,27.8c-15.4,0-27.8-12.4-27.8-27.8c0-15.4,12.4-27.8,27.8-27.8
						C710.2,209.5,722.6,222,722.6,237.3z"/>
					<path class="st7" d="M714.7,365.5h54.8c-2.5-8-7.6-28.6,0.3-42.7l-55.3-36.3C714.5,286.5,724.4,347.5,714.7,365.5z"/>
					<path class="st8" d="M720.9,331.1c3.3,8.4,8.6,12.5,17.2,15.2c9.6,3,18.8,3.6,27.8,2.1c-0.9-8.4-0.4-17.9,3.9-25.5l-55.3-36.3
						c0,0,3,18.6,4.1,38.3C719.3,326.9,720.1,329,720.9,331.1z"/>
					<path class="st7" d="M780.4,335.5l2.9-8.2l7.1-24.2c1-3.8,1.4-9.1,0.1-12.9c-1.6-4.5-2.8-11.9-1.1-20.1
						c4.5-22.1-5.3-33.6-5.3-33.6c-12.9-20.3-43.2-20.2-43.2-20.2c-37.6,1.9-40.6,38.3-40.6,38.3c-6,24.2,13.3,44.3,13.3,44.3
						c2.4,2.5,2.7,6.7,3.9,9.8c1.3,3.4,3.2,6.5,5.5,9.2c5.3,6.1,12.2,11.8,19.3,15.5c6.7,3.4,19.7,6.9,29,6.8
						C775,340.2,778.7,340.3,780.4,335.5z"/>
					<g>
						<polygon class="st3" points="605.1,1197.9 607.9,1198.3 617.9,1177.2 613.8,1166.8 						"/>
						<g>
							<polygon class="st4" points="602.5,1195 605.1,1197.9 616.8,1161.8 611.6,1158.6 							"/>
							<g>
								<path class="st7" d="M642,1158c-0.6,17-1.8,36,5,52c0,0,6.3,20.2-15.4,11.6c0,0-23.2-9.2-17.7-24.3
									c4.7-12.9-1.8-33.1-1.8-33.1c-1.8-9.1,4.7-13.8,6.8-15l5.7-3.3h21.8L642,1158z"/>
								<path class="st4" d="M646.3,1216.4c-10.4-1.5-19-8.4-23.1-16.5c-4.1-8.1-3.6-32.6-3.8-24.5c-0.1,3.4,1.8-26,5.2-29.5
									l-5.7,3.3c-2.1,1.2-9.2,6.2-7.3,15.3c0,0,7,19.9,2.3,32.8c-5.5,15,17.7,24.3,17.7,24.3c13.1,5.1,16-0.1,16.3-5.1
									C647.4,1216.6,646.9,1216.5,646.3,1216.4z"/>
								<path class="st4" d="M655.2,1226.7c0,0,1.2,7.4-9.4,3.8c0,0-38.7-15.9-32.9-32.9l4.6-13.7c0,0-3.5,20.6,20.9,28.9
									c0,0,10.9,3.7,7.6-5.1L655.2,1226.7z"/>
							</g>
						</g>
					</g>
					<path class="st7" d="M666.1,904.6c-27.8,51.3-32.7,72.2-37.6,111.1c-2.9,22.7-1.9,118.2-4.9,132.5c-1.2,5.9,21.2,2.7,21.2,2.7
						c4.1-10,69.5-229.5,69.5-229.5s7.3-22.7,1.2-26.7C685,874.9,678.2,882.3,666.1,904.6z"/>
					<path class="st9" d="M645.4,1155.5c4.1-10,68.8-234.1,68.8-234.1s7.3-22.7,1.2-26.7c-30.5-19.9-37.3-12.4-49.4,9.9
						c-27.8,51.3-32.7,72.2-37.6,111.1c-2.9,22.7-7.6,114.9-10.5,129.2C617.9,1144.9,634.5,1164.7,645.4,1155.5z"/>
					<path class="st9" d="M790.7,533.8c0,0,21.3,90.3,18.5,100.2c-8.3,28.4-84.8,68.3-154.6,10.1c0,0,16-66.8,49.1-123.3
						C703.7,520.8,715.9,533.4,790.7,533.8z"/>
					<path class="st10" d="M779.9,350.2c0,0,27.9,54,40.4,83.6c-5.2,34.7-24.1,86.2-31.7,97.1c-16.6,23.8-92.6,2.6-92.6,2.6
						l-21.9-73.1c63.9-23,30.3-90.3,30.3-90.3l10-6.3c0,0,10.2,33.1,51.8,31.9c0,0,13.7-8.9,3.6-46.7
						C769.8,349,775.8,349.2,779.9,350.2z"/>
					<path class="st5" d="M710.3,658.3c0,0,7.4,145.7,34.3,224.1c4,11.7,50.1-3.8,50.1-3.8s23.2-125.4,21.9-177.3
						c-0.8-29.4-11.3-92.7-11.3-92.7S718.9,597.2,710.3,658.3z"/>
					<path class="st5" d="M746,881.9l48.8-3.3c0,0-30,248.8-32.7,259.2c0,0-21,7.6-20.5,1.6c1-14.5-16.5-126.2-17-149
						C723.6,953.6,725.1,930.4,746,881.9z"/>
					<path class="st11" d="M710.3,658.3c0,0,7.4,145.7,34.3,224.1c4,11.7,50.1-3.8,50.1-3.8s23.2-125.4,21.9-177.3
						c-0.8-29.4-11.3-92.7-11.3-92.7S718.9,597.2,710.3,658.3z"/>
					<path class="st11" d="M768.1,1139.3c4.9-9.6,26.6-260.8,26.6-260.8l-48.8,3.3c-20.9,48.5-22.3,71.7-21.5,108.4
						c0.5,22.9,11.6,134.5,10.6,149C735.1,1139.3,761.6,1151.9,768.1,1139.3z"/>
					<g>
						<g>
							<path class="st5" d="M868.1,527.1l-37-134c-13.3-35.9-33.2-36.7-33.2-36.7c-38.1,5.8-13.7,72.6-13.7,72.6l47,111.3"/>
						</g>
						<g>
							<g>
								<path class="st5" d="M975.2,627.3c-16-11.9-17.1-15.1-19.5-19.9c-10.4-20.7,16.2-16.2,22.6-13.6c3.7,1.4,2.6,10.6,12.9,23.6
									c0,0,17.2,13.7,21.9,13.6c0,0,4.7,1.4,4.2,4.9C1017.4,635.8,1003,641.6,975.2,627.3z"/>
							</g>
							<g>
								<g>
									<path class="st5" d="M843.9,511.6"/>
								</g>
								<g>
									<path class="st5" d="M865.2,519.3l108.3,81.9c3,14.9-3.9,16-3.9,16l-87.3-39.7c-37.4-16.2-50.4-34.8-50.4-34.8
										s-15.3-14.3,9-28.7C840.9,514,852,507.7,865.2,519.3z"/>
								</g>
							</g>
							<path class="st5" d="M975.3,592.8c0,0-4.7,9.2,7.6,8.6l13.1-7.2c0,0,3.9-1.4,3.2-5.1c0,0-1.1-2.2-5.2-0.8L975.3,592.8z"/>
						</g>
					</g>
					<path class="st7" d="M650.7,670.5c0,0,0.6,145.8,19.8,226.4c2.9,12,46.8,8.3,46.8,8.3s28.7-137.9,32.3-189.7
						c2.1-29.3,7.9-80.6,7.9-80.6S654.7,624.7,650.7,670.5z"/>
					<path class="st7" d="M672,387.6c-22.4,16.4-11,41-11,41l42.3,102.8c0,0,68.6,23.3,85.3-0.5c7.6-10.9,14.6-39.7,23.8-81.2
						c6.3-28.2,6.7-77.6-9.2-92.2c-9.2-8.4-38.8-8.3-39.1-9.3l-48.1,15.5L672,387.6z"/>
					<path class="st7" d="M762.6,523c4.1-0.7,26,7.9,26,7.9s15.8,67.4,16.7,77.6c0.9,10.2-69.5,63.3-148.2,33.1
						c0,0,39.7-93.7,45.5-113.3C709.3,505.8,762.6,523,762.6,523z"/>
					<path class="st10" d="M800.8,391.9c0,0,23.2,27.3,25.2,47.7c1.1,11.3-13.2,30.3-20.3,37.2C800.6,481.7,770.6,410.8,800.8,391.9
						z"/>
					<path class="st9" d="M676.3,619.3c0,0-27.7,6.2-25.2,57c2.4,49.7,92.9,60,104.5,10C768.1,632.4,725.7,600.8,676.3,619.3z"/>
					<path class="st12" d="M717.7,313c-0.2-17.2,0.2-16.1,0.2-16.1c0.4-5,10.2,5.8,10-0.7c-0.9-29.9,9.9-44.1,14.2-46.4
						c11.5-6.2,23.7-8,33.3-6.3c15.1,2.7,14.5,22.8,14.5,22.8c12.9-73.6-69.3-50.1-69.3-50.1c-40,10.5-35.9,48.2-35.9,48.2
						c-4.9,40.5,33.4,63.9,33.4,63.9L717.7,313z"/>
					<g>
						<g>
							<g>
								<g>
									<g>
										<g>
											<path class="st13" d="M720.4,307.2c-1.3,1-3.1,1.6-5.2,1.6c-5.8-0.1-10.6-5.5-10.8-12.1c-0.1-6.6,4.5-11.9,10.3-11.8
												c2.8,0,5.3,1.3,7.2,3.3c2.8,2.9,2.9,8.3,2.2,12C723.5,303.1,722.4,305.6,720.4,307.2z"/>
										</g>
									</g>
								</g>
							</g>
						</g>
						<g>
							<g>
								<path class="st14" d="M717,290.9c-0.3-3.5-7.4-0.2-6.3,1.8c0.6,1.1,1.8,1.9,2.8,2.7c1.3,1.1,2,2.1,2.2,3.8
									c0,0.2,0.1,0.8-0.1,0.9c-0.9,0.6-3.9-2.8-4.5-3.5c-1.3-1.4-1.5-3.8-0.8-5.6c0.7-1.9,1.9-2.7,3.9-2.6
									c1.6,0.1,3.2,0.2,3.1,2.2C717.1,290.8,717,291.1,717,290.9L717,290.9z"/>
							</g>
							<g>
								<path class="st14" d="M714.7,294.5c0.7-0.7,1.4-0.1,2.2,0.4c0.7,0.5,1.1,1.2,1.3,2c0.4,1.8,0.2,4.2-0.9,5.8
									c-0.8,1.3-2.2,2-3.8,2c-2.1-0.1-2.7-1.9-2.8-3.7c0-0.5-0.1-1.6,0.4-1.9c0.5-0.3,0.9,0.5,1.2,0.8c0.5,0.4,1.2,0.6,1.8,0.7
									c1.2,0.1,2.4-0.5,3.1-1.4c0.1-0.2,0.3-0.3,0.3-0.5c0,1.2-0.1,1.4-0.2,0.8c-0.1-0.3-0.2-0.6-0.4-0.8
									c-0.5-0.8-1.3-1.4-1.9-2.1C714.9,296.2,714.4,294.9,714.7,294.5L714.7,294.5z"/>
							</g>
						</g>
					</g>
					<g>
						<path class="st15" d="M753.7,281.6c0.2,2.1-0.8,3.9-2.2,4c-1.4,0.1-2.7-1.4-2.9-3.5c-0.2-2.1,0.8-3.9,2.2-4
							C752.2,277.9,753.5,279.5,753.7,281.6z"/>
						<path class="st15" d="M782.6,277.7c0.1,2.1-1,3.8-2.4,3.9c-1.4,0.1-2.6-1.6-2.7-3.7c-0.1-2.1,1-3.8,2.4-3.9
							C781.3,273.9,782.5,275.6,782.6,277.7z"/>
						<path class="st12" d="M741.2,278.8c5.4-5.7,18.2-5.3,18.2-5.3s0.9,0,0.6-2.6c0,0-0.1-2.3-1.9-2.1
							C758.1,268.8,741.9,267.7,741.2,278.8z"/>
						<path class="st12" d="M789.9,267.9c-5.7-4.6-16.1-1-16.1-1c-1.8,0.3-1.3,2.5-1.3,2.5c0.5,2.6,1.3,2.4,1.3,2.4
							s8.6-2.7,15.4-1.1C789.4,269.7,789.7,268.8,789.9,267.9z"/>
						<g>
							<path class="st0" d="M778.9,308l-20.6,3.8c-1.1,0.2-1.5,0.8-0.9,1.4c0,0,5.9,5.9,12.6,4.7c6.7-1.2,10-8.9,10-8.9
								C780.3,308.3,779.8,307.9,778.9,308z"/>
						</g>
						<path class="st14" d="M764.1,301.5c10.8-0.8,11.4-3.6,11.4-3.6l-5.7-11.4C769.8,286.5,771.1,297.9,764.1,301.5z"/>
					</g>
					<path class="st9" d="M650.7,670.5c0,0,0.6,145.8,19.8,226.4c2.9,12,46.8,8.3,46.8,8.3s28.7-137.9,32.3-189.7
						c2.1-29.3,7.9-80.6,7.9-80.6S654.7,624.7,650.7,670.5z"/>
					<path class="st9" d="M790.7,533.8c0,0,21.3,90.3,18.5,100.2c-8.3,28.4-84.8,68.3-154.6,10.1c0,0,16-66.8,49.1-123.3
						C703.7,520.8,715.9,533.4,790.7,533.8z"/>
					<path class="st10" d="M696,533.5c0,0,78.1,24.1,94.7,0.3c7.6-10.9,24.3-65.2,29.5-99.9c-12.5-29.6-40.4-83.6-40.4-83.6
						c-4-1-10-1.2-10-1.2c10.1,37.8-3.6,46.7-3.6,46.7c-41.6,1.2-51.8-31.9-51.8-31.9l-10,6.3c0,0,31,64.4-28.8,93.8
						C675.5,463.9,674.1,533,696,533.5z"/>
					<path class="st0" d="M720.6,308.4c0,2-1.6,3.6-3.6,3.6s-3.6-1.6-3.6-3.6c0-2,1.6-3.6,3.6-3.6S720.6,306.4,720.6,308.4z"/>
					<g>
						<path class="st7" d="M705.5,397c12.2,12.9,11.5,33.3-1.4,45.4c-12.9,12.2-53.5,35.3-53.9,17.6c-0.7-34.9,0.6-53.8,13.5-66
							C676.7,381.9,693.4,384.1,705.5,397z"/>
						<path class="st7" d="M707,426.5l-28.1-16.2l-28.2,17.7c0,0-16.5,105.2-10.4,129.3c6.5,25.7,18.3,6.8,23.8-0.3
							C664.1,556.9,710.1,446.9,707,426.5z"/>
						<path class="st7" d="M644.5,567.5c0,0,50.5,36,95.3,55.7c0,0,14.8-6.2,7.4-13.1c-12.6-11.6-67.5-64.2-80.2-75.9
							C644.5,526.5,644.5,567.5,644.5,567.5z"/>
						<g>
							<g>
								<path class="st7" d="M765.3,643.2c-18.3-7.9-20.1-10.8-23.5-14.9c-14.9-17.8,12-19.4,18.9-18.5c4,0.6,5,9.8,18,20
									c0,0,19.8,9.4,24.4,8.2c0,0,4.9,0.3,5.2,3.8C808.3,641.9,795.7,650.9,765.3,643.2z"/>
							</g>
							<path class="st7" d="M759.9,609.7c0,0-7.8,6.7,3.9,10.8l14.8-1.8c0,0,4.2,0.2,4.8-3.5c0,0-0.2-2.5-4.5-2.7L759.9,609.7z"/>
						</g>
					</g>
				</g>
			</g>
		</g>
		<g class="st16">
			<path class="st17" d="M1076.2,740.5c-0.2-0.1-0.4-0.1-0.7-0.1c-0.3-0.1-0.7-0.2-1-0.2c-0.2,0-0.5-0.1-0.7-0.1
				c-0.2,0-0.5-0.1-0.7-0.1l-0.5,57.4l-95.1,64.2L978,793l78.8-53.2c-1.2,0.1-2.3,0.3-3.5,0.5c-0.3,0-0.5,0.1-0.8,0.1
				c-0.4,0.1-0.9,0.2-1.3,0.2c-0.3,0.1-0.6,0.1-0.9,0.2c-0.4,0.1-0.9,0.2-1.3,0.3c-0.3,0.1-0.5,0.1-0.8,0.2
				c-0.7,0.2-1.4,0.3-2.1,0.5c-0.2,0-0.4,0.1-0.6,0.1c-0.9,0.2-1.7,0.5-2.6,0.7c-0.2,0-0.3,0.1-0.5,0.1c-1.2,0.3-2.3,0.7-3.5,1.1
				c0,0-0.1,0-0.1,0c-1.2,0.4-2.3,0.8-3.5,1.3c-0.1,0-0.2,0.1-0.3,0.1c-1.3,0.5-2.6,1.1-3.9,1.6c-0.1,0-0.1,0-0.2,0.1
				c-1.3,0.6-2.6,1.2-3.8,1.9c0,0-0.1,0-0.1,0.1c-1.3,0.7-2.5,1.4-3.7,2.1c0,0,0,0-0.1,0c-1.2,0.7-2.5,1.5-3.6,2.3
				c-10.5,7.1-16,15-16.1,21.8c0.2-22.8,0.4-45.7,0.6-68.5c0.1-6.8,5.6-14.7,16.1-21.8c1.2-0.8,2.4-1.6,3.6-2.3c0,0,0,0,0.1,0
				c1.2-0.7,2.5-1.4,3.7-2.1c0,0,0.1,0,0.1-0.1c1.3-0.7,2.5-1.3,3.8-1.9c0.1,0,0.1-0.1,0.2-0.1c1.3-0.6,2.6-1.1,3.9-1.6
				c0,0,0.1,0,0.1,0c0.1,0,0.1-0.1,0.2-0.1c1.1-0.4,2.3-0.9,3.4-1.3c0.1,0,0.1,0,0.2-0.1c1.2-0.4,2.3-0.8,3.5-1.1
				c0.1,0,0.2-0.1,0.3-0.1c0.1,0,0.1,0,0.2-0.1c0.8-0.2,1.7-0.5,2.5-0.7c0.2-0.1,0.4-0.1,0.6-0.1c0.7-0.2,1.4-0.3,2-0.5
				c0.1,0,0.3-0.1,0.4-0.1c0.2,0,0.3-0.1,0.5-0.1c0.4-0.1,0.8-0.2,1.2-0.3c0.3-0.1,0.6-0.1,1-0.2c0.4-0.1,0.8-0.2,1.3-0.2
				c0.2,0,0.4-0.1,0.7-0.1c0.1,0,0.1,0,0.2,0c1.2-0.2,2.3-0.4,3.5-0.5c0.1,0,0.2,0,0.3,0c0.1,0,0.1,0,0.2,0c1-0.1,2-0.2,3-0.3
				c0.1,0,0.2,0,0.3,0c0.1,0,0.2,0,0.3,0c0.9-0.1,1.9-0.1,2.8-0.1c0,0,0,0,0,0c0,0,0,0,0,0c0.9,0,1.7,0,2.6,0c0.1,0,0.2,0,0.3,0
				c0.1,0,0.2,0,0.3,0c0.8,0,1.7,0.1,2.5,0.1c0,0,0,0,0.1,0c0.1,0,0.1,0,0.2,0c0.9,0.1,1.7,0.2,2.5,0.3c0.1,0,0.2,0,0.3,0
				c0.1,0,0.1,0,0.2,0c0.3,0,0.7,0.1,1,0.2c0.3,0,0.5,0.1,0.8,0.1c0.3,0.1,0.6,0.1,0.9,0.2c0.2,0,0.4,0.1,0.6,0.1c0,0,0.1,0,0.1,0
				c0.7,0.2,1.4,0.4,2.1,0.6c0.2,0,0.3,0.1,0.5,0.2c0.7,0.2,1.4,0.5,2,0.8c0.5,0.2,1,0.5,1.5,0.7c0.1,0.1,0.3,0.2,0.4,0.2
				c0.2,0.1,0.3,0.2,0.5,0.3c0.1,0.1,0.3,0.2,0.4,0.3c0.2,0.1,0.3,0.2,0.5,0.3c0.3,0.2,0.5,0.4,0.7,0.5c0.1,0.1,0.3,0.2,0.4,0.3
				c0,0,0.1,0.1,0.1,0.1c0.3,0.2,0.5,0.5,0.8,0.7c0,0,0.1,0.1,0.1,0.1c0.2,0.2,0.4,0.4,0.6,0.6v0h0v0c0.1,0.1,0.1,0.1,0.2,0.2
				c0.1,0.1,0.2,0.2,0.3,0.3c0.2,0.2,0.3,0.4,0.5,0.6c0.1,0.1,0.2,0.2,0.2,0.3c0,0,0.1,0.1,0.1,0.2c0.1,0.1,0.1,0.2,0.2,0.3
				c0.1,0.2,0.3,0.4,0.4,0.6c0.1,0.2,0.2,0.3,0.3,0.5c0.1,0.2,0.2,0.4,0.4,0.7c0,0.1,0.1,0.1,0.1,0.2c0,0.1,0.1,0.2,0.1,0.2
				c0.2,0.4,0.4,0.8,0.6,1.2c0,0.1,0.1,0.1,0.1,0.2c0.2,0.5,0.5,1.1,0.7,1.6c0.1,0.3,0.3,0.7,0.4,1c0.1,0.2,0.1,0.3,0.2,0.5
				c0.2,0.5,0.4,0.9,0.6,1.3c0.1,0.2,0.2,0.4,0.4,0.7c0.1,0.1,0.1,0.2,0.2,0.4c0.2,0.3,0.4,0.7,0.6,1c0.1,0.2,0.3,0.4,0.5,0.6
				c0.2,0.3,0.4,0.6,0.7,0.9c0.1,0.1,0.2,0.3,0.3,0.4c0.3,0.4,0.7,0.8,1,1.2c0,0,0,0,0.1,0.1c0.4,0.4,0.8,0.8,1.2,1.2
				c0.1,0.1,0.2,0.2,0.4,0.3c0.3,0.3,0.6,0.6,0.9,0.8c0.2,0.1,0.3,0.3,0.5,0.4c0.3,0.3,0.7,0.5,1,0.8c0.2,0.1,0.3,0.2,0.5,0.3
				c0.5,0.4,1,0.7,1.6,1c0,0,0.1,0,0.1,0.1c0,0,0.1,0.1,0.2,0.1c0,0,0.1,0,0.1,0c0.1,0,0.1,0.1,0.2,0.1c0,0,0.1,0.1,0.2,0.1
				c0.1,0,0.2,0.1,0.3,0.1c0.1,0,0.1,0.1,0.2,0.1c0.1,0.1,0.2,0.1,0.3,0.2c0.1,0,0.2,0.1,0.3,0.1c0.1,0.1,0.2,0.1,0.3,0.2
				c0.1,0.1,0.3,0.1,0.4,0.2c0.1,0,0.2,0.1,0.2,0.1c0.2,0.1,0.3,0.1,0.5,0.2c0.1,0,0.2,0.1,0.3,0.1c0.3,0.1,0.5,0.2,0.8,0.3
				c1.8,0.8,3.9,1.7,5.9,2.3l95.2-64.3l-0.6,68.6l-95.2,64.3c-2-0.7-4.1-1.5-5.9-2.3c-0.3-0.1-0.5-0.2-0.8-0.4c0,0-0.1,0-0.1-0.1
				c-0.2-0.1-0.4-0.2-0.6-0.3c-0.1,0-0.1-0.1-0.2-0.1c-0.2-0.1-0.3-0.1-0.4-0.2c-0.1,0-0.2-0.1-0.3-0.1c-0.1-0.1-0.2-0.1-0.3-0.2
				c-0.1,0-0.1-0.1-0.2-0.1c-0.1-0.1-0.2-0.1-0.3-0.2c-0.1,0-0.1-0.1-0.2-0.1c-0.1,0-0.2-0.1-0.3-0.1c0,0-0.1,0-0.1-0.1
				c-0.1,0-0.2-0.1-0.2-0.1c0,0-0.1,0-0.1,0c0,0-0.1,0-0.1-0.1c0,0,0,0,0,0c-0.5-0.3-1-0.7-1.5-1c-0.2-0.1-0.3-0.2-0.5-0.3
				c-0.3-0.2-0.7-0.5-1-0.8c-0.1-0.1-0.2-0.1-0.3-0.2c-0.1-0.1-0.1-0.1-0.2-0.2c-0.3-0.3-0.6-0.5-0.9-0.8c-0.1-0.1-0.3-0.2-0.4-0.4
				c-0.4-0.4-0.8-0.8-1.2-1.2c0,0,0,0,0,0c0,0,0-0.1-0.1-0.1c-0.4-0.4-0.7-0.8-1-1.2c-0.1-0.1-0.2-0.3-0.3-0.4
				c-0.2-0.3-0.5-0.6-0.7-0.9c-0.1-0.1-0.1-0.1-0.2-0.2c-0.1-0.1-0.2-0.3-0.3-0.4c-0.2-0.3-0.4-0.7-0.6-1c-0.1-0.2-0.2-0.3-0.3-0.5
				c-0.1-0.2-0.2-0.3-0.3-0.5c0,0,0,0,0,0c-0.2-0.5-0.4-0.9-0.7-1.4c-0.1-0.1-0.1-0.3-0.2-0.4c-0.2-0.4-0.4-0.8-0.5-1.2
				c-0.2-0.5-0.4-0.9-0.6-1.4c0-0.1-0.1-0.2-0.1-0.3c-0.2-0.4-0.3-0.7-0.5-1.1c-0.1-0.1-0.1-0.3-0.2-0.4c-0.1-0.2-0.2-0.4-0.4-0.6
				c-0.1-0.2-0.2-0.3-0.3-0.5c-0.1-0.2-0.3-0.4-0.4-0.6c-0.1-0.2-0.2-0.3-0.3-0.5c-0.1-0.1-0.2-0.2-0.2-0.3
				c-0.2-0.2-0.3-0.4-0.5-0.6c-0.1-0.1-0.2-0.2-0.3-0.3c-0.2-0.3-0.5-0.5-0.7-0.8c0,0-0.1-0.1-0.1-0.1c-0.3-0.3-0.6-0.6-0.9-0.8
				c-0.1-0.1-0.3-0.2-0.4-0.3c-0.2-0.2-0.5-0.4-0.7-0.5c-0.2-0.1-0.3-0.2-0.5-0.3c-0.3-0.2-0.6-0.4-0.9-0.5
				c-0.1-0.1-0.3-0.2-0.4-0.2c-0.5-0.3-1-0.5-1.5-0.7c-0.7-0.3-1.3-0.5-2-0.8c-0.2-0.1-0.3-0.1-0.5-0.2
				C1077.6,740.9,1076.9,740.7,1076.2,740.5z"/>
			<path class="st18" d="M682.6,737.5l0.6-68.6l122.1,51.4l-0.5,57.1c0,0,0.1,0,0.1,0c0.3,0,0.5,0.1,0.8,0.1c1,0.1,1.9,0.2,2.9,0.3
				c0.1,0,0.2,0,0.3,0c0.7,0.1,1.4,0.1,2.1,0.1c0.3,0,0.5,0,0.8,0c0.5,0,1,0,1.6,0.1c0.2,0,0.4,0,0.6,0c1.2,0,2.4,0,3.6,0
				c0.2,0,0.3,0,0.5,0c1,0,2-0.1,2.9-0.1c0.1,0,0.1,0,0.2,0c0.9-0.1,1.8-0.1,2.6-0.2c0.2,0,0.4,0,0.6-0.1c0.7-0.1,1.4-0.2,2.1-0.3
				c0.1,0,0.2,0,0.3,0c0.8-0.1,1.5-0.3,2.2-0.4c0.2,0,0.4-0.1,0.6-0.1c0.7-0.2,1.3-0.3,2-0.5c0.1,0,0.2,0,0.3-0.1
				c0.1,0,0.3-0.1,0.4-0.1c0.3-0.1,0.7-0.2,1-0.3c0.2-0.1,0.3-0.1,0.5-0.2c0.3-0.1,0.6-0.2,0.9-0.3c0.2-0.1,0.3-0.1,0.5-0.2
				c0.3-0.1,0.5-0.2,0.8-0.4c0.1-0.1,0.3-0.1,0.4-0.2c0.3-0.1,0.5-0.3,0.8-0.4c0.1-0.1,0.2-0.1,0.4-0.2c0.4-0.2,0.7-0.4,1.1-0.7
				c4.6-3.1,5.3-7.1,5.4-11.2c0-1.1,0-2.2,0-3.3c0-3.4,0.3-6.7,2.5-9.7c0.5-0.6,5.4-4.8,9.5-7.2L978,793l-0.6,68.6l-121.9-51.3
				c-4.2,2.4-9.1,6.6-9.5,7.2c-2,2.6-2.4,5.6-2.5,8.6c0,1.1,0,2.2,0,3.3c0,4.5-0.4,8.9-5.4,12.2c-0.3,0.2-0.7,0.5-1.1,0.7
				c-0.1,0.1-0.3,0.1-0.4,0.2c-0.3,0.1-0.5,0.3-0.8,0.4c-0.1,0.1-0.3,0.1-0.5,0.2c-0.3,0.1-0.5,0.2-0.8,0.4
				c-0.2,0.1-0.3,0.1-0.5,0.2c-0.1,0-0.2,0.1-0.3,0.1c-0.2,0.1-0.4,0.1-0.6,0.2c-0.2,0.1-0.3,0.1-0.5,0.2c-0.3,0.1-0.7,0.2-1,0.3
				c-0.1,0-0.3,0.1-0.4,0.1c0,0,0,0-0.1,0c-0.1,0-0.1,0-0.2,0c-0.6,0.2-1.3,0.4-2,0.5c-0.1,0-0.2,0-0.3,0.1c-0.1,0-0.2,0-0.2,0
				c-0.7,0.2-1.5,0.3-2.2,0.4c0,0,0,0,0,0c-0.1,0-0.1,0-0.2,0c-0.7,0.1-1.5,0.2-2.2,0.3c-0.1,0-0.2,0-0.3,0c-0.1,0-0.2,0-0.3,0
				c-0.9,0.1-1.7,0.2-2.6,0.2c0,0,0,0-0.1,0c-0.1,0-0.1,0-0.2,0c-1,0.1-1.9,0.1-2.9,0.1c-0.1,0-0.2,0-0.3,0c0,0-0.1,0-0.1,0
				c-1.2,0-2.4,0-3.6,0c-0.1,0-0.2,0-0.3,0c-0.1,0-0.2,0-0.3,0c-0.5,0-1,0-1.6-0.1c-0.3,0-0.5,0-0.8,0c-0.7,0-1.5-0.1-2.2-0.2
				c0,0-0.1,0-0.1,0c0,0,0,0,0,0c-1-0.1-1.9-0.2-2.9-0.3c-0.3,0-0.5-0.1-0.8-0.1c-0.9-0.1-1.7-0.2-2.6-0.3c-0.1,0-0.2,0-0.3,0
				c0,0-0.1,0-0.1,0c-0.8-0.1-1.6-0.3-2.4-0.4c-0.1,0-0.3-0.1-0.4-0.1c-0.7-0.1-1.4-0.2-2.1-0.4c-0.3-0.1-0.6-0.1-0.9-0.2
				c-0.5-0.1-1-0.2-1.6-0.3c-0.3-0.1-0.7-0.2-1-0.2c-0.5-0.1-1-0.2-1.5-0.3c-0.1,0-0.3-0.1-0.4-0.1c-0.1,0-0.2-0.1-0.3-0.1
				c-1.3-0.3-2.6-0.7-4-1c-0.2,0-0.3-0.1-0.5-0.1c-1.3-0.4-2.7-0.8-4-1.2c-0.1,0-0.3-0.1-0.4-0.1c-1.4-0.5-2.7-0.9-4.1-1.4
				c-0.1,0-0.2-0.1-0.2-0.1c-1.4-0.5-2.8-1.1-4.2-1.7c-0.7-0.3-1.3-0.6-2-0.9c-0.9-0.4-1.8-0.8-2.7-1.3c-0.3-0.1-0.6-0.3-0.9-0.4
				c-0.6-0.3-1.1-0.6-1.7-0.9c-0.3-0.2-0.6-0.3-1-0.5c-0.5-0.3-1-0.6-1.5-0.8c-0.3-0.2-0.6-0.4-0.9-0.5c-0.2-0.1-0.4-0.2-0.6-0.3
				c-0.3-0.2-0.6-0.4-0.9-0.6c-0.3-0.2-0.5-0.3-0.8-0.5c-0.5-0.3-1.1-0.7-1.6-1c-0.2-0.1-0.3-0.2-0.5-0.3c-0.7-0.5-1.3-0.9-1.9-1.4
				c-0.2-0.1-0.3-0.2-0.5-0.4c-0.4-0.3-0.7-0.6-1.1-0.9c-0.1-0.1-0.1-0.1-0.2-0.2c-0.4-0.4-0.9-0.8-1.3-1.1
				c-0.2-0.2-0.4-0.3-0.6-0.5c-0.6-0.5-1.1-1.1-1.6-1.6c0,0,0,0,0,0c-0.4-0.5-0.9-1-1.2-1.4c-0.1-0.2-0.2-0.3-0.3-0.5
				c-0.2-0.3-0.4-0.5-0.6-0.8c0-0.1-0.1-0.1-0.1-0.2c-0.1-0.1-0.2-0.3-0.3-0.4c-0.2-0.3-0.4-0.7-0.6-1c-0.1-0.1-0.2-0.3-0.2-0.4
				c0-0.1-0.1-0.2-0.1-0.2c-0.2-0.4-0.3-0.7-0.5-1.1c0-0.1,0-0.1-0.1-0.2c-0.1-0.2-0.2-0.5-0.3-0.7c-0.1-0.2-0.1-0.3-0.1-0.5
				c0-0.1-0.1-0.2-0.1-0.2c-0.1-0.4-0.2-0.7-0.2-1c0-0.1,0-0.1,0-0.2c0-0.1,0-0.1,0-0.2c-0.1-0.4-0.1-0.8-0.1-1.2c0,0,0-0.1,0-0.1
				c0.1-16.3,0.3-32.5,0.4-48.8L682.6,737.5z"/>
			<g>
				<path class="st19" d="M1207.9,637.8l-294.8-124L683.2,669l122.1,51.4c-2.7,2.3-7.3,4.9-8.2,5.4c-4.3,1.9-9.8,3.4-15.1,4.4
					c-10.3,1.9-22.9,1.6-30.2,6.5c-11.4,7.7-2.4,21.7,20.1,31.8c0.7,0.3,1.3,0.6,2,0.9c24,10.1,52.9,11.8,64.7,3.9
					c9.6-6.4,2.2-16.7,7.9-24.2c0.5-0.6,5.4-4.8,9.5-7.2L978,793l95.1-64.2c-0.4-0.2-0.8-0.4-1.2-0.6c-4.7-2.1-11.4-4.3-12.5-4.6
					c-14.2-3.1-33.4,0.7-45.6-4.5c-15-6.7-12-21.9,6.5-34.3c18.7-12.6,46.1-17.7,61.2-11.3c9.4,4.2,9,10.7,12.6,16.1
					c1.9,2.8,4.7,5.8,8.4,8.1c0.4,0.3,2.1,1.1,4.3,2.1c1.8,0.8,3.9,1.7,5.9,2.3L1207.9,637.8z"/>
			</g>
		</g>
		<g class="st16">
			<g>
				<path class="st20" d="M938.3,916.9c0,0.2,0,0.3,0,0.5c0,0.2,0,0.4,0,0.5c0,0.1,0,0.3,0,0.4c0,0.2,0,0.3-0.1,0.5
					c0,0.2-0.1,0.3-0.1,0.5c0,0.1-0.1,0.3-0.1,0.4c0,0.2-0.1,0.3-0.1,0.5c0,0.1-0.1,0.2-0.1,0.4c0,0.1-0.1,0.1-0.1,0.2
					c-0.2,0.5-0.4,0.9-0.6,1.4c0,0,0,0,0,0c-0.2,0.4-0.5,0.9-0.8,1.3c0,0.1-0.1,0.1-0.1,0.2c-0.3,0.4-0.6,0.8-0.9,1.2
					c-0.1,0.1-0.2,0.2-0.3,0.3c-0.1,0.1-0.2,0.2-0.3,0.3c-0.1,0.1-0.3,0.3-0.4,0.4c-0.1,0.1-0.2,0.2-0.4,0.3
					c-0.1,0.1-0.2,0.2-0.4,0.3c-0.2,0.2-0.4,0.3-0.7,0.5c-0.1,0.1-0.2,0.2-0.4,0.3c-0.2,0.2-0.5,0.3-0.8,0.5
					c-0.1,0.1-0.2,0.1-0.3,0.2c-0.2,0.1-0.5,0.3-0.7,0.4c-0.1,0.1-0.3,0.2-0.4,0.2c-0.4,0.2-0.8,0.4-1.2,0.6
					c-1.6,0.7-3.2,1.2-4.9,1.6c-1.4,0.3-2.8,0.6-4.2,0.8c-1.4,0.2-2.8,0.4-4.2,0.5c-2,0.2-4.1,0.3-6.1,0.3
					c-4.5,0.1-9.2,0.1-13.7,0.2c-2,0.1-4.1,0.2-6,0.3l0.6,69.7c2-0.2,4-0.3,6-0.3c4.5-0.1,9.2-0.1,13.7-0.2c2.1-0.1,4.1-0.2,6.1-0.3
					c1.4-0.1,2.9-0.3,4.2-0.5c1.5-0.2,2.9-0.5,4.2-0.8c1.7-0.4,3.4-0.9,4.9-1.6c0.4-0.2,0.8-0.4,1.2-0.6c0.1-0.1,0.2-0.1,0.3-0.2
					c0.3-0.1,0.5-0.3,0.8-0.4c0,0,0.1,0,0.1,0c0.1,0,0.1-0.1,0.2-0.1c0.3-0.2,0.5-0.3,0.8-0.5c0.1-0.1,0.2-0.2,0.4-0.3
					c0.2-0.2,0.5-0.3,0.7-0.5c0.1-0.1,0.1-0.1,0.2-0.2c0.1,0,0.1-0.1,0.2-0.1c0.1-0.1,0.3-0.2,0.4-0.3c0.1-0.1,0.3-0.2,0.4-0.4
					c0.1-0.1,0.2-0.2,0.3-0.3c0.1-0.1,0.1-0.1,0.2-0.2c0,0,0.1-0.1,0.1-0.1c0.3-0.4,0.7-0.8,0.9-1.2c0,0,0,0,0.1-0.1
					c0,0,0-0.1,0.1-0.1c0.3-0.4,0.5-0.8,0.8-1.3l0,0c0,0,0,0,0,0c0.2-0.5,0.4-0.9,0.6-1.4c0,0,0-0.1,0-0.1c0,0,0,0,0-0.1
					c0-0.1,0.1-0.3,0.1-0.4c0-0.2,0.1-0.3,0.1-0.5c0-0.1,0.1-0.3,0.1-0.4c0-0.1,0.1-0.2,0.1-0.3c0,0,0-0.1,0-0.1
					c0-0.2,0.1-0.4,0.1-0.6c0-0.1,0-0.3,0-0.4c0-0.2,0-0.4,0-0.6c0-0.1,0-0.2,0-0.3c0,0,0-0.1,0-0.1L938.3,916.9z"/>
				<path class="st20" d="M882.1,934.1C882.1,934.1,882,934.1,882.1,934.1c-1.4,0.3-8,2.6-12.7,4.7c-0.4,0.2-0.9,0.4-1.2,0.6
					l0.6,69.7c0.4-0.2,0.8-0.4,1.2-0.6c4.7-2.1,11.4-4.3,12.6-4.6c0,0,0.1,0,0.1,0c1.1-0.2,2.2-0.4,3.4-0.6c1.4-0.2,2.8-0.3,4.2-0.5
					l-0.6-69.7c-1.4,0.1-2.8,0.3-4.2,0.5C884.3,933.6,883.2,933.8,882.1,934.1z"/>
			</g>
			<path class="st21" d="M965.4,1074.2l-0.6-69.7l-124.1,52.2l0.5,58c-14.4,1.7-27.4,0.4-34.3-4.3c-4.6-3.1-5.4-7.2-5.5-11.3
				c0-1.1,0-2.3,0-3.4c0-3.4-0.3-6.8-2.5-9.8c-0.5-0.6-5.5-4.9-9.7-7.4l-123.9,52.2l0.6,69.7l123.9-52.2c4.2,2.5,9.2,6.7,9.7,7.4
				c2,2.7,2.4,5.7,2.5,8.7c0,1.2,0,2.3,0,3.5c0,4.6,0.4,9,5.5,12.4c12,8.1,41.4,6.3,65.8-3.9c0.7-0.3,1.4-0.6,2-0.9
				c16.2-7.2,25.5-16.5,25.5-24c-0.1-16.5-0.3-33.1-0.4-49.6L965.4,1074.2z"/>
			<path class="st20" d="M929,929.3l0.6,69.7c-13,5.5-32.5,1.6-46.9,4.8c-1.1,0.3-7.9,2.5-12.7,4.7c-0.4,0.2-0.9,0.4-1.2,0.6
				l-0.6-69.7c0.4-0.2,0.8-0.4,1.2-0.6c4.8-2.1,11.6-4.4,12.7-4.7C896.5,930.9,916,934.7,929,929.3z"/>
			<polygon class="st20" points="665.2,1130.6 431.5,972.9 432.1,1042.6 665.8,1200.3 			"/>
			<path class="st22" d="M895.1,1073.3c-7.4-5-20.3-4.7-30.7-6.6c-5.4-1-11-2.5-15.3-4.5c-0.9-0.4-5.6-3.1-8.4-5.4l124.1-52.2
				l-96.7-65.2c0.4-0.2,0.8-0.4,1.2-0.6c4.8-2.1,11.6-4.4,12.7-4.7c14.4-3.2,33.9,0.7,46.9-4.8c14.8-6.6,11.7-22-7.1-34.7
				c-19-12.8-46.8-18-62.6-11.3c-9.1,4-8.7,10.7-12.4,16.2c-1.9,2.9-4.8,5.9-8.6,8.2c-0.5,0.3-2.2,1.2-4.4,2.1c-1.8,0.8-4,1.7-6,2.4
				l-96.8-65.3L431.5,972.9l233.7,157.7l123.9-52.2c4.2,2.5,9.2,6.7,9.7,7.4c5.8,7.6-1.7,18,8,24.6c12,8.1,41.4,6.3,65.8-3.9
				c0.7-0.3,1.4-0.6,2-0.9C897.5,1095.4,906.7,1081.2,895.1,1073.3z"/>
		</g>
		<g>
			<path class="st1" d="M1515.7,1340.4c0,41.4,75.4,74.9,168.4,74.9c93,0,168.4-33.5,168.4-74.9c0-41.4-75.4-74.9-168.4-74.9
				C1591.1,1265.5,1515.7,1299,1515.7,1340.4z"/>
			<g>
				<g>
					<g>
						<path class="st23" d="M1627.4,1323.6c-11.9,12-31.5,18.4-31.5,18.4c-16.5,4.2-26.3-6.8-26.3-6.8c-3.5-5,0.8-7.7,0.8-7.7
							c34.8-26.5,45.3-34,45.3-34h32c1.6,12.9,0.7,18.1,0.7,18.1c-2.8,3.8-8.6,9.1-17.6,10.6c-0.7,0.1-1.9-0.9-2.5-0.6
							L1627.4,1323.6z"/>
					</g>
					<path d="M1570.2,1327.6c0.1,0.7,0.3,1.5,0.7,2.2c2.7,5.8,10.2,8.2,16.2,8.1c7.2-0.1,13.7-3.6,19.9-6.8c6-3,11.3-6.9,16.5-11.2
						c3.6-3,8.2-4.4,12.5-6.2c4.8-2.1,8.4-5.4,12.6-8.5c0,3.4-0.2,6.3-0.2,6.3c-2.8,3.8-8.6,9.1-17.6,10.6c-0.7,0.1-1.9-0.9-2.5-0.6
						l-0.9,2c-11.9,12-31.5,18.4-31.5,18.4c-16.5,4.2-26.3-6.8-26.3-6.8C1566.5,1330.8,1569.5,1328.1,1570.2,1327.6z"/>
				</g>
				<g>
					<path class="st5" d="M1651.2,1034c-35.6,39.3-49.7-2.3-49.7-2.3l-4.4-241.4c-0.5,3.6-1.6-24.3,43.3-18.3
						c44.8,6,56.1,23.5,56.1,23.5S1671.9,962.3,1651.2,1034"/>
					<path class="st5" d="M1601.3,1028.7c0,0,18.1,254.3,19.5,263.2c0,0,21.9,4.9,22-0.2c0.3-12.2,25.3-161,25.6-180.1
						c0.8-48.5-11.7-57.6-24.1-90.3C1644.3,1021.3,1601.2,989.4,1601.3,1028.7z"/>
				</g>
				<g>
					<g>
						<path class="st24" d="M1661.9,1043.2c20.7-71.7,34.6-247.6,34.6-247.6s-11.3-17.5-56.1-23.5c-44.9-6-43.7,21.9-43.3,18.3
							c0,0-13.6,130.9-1.1,249.9C1596,1040.2,1634.3,1060.6,1661.9,1043.2z"/>
					</g>
				</g>
				<path class="st7" d="M1729.8,660.8c6.3,22.6,32.5,108.8,32.5,108.8c-93.8,112.2-164.4,14-165.3,3.8c-1.1-12.2,12.6-59,15-109.5
					C1612,664,1637.6,624.6,1729.8,660.8z"/>
				<path class="st24" d="M1597.5,801.5c-4.4-30.2,4.8-60.7,9.5-91.2h137.4c8.8,29.3,17.9,59.4,17.9,59.4s5.9,69.3-52.9,77.6
					C1709.4,847.2,1606.9,865,1597.5,801.5z"/>
				<g>
					<path class="st7" d="M1753.8,1039.3c-29.4,44.1-49.5,5.1-49.5,5.1l-47.6-235.2c0.1,3.6,1.4-30.6,46.7-31.3
						c45.2-0.7,59,14.9,59,14.9S1763.6,965.3,1753.8,1039.3"/>
					<path class="st7" d="M1703.6,1041.4c0,0,47.2,267.9,50,276.5c0,0,22.4,1.5,21.8-3.5c-1.6-12.1,2.5-181,0-200
						c-6.4-48-13-56.3-30.2-86.7C1745.1,1027.8,1697.7,1002.6,1703.6,1041.4z"/>
				</g>
				<g>
					<path class="st23" d="M1751.4,1312.8l-13.3,40.5c0,0,2.7,36.2,31.8,13.8l8.7-8.4c4.4-3.7,3.1-8.9,3.1-8.9l-2.6-15.5l-3.1-21.5
						C1776.1,1312.8,1757.9,1300.4,1751.4,1312.8z"/>
					<path d="M1770,1361.9l8.7-8.4c1.7-1.5,2.6-3.1,3-4.6l0.2,0.9c0,0,1.3,5.2-3.1,8.9l-8.7,8.4c-29.1,22.4-31.8-13.8-31.8-13.8
						l0.5-1.6C1740.3,1360.2,1746.7,1379.8,1770,1361.9z"/>
				</g>
				<g>
					<g>
						<path class="st4" d="M1760.1,1040.2"/>
						<path class="st25" d="M1698.5,1050.9c-16.5-48.6-47.8-249.4-47.8-249.4c0.1,3.6,9.4-48,54.7-48.6
							c45.2-0.7,56.9,16.8,56.9,16.8s14.2,196.6,4.3,270.6C1766.7,1040.2,1734.8,1077,1698.5,1050.9z"/>
					</g>
				</g>
				<path class="st5" d="M1619,506.3c0,0-76.7,90.2-114.9,120.1c0,0-25.6-9.5-24.8-26.9c0,0,56.2-83.1,91.4-132.3
					C1570.7,467.3,1618.4,453.6,1619,506.3z"/>
				<path class="st5" d="M1490.4,592c0,0-83.8,48.8-118.5,65.1c0,0-6.2,9.7,3.8,10.7c16.8,1.5,133.5-38,136.4-47.2
					C1525.4,577.8,1490.4,592,1490.4,592z"/>
				<path class="st5" d="M1566.9,496.2c6,16.1,23.9,24.4,40,18.5c16-5.9,24.2-23.7,18.1-39.9c-6-16.1-23.9-24.4-40-18.5
					C1569,462.3,1560.9,480.1,1566.9,496.2z"/>
				<path class="st26" d="M1605.2,454.7c0,0-27.4-9.6-46.2,17.3l-66.9,97.1c0,0,13.8,30.9,46.4,47.8
					C1538.5,616.8,1658.3,506.4,1605.2,454.7z"/>
				<path class="st7" d="M1755,1061.7"/>
				<path class="st13" d="M1682.7,422.1c0,0,5.5-10.6,17.7-31c0,0,25.9-26.6,11.4-60.1c0,0-8-28-56.9-23.9
					C1654.9,307,1650.3,384.1,1682.7,422.1z"/>
				<path class="st7" d="M1684.7,378.4c0,0-8.2,76.8,9.3,82.6l-62.6-3.7c0,0,9.8-23.2-1.6-40.3L1684.7,378.4z"/>
				<path class="st8" d="M1634.8,443.9c1-17.5-1.2-21.1-5-26.9l54.9-38.5c0,0-2.7,24.8-1.7,47.3
					C1667.1,440.8,1653.9,444.3,1634.8,443.9z"/>
				<path class="st7" d="M1587.2,454.5c-13.9,10.2-15.5,34.5-10.6,49.8c5.7,17.5,8,39.8,13.7,65.1c7.8,34.3,13,60.6,21.7,94.6
					c7.2,28.1,120.2,5.5,120.2,5.5l40.5-138.4c0,0,7-36.1-25.8-48.2c0,0-34.5-18.6-59.7-27.2c-22.3-7.6-30.4-8.3-53.3-6.9
					C1634,448.8,1603.3,449.9,1587.2,454.5z"/>
				<path class="st27" d="M1607.4,312.8c-3.2,14.7-6.9,22.4-2.8,35.9c3.7,12.1,2.8,24.9,8.1,36.6c7.6,16.8,17.4,14.6,24.9-0.8
					c7.7-15.8,15.7-37.1-1.7-48.8C1624.7,328.2,1620.7,315.3,1607.4,312.8L1607.4,312.8z"/>
				<path class="st13" d="M1617,427.9l-2.6-8.7c0,0-6.6-32.1-6.6-32.1c-0.8-4-0.5-9.3,0.5-13.3c1.1-4.4,1.9-8.9,1.1-13.7
					c-4-23,8.6-35,8.6-35c14.3-20.4,45.8-18.8,45.8-18.8c38.8,3.9,40.2,41.7,40.2,41.7c5.1,25.4-15.9,45.2-16,45.3
					c-1.7,1.6-1.3,9.9-1.9,12.2c-2.6,9.9-12.4,15.6-21.1,19.4c-9.6,4.2-21.1,8.6-31.5,9C1629.6,434.1,1618.5,432.9,1617,427.9z"/>
				<path class="st27" d="M1608.6,386.6c5.1,4.6,12,2.5,17.5,5.8c3.6,2.2,5.3,2,9.2,0.9c3.1-0.9,5.6-0.6,8.8,0.3
					c3.2,0.9,9.1,3.8,12.3,5c4.8,1.9,10.2,1.3,13.9-3.2c3.9-4.8,5.4-5.7,7.2-11.4c3.4-10.5,14-11.1,21.3-5.2
					c-4.8,9-10.7,14.6-10.7,14.6c-1.7,1.6-1.3,16.7-1.9,19c-2.6,9.9-12.4,15.6-21.1,19.4c-9.6,4.2-24.1,4.8-34.6,5.2
					c-4,0.2-12-4-13.5-9l-2.6-8.7c0,0-6.6-32.1-6.6-32.1c-0.1-0.6-0.2-1.2-0.2-1.8C1607.9,385.8,1608.3,386.2,1608.6,386.6z"/>
				<path class="st27" d="M1607.9,326.5c8.8,0,8.7,7.4,15.4,11.5c14.4,8.8,36.8-4.1,48.5,10.1c1,1.3,2,2.8,2.9,4.5
					c3.4,6.4,4.5,14.2,5.6,21.3c0.3,2.1-1.2,7.5,0.7,9.1c1.1,0.9,3,0.7,5,0c0.4,3.2-2.2,5.7-3.3,8.6c-1.1,3-2.8,5.5-1.3,8.5
					c4.1,7.7,0.9,6.4,1.3,21.9c2.5-3.7,8.7-8.1,10.6-9.8c5.6-4.9,11-10.3,15-16.6c4-6.2,6.6-13.2,9.1-20.1
					c4.2-11.3,6.6-23.4,3.3-35.3c0,0-2.7-27.4-25.6-30.4c0,0,2.9-17.7-39-22.3c0,0-33.1,0.5-34.9-10.9c0,0-6.7,5.7-5,14.6
					c0,0-13.6,4.2-19.8-11.4C1596.4,279.8,1585.1,320.8,1607.9,326.5z"/>
				<g>
					<g>
						<g>
							<g>
								<g>
									<g>
										<path class="st13" d="M1682.2,399.8c1,1.3,2.5,2.3,4.4,2.6c5.2,1,10.5-3.9,11.7-10.9c1.2-6.9-2-13.4-7.2-14.3
											c-2.5-0.4-5,0.4-7,2.2c-3,2.6-4,8.2-4,12.3C1680,394.9,1680.6,397.8,1682.2,399.8z"/>
									</g>
								</g>
							</g>
						</g>
					</g>
					<g>
						<g>
							<path class="st14" d="M1687.8,383.4c0.8-3.6,7.8,0.8,6.5,2.7c-0.8,1.1-2.2,1.8-3.3,2.6c-1.5,1-2.4,1.9-2.8,3.8
								c-0.1,0.2-0.2,0.8,0,1c0.9,0.8,4.5-2.4,5.3-3.1c1.5-1.3,2-3.9,1.6-5.8c-0.5-2.1-1.6-3.1-3.8-3.3c-1.7-0.1-3.4-0.2-3.6,1.9
								C1687.7,383.3,1687.7,383.6,1687.8,383.4L1687.8,383.4z"/>
						</g>
						<g>
							<path class="st14" d="M1689.7,387.5c-0.7-0.9-1.5-0.3-2.4,0.2c-0.8,0.4-1.3,1.2-1.6,2c-0.7,1.9-0.7,4.5,0.2,6.3
								c0.7,1.5,2.1,2.5,3.8,2.6c2.3,0.2,3.2-1.7,3.5-3.6c0.1-0.5,0.3-1.7-0.2-2.1c-0.5-0.4-1,0.4-1.4,0.7c-0.6,0.4-1.3,0.5-2,0.5
								c-1.3,0-2.5-0.8-3.2-1.9c-0.1-0.2-0.2-0.4-0.3-0.6c-0.1,1.2-0.1,1.5,0.1,0.9c0.1-0.3,0.3-0.6,0.5-0.8c0.6-0.8,1.6-1.3,2.3-2
								C1689.4,389.3,1690,388,1689.7,387.5L1689.7,387.5z"/>
						</g>
					</g>
				</g>
				<path class="st14" d="M1628.2,384.6l10.6,4.1c0,0-14.3,0.9-14.8-3.3c0,0,2.2-8.1,4.5-15.8C1628.5,369.7,1626.6,384,1628.2,384.6
					z"/>
				<g>
					<path class="st27" d="M1646.7,369.7c0,2.2,1.2,4,2.8,4c1.5,0,2.7-1.8,2.7-4c0-2.2-1.2-4-2.7-4
						C1647.9,365.7,1646.7,367.5,1646.7,369.7z"/>
					<path class="st27" d="M1616.2,366.3c0,2.2,1.2,4,2.8,4c1.5,0,2.7-1.8,2.7-4c0-2.2-1.2-4-2.7-4
						C1617.4,362.3,1616.2,364.1,1616.2,366.3z"/>
					<path class="st27" d="M1643.8,361.9c-1,0.2-1.2-1.1-1.2-1.1c-0.3-1.3,0.1-2.4,0.1-2.4c0.4-0.9,1.2-1.2,1.2-1.2
						c2.6-0.4,7.5,0.3,11.7,1.5c2.3,0.7,6.1,2.4,6.3,4.6c0.1,0.6,0.1,1.7-0.6,1.9C1661.3,365.2,1653.3,362.7,1643.8,361.9z"/>
					<path class="st27" d="M1609.1,358.4c2.8,0,7.7,0.3,13.6,1.4c0.9,0.5,1.5-0.7,1.5-0.7c0.6-1.2,0.6-2.3,0.6-2.3
						c-0.1-1-0.8-1.5-0.8-1.5c-2.4-1-5.7-1.6-10.1-1.6c-1.3,0-3.6,0.2-5.1,0.7C1608.8,354.4,1608.5,355.2,1609.1,358.4z"/>
				</g>
				<g>
					<path class="st0" d="M1622.3,397.6c-0.9,0-1.3,0.4-1,1c0,0,3.8,7.2,10.5,8c6.7,0.8,12.1-5.2,12.1-5.2c0.5-0.6,0.1-1.2-1-1.3
						C1642.9,400,1631.4,398.5,1622.3,397.6z"/>
				</g>
				<path class="st25" d="M1752.8,742.2c0,0,24.1,38.8,0,82.3c-24.1,43.5-97.5,27.7-97.7-28.7
					C1654.9,740.2,1705.6,718.9,1752.8,742.2z"/>
				<path class="st26" d="M1634,448.8c0,0-30.7,1.1-46.7,5.7c-13.9,10.2-15.5,34.5-10.6,49.8c5.7,17.5,8,39.8,13.7,65.1
					c7.8,34.3-2,59.3,6.6,93.3c7.2,28.1,156.7,0,156.7,0l19-131.6c0,0,7-36.1-25.8-48.2c0,0-32.9-18.1-58.2-26.6
					c0,0,3.9,26.6-39.5,19.3C1649.3,475.5,1622.8,469.1,1634,448.8z"/>
				<path class="st26" d="M1753.7,662.6c6.3,22.6,11.4,98.8,11.4,98.8c-17.2,71.3-175.4,20-176.3,9.8c-1.1-12.2,3.7-70.5,6.2-121
					C1595,650.2,1661.5,626.4,1753.7,662.6z"/>
				<path class="st7" d="M1707.1,534.4c10.3,21,48.6,126.9,61,143.7c3.3,4.5,34.9,24.8,42-2.9c-17.4-110-43.7-172.7-43.7-172.7
					s-30.7-25.6-55.3-1.9C1711,500.5,1699.8,519.8,1707.1,534.4z"/>
				<path class="st7" d="M1702.7,515.6c-3.4,20.2,10.2,39.2,30.3,42.6c20.2,3.4,39.2-10.2,42.6-30.3c3.4-20.2-10.2-39.2-30.3-42.6
					C1725.2,481.9,1706.1,495.4,1702.7,515.6z"/>
				<path class="st26" d="M1739.2,478.8c0,0,31.8,11.9,39.3,37.7l19.6,70.2c0,0-25.7,37.4-64.1,36.2l-37.9-84.1
					C1696.3,538.8,1670.8,491.5,1739.2,478.8z"/>
				<path class="st5" d="M1332.1,679.7l9.8-0.3c0,0-17.9,4.6-23.6-1.2c0,0-1.5-0.9,0.8-3c0,0,15.8-0.5,22.7-2.5
					c0,0-15.6,3.8-26.8,2.7c0,0-4.4-2.9,0.3-5.5c-3.5-1.4-0.5-3.7-0.5-3.7s3.2-1.8,10.6-4.1c0,0,11.4-3.7,24.4-9.5
					c0,0-10.3-6.7-6.4-12.2l15.9,8.4l14.4,9.3l1.9,9.7l-15,10.4c0,0-14.6,5.8-22.8,6.1C1337.9,684.3,1314.3,683.4,1332.1,679.7z"/>
				<path class="st25" d="M1698.5,1050.9l41.1,256.4c0,0,13.6,13.1,45.3,0l5.3-125.3c0,0,9.3-82.8-23.5-141.8
					C1766.7,1040.2,1702.1,988.1,1698.5,1050.9z"/>
				<path class="st24" d="M1661.9,1043.2c0,0,17.5,25.3,1.8,120.4l-16.1,129.9c0,0-18.5,11.1-39.3,0.5l-12.9-258.7
					C1595.5,1035.3,1607.1,991.3,1661.9,1043.2z"/>
			</g>
		</g>
		<g class="st16">
			<path class="st28" d="M1361.7,730.2c0-3.1-1.7-5.9-5-8.2c-0.5-0.4-1.1-0.7-1.7-1c-0.2-0.1-0.4-0.2-0.6-0.3
				c-0.4-0.2-0.9-0.4-1.3-0.6c-0.1,0-0.2-0.1-0.3-0.1c-0.1,0-0.2-0.1-0.3-0.1c-0.7-0.3-1.5-0.5-2.2-0.8c0,0,0,0,0,0c0,0,0,0,0,0
				c-0.8-0.2-1.6-0.4-2.4-0.6c-0.1,0-0.2-0.1-0.3-0.1c-0.1,0-0.2,0-0.3-0.1c-1-0.2-1.9-0.4-2.9-0.6c0,0,0,0-0.1,0
				c-0.1,0-0.2,0-0.2,0c-1-0.2-2.1-0.3-3.1-0.5c-0.1,0-0.2,0-0.3,0c-1.1-0.1-2.2-0.3-3.3-0.4c-0.1,0-0.1,0-0.2,0
				c-0.9-0.1-1.8-0.2-2.7-0.3c-1.1-0.1-2.1-0.2-3.2-0.4c-0.2,0-0.4,0-0.6-0.1c-1-0.1-2-0.3-3-0.4c-0.5-0.1-1-0.2-1.6-0.3
				c-1-0.2-2.1-0.4-3.2-0.6c-0.2,0-0.4-0.1-0.6-0.1c-0.8-0.2-1.5-0.4-2.3-0.5c0,0,0,0-0.1,0c-0.8-0.2-1.5-0.4-2.3-0.6
				c-0.2-0.1-0.5-0.1-0.7-0.2c-0.5-0.2-1-0.3-1.5-0.5c-0.3-0.1-0.5-0.2-0.7-0.3c-0.5-0.2-1-0.4-1.5-0.6c-0.2-0.1-0.4-0.1-0.6-0.2
				c-0.6-0.3-1.3-0.5-1.9-0.8c-0.9-0.4-5.6-3.1-8.4-5.5l0.6,69.7c2.7,2.3,7.4,5,8.4,5.5c0.6,0.3,1.2,0.5,1.9,0.8c0,0,0.1,0,0.1,0.1
				c0.1,0.1,0.3,0.1,0.4,0.2c0.5,0.2,1,0.4,1.6,0.6c0.2,0.1,0.5,0.2,0.7,0.2c0.5,0.2,1,0.3,1.6,0.5c0.1,0,0.3,0.1,0.4,0.1
				c0.1,0,0.2,0,0.2,0.1c0.8,0.2,1.5,0.4,2.3,0.6c0,0,0,0,0,0c0.8,0.2,1.6,0.4,2.3,0.6c0.1,0,0.1,0,0.2,0c0.1,0,0.2,0,0.3,0.1
				c1.1,0.2,2.1,0.5,3.2,0.6c0.4,0.1,0.9,0.2,1.3,0.2c0.1,0,0.2,0,0.3,0c1,0.2,2,0.3,3,0.4c0.2,0,0.4,0.1,0.6,0.1
				c1,0.1,2.1,0.2,3.1,0.4c0,0,0,0,0,0c0.7,0.1,1.4,0.2,2,0.2c0.3,0,0.6,0.1,0.8,0.1c1.1,0.1,2.3,0.3,3.4,0.4c0.1,0,0.2,0,0.3,0
				c1.1,0.1,2.1,0.3,3.1,0.5c0.1,0,0.2,0,0.3,0c1,0.2,2,0.4,2.9,0.6c0.2,0,0.4,0.1,0.6,0.1c0.8,0.2,1.6,0.4,2.4,0.6
				c0.8,0.2,1.5,0.5,2.3,0.8c0.2,0.1,0.4,0.2,0.6,0.2c0.5,0.2,0.9,0.4,1.3,0.6c0.2,0.1,0.4,0.2,0.6,0.3c0.6,0.3,1.2,0.6,1.7,1
				c3.4,2.3,5,5.1,5,8.2L1361.7,730.2z"/>
			<path class="st29" d="M1260.7,883.6c0.2-0.1,0.5-0.1,0.7-0.2c0.3-0.1,0.6-0.1,1-0.2c0.3,0,0.5-0.1,0.8-0.1c0.2,0,0.5-0.1,0.7-0.1
				l0.5,58.4l96.7,65.2l-0.6-69.7l-80.1-54c1.2,0.1,2.3,0.3,3.5,0.5c0.3,0,0.5,0.1,0.8,0.1c0.4,0.1,0.9,0.2,1.3,0.2
				c0.3,0.1,0.6,0.1,1,0.2c0.4,0.1,0.8,0.2,1.3,0.3c0.3,0.1,0.6,0.1,0.9,0.2c0.7,0.2,1.4,0.3,2.1,0.5c0.2,0,0.4,0.1,0.6,0.1
				c0.9,0.2,1.7,0.5,2.6,0.7c0.2,0,0.3,0.1,0.5,0.1c1.2,0.4,2.4,0.7,3.5,1.1c0.1,0,0.1,0,0.2,0.1c1.2,0.4,2.3,0.8,3.5,1.3
				c0.1,0,0.2,0.1,0.3,0.1c1.3,0.5,2.6,1.1,3.9,1.7c0.1,0,0.1,0.1,0.2,0.1c1.3,0.6,2.6,1.2,3.9,1.9c0,0,0.1,0,0.1,0.1
				c1.3,0.7,2.6,1.4,3.8,2.1c0,0,0,0,0.1,0c1.3,0.8,2.5,1.5,3.7,2.3c10.7,7.2,16.3,15.3,16.3,22.2c-0.2-23.2-0.4-46.5-0.6-69.7
				c-0.1-6.9-5.7-15-16.3-22.2c-1.2-0.8-2.4-1.6-3.7-2.3c0,0,0,0-0.1,0c-1.2-0.7-2.5-1.4-3.8-2.1c0,0-0.1,0-0.1-0.1
				c-1.3-0.7-2.6-1.3-3.9-1.9c-0.1,0-0.1-0.1-0.2-0.1c-1.3-0.6-2.6-1.1-3.9-1.7c0,0-0.1,0-0.1,0c-0.1,0-0.1,0-0.2-0.1
				c-1.2-0.5-2.3-0.9-3.5-1.3c0,0-0.1,0-0.1,0c-1.2-0.4-2.4-0.8-3.6-1.1c-0.1,0-0.2-0.1-0.3-0.1c-0.1,0-0.1,0-0.2,0
				c-0.9-0.3-1.7-0.5-2.6-0.7c-0.2,0-0.4-0.1-0.5-0.1c-0.7-0.2-1.4-0.4-2.1-0.5c-0.1,0-0.3-0.1-0.4-0.1c-0.1,0-0.3-0.1-0.4-0.1
				c-0.4-0.1-0.9-0.2-1.3-0.3c-0.3-0.1-0.6-0.1-0.9-0.2c-0.4-0.1-0.9-0.2-1.3-0.2c-0.2,0-0.4-0.1-0.6-0.1c-0.1,0-0.1,0-0.2,0
				c-1.2-0.2-2.4-0.4-3.6-0.5c-0.1,0-0.2,0-0.3,0c-0.1,0-0.1,0-0.2,0c-1-0.1-2.1-0.2-3.1-0.3c-0.1,0-0.2,0-0.3,0c-0.1,0-0.2,0-0.3,0
				c-1.9-0.1-3.7-0.2-5.5-0.1c-0.1,0-0.2,0-0.3,0c-0.1,0-0.2,0-0.3,0c-0.9,0-1.7,0.1-2.6,0.1c0,0,0,0-0.1,0c0,0-0.1,0-0.1,0
				c-0.9,0.1-1.8,0.2-2.6,0.3c-0.1,0-0.2,0-0.3,0c-0.1,0-0.1,0-0.2,0c-0.4,0.1-0.7,0.1-1,0.2c-0.2,0-0.5,0.1-0.7,0.1
				c-0.4,0.1-0.7,0.2-1.1,0.2c-0.2,0-0.4,0.1-0.6,0.1c0,0-0.1,0-0.1,0c-0.8,0.2-1.5,0.4-2.2,0.6c-0.2,0.1-0.3,0.1-0.5,0.2
				c-0.7,0.2-1.4,0.5-2.1,0.8c-0.5,0.2-1,0.5-1.5,0.7c-0.1,0.1-0.3,0.2-0.4,0.2c-0.2,0.1-0.3,0.2-0.5,0.3c-0.1,0.1-0.3,0.2-0.4,0.3
				c-0.2,0.1-0.3,0.2-0.5,0.3c-0.3,0.2-0.5,0.4-0.8,0.5c-0.1,0.1-0.3,0.2-0.4,0.3c0,0-0.1,0.1-0.2,0.1c-0.3,0.2-0.6,0.5-0.8,0.7
				c0,0-0.1,0.1-0.1,0.1c-0.2,0.2-0.4,0.4-0.6,0.6c-0.1,0.1-0.1,0.1-0.2,0.2c-0.1,0.1-0.2,0.2-0.3,0.3c-0.2,0.2-0.4,0.4-0.5,0.7
				c-0.1,0.1-0.2,0.2-0.2,0.3c0,0.1-0.1,0.1-0.1,0.2c-0.1,0.1-0.1,0.2-0.2,0.3c-0.1,0.2-0.3,0.4-0.4,0.6c-0.1,0.2-0.2,0.3-0.3,0.5
				c-0.1,0.2-0.2,0.4-0.4,0.6c0,0.1-0.1,0.1-0.1,0.2c0,0.1-0.1,0.2-0.1,0.2c-0.2,0.4-0.4,0.7-0.5,1.1c0,0.1-0.1,0.2-0.1,0.3
				c-0.2,0.5-0.4,1-0.7,1.5c-0.2,0.4-0.3,0.8-0.5,1.2c-0.1,0.1-0.1,0.3-0.2,0.4c-0.2,0.5-0.4,0.9-0.6,1.4c-0.1,0.2-0.3,0.5-0.4,0.7
				c-0.1,0.1-0.1,0.2-0.2,0.3c-0.2,0.3-0.4,0.7-0.6,1c-0.1,0.2-0.3,0.4-0.4,0.6c-0.2,0.3-0.5,0.6-0.7,0.9c-0.1,0.1-0.2,0.3-0.3,0.4
				c-0.3,0.4-0.7,0.8-1,1.2c0,0-0.1,0.1-0.1,0.1c-0.4,0.4-0.8,0.8-1.2,1.2c-0.1,0.1-0.2,0.2-0.4,0.3c-0.3,0.3-0.6,0.6-0.9,0.8
				c-0.2,0.1-0.3,0.3-0.5,0.4c-0.3,0.3-0.7,0.5-1,0.8c-0.2,0.1-0.3,0.2-0.5,0.4c-0.5,0.4-1,0.7-1.6,1c0,0-0.1,0.1-0.2,0.1
				c0,0,0,0-0.1,0c-0.1,0-0.1,0.1-0.2,0.1c0,0-0.1,0-0.1,0.1c-0.1,0-0.2,0.1-0.3,0.1c-0.1,0-0.1,0.1-0.2,0.1c-0.1,0-0.2,0.1-0.3,0.1
				c-0.1,0-0.2,0.1-0.3,0.1c-0.1,0-0.2,0.1-0.3,0.1c-0.1,0.1-0.2,0.1-0.3,0.2c-0.1,0-0.2,0.1-0.3,0.1c-0.1,0.1-0.2,0.1-0.4,0.2
				c-0.2,0.1-0.3,0.2-0.5,0.2c-0.1,0-0.2,0.1-0.2,0.1c-0.3,0.1-0.5,0.2-0.8,0.4c-1.8,0.8-4,1.7-5.9,2.4l-96.8-65.3l0.6,69.7
				l96.8,65.3c2-0.7,4.1-1.6,5.9-2.4c0.5-0.2,1-0.5,1.5-0.7c0,0,0,0,0,0c0.2-0.1,0.4-0.2,0.6-0.3c0,0,0,0,0,0
				c0.2-0.1,0.3-0.1,0.4-0.2c0.1,0,0.1-0.1,0.2-0.1c0.1-0.1,0.2-0.1,0.3-0.2c0.1,0,0.1-0.1,0.2-0.1c0.1,0,0.2-0.1,0.2-0.1
				c0.1,0,0.1-0.1,0.2-0.1c0.1,0,0.1-0.1,0.2-0.1c0.1,0,0.1-0.1,0.2-0.1c0,0,0.1,0,0.1-0.1c0,0,0.1,0,0.1-0.1c0,0,0,0,0,0
				c0.5-0.3,1.1-0.7,1.6-1.1c0.2-0.1,0.3-0.2,0.5-0.3c0.3-0.3,0.7-0.5,1-0.8c0.1-0.1,0.2-0.1,0.2-0.2c0.1-0.1,0.1-0.1,0.2-0.2
				c0.3-0.3,0.6-0.6,0.9-0.8c0.1-0.1,0.3-0.2,0.4-0.4c0.4-0.4,0.8-0.8,1.2-1.2c0,0,0,0,0,0c0,0,0.1-0.1,0.1-0.1
				c0.4-0.4,0.7-0.8,1-1.2c0.1-0.1,0.2-0.3,0.3-0.4c0.2-0.3,0.5-0.6,0.7-0.9c0.1-0.1,0.1-0.2,0.2-0.2c0.1-0.1,0.2-0.3,0.3-0.4
				c0.2-0.3,0.4-0.7,0.6-1c0.1-0.1,0.1-0.3,0.2-0.4c0.1-0.2,0.2-0.4,0.3-0.6c0,0,0,0,0,0c0.2-0.5,0.4-0.9,0.7-1.4
				c0.1-0.1,0.1-0.3,0.2-0.4c0.2-0.4,0.3-0.8,0.5-1.1c0.2-0.5,0.4-1,0.7-1.5c0-0.1,0.1-0.1,0.1-0.2c0.2-0.4,0.4-0.8,0.5-1.2
				c0.1-0.2,0.2-0.3,0.2-0.4c0.1-0.2,0.2-0.4,0.4-0.7c0.1-0.2,0.2-0.3,0.3-0.5c0.1-0.2,0.3-0.4,0.4-0.6c0.1-0.2,0.2-0.3,0.3-0.5
				c0.1-0.1,0.2-0.2,0.2-0.3c0.2-0.2,0.3-0.4,0.5-0.6c0.1-0.1,0.2-0.2,0.3-0.3c0.2-0.3,0.5-0.5,0.8-0.8c0,0,0.1-0.1,0.1-0.1
				c0.3-0.3,0.6-0.6,1-0.8c0.1-0.1,0.3-0.2,0.4-0.3c0.2-0.2,0.5-0.4,0.8-0.6c0.2-0.1,0.3-0.2,0.5-0.3c0.3-0.2,0.6-0.4,0.9-0.5
				c0.1-0.1,0.3-0.1,0.4-0.2c0.5-0.3,1-0.5,1.5-0.7c0.7-0.3,1.4-0.5,2.1-0.8c0.2-0.1,0.3-0.1,0.5-0.2
				C1259.3,884,1260,883.8,1260.7,883.6z"/>
			<g>
				<polygon class="st30" points="1660.1,810.9 1660.7,880.6 1361.1,1006.6 1360.5,937 				"/>
			</g>
			<g>
				<path class="st31" d="M1126.8,779.3l123.9-52.2c4.2,2.5,9.2,6.7,9.7,7.4c5.8,7.6-1.7,18,8,24.6c12,8.1,41.4,6.3,65.8-3.9
					c0.7-0.3,1.3-0.6,2-0.9c22.9-10.2,32.1-24.5,20.4-32.3c-7.4-5-20.3-4.7-30.7-6.6c-5.4-1-11-2.5-15.3-4.5
					c-0.9-0.4-5.6-3.1-8.4-5.5l124.1-52.2l233.7,157.7L1360.5,937l-96.7-65.2c0.4-0.2,0.8-0.4,1.2-0.6c4.8-2.1,11.7-4.4,12.8-4.7
					c14.4-3.2,33.9,0.7,46.4-4.6c15.3-6.8,12.2-22.2-6.6-34.9c-19-12.8-46.8-18-62.2-11.5c-9.5,4.2-9.1,10.9-12.8,16.4
					c-1.9,2.9-4.8,5.9-8.6,8.2c-0.5,0.3-2.2,1.2-4.4,2.1c-1.8,0.8-4,1.7-5.9,2.4L1126.8,779.3z"/>
			</g>
		</g>
		<g>
			<path class="st13" d="M706.7,1107.6c0,0,10.3-6.7,0.4-18.9c-25.4-1.6-55.4-15.4-55.4-15.4c-37.4-11.8-89.9-69.7-113.8-96
				c-26.9-29.6-67.5-4.5-45.7,29.3c40.8,63.2,148.1,104.8,213.9,102.4"/>
			<path class="st32" d="M428.3,1401.5c15.6-73,20.3-242.1,20.3-242.1s-12.5-16.6-57.6-19.5c-45.2-2.9-42.1,24.9-41.9,21.3
				c0,0,0,119.7,20.8,237.5C369.8,1398.6,402,1420.8,428.3,1401.5z"/>
			<path class="st33" d="M349.5,1169.4c-4.4-30.2,4.8-60.7,9.5-91.2h137.4c8.8,29.3,17.9,59.4,17.9,59.4s5.9,69.3-52.9,77.6
				C461.4,1215.1,358.9,1232.9,349.5,1169.4z"/>
			<path class="st1" d="M268.9,1696.6c0,58.2,106.1,105.4,237,105.4c130.9,0,237-47.2,237-105.4c0-58.2-106.1-105.4-237-105.4
				C375,1591.2,268.9,1638.4,268.9,1696.6z"/>
			<g>
				<path class="st23" d="M643.7,1692.8l-7.8-0.5c-2.7-0.4-2.6,3.8-3,3.9c-8.2,3.2-15.5,5.7-18.5,5.9c0,0-14.5-1.9-16-6.3l2-26.9
					c16.1-1.4,33-4.5,33-4.5l35.5-5c17.1-1.8,20.2,4.4,20.2,4.4S699.4,1679.6,643.7,1692.8z"/>
				<path class="st34" d="M622.2,1691.2c2.6-1.2,6.4-2.5,9.2-3c17.5-3.1,34.6-4.8,49.2-16c3.6-2.7,6.1-6.2,6.3-10.2
					c1.6,1.1,2.1,2,2.1,2s10.4,15.6-45.3,28.8l-7.8-0.5c-2.7-0.4-2.6,3.8-3,3.9c-8.2,3.2-15.5,5.7-18.5,5.9c0,0-14.5-1.9-16-6.3
					l0.5-6.5C604.6,1692.7,614.7,1694.7,622.2,1691.2z"/>
			</g>
			<g>
				<path class="st23" d="M406.8,1686.2l-7.8-0.5c-2.7-0.4-2.6,3.8-3,3.9c-8.2,3.2-15.5,5.7-18.5,5.9c0,0-14.5-1.9-16-6.3l2-26.9
					c16.1-1.4,33-4.5,33-4.5l35.5-5c17.1-1.8,20.2,4.4,20.2,4.4S462.5,1672.9,406.8,1686.2z"/>
				<path class="st34" d="M385.3,1684.6c2.6-1.2,6.4-2.5,9.2-3c17.5-3.1,34.6-4.8,49.2-16c3.6-2.7,6.1-6.2,6.3-10.2
					c1.6,1.1,2.1,2,2.1,2s10.5,15.6-45.3,28.8l-7.8-0.5c-2.7-0.4-2.6,3.8-3,3.9c-8.2,3.2-15.5,5.7-18.5,5.9c0,0-14.5-1.9-16-6.3
					l0.5-6.5C367.7,1686,377.8,1688,385.3,1684.6z"/>
			</g>
			<path class="st32" d="M403.8,1664.4c5.8-6.9,24.9-261.6,24.9-261.6c3.2-39.2-61.9-22.7-61.9-22.7c-9.5,39-7.9,46.3-10.9,94.7
				c-1.2,19.1,1.9,177.3,1.2,189.5C356.9,1664.2,387.2,1684.2,403.8,1664.4z"/>
			<path class="st35" d="M453.7,1113.6c0,0,39.1,66.6,15,110.1c-24.1,43.5-125.4-3.8-119.2-54.2
				C356.4,1114.2,406.5,1090.2,453.7,1113.6z"/>
			<path class="st7" d="M481.8,1028.7c6.4,22.6,32.5,108.8,32.5,108.8c-71.8,67.7-164.4,14-165.3,3.8c-1.1-12.2,12.6-59,15-109.5
				C364,1031.9,389.6,992.5,481.8,1028.7z"/>
			<path class="st4" d="M512,1408.1"/>
			<path class="st35" d="M568.1,1388.9c-7.6-74.3-60.5-263.8-60.5-263.8s-15.5-14.2-59.3-3.1c-43.9,11.2-48.7,68.3-49.6,64.8
				c0,0,51,119.9,118.8,225.6C517.6,1412.4,550.3,1429.2,568.1,1388.9z"/>
			<path class="st35" d="M634.2,1661.5c-1.3-9-67.3-275.1-67.3-275.1c-15.5-32.8-60.2,1.7-60.2,1.7c0.2,23.8,0.8,52.6,16.2,98.5
				c6.1,18.2,62.2,182.5,66.1,194C589,1680.7,622.2,1691.2,634.2,1661.5z"/>
			<g>
				<path class="st5" d="M312.3,856.2c0,0-7.1,119.5-2.6,167.8c0,0,0,21.9,38.6,32.9c0,0,14.1-133.1,25.5-192.5
					C373.8,864.5,351,820.4,312.3,856.2z"/>
				<path class="st5" d="M355.4,887.1c-15.8,6.7-34.2-0.6-40.9-16.3c-6.8-15.7,0.6-33.9,16.5-40.6c15.8-6.7,34.2,0.6,40.9,16.3
					C378.6,862.3,371.3,880.4,355.4,887.1z"/>
			</g>
			<path class="st36" d="M339.2,822.4c0,0-28.2,6.5-29.7,39.3l-4.6,117.8c0,0,28.2,18.7,64.7,15.5
				C369.6,995.1,411.8,837.7,339.2,822.4z"/>
			<path class="st7" d="M507,1429.6"/>
			<path class="st7" d="M445.8,747.6c0,0,0.3,42.1,3.9,84l-55.5-9.2c0,0,8.1-19.1-3.3-36.3L445.8,747.6z"/>
			<path class="st7" d="M339.2,822.4c-13.9,10.2-15.5,34.6-10.6,49.8c5.7,17.5,8,39.8,13.7,65.1c7.8,34.3,13,60.6,21.7,94.6
				c7.2,28.1,120.2,5.5,120.2,5.5l40.5-138.4c0,0,7-36.1-25.8-48.2c0,0-34.5-18.6-59.7-27.2c-22.3-7.6-30.4-8.3-53.3-6.8
				C385.9,816.7,355.3,817.8,339.2,822.4z"/>
			<path class="st35" d="M504.8,1110.1c0,0,24.1,38.8,0,82.3c-24.1,43.5-97.5,27.7-97.7-28.7
				C406.9,1108.1,457.6,1086.8,504.8,1110.1z"/>
			<path class="st36" d="M385.9,816.7c0,0-30.7,1.1-46.7,5.7c-14.5,10.6-14.2,31.4-11.4,47.2c5.3,30.1,10.8,60.6,13.6,91
				c1.2,13.5,4.6,41,5.6,54.5c1,13.1,5.1,20.3,18.6,27.3c10.2,5.3,17.8,1.1,28.9,1.4c28.3,0.8,56.2-2.3,84.2-5.8
				c1.2-0.1,44.9,29.3,30.5,7.7l15.6-146.7c0,0,7-36.1-25.8-48.2c0,0-23-14.4-48.3-23C450.7,827.8,406.8,828.9,385.9,816.7z"/>
			<path class="st13" d="M464.5,796.2l2.4-9.1c0,0,5.6-33.7,5.6-33.7c0.7-4.2,0.2-9.7-1.1-13.9c-1.3-4.5-2.4-9.2-1.7-14.2
				c3.2-24.1-10.3-36.1-10.3-36.1c-15.7-20.7-48.5-17.8-48.5-17.8c-17,2.6-31.8,9.6-40.2,25.1c-7.7,14-11.8,31.2-7.3,46.8
				c5,17.2,14.6,30.6,27.3,42.8c8.2,7.8,16.5,8.8,27.2,12.7c7.4,2.7,21.7,4.3,29.5,4.4C451.6,803.1,463.1,801.5,464.5,796.2z"/>
			<path class="st37" d="M458,703.2l-5.2,20.9c-6,2.6-8.3,4.9-7.5,12.7l1.9,17.3l-4.7,1.8c0.4-6.9-9.2-7-9.2-7
				c-7-0.4-8.2,5.6-7.8,11.3c1,15-4.4,38.7-16.9,42.9c-5,1.7-14.3,3.4-15.8-3.3c-1.9-8.2-17.4-24.5-17.4-24.5
				c-18.7-18.1-23.3-48.9-14.5-72.5c2.7-7.1,7.9-14.6,13.4-19.8c11.6-11.1,26.3-16.6,41.7-18.6c0,0,21.3-2.6,33.2,5.8
				c7.4,5.2,12.3,10,15.4,14.1C464.5,684.3,469,693.9,458,703.2z"/>
			<g>
				<g>
					<g>
						<g>
							<g>
								<path class="st13" d="M440.9,770.6c-1.4,1.2-3.2,1.9-5.5,2.1c-6.2,0.3-11.7-5.2-12.3-12.2c-0.6-7.1,4-13,10.2-13.3
									c2.9-0.1,5.7,1,7.9,3c3.2,2.9,3.6,8.7,3.2,12.7C444,766,442.9,768.8,440.9,770.6z"/>
							</g>
						</g>
					</g>
				</g>
			</g>
			<g>
				<g>
					<path class="st14" d="M436.2,753.5c-0.6-3.7-7.9,0.3-6.6,2.4c0.7,1.2,2.1,2,3.2,2.7c1.5,1.1,2.2,2.1,2.6,3.9
						c0,0.2,0.1,0.9-0.1,1c-0.9,0.7-4.3-2.7-5.1-3.4c-1.5-1.4-1.8-4-1.3-5.9c0.6-2,1.8-3,3.9-3c1.7,0,3.4,0,3.4,2.1
						C436.3,753.3,436.2,753.7,436.2,753.5L436.2,753.5z"/>
				</g>
				<g>
					<path class="st14" d="M434,757.5c0.7-0.8,1.5-0.2,2.4,0.3c0.8,0.5,1.2,1.2,1.5,2.1c0.6,1.9,0.5,4.5-0.5,6.2
						c-0.8,1.4-2.3,2.3-3.9,2.4c-2.3,0.1-3.1-1.9-3.3-3.8c-0.1-0.5-0.2-1.7,0.3-2.1c0.5-0.4,1,0.4,1.3,0.8c0.5,0.4,1.3,0.6,2,0.6
						c1.3,0,2.5-0.7,3.3-1.7c0.1-0.2,0.2-0.4,0.3-0.6c0.1,1.3,0,1.5-0.1,0.9c-0.1-0.3-0.3-0.6-0.5-0.9c-0.6-0.8-1.5-1.4-2.1-2.2
						C434.3,759.2,433.7,757.9,434,757.5L434,757.5z"/>
				</g>
			</g>
			<g>
				<path class="st7" d="M745.9,1094.9c-2.9-4.3-0.4-6.5-6.2-6.7c-6.6-0.2-12.6-3.5-17.1-3.4c-7.8,0.2-37.5,7.1-17.6,24.1
					c4.6,4,17.9,21.7,27,16.4c13.5-7.8,8.9-4.9,15.8-21.7L745.9,1094.9z"/>
			</g>
			<path class="st7" d="M469.7,877.4c-10.4,16.2-5.7,37.7,10.5,48c16.2,10.4,37.7,5.7,48-10.5c10.4-16.2,5.7-37.7-10.5-48
				C501.6,856.6,480.1,861.3,469.7,877.4z"/>
			<path class="st36" d="M513.3,1006.2c4.5,47.4,7.4,163.5,7.4,163.5c-16.8,44.9-177.3,7-178.2-3.2c-1.1-12.2,2.2-98.5,4.6-148.9
				C347.2,1017.5,421.1,970,513.3,1006.2z"/>
			<path class="st36" d="M491.4,846.8c42.3,11.9,47.5,63,47.5,63l19.1,84c0,0-48,38.1-77.3,27.4c0,0-23.8-63.4-31.3-126.6
				C449.4,894.6,449.7,848.2,491.4,846.8z"/>
			<path class="st37" d="M467,702.7c-4.8,3.8-10.9,1.3-16.3,0.1c-7.4,8.7,1.5,17.5-9.8,21.7c-6,2.2-14.8,2.9-21.4,3.9
				c-5.3,0.9-10.6-0.4-14.4,3.6c-4.1,4.3-0.2,17.6-5,20.1c-8.4,4.5-15.1-18.7-25.8-16.8c-9.2,1.6-10.8,16.1-7.6,23.3
				c-1.1-0.9-1.8-1.3-2.4-1.6c-4.4-11.4-10-11.6-14.8-19.7c-7.5-12.6-6.2-9.6-7.7-21.7c0-0.1,1.5-5.3,1.5-5.4
				c3.5-12.9,9.5-15,12.4-20.5c3-5.8,7.7-9.8,11.7-14.9c3.6-4.7,5.4-11,9.5-15.2c6.3-6.3,16.6-9.5,25.2-10.7
				c9.3-1.2,18.1,4.5,27.4,2.9c3.8-0.7,7.3-4.1,11.1-3.9c4.6,0.3,7.8,4.8,11.8,6.6c7.4,3.3,19.1,2,25.5,7.2c7,5.8,5.5,14.1,1.2,21.2
				c-2.4,4-7.3,6.3-9.5,10.4C468.8,694.6,467.2,702.6,467,702.7z"/>
		</g>
		<g>
			<path class="st7" d="M1772.6,668.9c0,0-38.5,67.4-68.9,143.3c0,0,0.6,14.4,11.2,10c10.6-4.5,96.5-126.1,96.6-137.2
				C1811.7,656.6,1772.6,668.9,1772.6,668.9z"/>
			<path class="st7" d="M1683.1,841.1l9.3-3.2c0,0-15.7,9.7-22.9,5.8c0,0-1.7-0.4-0.1-3.1c0,0,14.9-5.2,21-9.2
				c0,0-13.8,8.2-24.8,10.5c0,0-5-1.4-1.3-5.3c-3.8-0.3-1.6-3.4-1.6-3.4s2.5-2.6,9-7.1c0,0,9.9-6.9,20.5-16.3c0,0-11.8-3.4-9.8-9.7
				l17.7,3.3l16.5,4.6l4.7,8.7l-11.2,14.4c0,0-12.2,9.9-20,12.6C1690,843.8,1667.2,850,1683.1,841.1z"/>
		</g>
		<g class="st16">
			<path class="st38" d="M1294.9,1073.5c0-3.1,1.6-5.9,5-8.1c0.5-0.4,1.1-0.7,1.7-1c0.2-0.1,0.4-0.2,0.6-0.3
				c0.4-0.2,0.8-0.4,1.3-0.6c0.1,0,0.2-0.1,0.3-0.1c0.1,0,0.2-0.1,0.3-0.1c0.7-0.3,1.4-0.5,2.2-0.7c0,0,0,0,0,0c0,0,0,0,0,0
				c0.8-0.2,1.5-0.4,2.3-0.6c0.1,0,0.2-0.1,0.3-0.1c0.1,0,0.2,0,0.4-0.1c0.9-0.2,1.9-0.4,2.8-0.5c0,0,0.1,0,0.1,0c0.1,0,0.2,0,0.3,0
				c1-0.2,1.9-0.3,2.9-0.4c0.1,0,0.3,0,0.4,0c1.1-0.1,2.1-0.3,3.2-0.4c0.1,0,0.1,0,0.2,0c0.2,0,0.5-0.1,0.7-0.1
				c0.7-0.1,1.4-0.2,2.2-0.2c1-0.1,2-0.2,3-0.4c0.2,0,0.4,0,0.6-0.1c1-0.1,2-0.3,2.9-0.4c0.5-0.1,1-0.2,1.5-0.3
				c1-0.2,2.1-0.4,3.1-0.6c0.2,0,0.4-0.1,0.6-0.1c0.7-0.2,1.5-0.3,2.2-0.5c0,0,0,0,0.1,0c0.7-0.2,1.5-0.4,2.2-0.6
				c0.2-0.1,0.5-0.1,0.7-0.2c0.5-0.2,1-0.3,1.5-0.5c0.3-0.1,0.5-0.2,0.7-0.3c0.5-0.2,1-0.4,1.5-0.5c0.2-0.1,0.4-0.1,0.6-0.2
				c0.6-0.3,1.3-0.5,1.9-0.8c0.9-0.4,5.5-3.1,8.2-5.4l-0.6,68.6c-2.7,2.3-7.3,4.9-8.2,5.4c-0.6,0.3-1.2,0.5-1.9,0.8
				c0,0-0.1,0-0.1,0.1c-0.1,0-0.3,0.1-0.4,0.2c-0.5,0.2-1,0.4-1.5,0.5c-0.2,0.1-0.5,0.2-0.7,0.2c-0.5,0.2-1,0.3-1.5,0.5
				c-0.2,0-0.3,0.1-0.5,0.1c-0.1,0-0.2,0-0.2,0.1c-0.7,0.2-1.5,0.4-2.2,0.6c0,0-0.1,0-0.1,0c-0.7,0.2-1.5,0.4-2.2,0.5
				c-0.1,0-0.2,0-0.2,0.1c-0.1,0-0.2,0-0.4,0.1c-1,0.2-2.1,0.4-3.1,0.6c-0.4,0.1-0.8,0.2-1.3,0.2c-0.1,0-0.2,0-0.3,0
				c-1,0.2-1.9,0.3-2.9,0.4c-0.2,0-0.4,0.1-0.7,0.1c-1,0.1-1.9,0.2-2.9,0.4c0,0-0.1,0-0.1,0c-0.7,0.1-1.4,0.2-2.1,0.2
				c-0.3,0-0.7,0.1-1,0.1c-1.1,0.1-2.1,0.2-3.2,0.4c-0.1,0-0.3,0-0.4,0c-1,0.1-2,0.3-2.9,0.4c-0.1,0-0.3,0-0.4,0.1
				c-1,0.2-1.9,0.3-2.9,0.5c-0.2,0-0.4,0.1-0.6,0.1c-0.8,0.2-1.6,0.4-2.3,0.6c0,0,0,0,0,0c-0.8,0.2-1.5,0.5-2.2,0.8
				c-0.2,0.1-0.4,0.2-0.6,0.2c-0.4,0.2-0.9,0.4-1.3,0.6c-0.2,0.1-0.4,0.2-0.6,0.3c-0.6,0.3-1.1,0.6-1.7,1c-3.3,2.3-4.9,5-5,8.1
				L1294.9,1073.5z"/>
			<path class="st38" d="M1027.2,1138.1c0-0.1-0.1-0.3-0.1-0.4c0-0.1-0.1-0.2-0.1-0.4c0,0,0-0.1,0-0.1c0-0.2,0-0.4-0.1-0.5
				c0-0.1,0-0.3,0-0.4c0-0.2,0-0.4,0-0.6c0-0.1,0-0.2,0-0.3c0,0,0-0.1,0-0.1l0.6-68.6c0,0.2,0,0.3,0,0.5c0,0.2,0,0.4,0,0.6
				c0,0.1,0,0.3,0,0.4c0,0.2,0,0.4,0.1,0.5c0,0.2,0.1,0.3,0.1,0.5c0,0.1,0.1,0.3,0.1,0.4c0,0.2,0.1,0.3,0.1,0.5
				c0,0.1,0.1,0.3,0.1,0.4c0,0.1,0,0.1,0.1,0.2c0.2,0.5,0.4,0.9,0.6,1.4c0,0,0,0,0,0c0.2,0.4,0.5,0.8,0.8,1.3c0,0.1,0.1,0.1,0.1,0.2
				c0.3,0.4,0.6,0.8,0.9,1.2c0.1,0.1,0.2,0.2,0.3,0.3c0.1,0.1,0.2,0.2,0.3,0.3c0.1,0.1,0.3,0.2,0.4,0.4c0.1,0.1,0.2,0.2,0.4,0.3
				c0.1,0.1,0.2,0.2,0.4,0.3c0.2,0.2,0.4,0.3,0.7,0.5c0.1,0.1,0.2,0.2,0.4,0.3c0.3,0.2,0.5,0.3,0.8,0.5c0.1,0.1,0.2,0.1,0.3,0.2
				c0.2,0.1,0.5,0.3,0.8,0.4c0.1,0.1,0.2,0.1,0.3,0.2c0.4,0.2,0.8,0.4,1.2,0.6c0.8,0.3,1.6,0.6,2.4,0.9c0.3,0.1,0.6,0.2,0.8,0.2
				c0.6,0.2,1.1,0.3,1.7,0.5c0.2,0,0.3,0.1,0.5,0.1c0.7,0.2,1.3,0.3,2,0.4c0.3,0,0.5,0.1,0.8,0.1c0.6,0.1,1.3,0.2,1.9,0.3
				c0.2,0,0.4,0.1,0.6,0.1c0.8,0.1,1.7,0.2,2.5,0.3c0.5,0,1.1,0.1,1.6,0.1c0.5,0,0.9,0.1,1.4,0.1c0.6,0,1.1,0,1.7,0.1
				c0.4,0,0.9,0,1.3,0c1.1,0,2.1,0,3.2,0.1c0,0,0.1,0,0.1,0c1.3,0,2.5,0,3.8,0c0.8,0,1.6,0,2.4,0c0.4,0,0.8,0,1.2,0
				c0.7,0,1.4,0,2.1,0c0.2,0,0.4,0,0.5,0c0.3,0,0.6,0,0.9,0c0.5,0,1,0,1.6,0.1c0.5,0,1,0.1,1.5,0.1c0.5,0,1,0.1,1.5,0.1
				c0.2,0,0.3,0,0.5,0v0l0,0v0c0.6,0,1.1,0.1,1.7,0.2c0.1,0,0.2,0,0.3,0c0.7,0.1,1.4,0.2,2.1,0.3c0.1,0,0.2,0,0.3,0
				c1,0.2,2.1,0.3,3.1,0.6c0,0,0.1,0,0.1,0c0,0,0.1,0,0.1,0c0,0,0.1,0,0.1,0c0.1,0,0.1,0,0.2,0.1c0.1,0,0.1,0,0.2,0.1
				c0.1,0,0.2,0.1,0.3,0.1c0.1,0,0.1,0,0.2,0.1c0.1,0,0.2,0.1,0.4,0.1c0.1,0,0.1,0,0.2,0.1c0.1,0,0.3,0.1,0.4,0.1
				c0.1,0,0.2,0.1,0.3,0.1c0.2,0,0.3,0.1,0.5,0.2c0.1,0,0.2,0.1,0.3,0.1c0.2,0.1,0.3,0.1,0.5,0.2c0.1,0,0.2,0.1,0.3,0.1
				c0.2,0.1,0.4,0.1,0.5,0.2c0.1,0,0.2,0.1,0.3,0.1c0.2,0.1,0.3,0.1,0.5,0.2c0.1,0,0.3,0.1,0.4,0.2c0.2,0.1,0.3,0.1,0.5,0.2
				c0.1,0.1,0.3,0.1,0.4,0.2c0.2,0.1,0.3,0.1,0.5,0.2c0.1,0.1,0.3,0.1,0.5,0.2c0.2,0.1,0.3,0.1,0.5,0.2c0.2,0.1,0.3,0.1,0.5,0.2
				c0.2,0.1,0.3,0.1,0.5,0.2c0.2,0.1,0.3,0.1,0.5,0.2c0.2,0.1,0.3,0.1,0.5,0.2c0.1,0.1,0.3,0.1,0.4,0.2c0.2,0.1,0.4,0.2,0.5,0.2
				c0.1,0.1,0.3,0.1,0.4,0.2c0.3,0.1,0.6,0.3,0.9,0.4c0.4,0.2,0.8,0.4,1.2,0.6l-0.6,68.5c-0.4-0.2-0.8-0.4-1.2-0.6
				c-0.3-0.1-0.6-0.3-0.9-0.4c-0.1,0-0.2-0.1-0.3-0.1c-0.2-0.1-0.4-0.2-0.6-0.3c-0.1,0-0.2-0.1-0.4-0.1c-0.2-0.1-0.4-0.2-0.6-0.2
				c-0.1-0.1-0.3-0.1-0.4-0.2c-0.2-0.1-0.4-0.1-0.6-0.2c-0.1-0.1-0.3-0.1-0.4-0.2c-0.2-0.1-0.4-0.1-0.5-0.2
				c-0.2-0.1-0.3-0.1-0.4-0.2c-0.2-0.1-0.3-0.1-0.5-0.2c-0.1-0.1-0.3-0.1-0.4-0.2c-0.2-0.1-0.3-0.1-0.5-0.2c-0.1,0-0.3-0.1-0.4-0.1
				c-0.2-0.1-0.3-0.1-0.5-0.2c-0.2-0.1-0.3-0.1-0.4-0.2c-0.1,0-0.3-0.1-0.4-0.1c-0.1-0.1-0.3-0.1-0.4-0.2c-0.1,0-0.3-0.1-0.4-0.1
				c-0.1,0-0.3-0.1-0.4-0.1c-0.1,0-0.3-0.1-0.4-0.1c-0.1,0-0.2-0.1-0.3-0.1c-0.1,0-0.2-0.1-0.3-0.1c-0.1,0-0.2-0.1-0.3-0.1
				c-0.1,0-0.2-0.1-0.3-0.1c-0.1,0-0.2-0.1-0.3-0.1c-0.1,0-0.2-0.1-0.2-0.1c-0.1,0-0.1,0-0.2-0.1c-0.1,0-0.1,0-0.2-0.1
				c-0.1,0-0.1,0-0.1,0c-0.1,0-0.1,0-0.2,0c-1-0.2-2-0.4-3.1-0.6c-0.8-0.1-1.6-0.2-2.4-0.3c-0.1,0-0.3,0-0.4,0
				c-0.7-0.1-1.4-0.1-2.1-0.2c-0.5,0-1-0.1-1.5-0.1c-0.5,0-1-0.1-1.5-0.1c-0.5,0-1,0-1.5-0.1c-0.5,0-1,0-1.5,0c-0.7,0-1.3,0-2,0
				c-0.4,0-0.8,0-1.3,0c-0.8,0-1.6,0-2.4,0c-1,0-2.1,0-3.1,0c-0.3,0-0.5,0-0.8,0c-1.1,0-2.1,0-3.2-0.1c-0.1,0-0.1,0-0.2,0v0l0,0v0
				c-0.4,0-0.9,0-1.3,0c-0.5,0-1.1,0-1.6-0.1c-0.5,0-0.9-0.1-1.4-0.1c-0.5,0-1-0.1-1.6-0.1c-0.1,0-0.1,0-0.2,0
				c-0.8-0.1-1.6-0.1-2.4-0.2c-0.2,0-0.4,0-0.6-0.1c-0.4-0.1-0.8-0.1-1.2-0.2v0l0,0v0c-0.3,0-0.5-0.1-0.8-0.1
				c-0.3,0-0.5-0.1-0.8-0.1c-0.7-0.1-1.3-0.3-2-0.4c-0.2,0-0.3-0.1-0.5-0.1c0,0-0.1,0-0.1,0c-0.5-0.1-1.1-0.3-1.6-0.4
				c-0.3-0.1-0.6-0.1-0.8-0.2c-0.8-0.3-1.6-0.6-2.4-0.9c-0.4-0.2-0.8-0.4-1.2-0.6c-0.1-0.1-0.3-0.1-0.4-0.2
				c-0.2-0.1-0.5-0.3-0.7-0.4c0,0-0.1,0-0.1,0c-0.1-0.1-0.2-0.1-0.3-0.2c-0.3-0.2-0.5-0.3-0.8-0.5c-0.1-0.1-0.2-0.2-0.4-0.3
				c-0.2-0.2-0.4-0.3-0.6-0.5c-0.1-0.1-0.1-0.1-0.2-0.2v0l0,0v0c-0.1,0-0.1-0.1-0.2-0.1c-0.1-0.1-0.2-0.2-0.3-0.3
				c-0.1-0.1-0.3-0.3-0.4-0.4c-0.1-0.1-0.2-0.2-0.3-0.3c-0.1-0.1-0.1-0.1-0.2-0.2c0,0-0.1-0.1-0.1-0.1c-0.3-0.4-0.7-0.8-0.9-1.2
				c0,0,0,0-0.1-0.1c0,0,0-0.1-0.1-0.1c-0.3-0.4-0.5-0.8-0.8-1.3c0,0,0,0,0,0c0,0,0,0,0,0c-0.2-0.4-0.4-0.9-0.6-1.4c0,0,0-0.1,0-0.1
				v0l0,0v0c0,0,0-0.1,0-0.1c0-0.1-0.1-0.2-0.1-0.4C1027.3,1138.4,1027.2,1138.2,1027.2,1138.1z"/>
			<g>
				<g>
					<polygon class="st39" points="1001.3,1152.9 1000.7,1221.4 1295.5,1345.5 1296.1,1276.9 					"/>
				</g>
			</g>
			<g>
				<polygon class="st38" points="1296.1,1276.9 1295.5,1345.5 1525.4,1190.3 1526,1121.7 				"/>
			</g>
			<g>
				<g>
					<path class="st40" d="M1526,1121.7l-121.9-51.3c-4.1,2.4-9,6.6-9.5,7.2c-5.7,7.5,1.7,17.7-7.9,24.2
						c-11.8,7.9-40.7,6.2-64.7-3.9c-0.7-0.3-1.3-0.6-2-0.9c-22.5-10-31.5-24.1-20.1-31.8c7.3-4.9,19.9-4.6,30.2-6.5
						c5.3-1,10.8-2.4,15.1-4.4c0.9-0.4,5.5-3.1,8.2-5.4l-122.1-51.4L1136,1062c-2-0.7-4.1-1.5-5.9-2.3c-2.2-1-3.8-1.8-4.3-2.1
						c-3.7-2.3-6.5-5.2-8.4-8.1c-3.6-5.4-3.3-12-12.2-15.9c-15.5-6.5-42.9-1.5-61.6,11.1c-18.5,12.5-21.5,27.6-7,34.1
						c12.8,5.4,31.9,1.6,46.1,4.7c1.1,0.2,7.8,2.5,12.5,4.6c0.4,0.2,0.8,0.4,1.2,0.6l-95.1,64.2l294.8,124L1526,1121.7z"/>
				</g>
			</g>
		</g>
		<g>
			<path class="st1" d="M1696.3,1836.9c0,41.4-75.4,74.9-168.4,74.9c-93,0-168.4-33.5-168.4-74.9c0-41.4,75.4-74.9,168.4-74.9
				C1620.9,1762,1696.3,1795.5,1696.3,1836.9z"/>
			<g>
				<g>
					<g>
						<path class="st5" d="M1442.6,1834.6c0,0-17.9-3.3-12.8,11.3c0,0,41.7,17.9,70.8,13.9c0,0,20.5-0.7,17.3-22.9l0.3-18l-27.5,5.2
							l1.6,17.1L1442.6,1834.6z"/>
					</g>
					<path class="st41" d="M1517.9,1836.9c0,2.9-0.9,5.6-2.7,7.7c-7.2,8.3-21.3,8.5-31.3,7.9c-15.7-1-32.1-3.4-47.6-6.7
						c-3.4-0.7-4.3-1.8-4.4-2.8c1.8-4,5-7.4,10.7-8.4l-15.2-1.9c-14-0.5-20.4,2.7-23.7,4.8c-3.9,11.1,15,18.5,15,18.5
						s20.1,7.6,44.3,12.4c0,0,53.4,12.6,59.8-3.8L1517.9,1836.9z"/>
				</g>
				<g>
					<g>
						<path class="st5" d="M1548.6,1809.8c0,0-17.9-3.3-12.8,11.3c0,0,41.7,17.9,70.8,13.9c0,0,20.5-0.7,17.3-22.9l0.3-18l-27.5,5.2
							l1.6,17.2L1548.6,1809.8z"/>
					</g>
					<path class="st41" d="M1623.9,1812.1c0,2.9-0.9,5.6-2.7,7.7c-7.2,8.3-21.3,8.5-31.3,7.9c-15.7-1-32.1-3.4-47.6-6.7
						c-3.4-0.7-4.3-1.8-4.4-2.8c1.8-4,5-7.4,10.7-8.4l-15.2-1.9c-14-0.5-20.4,2.7-23.7,4.8c-3.9,11.1,15,18.5,15,18.5
						s20.1,7.6,44.3,12.4c0,0,53.4,12.6,59.8-3.8L1623.9,1812.1z"/>
				</g>
				<g>
					<g>
						<path class="st42" d="M1543.7,1327.9c0,28.1,22.8,51,51,51c28.1,0,51-22.8,51-51c0-28.1-22.8-51-51-51
							C1566.5,1276.9,1543.7,1299.7,1543.7,1327.9z"/>
						<path class="st42" d="M1626.7,1573.2c0,0-0.7,12.8-23.7,13.1c0,0-21.8,7.4-31.2-20.9c-37.1-111.7-27.3-228.3-27.3-228.3
							s52.3-29.1,101.1-9.2C1645.6,1327.9,1637.7,1474.5,1626.7,1573.2z"/>
					</g>
					<path class="st42" d="M1571.8,1565.4c0,0,18,241.5,19.6,250.1c17.5,11.1,33-0.3,33-0.3c-0.1-11.8,12.8-110.6,14.2-129.1
						c2.3-31.9,6.1-72.1-14-117.9L1571.8,1565.4z"/>
					<g>
						<path class="st43" d="M1479,1580.6c0,0-4.9,11.8-26.7,4.5c0,0-23-0.2-22.5-30.1c2-117.7,53.6-239.7,53.6-239.7
							s58.1-5.5,97.5,29.4C1580.9,1344.7,1522.1,1491.1,1479,1580.6z"/>
						<path class="st43" d="M1484.7,1311c-9.3,26.6,4.6,55.6,31.2,65s55.6-4.6,65-31.2c9.3-26.6-4.7-55.6-31.2-65
							C1523.1,1270.5,1494,1284.4,1484.7,1311z"/>
					</g>
					<path class="st43" d="M1645.6,1320.4c-6.2-56.7-34.6-83-34.6-83l-98.5-12.4c0,0-27.2,47.3-30,95.4
						c11.8,32.1,53.7,41.5,53.7,41.5l31.9,9.5C1568.1,1371.4,1640.4,1360.4,1645.6,1320.4z"/>
					<g>
						<path class="st43" d="M1434.4,1578.4c0,0,48.9,253.6,51.8,261.9c-1.3-0.6,23.1,11.2,33.9-4.1c-1.8-11.7-2.9-140.5-4.3-159.1
							c-2.4-31.9-2.1-61.6-28.8-103.9C1486.9,1573.3,1420.2,1525.6,1434.4,1578.4z"/>
					</g>
				</g>
				<path class="st44" d="M1520.7,1759.5"/>
				<g>
					<g>
						<path class="st5" d="M1652.9,1134.3c0,0-17.9,21.1-53.6,72.2l6.2,10.5c0,0,61.1-30.8,80.6-65.4L1652.9,1134.3z"/>
					</g>
					<g>
						<path class="st5" d="M1602.4,1058.7c0,0,46,100.4,73.7,96.6c0,0,9.5,0.6,11.4-6.6c0,0,19.5-17.3-61.6-142.2
							c0,0-7.9-10.6-24.2-7.9C1601.7,998.7,1577,1015,1602.4,1058.7z"/>
					</g>
				</g>
				<g>
					<rect x="1528" y="980.1" class="st45" width="49.7" height="52.9"/>
				</g>
				<g>
					<path class="st7" d="M1497.2,981.3l-1.9-8.5c0,0-3.7-31-3.7-31c-0.5-3.9,0.4-8.9,1.8-12.6c1.6-4,2.9-8.3,2.5-12.9
						c-1.9-22.1,12.4-32.4,12.4-32.4c17-18,49.7-13.7,49.7-13.7c16.9,3.2,31.4,10.4,39,24.9c6.9,13.2,10.1,29,4.7,43
						c-6,15.4-16.4,27.1-29.9,37.6c-8.6,6.7-17.1,7.1-28,10.1c-7.6,2.1-22,2.8-29.9,2.4C1509.7,988.2,1498.3,986.2,1497.2,981.3z"/>
				</g>
				<g>
					<path class="st44" d="M1519.8,952.7"/>
				</g>
				<g>
					<path class="st44" d="M1519.8,952.7c2.5-3.5,11.4-5.6,11.4-5.6c10.8,0,9.4,14.4,10.4,20.7c0.3,2,0.7,4.1,1.2,6.2
						c5.1,18.3,20.5,18.2,33.7,20.4c0.5-0.3,1-0.6,1.5-0.9c2.4-8.1,10-16.6,10-16.6c19.8-17.1,26.2-47.8,18.7-72
						c-2.3-7.3-7.1-15.1-12.3-20.6c-11.1-11.8-25.5-18.2-40.9-21.1c-15.3-2.9-70.1,4.5-55.1,37.8
						C1498.4,900.9,1521,926.9,1519.8,952.7"/>
				</g>
				<g>
					<g>
						<g>
							<path class="st46" d="M1519.8,952.7c1.9-4.9,6.8-8.7,12.2-7.1c4,1.2,6.3,4.7,6,8.8c-0.1,0.9-0.3,1.8-0.4,2.7
								c-1.6,9.5-11.6,13.1-11.6,13.1"/>
						</g>
						<g>
							<path class="st47" d="M1531,950c-0.5-0.4-1.7-0.6-2.4-0.7c-3.6-0.2-6.5,5.4-2.9,6.4c1.4,1.3,0,2.9,0,2.9
								c-1.2,1.4-2.9,3.3-2.5,5.2c0.2,1.1,1.5,1.7,2.6,2c0.9,0.2,1.1-0.5,0.4-0.8c-0.6-0.3-1-0.7-1.4-1.1c0-0.1-0.1-0.1-0.1-0.2
								c0,0-0.1-0.1-0.1-0.1c-0.1-0.3-0.1-0.5,0-0.8c0.8,0.6,2.2,0.7,2.8,0c0.7-0.8,0.2-2.1,0.4-3.1c0.2-0.7,0.5-1.3,0.8-1.9
								c1.7-2.8-1.3-3.2-1.3-3.2c-0.5,0-0.8,0-1.1,0.1c-1.5-0.8,0.2-3.1,1.1-3.4c1.1-0.4,2.4-0.3,3.2,0.6c0.8,0.8,1.1,2.1,1,3.2
								c-0.1,1.3-0.4,2.6-1,3.8c-0.3,0.7-0.7,1.5-1.1,2.2c-0.4,0.8,0.5,1.1,0.9,0.3c0.8-1.6,2.3-4,2.6-6.3
								C1533.1,953,1532.7,951.2,1531,950z"/>
						</g>
						<g>
							<path class="st47" d="M1519.8,952.7c0,0,0.4-0.6,1.1-1.7c0.3-0.6,0.9-1.1,1.5-1.7c0.5-0.6,1.5-1.3,2.3-1.8
								c0.9-0.5,2-1,3.1-1.1c1.1-0.1,2.4-0.1,3.5,0.2c0.4,0.1,1.3,0.5,1.8,0.8c0.5,0.3,1,0.6,1.4,1.1c0.9,0.9,1.6,2,1.9,3.2
								c0.3,1.3,0.3,2.5,0.1,4l-0.1,1.1l0,0.1v0c0-0.1,0,0.2,0-0.1l0,0l0,0.1l-0.1,0.3l-0.1,0.5c-0.1,0.8-0.3,1.3-0.5,1.9
								c-0.4,1.2-1,2.4-1.7,3.4c-0.7,1-1.4,1.9-2.2,2.7c-1.5,1.6-3,2.7-4.1,3.4c-1.1,0.7-1.8,1.1-1.8,1.1s0.7-0.2,2-0.7
								c1.2-0.5,3-1.3,4.8-2.8c0.9-0.7,1.9-1.6,2.7-2.7c0.9-1,1.7-2.3,2.2-3.7c0.3-0.7,0.6-1.5,0.7-2.2l0.1-0.5l0.1-0.3l0-0.1l0-0.2
								l0-0.1l0.2-1.1c0.3-1.4,0.4-3.2,0-4.9c-0.4-1.7-1.4-3.2-2.7-4.3c-0.3-0.3-0.6-0.6-1-0.8l-1.1-0.6c-0.8-0.4-1.2-0.5-2.2-0.8
								c-1.5-0.4-3.1-0.3-4.5,0.1c-1.4,0.3-2.5,1.1-3.5,1.8c-1,0.8-1.6,1.5-2.2,2.4c-0.5,0.8-1,1.5-1.2,2.1
								C1520.1,951.9,1519.8,952.7,1519.8,952.7z"/>
						</g>
					</g>
					<g>
						<g>
							<path class="st0" d="M1526.1,967.7c0,1.7-1.3,3-3,3c-1.7,0-3-1.4-3-3c0-1.7,1.4-3,3-3
								C1524.7,964.7,1526.1,966.1,1526.1,967.7z"/>
						</g>
						<g>
							<path class="st48" d="M1523.8,969.4c-1.3,0-2.4-1.1-2.4-2.4c0-1.1,0.7-1.9,1.7-2.2l0,0c-1.7,0-3,1.4-3,3c0,1.7,1.4,3,3,3
								c1.7,0,3-1.4,3-3c0-0.1,0-0.1,0-0.2C1525.8,968.6,1524.9,969.4,1523.8,969.4z"/>
						</g>
					</g>
				</g>
				<g>
					<path class="st41" d="M1657.6,1261.1c-0.2-0.3-54.9-78.8-54.9-78.8c-2.6-11.6,3.2-34.6,3.2-34.6l17.6-120.7
						c-2.1-13.8-3-31.4-21.8-28.3c-13.2,2.2-15.8,4.1-24,6.7c2.4,11.2-17,18.4-17,18.4c-26.6,11.5-32.8,3.9-32.8,3.9
						c-7.1,3.8-31,15.8-37.3,20.9c-6.5,5.3-10.4,13.6-8.3,27.5l19.2,114.4l-3.4,28.4l-35,88.7c10.8-3.9,22.7-5.5,34.1-4.1
						c10.9,1.3,20.3,7.7,31.1,8.9c16.3,1.8,28.5-4.1,40.8-11.9c15-3.2,31-8.4,47.2-16.6c0.3,0,0.7,0,1,0c12.2,0.1,26.1-0.1,35.1-9.7
						C1654.3,1272.4,1659.9,1264.4,1657.6,1261.1z"/>
				</g>
				<g>
					<path class="st7" d="M1468.1,1231.8l0.3-139c3.4-38.1,22.3-44.2,22.3-44.2c38.2-4.5,32.3,66.4,32.3,66.4l-16,119.8"/>
				</g>
				<g>
					<path class="st7" d="M1346.3,1307.8c17.5-9.4,19.1-12.4,22.2-16.8c13.3-18.9-13.6-18.3-20.4-16.8c-3.9,0.9-4.1,10.2-16.2,21.5
						c0,0-19,11-23.7,10.2c0,0-4.9,0.7-4.9,4.2C1303.4,1310.1,1316.7,1318,1346.3,1307.8z"/>
				</g>
				<g>
					<g>
						<path class="st46" d="M1493.1,1212.7"/>
					</g>
					<g>
						<path class="st7" d="M1470.9,1217.2l-119.1,65.2c-5.1,14.3,1.5,16.4,1.5,16.4l92.2-26.5c39.4-10.5,55-27.1,55-27.1
							s17.2-11.9-4.8-29.7C1495.7,1215.5,1485.7,1207.6,1470.9,1217.2z"/>
					</g>
				</g>
				<g>
					<path class="st44" d="M1509.3,944.1c3.1,23.1-0.4,53.6,11.1,78.8c5.1,11.2,10.8,16.8,7.7,29.8c-2.5,10.7-7.5,20.7-10.3,31.7
						c-6,24.3,2.2,48.1,30.5,39.3c13.6-4.2,15.1-4.2,27.5,0.6c10.4,4,20.2,5.2,30.5,0.1c16-7.8,11.2-19.6,20.2-31.4
						c6.8-9,16.5-8.8,21.7-20.9c6.2-14.6-1.2-22.4-8.8-34.8c-7.9-12.9-9.2-21.4-6.6-37c2.2-13.1-1.1-19.7-5.4-31.7
						c-4.4-12.3-2.5-23.1-4.6-35.4c-4.2-24.4-17.5-57.6-43.1-64.8c-12.6-3.5-28.8-6.3-40.8-1.8c-16.4,6-34.8,12.5-34.1,32.7
						C1505.6,920.1,1506.5,923.6,1509.3,944.1z"/>
				</g>
				<path class="st7" d="M1351.3,1273.7c0,0,3.3,9.8-8.8,7.4l-11.9-9.1c0,0-3.7-2-2.4-5.5c0,0,1.4-2,5.2,0L1351.3,1273.7z"/>
			</g>
		</g>
	</g>
	<g>
		<path class="st49" d="M1621.6,183.9c0,22.7-18.4,41.1-41.1,41.1c-22.7,0-41.1-18.4-41.1-41.1c0-22.7,18.4-41.1,41.1-41.1
			C1603.2,142.8,1621.6,161.2,1621.6,183.9z"/>
		<path class="st49" d="M339.4,1911.8c0,22.7-18.4,41.1-41.1,41.1c-22.7,0-41.1-18.4-41.1-41.1c0-22.7,18.4-41.1,41.1-41.1
			C321,1870.7,339.4,1889.1,339.4,1911.8z"/>
		<path class="st50" d="M298.3,496.8c0,16.3-13.2,29.4-29.4,29.4c-16.3,0-29.4-13.2-29.4-29.4c0-16.2,13.2-29.4,29.4-29.4
			C285.1,467.4,298.3,480.6,298.3,496.8z"/>
		<path class="st50" d="M1993.7,717.7c0,16.2-13.2,29.4-29.4,29.4c-16.3,0-29.4-13.2-29.4-29.4c0-16.3,13.2-29.4,29.4-29.4
			C1980.6,688.3,1993.7,701.5,1993.7,717.7z"/>
		
			<ellipse transform="matrix(0.7071 -0.7071 0.7071 0.7071 30.1121 940.5096)" class="st51" cx="1150.4" cy="433.9" rx="29.4" ry="29.4"/>
		<path class="st52" d="M174.4,1115.2c0,16.3-13.2,29.4-29.4,29.4c-16.2,0-29.4-13.2-29.4-29.4c0-16.3,13.2-29.4,29.4-29.4
			C161.2,1085.8,174.4,1099,174.4,1115.2z"/>
		<path class="st52" d="M2017.3,1308.8c0,16.2-13.2,29.4-29.4,29.4c-16.2,0-29.4-13.2-29.4-29.4c0-16.3,13.2-29.4,29.4-29.4
			C2004.1,1279.3,2017.3,1292.5,2017.3,1308.8z"/>
		<path class="st36" d="M959,126.2c0,16.3-13.2,29.4-29.4,29.4c-16.3,0-29.4-13.2-29.4-29.4c0-16.3,13.2-29.4,29.4-29.4
			C945.8,96.8,959,110,959,126.2z"/>
		<path class="st36" d="M1881.3,1765.2c0,16.3-13.2,29.4-29.4,29.4c-16.3,0-29.4-13.2-29.4-29.4c0-16.2,13.2-29.4,29.4-29.4
			C1868.1,1735.8,1881.3,1749,1881.3,1765.2z"/>
	</g>
	<g>
		<g>
			<g>
				<line class="st53" x1="68.9" y1="1344.8" x2="161.2" y2="1344.8"/>
				<line class="st53" x1="174.9" y1="1344.8" x2="221.1" y2="1344.8"/>
			</g>
			<g>
				<line class="st54" x1="1856.8" y1="1541.7" x2="1964.3" y2="1541.7"/>
				<line class="st54" x1="1980.3" y1="1541.7" x2="2034.1" y2="1541.7"/>
			</g>
			<g>
				<line class="st53" x1="990.3" y1="1892" x2="898.1" y2="1892"/>
				<line class="st53" x1="884.3" y1="1892" x2="838.2" y2="1892"/>
			</g>
			<g>
				<line class="st53" x1="1769.7" y1="295.8" x2="1808.4" y2="295.8"/>
				<line class="st53" x1="1818.4" y1="295.8" x2="1851.9" y2="295.8"/>
				<line class="st53" x1="1724.8" y1="295.8" x2="1758.2" y2="295.8"/>
			</g>
			<line class="st53" x1="1896.3" y1="946.9" x2="2032.3" y2="946.9"/>
			<g>
				<line class="st53" x1="1190.5" y1="256.4" x2="1203.4" y2="269.2"/>
				<line class="st53" x1="1212.5" y1="278.3" x2="1225.3" y2="291.2"/>
				<line class="st53" x1="1225.3" y1="256.4" x2="1212.5" y2="269.2"/>
				<line class="st53" x1="1203.4" y1="278.3" x2="1190.5" y2="291.2"/>
			</g>
			<g>
				<line class="st53" x1="110.2" y1="689.4" x2="123" y2="702.2"/>
				<line class="st53" x1="132.1" y1="711.3" x2="145" y2="724.2"/>
				<line class="st53" x1="145" y1="689.4" x2="132.1" y2="702.2"/>
				<line class="st53" x1="123" y1="711.3" x2="110.2" y2="724.2"/>
			</g>
			<g>
				<line class="st53" x1="1079.1" y1="1491.5" x2="1091.9" y2="1504.4"/>
				<line class="st53" x1="1101" y1="1513.5" x2="1113.9" y2="1526.3"/>
				<line class="st53" x1="1113.9" y1="1491.5" x2="1101" y2="1504.4"/>
				<line class="st53" x1="1091.9" y1="1513.5" x2="1079.1" y2="1526.3"/>
			</g>
			<path class="st53" d="M464.5,437.3c0,8.8-7.1,16-16,16c-8.8,0-16-7.1-16-16c0-8.8,7.1-16,16-16
				C457.4,421.4,464.5,428.5,464.5,437.3z"/>
			<path class="st53" d="M1518.1,512.2c0,8.8-7.1,16-16,16c-8.8,0-16-7.2-16-16c0-8.8,7.1-16,16-16
				C1511,496.3,1518.1,503.4,1518.1,512.2z"/>
		</g>
	</g>
</g>
</svg>
