<?xml version="1.0" encoding="UTF-8"?>
<svg xmlns="http://www.w3.org/2000/svg" xmlns:xlink="http://www.w3.org/1999/xlink" id="Gradient" viewBox="0 0 512 512" width="512" height="512"><defs><linearGradient id="linear-gradient" x1="256" y1="496" x2="256" y2="16" gradientUnits="userSpaceOnUse"><stop offset="0" stop-color="#12bee5"/><stop offset="0.5" stop-color="#c071e9"/><stop offset="1" stop-color="#f24f5a"/></linearGradient></defs><path d="M483.578,336.845,456,323.056V40a24.028,24.028,0,0,0-24-24H32a8,8,0,0,0-8,8V488a8,8,0,0,0,8,8H480a8,8,0,0,0,8-8V344A8,8,0,0,0,483.578,336.845ZM440,40V320H424V40a23.889,23.889,0,0,0-1.376-8H432A8.009,8.009,0,0,1,440,40Zm-32,0V320H392V40a23.889,23.889,0,0,0-1.376-8H400A8.009,8.009,0,0,1,408,40ZM376,480H40V32H368a8.009,8.009,0,0,1,8,8Zm16,0V336h22.111L440,348.944V480Zm80,0H456V344a7.979,7.979,0,0,0-.8-3.455l16.8,8.4ZM280,144H136a8,8,0,0,0-8,8V296a8,8,0,0,0,8,8H280a8,8,0,0,0,8-8V152A8,8,0,0,0,280,144Zm-41.013,40H224c-3.134,0-8.038-3.389-10.343-5.657a8.03,8.03,0,0,0-11.292-.022C200.038,180.611,195.134,184,192,184H177.013a32,32,0,0,1,61.974,0ZM184,256h48A40.069,40.069,0,0,1,271.2,288H144.805A40.069,40.069,0,0,1,184,256Zm24-16a32.036,32.036,0,0,1-32-32v-8h16c6.205,0,11.968-2.957,16-5.724,4.032,2.767,9.795,5.724,16,5.724h16v8A32.036,32.036,0,0,1,208,240Zm-64-80h28.262A47.8,47.8,0,0,0,160,192v16a47.814,47.814,0,0,0,13.239,33.048A55.948,55.948,0,0,0,144,256.861Zm98.761,81.048A47.814,47.814,0,0,0,256,208V192a47.8,47.8,0,0,0-12.262-32H272v96.861A55.948,55.948,0,0,0,242.761,241.048ZM424,360v96a8,8,0,0,1-16,0V360a8,8,0,0,1,16,0ZM176,336a8,8,0,0,1,0-16h64a8,8,0,0,1,0,16Zm112,24a8,8,0,0,1-8,8H136a8,8,0,0,1,0-16H280A8,8,0,0,1,288,360Z" style="fill:url(#linear-gradient)"/></svg>
